<svg width="24" height="24" viewBox="0 0 24 24" fill="none" xmlns="http://www.w3.org/2000/svg">
<g clip-path="url(#clip0_3160_6512)">
<path d="M23.1481 9.471L22.3611 8.4C21.8158 7.65793 21.1039 7.0542 20.2827 6.63736C19.4615 6.22052 18.554 6.00222 17.6331 6H6.3841C5.48212 6.00236 4.59272 6.21176 3.78445 6.61209C2.97617 7.01241 2.2706 7.59296 1.7221 8.309L0.901096 9.383C0.234577 10.2623 -0.078796 11.3592 0.0226164 12.4579C0.124029 13.5566 0.632886 14.5776 1.4491 15.32L9.4391 23.027C10.1409 23.6528 11.0488 23.9979 11.9891 23.996C12.9493 23.9941 13.8751 23.638 14.5891 22.996L22.5251 15.363C23.346 14.6361 23.8652 13.6283 23.9804 12.5379C24.0957 11.4476 23.7988 10.3535 23.1481 9.471ZM20.7481 9.578L21.5351 10.652C21.6142 10.7619 21.6838 10.8783 21.7431 11H16.9521C16.8797 10.5211 16.755 10.0516 16.5801 9.6L15.9401 8H17.6331C18.2395 8.00115 18.8373 8.1445 19.3783 8.41856C19.9192 8.69261 20.3884 9.08973 20.7481 9.578ZM11.9911 20.088L9.2221 13.818C9.12194 13.5528 9.0463 13.279 8.9961 13H14.9481C14.9061 13.2199 14.8473 13.4362 14.7721 13.647L11.9911 20.088ZM9.1011 11C9.14292 10.8207 9.19534 10.6441 9.2581 10.471L10.2421 8H13.7861L14.7231 10.343C14.8054 10.5569 14.8722 10.7765 14.9231 11H9.1011ZM3.3121 9.521C3.67366 9.04935 4.13863 8.66695 4.67122 8.40326C5.20381 8.13957 5.7898 8.00161 6.3841 8H8.0841L7.4011 9.729C7.23631 10.1392 7.11335 10.5651 7.0341 11H2.2461C2.31468 10.8587 2.39744 10.7246 2.4931 10.6L3.3121 9.521ZM2.8121 13.854C2.55122 13.6174 2.34627 13.3257 2.2121 13H6.9841C7.05042 13.5388 7.18032 14.0678 7.3711 14.576L10.1981 20.976L2.8121 13.854ZM13.7721 21.014L16.6261 14.4C16.7917 13.9474 16.9071 13.4779 16.9701 13H21.8011C21.6596 13.3433 21.4433 13.6507 21.1681 13.9L13.7721 21.014Z" fill="#FF4B00"/>
<path d="M12 4C12.2652 4 12.5196 3.89464 12.7071 3.70711C12.8947 3.51957 13 3.26522 13 3V1C13 0.734784 12.8947 0.48043 12.7071 0.292893C12.5196 0.105357 12.2652 0 12 0C11.7348 0 11.4804 0.105357 11.2929 0.292893C11.1054 0.48043 11 0.734784 11 1V3C11 3.26522 11.1054 3.51957 11.2929 3.70711C11.4804 3.89464 11.7348 4 12 4Z" fill="#FF4B00"/>
<path d="M16.5516 3.89993C16.6696 3.95929 16.7983 3.99466 16.9301 4.004C17.0619 4.01334 17.1943 3.99646 17.3196 3.95434C17.4448 3.91222 17.5605 3.84568 17.6599 3.75859C17.7592 3.6715 17.8404 3.56557 17.8986 3.44693L18.8986 1.44693C19.0171 1.20956 19.0365 0.934819 18.9525 0.683146C18.8685 0.431472 18.688 0.223481 18.4506 0.10493C18.2132 -0.0136223 17.9385 -0.0330241 17.6868 0.0509922C17.4351 0.135009 17.2271 0.315561 17.1086 0.552929L16.1086 2.55293C16.0489 2.67039 16.013 2.7985 16.0029 2.92989C15.9929 3.06127 16.0089 3.19335 16.0501 3.31852C16.0912 3.4437 16.1567 3.5595 16.2428 3.65928C16.3289 3.75906 16.4338 3.84084 16.5516 3.89993Z" fill="#FF4B00"/>
<path d="M6.10432 3.44693C6.22288 3.68496 6.43113 3.86615 6.68327 3.95063C6.93542 4.03512 7.21079 4.01598 7.44882 3.89743C7.68686 3.77888 7.86804 3.57062 7.95253 3.31848C8.03701 3.06634 8.01788 2.79096 7.89932 2.55293L6.89932 0.552929C6.84062 0.435396 6.75935 0.330576 6.66014 0.244454C6.56093 0.158331 6.44572 0.0925929 6.32111 0.0509922C6.06943 -0.0330241 5.79469 -0.0136223 5.55732 0.10493C5.31996 0.223481 5.1394 0.431472 5.05539 0.683146C4.97137 0.934819 4.99077 1.20956 5.10932 1.44693L6.10432 3.44693Z" fill="#FF4B00"/>
</g>
<defs>
<clipPath id="clip0_3160_6512">
<rect width="24" height="24" fill="white"/>
</clipPath>
</defs>
</svg>
