<svg width="24" height="24" viewBox="0 0 24 24" fill="none" xmlns="http://www.w3.org/2000/svg">
<g clip-path="url(#clip0_2729_130529)">
<path d="M19.4314 10.314L18.9067 9.6C18.5432 9.10529 18.0686 8.7028 17.5212 8.42491C16.9737 8.14701 16.3687 8.00148 15.7547 8H8.25541C7.65409 8.00157 7.06117 8.14118 6.52231 8.40806C5.98346 8.67494 5.51308 9.06197 5.14741 9.53933L4.60008 10.2553C4.15573 10.8415 3.94682 11.5728 4.01443 12.3053C4.08203 13.0377 4.42127 13.7184 4.96541 14.2133L10.2921 19.3513C10.7599 19.7686 11.3652 19.9986 11.9921 19.9973C12.6322 19.9961 13.2494 19.7587 13.7254 19.3307L19.0161 14.242C19.5633 13.7574 19.9094 13.0856 19.9863 12.3586C20.0632 11.6317 19.8652 10.9023 19.4314 10.314ZM17.8314 10.3853L18.3561 11.1013C18.4088 11.1746 18.4552 11.2522 18.4947 11.3333H15.3007C15.2525 11.0141 15.1693 10.7011 15.0527 10.4L14.6261 9.33333H15.7547C16.159 9.3341 16.5575 9.42967 16.9182 9.61237C17.2788 9.79508 17.5916 10.0598 17.8314 10.3853ZM11.9934 17.392L10.1474 13.212C10.0806 13.0352 10.0302 12.8527 9.99675 12.6667H13.9647C13.9368 12.8132 13.8976 12.9575 13.8474 13.098L11.9934 17.392ZM10.0667 11.3333C10.0946 11.2138 10.1296 11.096 10.1714 10.9807L10.8274 9.33333H13.1901L13.8147 10.8953C13.8696 11.038 13.9142 11.1843 13.9481 11.3333H10.0667ZM6.20741 10.3473C6.44845 10.0329 6.75844 9.77797 7.1135 9.60217C7.46855 9.42638 7.85922 9.3344 8.25541 9.33333H9.38875L8.93341 10.486C8.82356 10.7595 8.74159 11.0434 8.68875 11.3333H5.49675C5.54247 11.2391 5.59764 11.1498 5.66141 11.0667L6.20741 10.3473ZM5.87408 13.236C5.70016 13.0782 5.56353 12.8838 5.47408 12.6667H8.65541C8.69963 13.0258 8.78623 13.3785 8.91341 13.7173L10.7981 17.984L5.87408 13.236ZM13.1807 18.0093L15.0834 13.6C15.1938 13.2982 15.2708 12.9852 15.3127 12.6667H18.5334C18.4391 12.8955 18.2949 13.1005 18.1114 13.2667L13.1807 18.0093Z" fill="#9CA3AF"/>
<path d="M11.9997 6.66667C12.1765 6.66667 12.3461 6.59643 12.4711 6.4714C12.5961 6.34638 12.6663 6.17681 12.6663 6V4.66667C12.6663 4.48986 12.5961 4.32029 12.4711 4.19526C12.3461 4.07024 12.1765 4 11.9997 4C11.8229 4 11.6533 4.07024 11.5283 4.19526C11.4032 4.32029 11.333 4.48986 11.333 4.66667V6C11.333 6.17681 11.4032 6.34638 11.5283 6.4714C11.6533 6.59643 11.8229 6.66667 11.9997 6.66667Z" fill="#9CA3AF"/>
<path d="M15.0347 6.60028C15.1134 6.63985 15.1992 6.66344 15.2871 6.66966C15.375 6.67589 15.4632 6.66463 15.5467 6.63655C15.6302 6.60847 15.7073 6.56412 15.7736 6.50605C15.8398 6.44799 15.8939 6.37737 15.9327 6.29828L16.5994 4.96495C16.6784 4.8067 16.6914 4.62354 16.6353 4.45576C16.5793 4.28797 16.459 4.14931 16.3007 4.07028C16.1425 3.99124 15.9593 3.97831 15.7915 4.03432C15.6237 4.09033 15.4851 4.2107 15.406 4.36895L14.7394 5.70228C14.6996 5.78059 14.6756 5.86599 14.6689 5.95358C14.6622 6.04117 14.6729 6.12923 14.7004 6.21267C14.7278 6.29612 14.7715 6.37333 14.8289 6.43985C14.8862 6.50636 14.9562 6.56089 15.0347 6.60028Z" fill="#9CA3AF"/>
<path d="M8.07053 6.29828C8.14956 6.45697 8.2884 6.57776 8.45649 6.63408C8.62459 6.69041 8.80817 6.67765 8.96686 6.59861C9.12555 6.51958 9.24634 6.38074 9.30266 6.21265C9.35899 6.04455 9.34623 5.86097 9.26719 5.70228L8.60053 4.36895C8.56139 4.29059 8.50721 4.22071 8.44107 4.16329C8.37493 4.10588 8.29813 4.06205 8.21505 4.03432C8.04727 3.97831 7.86411 3.99124 7.70586 4.07028C7.54761 4.14931 7.42725 4.28797 7.37123 4.45576C7.31522 4.62354 7.32816 4.8067 7.40719 4.96495L8.07053 6.29828Z" fill="#9CA3AF"/>
</g>
<defs>
<clipPath id="clip0_2729_130529">
<rect width="16" height="16" fill="white" transform="translate(4 4)"/>
</clipPath>
</defs>
</svg>
