<svg width="17" height="16" viewBox="0 0 17 16" fill="none" xmlns="http://www.w3.org/2000/svg">
<path d="M8.5 10C9.60457 10 10.5 9.10457 10.5 8C10.5 6.89543 9.60457 6 8.5 6C7.39543 6 6.5 6.89543 6.5 8C6.5 9.10457 7.39543 10 8.5 10Z" stroke="#1F2937" stroke-width="1.5" stroke-miterlimit="10" stroke-linecap="round" stroke-linejoin="round"/>
<path d="M1.8335 8.5863V7.41297C1.8335 6.71963 2.40016 6.1463 3.10016 6.1463C4.30683 6.1463 4.80016 5.29297 4.1935 4.2463C3.84683 3.6463 4.0535 2.8663 4.66016 2.51963L5.8135 1.85963C6.34016 1.5463 7.02016 1.73297 7.3335 2.25963L7.40683 2.3863C8.00683 3.43297 8.9935 3.43297 9.60016 2.3863L9.6735 2.25963C9.98683 1.73297 10.6668 1.5463 11.1935 1.85963L12.3468 2.51963C12.9535 2.8663 13.1602 3.6463 12.8135 4.2463C12.2068 5.29297 12.7002 6.1463 13.9068 6.1463C14.6002 6.1463 15.1735 6.71297 15.1735 7.41297V8.5863C15.1735 9.27963 14.6068 9.85297 13.9068 9.85297C12.7002 9.85297 12.2068 10.7063 12.8135 11.753C13.1602 12.3596 12.9535 13.133 12.3468 13.4796L11.1935 14.1396C10.6668 14.453 9.98683 14.2663 9.6735 13.7396L9.60016 13.613C9.00016 12.5663 8.0135 12.5663 7.40683 13.613L7.3335 13.7396C7.02016 14.2663 6.34016 14.453 5.8135 14.1396L4.66016 13.4796C4.0535 13.133 3.84683 12.353 4.1935 11.753C4.80016 10.7063 4.30683 9.85297 3.10016 9.85297C2.40016 9.85297 1.8335 9.27963 1.8335 8.5863Z" stroke="#1F2937" stroke-width="1.5" stroke-miterlimit="10" stroke-linecap="round" stroke-linejoin="round"/>
</svg>
