<svg width="24" height="24" viewBox="0 0 24 24" fill="none" xmlns="http://www.w3.org/2000/svg">
<path d="M12.667 10H8.66699" stroke="#292D32" stroke-linecap="round" stroke-linejoin="round"/>
<path d="M18.6665 11.3128V12.6862C18.6665 13.0528 18.3732 13.3528 17.9998 13.3661H16.6931C15.9731 13.3661 15.3132 12.8395 15.2532 12.1195C15.2132 11.6995 15.3731 11.3061 15.6531 11.0328C15.8998 10.7795 16.2398 10.6328 16.6131 10.6328H17.9998C18.3732 10.6461 18.6665 10.9461 18.6665 11.3128Z" stroke="#292D32" stroke-linecap="round" stroke-linejoin="round"/>
<path d="M15.653 11.034C15.373 11.3073 15.213 11.7006 15.253 12.1206C15.313 12.8406 15.973 13.3673 16.693 13.3673H17.9997V14.334C17.9997 16.334 16.6663 17.6673 14.6663 17.6673H8.66634C6.66634 17.6673 5.33301 16.334 5.33301 14.334V9.66732C5.33301 7.85398 6.42634 6.58732 8.12634 6.37398C8.29968 6.34732 8.47967 6.33398 8.66634 6.33398H14.6663C14.8397 6.33398 15.0063 6.34064 15.1663 6.36731C16.8863 6.56731 17.9997 7.84065 17.9997 9.66732V10.634H16.613C16.2397 10.634 15.8997 10.7806 15.653 11.034Z" stroke="#292D32" stroke-linecap="round" stroke-linejoin="round"/>
</svg>
