<svg width="24" height="24" viewBox="0 0 24 24" fill="none" xmlns="http://www.w3.org/2000/svg">
<path d="M12.593 7.91992H7.40633C6.26633 7.91992 5.33301 8.85325 5.33301 9.99325V17.5666C5.33301 18.5333 6.02634 18.9466 6.87301 18.4732L9.493 17.0132C9.773 16.8599 10.2263 16.8599 10.4997 17.0132L13.1197 18.4732C13.9663 18.9466 14.6597 18.5333 14.6597 17.5666V9.99325C14.6663 8.85325 13.733 7.91992 12.593 7.91992Z" stroke="#6B7280" stroke-linecap="round" stroke-linejoin="round"/>
<path d="M14.6663 9.99325V17.5666C14.6663 18.5333 13.973 18.9399 13.1263 18.4732L10.5063 17.0132C10.2263 16.8599 9.773 16.8599 9.493 17.0132L6.87301 18.4732C6.02634 18.9399 5.33301 18.5333 5.33301 17.5666V9.99325C5.33301 8.85325 6.26633 7.91992 7.40633 7.91992H12.593C13.733 7.91992 14.6663 8.85325 14.6663 9.99325Z" stroke="#6B7280" stroke-linecap="round" stroke-linejoin="round"/>
<path d="M18.6663 7.40731V14.9807C18.6663 15.9473 17.973 16.354 17.1263 15.8873L14.6663 14.514V9.99398C14.6663 8.85398 13.733 7.92065 12.593 7.92065H9.33301V7.40731C9.33301 6.26731 10.2663 5.33398 11.4063 5.33398H16.593C17.733 5.33398 18.6663 6.26731 18.6663 7.40731Z" stroke="#6B7280" stroke-linecap="round" stroke-linejoin="round"/>
</svg>
