<svg width="48" height="48" viewBox="0 0 48 48" fill="none" xmlns="http://www.w3.org/2000/svg">
<rect width="48" height="48" rx="8" fill="#F3F4F6"/>
<path d="M24 27C25.6569 27 27 25.6569 27 24C27 22.3431 25.6569 21 24 21C22.3431 21 21 22.3431 21 24C21 25.6569 22.3431 27 24 27Z" stroke="#374151" stroke-width="1.5" stroke-miterlimit="10" stroke-linecap="round" stroke-linejoin="round"/>
<path d="M14 24.8794V23.1194C14 22.0794 14.85 21.2194 15.9 21.2194C17.71 21.2194 18.45 19.9394 17.54 18.3694C17.02 17.4694 17.33 16.2994 18.24 15.7794L19.97 14.7894C20.76 14.3194 21.78 14.5994 22.25 15.3894L22.36 15.5794C23.26 17.1494 24.74 17.1494 25.65 15.5794L25.76 15.3894C26.23 14.5994 27.25 14.3194 28.04 14.7894L29.77 15.7794C30.68 16.2994 30.99 17.4694 30.47 18.3694C29.56 19.9394 30.3 21.2194 32.11 21.2194C33.15 21.2194 34.01 22.0694 34.01 23.1194V24.8794C34.01 25.9194 33.16 26.7794 32.11 26.7794C30.3 26.7794 29.56 28.0594 30.47 29.6294C30.99 30.5394 30.68 31.6994 29.77 32.2194L28.04 33.2094C27.25 33.6794 26.23 33.3994 25.76 32.6094L25.65 32.4194C24.75 30.8494 23.27 30.8494 22.36 32.4194L22.25 32.6094C21.78 33.3994 20.76 33.6794 19.97 33.2094L18.24 32.2194C17.33 31.6994 17.02 30.5294 17.54 29.6294C18.45 28.0594 17.71 26.7794 15.9 26.7794C14.85 26.7794 14 25.9194 14 24.8794Z" stroke="#374151" stroke-width="1.5" stroke-miterlimit="10" stroke-linecap="round" stroke-linejoin="round"/>
</svg>
