<svg width="48" height="48" viewBox="0 0 48 48" fill="none" xmlns="http://www.w3.org/2000/svg">
<rect width="48" height="48" rx="8" fill="#F3F4F6"/>
<path d="M24.37 14.1498L33.37 17.7498C33.72 17.8898 34 18.3098 34 18.6798V21.9998C34 22.5498 33.55 22.9998 33 22.9998H15C14.45 22.9998 14 22.5498 14 21.9998V18.6798C14 18.3098 14.28 17.8898 14.63 17.7498L23.63 14.1498C23.83 14.0698 24.17 14.0698 24.37 14.1498Z" stroke="#1F2937" stroke-width="1.5" stroke-miterlimit="10" stroke-linecap="round" stroke-linejoin="round"/>
<path d="M34 34H14V31C14 30.45 14.45 30 15 30H33C33.55 30 34 30.45 34 31V34Z" stroke="#1F2937" stroke-width="1.5" stroke-miterlimit="10" stroke-linecap="round" stroke-linejoin="round"/>
<path d="M16 30V23" stroke="#1F2937" stroke-width="1.5" stroke-miterlimit="10" stroke-linecap="round" stroke-linejoin="round"/>
<path d="M20 30V23" stroke="#1F2937" stroke-width="1.5" stroke-miterlimit="10" stroke-linecap="round" stroke-linejoin="round"/>
<path d="M24 30V23" stroke="#1F2937" stroke-width="1.5" stroke-miterlimit="10" stroke-linecap="round" stroke-linejoin="round"/>
<path d="M28 30V23" stroke="#1F2937" stroke-width="1.5" stroke-miterlimit="10" stroke-linecap="round" stroke-linejoin="round"/>
<path d="M32 30V23" stroke="#1F2937" stroke-width="1.5" stroke-miterlimit="10" stroke-linecap="round" stroke-linejoin="round"/>
<path d="M13 34H35" stroke="#1F2937" stroke-width="1.5" stroke-miterlimit="10" stroke-linecap="round" stroke-linejoin="round"/>
<path d="M24 20.5C24.8284 20.5 25.5 19.8284 25.5 19C25.5 18.1716 24.8284 17.5 24 17.5C23.1716 17.5 22.5 18.1716 22.5 19C22.5 19.8284 23.1716 20.5 24 20.5Z" stroke="#1F2937" stroke-width="1.5" stroke-miterlimit="10" stroke-linecap="round" stroke-linejoin="round"/>
</svg>
