<svg width="40" height="40" viewBox="0 0 40 40" fill="none" xmlns="http://www.w3.org/2000/svg">
<rect width="40" height="40" rx="8" fill="#F3F4F6"/>
<path d="M26.04 21.55C25.62 21.96 25.38 22.55 25.44 23.18C25.53 24.26 26.52 25.05 27.6 25.05H29.5V26.24C29.5 28.31 27.81 30 25.74 30H14.26C12.19 30 10.5 28.31 10.5 26.24V19.51C10.5 17.44 12.19 15.75 14.26 15.75H25.74C27.81 15.75 29.5 17.44 29.5 19.51V20.95H27.48C26.92 20.95 26.41 21.17 26.04 21.55Z" stroke="#1F2937" stroke-width="1.5" stroke-linecap="round" stroke-linejoin="round"/>
<path d="M10.5 20.4093V15.8394C10.5 14.6494 11.23 13.5893 12.34 13.1693L20.28 10.1693C21.52 9.69933 22.85 10.6194 22.85 11.9494V15.7493" stroke="#1F2937" stroke-width="1.5" stroke-linecap="round" stroke-linejoin="round"/>
<path d="M30.5588 21.9692V24.0292C30.5588 24.5792 30.1188 25.0292 29.5588 25.0492H27.5988C26.5188 25.0492 25.5288 24.2592 25.4388 23.1792C25.3788 22.5492 25.6188 21.9592 26.0388 21.5492C26.4088 21.1692 26.9188 20.9492 27.4788 20.9492H29.5588C30.1188 20.9692 30.5588 21.4192 30.5588 21.9692Z" stroke="#1F2937" stroke-width="1.5" stroke-linecap="round" stroke-linejoin="round"/>
<path d="M15 20H22" stroke="#1F2937" stroke-width="1.5" stroke-linecap="round" stroke-linejoin="round"/>
</svg>
