<svg width="50" height="51" viewBox="0 0 50 51" fill="none" xmlns="http://www.w3.org/2000/svg">
<g filter="url(#filter0_dd_2273_287916)">
<rect x="5" y="2" width="40" height="40" rx="20" fill="white"/>
<g clip-path="url(#clip0_2273_287916)">
<rect width="26.6667" height="26.6667" transform="translate(11.666 8.66602)" fill="white"/>
<g clip-path="url(#clip1_2273_287916)">
<path d="M24.8325 8.77344C28.4161 8.77344 31.8649 9.50262 35.1227 10.935C35.7968 13.6432 36.2234 16.4558 36.2348 18.3047C36.2348 18.3568 36.2348 18.3828 36.2348 18.4088C36.2348 20.2317 35.965 22.0286 35.437 23.7215C34.9202 25.3879 34.1565 26.9504 33.1567 28.4089C32.1681 29.8151 30.9549 31.1172 29.5507 32.2631C28.0566 33.4869 26.2929 34.6067 24.8324 35.2319C23.3834 34.6067 21.6196 33.4869 20.1256 32.2631C18.7214 31.1172 17.5082 29.8151 16.5195 28.4089C15.5197 26.9504 14.756 25.3879 14.2392 23.7215C13.7112 22.0286 13.4414 20.2317 13.4414 18.4088C13.4414 18.3828 13.4414 18.3568 13.4414 18.3047C13.453 16.4558 13.8796 13.6432 14.5538 10.935C17.8116 9.50262 21.2602 8.77344 24.8325 8.77344Z" fill="white"/>
<path d="M24.834 19.1909C25.6318 19.1909 26.3732 19.3991 27.0246 19.7637H33.6636C33.675 19.2949 33.6636 18.7742 33.6525 18.3053C33.6187 16.3001 33.0234 12.9148 32.4392 10.571C30.0913 9.81573 27.5638 9.37305 24.8454 9.37305" fill="#DA140A"/>
<path d="M24.8453 9.39844C22.1716 9.39844 19.7227 9.78894 17.24 10.5703C16.6335 12.9921 16.1279 16.2213 16.0492 17.7579C15.937 20.0235 16.1053 21.6641 16.566 23.4351C16.8244 24.4506 17.1614 25.388 17.5996 26.3516C18.0714 26.1173 18.5656 25.8047 19.0597 25.4403C19.5765 25.0496 20.026 24.5807 20.3966 24.1121C20.3854 23.9298 20.3743 23.7733 20.3743 23.591C20.3743 23.3309 20.3966 23.07 20.4415 22.8361C19.5205 22.8619 19.0037 22.862 18.5881 22.862C18.0937 22.862 17.6445 22.5235 17.431 22.0025C17.3185 22.0025 17.1951 22.0025 17.1951 22.0025C17.0267 22.0025 16.7233 21.8723 16.7233 21.2994C16.7233 20.7526 17.0266 20.6224 17.1951 20.6224C17.1951 20.6224 17.3186 20.6224 17.431 20.6224C17.6444 20.1016 18.0937 19.7631 18.5881 19.7631H22.6657C23.3061 19.3984 24.0475 19.1902 24.8452 19.1902" fill="#EE120B"/>
<path d="M20.8011 31.4049C19.5431 30.1809 18.5096 28.827 17.6894 27.3685C16.8582 25.9102 16.2627 24.2696 15.9145 22.629C15.5551 20.9362 15.4426 19.2175 15.5663 17.4205C15.6788 15.7278 16.128 13.1497 16.6897 10.7539C16.1617 10.9362 15.6224 11.1445 15.0944 11.3789C14.4992 13.7227 14.0835 16.6915 14.0723 18.3061C14.0723 20.129 14.3306 21.8737 14.836 23.5145C15.3753 25.2592 16.0941 26.6655 17.049 28.0458C17.9928 29.426 19.1722 30.6757 20.5314 31.7956C21.801 32.8373 23.2612 33.7488 24.8339 34.5301C24.8339 34.504 24.8339 34.5301 24.8339 34.5301C23.3288 33.6186 21.9694 32.577 20.8011 31.4049Z" fill="#163A76"/>
<path d="M28.8781 31.4049C30.1362 30.1809 31.1699 28.827 31.99 27.3685C32.8213 25.9102 33.4166 24.2696 33.7649 22.629C34.1243 20.9362 34.2367 19.2175 34.1131 17.4205C34.0006 15.7278 33.5402 13.1236 32.9786 10.7539C33.5177 10.9362 34.0571 11.1445 34.5851 11.3789C35.1803 13.7227 35.596 16.6915 35.596 18.3061C35.6072 20.129 35.3488 21.8737 34.832 23.5145C34.3378 25.1291 33.5964 26.6397 32.6304 28.0458C31.6755 29.426 30.5072 30.6757 29.1476 31.7956C27.8784 32.8373 26.4181 33.7488 24.834 34.5301C26.3394 33.6186 27.71 32.577 28.8781 31.4049Z" fill="#163A76"/>
<path d="M24.834 19.4258C22.4862 19.4258 20.5879 21.3007 20.5879 23.5924C20.5879 25.9102 22.4862 27.7851 24.834 27.7851C27.1818 27.7851 29.0804 25.9102 29.0804 23.5924C29.0804 21.3008 27.1818 19.4258 24.834 19.4258Z" fill="#8D6E26"/>
<path d="M24.8322 27.9923C23.3943 27.9923 22.1138 27.3153 21.2938 26.2734C20.2939 26.8464 19.2492 27.289 18.2383 27.6017C19.0359 28.956 20.013 30.2321 21.2039 31.4038C22.271 32.4717 23.4842 33.435 24.8323 34.2944" fill="#EE120B"/>
<path d="M18.5874 22.6551C18.1267 22.6551 17.7335 22.2904 17.5762 21.7957C17.3853 21.7957 17.1944 21.7957 17.1944 21.7957C17.0931 21.7957 16.9473 21.6655 16.9473 21.3269C16.9473 20.9624 17.0931 20.8321 17.1944 20.8321C17.1944 20.8321 17.3853 20.8321 17.5762 20.8321C17.7335 20.3373 18.1267 19.9727 18.5874 19.9727H22.2944C21.3956 20.5977 20.7329 21.5092 20.4857 22.6029C19.6544 22.6291 19.0255 22.6551 18.5874 22.6551Z" fill="#8D6E26"/>
<path d="M35.2132 10.8314C32.0566 9.4512 28.5855 8.66992 24.8332 8.66992C21.0924 8.66992 17.6211 9.4512 14.4646 10.8314C13.7344 13.7481 13.3413 16.5606 13.3301 18.3054C13.3301 20.1803 13.5884 22.0033 14.1276 23.7481C14.6556 25.4148 15.4307 27.0033 16.4306 28.4358C17.4192 29.868 18.6436 31.196 20.0591 32.3417C21.3847 33.4355 23.1934 34.6336 24.8332 35.3365C26.4845 34.6336 28.2821 33.4354 29.6187 32.3417C31.0343 31.196 32.2587 29.8679 33.2473 28.4358C34.2472 27.0033 35.0223 25.4148 35.5502 23.7481C36.0782 22.0033 36.3478 20.1804 36.3366 18.3054C36.3366 16.5606 35.9434 13.7481 35.2132 10.8314ZM32.6296 28.0452C31.6858 29.3992 30.5063 30.6751 29.1468 31.795C27.8775 32.8367 26.4172 33.7482 24.8331 34.5034C23.2604 33.7481 21.8003 32.8366 20.5306 31.795C19.1713 30.6751 17.9919 29.3992 17.0482 28.0452C16.9695 27.9412 16.8911 27.8107 16.8236 27.7065C18.2054 27.472 19.7443 26.8992 21.1599 26.0918C20.8116 25.5971 20.5533 25.0243 20.4408 24.3992C20.0814 24.8421 19.6656 25.2586 19.1826 25.6233C18.3962 26.196 17.4528 26.7691 16.4305 27.0814C15.7563 25.9618 15.2284 24.7639 14.8352 23.5139C14.3298 21.8731 14.0715 20.1284 14.0715 18.3055C14.0827 16.6909 14.4984 13.7221 15.0936 11.3783C18.1718 10.0502 21.452 9.39911 24.8332 9.39911C28.2257 9.39911 31.5061 10.0502 34.5843 11.3782C35.1795 13.722 35.5952 16.6908 35.6064 18.3054C35.6064 18.8783 35.584 19.4251 35.5277 19.972H27.361C28.372 20.6752 29.0909 21.7429 29.2593 22.9929L30.8209 22.6284C31.1692 22.5502 31.3039 22.3158 31.3488 22.1075L35.2582 21.8469C35.1457 22.42 34.9998 22.9669 34.8426 23.5138C34.337 25.1284 33.5956 26.639 32.6296 28.0452Z" fill="#8D6E26"/>
<path d="M25.1133 24.7642V27.0037C26.1803 26.9258 27.1128 26.3527 27.697 25.5454L25.7088 24.4258C25.5514 24.5818 25.3491 24.7121 25.1133 24.7642Z" fill="white"/>
<path d="M24.553 20.1797C23.4857 20.2839 22.5534 20.8307 21.9805 21.6641L23.9574 22.7838C24.1148 22.6016 24.3169 22.4974 24.5529 22.4454" fill="white"/>
<path d="M24.8326 22.9922C24.4959 22.9922 24.2148 23.2526 24.2148 23.5911C24.2148 23.9298 24.4959 24.2162 24.8326 24.2162C25.1809 24.2162 25.4506 23.9298 25.4506 23.5911C25.4506 23.2526 25.1809 22.9922 24.8326 22.9922Z" fill="white"/>
<path d="M25.1133 20.1797V22.4454C25.349 22.4974 25.5626 22.6017 25.7199 22.7838L27.6969 21.6641C27.1129 20.8307 26.1804 20.2839 25.1133 20.1797Z" fill="white"/>
<path d="M24.553 24.7642C24.3619 24.7121 24.1935 24.6341 24.0473 24.5036C24.025 24.4775 23.9913 24.4516 23.9574 24.4258L21.9805 25.5454C22.0254 25.6236 22.0704 25.6754 22.1265 25.7278C22.6993 26.457 23.5755 26.9258 24.553 27.0037" fill="white"/>
<path d="M25.9922 23.9298L27.9805 25.0753C28.3623 24.2683 28.4748 23.1483 27.9805 22.1328L26.0033 23.2526C26.0597 23.461 26.0709 23.6952 25.9922 23.9298Z" fill="white"/>
<path d="M22.3066 21.5872L23.9242 22.4986C24.0478 22.4206 24.1825 22.3425 24.3287 22.2642V20.4414C23.531 20.5715 22.8122 20.9622 22.3066 21.5872Z" fill="#8D6E26"/>
<path d="M25.3379 20.4414V22.2902C25.4838 22.3425 25.6186 22.4205 25.7422 22.4986L27.3599 21.5872C26.8544 20.9622 26.1353 20.5715 25.3379 20.4414Z" fill="#8D6E26"/>
<path d="M28.0679 23.2785C28.0453 22.9922 27.978 22.7058 27.8656 22.4453L26.248 23.3568C26.2593 23.435 26.2704 23.5131 26.2704 23.5911C26.2704 23.6173 26.2704 23.6694 26.2704 23.6952C26.7199 23.5652 27.2029 23.461 27.6971 23.3568C27.8095 23.331 27.9444 23.3048 28.0679 23.2785Z" fill="#8D6E26"/>
<path d="M24.8341 34.2948C26.1821 33.4354 27.4066 32.472 28.4739 31.4042C29.7321 30.1801 30.7656 28.8001 31.5743 27.342C32.3945 25.8574 32.9787 24.2167 33.327 22.5759C33.3492 22.4458 33.3718 22.3157 33.3941 22.1855L31.5182 22.3157C31.4171 22.5759 31.1925 22.7843 30.8777 22.8367C30.8666 22.8367 30.1812 23.0189 29.2827 23.2272C29.2939 23.3314 29.305 23.4616 29.305 23.5916C29.305 26.0398 27.3055 27.9926 24.834 27.9926" fill="#DA140A"/>
<path d="M25.2258 23.5917C25.2258 23.3833 25.0571 23.2012 24.8326 23.2012C24.6192 23.2012 24.4395 23.3834 24.4395 23.5917C24.4395 23.8264 24.6192 23.9823 24.8326 23.9823C25.0571 23.9823 25.2258 23.8263 25.2258 23.5917Z" fill="#8D6E26"/>
<path d="M25.3379 26.769C26.1354 26.639 26.8545 26.2221 27.36 25.6232L25.7423 24.6855C25.6186 24.7896 25.4839 24.868 25.338 24.92V26.769" fill="#D40026"/>
<path d="M22.3066 25.6232L23.9242 24.6855C24.0478 24.7896 24.1825 24.868 24.3287 24.92V26.769C23.531 26.639 22.8122 26.2221 22.3066 25.6232Z" fill="#FE000C"/>
<path d="M28.0902 23.5925C28.0902 23.5666 28.0902 23.5145 28.0791 23.4883C27.9666 23.4883 27.843 23.5145 27.7309 23.5407C27.2367 23.6448 26.7647 23.7747 26.3379 23.8789L27.8656 24.7645C28.0116 24.3998 28.0902 24.0092 28.0902 23.5925Z" fill="#D40026"/>
<path d="M21.6887 22.1328C21.2393 23.0963 21.2617 24.1641 21.6998 25.0753L23.677 23.9298C23.6096 23.7214 23.6096 23.4868 23.677 23.2526" fill="white"/>
<path d="M21.811 24.763L23.4174 23.8256C23.3948 23.6693 23.3948 23.513 23.4174 23.3567L21.7997 22.4453C21.5076 23.2005 21.5076 24.0078 21.811 24.763Z" fill="#8D6E26"/>
<path d="M26.4511 16.431C26.4511 16.5352 26.4289 16.8215 26.4177 16.8997H27.7096C27.6309 16.5612 27.5971 16.0924 27.5859 15.7278C27.5859 15.7539 27.5634 14.9986 27.5634 14.9986C27.5634 14.9466 27.5859 14.8685 27.6194 14.8424C27.6644 14.7904 27.7095 14.7904 27.7657 14.7904C27.8218 14.7644 27.9228 14.7644 27.9343 14.9727L27.9677 15.754C27.9791 16.1184 27.9791 16.6134 27.9343 16.8998H29.1809C29.1698 16.7957 29.136 16.5353 29.1249 16.4571C29.2822 16.7956 29.6191 16.9778 30.0685 16.9778C30.3382 16.9778 30.5405 16.8738 30.6975 16.7695C30.6975 16.7956 30.765 16.8997 30.765 16.8997H33.0791C32.978 16.5612 32.9106 16.0924 32.8768 15.7278L32.5511 13.1757L31.3602 12.9674C31.4615 13.306 31.5287 13.8007 31.5736 14.1393L31.7534 15.7799C31.7872 16.0664 31.8097 16.3789 31.8097 16.7175V16.7434L31.7648 16.6394C31.6748 16.431 31.6299 16.1704 31.5962 15.7799L31.5513 15.259C31.4838 14.4256 31.0234 14.0612 30.0122 14.0612C29.8435 14.0612 29.417 14.0872 29.1585 14.1654L29.2258 15.1027L29.4954 14.9464C29.7202 14.8163 29.8888 14.7642 30.0908 14.7642C30.2482 14.7642 30.3492 14.8163 30.3942 14.9204C30.2033 14.9464 29.9898 14.9985 29.7537 15.1027C29.3943 15.259 29.1697 15.4933 29.0686 15.7538C29.0686 15.7538 29.0686 15.7538 29.0686 15.7277L29.0349 14.8683C29.0123 14.3215 28.6529 13.9569 28.1024 13.9569C27.8555 13.9569 27.6307 14.0351 27.4285 14.1654C27.4173 14.1393 27.4059 14.1133 27.3947 14.0872L27.3498 13.9831L26.3163 13.931C26.3612 14.1134 26.4288 14.6341 26.4399 14.8165C26.3839 14.5561 26.2379 14.2695 25.9681 14.0612C25.7545 13.931 25.485 13.8528 25.2043 13.8528C24.8224 13.8528 24.4292 14.0091 24.1708 14.2694C23.9012 14.5298 23.7665 14.8943 23.755 15.3111C23.6541 15.207 23.5193 15.1027 23.3621 15.0507L22.8903 14.8164H22.8678C22.7554 14.7643 22.744 14.7383 22.744 14.7122C22.7554 14.6601 22.8678 14.6081 23.0139 14.6081C23.2158 14.6081 23.4966 14.7122 23.7215 14.8424L23.7438 14.0091C23.5753 13.931 23.3395 13.8789 23.0025 13.8789C22.8228 13.8789 22.4856 13.905 22.1937 14.0613C22.1151 14.1134 22.0475 14.1655 21.9802 14.2176L21.9915 13.9831C21.7218 13.931 21.4298 13.931 21.0703 14.2696C21.0589 14.2435 21.0366 14.1134 21.0143 14.0613L19.9021 14.1134C19.9807 14.4257 19.992 14.8685 19.9693 15.2591L19.947 15.6758V15.7278C19.9358 15.9363 19.9244 16.1705 19.9021 16.3789C19.8122 16.0924 19.7112 15.7018 19.6325 15.3894L19.0819 12.9414L17.5093 13.1757C17.5205 13.2019 17.543 13.28 17.5542 13.358C17.5654 13.4622 17.5654 13.6705 17.4194 14.1134C17.161 14.8165 16.8016 15.8842 16.4534 16.6395C16.4085 16.7435 16.3184 16.8998 16.3184 16.8998H17.543C17.5654 16.7176 17.6441 16.405 17.7227 16.1706C17.8912 16.1706 18.3293 16.1706 18.5314 16.1447C18.5763 16.327 18.6213 16.5613 18.6327 16.7177L18.655 16.8999H21.1042C21.0478 16.5094 21.0704 15.9886 21.0927 15.702C21.1153 15.3635 21.1826 15.1291 21.3288 14.9988C21.441 14.8687 21.5646 14.8426 21.6545 14.8426C21.6433 15.3114 21.9466 15.5197 22.2162 15.6499L22.6991 15.8844C22.8678 15.9886 22.8678 16.0145 22.8678 16.0667C22.8565 16.1447 22.7217 16.1707 22.5981 16.1707C22.3398 16.1707 21.9915 16.0145 21.6095 15.5978L21.5871 16.6917C21.8904 16.8479 22.2722 16.926 22.6092 16.926C23.1709 16.926 23.7665 16.6657 23.9236 16.1707C24.2046 16.6917 24.7551 16.926 25.2942 16.926C25.7773 16.9258 26.1367 16.7694 26.4511 16.431ZM18.0148 15.3632C18.0823 15.1809 18.1384 15.0247 18.2396 14.7383C18.3069 15.0247 18.3407 15.207 18.3744 15.3372C18.2396 15.3632 18.1722 15.3632 18.0148 15.3632ZM24.8899 15.0767C24.8899 14.7122 25.0247 14.556 25.1595 14.556C25.2044 14.556 25.3055 14.5298 25.3504 14.7122C25.373 14.7903 25.3842 14.8423 25.3842 14.8684C25.3842 14.9726 25.328 14.9986 25.2605 14.9986V15.0247C25.2605 15.0247 25.0696 15.0767 24.8899 15.1548C24.8899 15.1289 24.8899 15.1027 24.8899 15.0767ZM26.1705 15.832C25.9346 16.0405 25.7661 16.1704 25.4851 16.1704C25.2605 16.1445 25.1256 16.0142 25.047 15.832C25.283 15.7539 26.193 15.4154 26.451 15.3111C26.451 15.5195 26.4625 15.7539 26.4625 15.7539C26.4625 15.9102 26.4625 16.0664 26.4625 16.1966L26.1705 15.832ZM30.3605 16.1965C30.1472 16.1965 30.1022 16.0404 30.0909 15.9362C30.1021 15.832 30.1358 15.6757 30.4729 15.5716C30.4841 15.7017 30.4955 15.806 30.4955 15.806V15.9101C30.5066 15.9883 30.5066 16.0664 30.5178 16.1445C30.473 16.1704 30.4169 16.1704 30.3605 16.1965Z" fill="#8D6E26"/>
<path d="M23.5524 14.1387C23.4399 14.1126 23.2713 14.0605 23.0019 14.0605C22.7884 14.0605 22.5076 14.1126 22.2942 14.2169C22.047 14.3731 21.8673 14.5814 21.856 14.8159C21.8335 15.1803 22.0246 15.3367 22.3054 15.4668C22.4965 15.5709 22.6761 15.6752 22.7884 15.7272C22.9346 15.8053 23.0694 15.8836 23.0579 16.0658C23.0469 16.248 22.8783 16.3782 22.5975 16.3782C22.3614 16.3782 22.0247 16.2219 21.7885 16.0137L21.7773 16.5606C21.9797 16.6647 22.3054 16.7169 22.6086 16.7169C23.1254 16.7169 23.7659 16.4825 23.7771 15.9095C23.7882 15.4668 23.4737 15.3106 23.2828 15.2065C23.0917 15.1283 22.9009 15.0241 22.811 14.998C22.7211 14.9459 22.5413 14.8938 22.5526 14.6856C22.5749 14.5033 22.7884 14.4251 23.0134 14.4251C23.2042 14.4251 23.395 14.4772 23.5412 14.5554" fill="white"/>
<path d="M18.9358 13.1758L17.7449 13.3321C17.7674 13.4884 17.7225 13.8009 17.5989 14.1655C17.3517 14.8685 16.9474 16.0405 16.6328 16.7176H17.3742C17.4191 16.4832 17.4753 16.2748 17.5876 15.9884L18.6885 15.9623C18.7334 16.1706 18.8121 16.5093 18.8233 16.7176H19.823C19.6994 16.4311 19.5423 15.8322 19.4411 15.4155L18.9358 13.1758ZM17.7449 15.5456L18.2842 14.0092L18.6099 15.5196" fill="white"/>
<path d="M21.7881 14.1387L21.7658 14.6595C21.5861 14.6334 21.3614 14.6855 21.1815 14.8678C21.0244 15.0241 20.9232 15.2584 20.9008 15.6752C20.8782 16.0137 20.8671 16.4044 20.8896 16.7169H20.0469C20.103 16.4044 20.1256 16.0399 20.1368 15.7012L20.1594 15.2847C20.1817 14.946 20.1817 14.6076 20.1257 14.295L20.8671 14.269C20.9008 14.3732 20.9231 14.5556 20.912 14.7379C21.2378 14.2428 21.5523 14.1387 21.7881 14.1387Z" fill="white"/>
<path d="M32.3812 13.3314L31.6172 13.2012C31.6959 13.5398 31.7185 13.774 31.7634 14.1127L31.9431 15.7533C31.9769 16.0918 32.0103 16.4043 31.9991 16.7169H32.8304C32.752 16.4043 32.7182 16.0918 32.6845 15.7533" fill="white"/>
<path d="M28.9567 16.7168C28.9118 16.4043 28.8894 16.0917 28.878 15.7532L28.8445 14.8937C28.822 14.425 28.5524 14.1647 28.1029 14.1647C27.856 14.1647 27.5639 14.2427 27.3165 14.5553C27.3053 14.4771 27.2716 14.2687 27.2266 14.1647L26.5527 14.1387C26.6088 14.4511 26.6313 14.7637 26.6426 15.1021L26.6538 15.7531C26.665 16.0916 26.6538 16.4042 26.6314 16.7167H27.4739C27.429 16.4042 27.4064 16.0916 27.3952 15.7531L27.3729 15.024C27.3617 14.7636 27.5639 14.5812 27.7661 14.5812C28.0018 14.5812 28.1143 14.7375 28.1255 14.9718L28.1592 15.753C28.1704 16.0916 28.1704 16.4041 28.148 16.7166" fill="white"/>
<path d="M31.5843 16.7163C31.483 16.4559 31.427 16.1433 31.4044 15.8048L31.3595 15.284C31.3146 14.659 31.0451 14.2422 30.0114 14.2422C29.8318 14.2422 29.5733 14.2682 29.3599 14.3203L29.3936 14.7891C29.6071 14.659 29.8205 14.5548 30.09 14.5548C30.3711 14.5548 30.6068 14.685 30.6295 15.0756C30.3597 15.1016 30.1126 15.1537 29.8317 15.284C29.5172 15.4141 29.1915 15.6746 29.225 16.0912C29.2587 16.5601 29.6182 16.7683 30.0677 16.7683C30.416 16.7683 30.6517 16.6121 30.7865 16.4559C30.8091 16.56 30.8428 16.6383 30.8764 16.7163H31.5843ZM30.3597 16.3777C30.1127 16.3777 29.9103 16.2475 29.8992 15.9611C29.8992 15.6747 30.0789 15.4403 30.6517 15.3621L30.6855 15.8049C30.6966 15.9612 30.6966 16.0654 30.7192 16.1954C30.6407 16.2996 30.5059 16.3517 30.3597 16.3777Z" fill="white"/>
<path d="M25.8556 14.2176C25.6644 14.0873 25.4398 14.0352 25.204 14.0352C24.6534 14.0352 23.9232 14.4257 23.9458 15.4154C23.9569 16.431 24.7433 16.7435 25.2939 16.7435C25.7769 16.7435 26.069 16.5612 26.3049 16.3269L26.1363 16.0925C26.0127 16.1966 25.8107 16.3529 25.4847 16.3529C25.1365 16.3269 24.9119 16.0925 24.7882 15.7279L26.316 15.1811C26.271 14.6863 26.0913 14.3998 25.8556 14.2176ZM25.3276 15.1811L24.721 15.4155C24.7096 15.3113 24.6984 15.2071 24.6984 15.0769C24.6984 14.4779 25.0356 14.3738 25.1477 14.3738C25.3277 14.3478 25.4848 14.452 25.5411 14.6603C25.6083 14.8945 25.5859 15.1028 25.3276 15.1811Z" fill="white"/>
</g>
</g>
<rect x="5.41667" y="2.41667" width="39.1667" height="39.1667" rx="19.5833" stroke="#F3F4F6" stroke-width="0.833333"/>
</g>
<defs>
<filter id="filter0_dd_2273_287916" x="1.19209e-07" y="0.333333" width="50" height="50" filterUnits="userSpaceOnUse" color-interpolation-filters="sRGB">
<feFlood flood-opacity="0" result="BackgroundImageFix"/>
<feColorMatrix in="SourceAlpha" type="matrix" values="0 0 0 0 0 0 0 0 0 0 0 0 0 0 0 0 0 0 127 0" result="hardAlpha"/>
<feMorphology radius="1.66667" operator="erode" in="SourceAlpha" result="effect1_dropShadow_2273_287916"/>
<feOffset dy="1.66667"/>
<feGaussianBlur stdDeviation="1.66667"/>
<feColorMatrix type="matrix" values="0 0 0 0 0.0627451 0 0 0 0 0.0941176 0 0 0 0 0.156863 0 0 0 0.06 0"/>
<feBlend mode="normal" in2="BackgroundImageFix" result="effect1_dropShadow_2273_287916"/>
<feColorMatrix in="SourceAlpha" type="matrix" values="0 0 0 0 0 0 0 0 0 0 0 0 0 0 0 0 0 0 127 0" result="hardAlpha"/>
<feMorphology radius="1.66667" operator="erode" in="SourceAlpha" result="effect2_dropShadow_2273_287916"/>
<feOffset dy="3.33333"/>
<feGaussianBlur stdDeviation="3.33333"/>
<feColorMatrix type="matrix" values="0 0 0 0 0.0627451 0 0 0 0 0.0941176 0 0 0 0 0.156863 0 0 0 0.1 0"/>
<feBlend mode="normal" in2="effect1_dropShadow_2273_287916" result="effect2_dropShadow_2273_287916"/>
<feBlend mode="normal" in="SourceGraphic" in2="effect2_dropShadow_2273_287916" result="shape"/>
</filter>
<clipPath id="clip0_2273_287916">
<rect width="26.6667" height="26.6667" fill="white" transform="translate(11.666 8.66602)"/>
</clipPath>
<clipPath id="clip1_2273_287916">
<rect width="23.0065" height="26.6667" fill="white" transform="translate(13.334 8.66602)"/>
</clipPath>
</defs>
</svg>
