<svg width="50" height="51" viewBox="0 0 50 51" fill="none" xmlns="http://www.w3.org/2000/svg">
<g filter="url(#filter0_dd_2273_287821)">
<rect x="5" y="2" width="40" height="40" rx="20" fill="white"/>
<g clip-path="url(#clip0_2273_287821)">
<path d="M38.3346 22.0013C38.3346 29.3656 32.3648 35.3346 25.0013 35.3346C17.6373 35.3346 11.668 29.3656 11.668 22.0013C11.668 14.6377 17.6373 8.66797 25.0013 8.66797C32.3648 8.66797 38.3346 14.6377 38.3346 22.0013Z" fill="#DBA111"/>
<path d="M37.8906 22.002C37.8906 29.1203 32.1204 34.8906 25.002 34.8906C17.8836 34.8906 12.1133 29.1204 12.1133 22.002C12.1133 14.8836 17.8836 9.11328 25.002 9.11328C32.1203 9.11328 37.8906 14.8836 37.8906 22.002Z" fill="#034694"/>
<path d="M34.1865 21.9997C34.1865 27.0724 30.0743 31.1839 25.0016 31.1839C19.9287 31.1839 15.8164 27.0724 15.8164 21.9997C15.8164 16.9266 19.9287 12.8145 25.0016 12.8145C30.0744 12.8144 34.1865 16.9266 34.1865 21.9997Z" fill="#DBA111"/>
<path d="M33.9076 22.0027C33.9076 26.9219 29.9192 30.9096 25.0007 30.9096C20.0815 30.9096 16.0938 26.9218 16.0938 22.0027C16.0938 17.0835 20.0815 13.0957 25.0007 13.0957C29.9193 13.0957 33.9076 17.0835 33.9076 22.0027Z" fill="white"/>
<path d="M17.3684 29.6842C17.467 29.7783 17.7094 30.0092 17.7094 30.0092L17.9418 29.7645L17.2486 29.1035L17.1594 29.1971L16.2285 30.1729L16.5819 30.5093C16.5819 30.5093 16.8804 30.1963 16.9897 30.0822C17.0809 30.1689 17.2999 30.3777 17.2999 30.3777L17.5325 30.1335C17.5325 30.1335 17.3139 29.9249 17.2227 29.8376C17.2805 29.7766 17.3099 29.7457 17.3684 29.6842Z" fill="#DBA111"/>
<path d="M19.0405 30.8003C19.0091 30.6131 18.9041 30.4478 18.7451 30.3348C18.5868 30.2224 18.3969 30.178 18.2097 30.2087C18.0082 30.243 17.8271 30.3604 17.6995 30.5389C17.5724 30.7186 17.521 30.928 17.5553 31.1304C17.5867 31.317 17.6911 31.4812 17.8496 31.5942C18.0082 31.707 18.1995 31.7521 18.3864 31.7207C18.5878 31.6867 18.769 31.569 18.8961 31.39C18.9979 31.248 19.051 31.0853 19.051 30.9228C19.051 30.8823 19.0476 30.8406 19.0405 30.8003H19.0405ZM18.045 31.3186C17.8829 31.204 18.0167 30.9644 18.111 30.8327C18.2052 30.6999 18.3877 30.4946 18.5497 30.6091C18.7188 30.73 18.5608 30.9913 18.4849 31.0974C18.4089 31.2047 18.2144 31.4395 18.045 31.3186Z" fill="#DBA111"/>
<path d="M20.1297 31.17C19.7566 30.9812 19.3251 31.1359 19.1269 31.5287C19.0276 31.7251 19.0082 31.9406 19.0722 32.1346C19.1312 32.3148 19.2593 32.4618 19.4329 32.5492C19.6066 32.6376 19.8019 32.653 19.9825 32.5937C20.1763 32.5304 20.338 32.3872 20.4367 32.191C20.6357 31.7975 20.5035 31.3588 20.1297 31.17ZM19.7171 32.2616C19.6733 32.276 19.6318 32.2715 19.5847 32.248C19.5107 32.2103 19.4846 32.143 19.4846 32.0677C19.4846 31.9635 19.5347 31.8408 19.5772 31.7571C19.6508 31.6115 19.8003 31.3817 19.9776 31.4712C20.0244 31.4951 20.0524 31.5261 20.0666 31.5694C20.0962 31.6589 20.0664 31.8059 19.9865 31.9633C19.9069 32.1208 19.8063 32.2321 19.7171 32.2616Z" fill="#DBA111"/>
<path d="M20.9023 31.7099L20.8336 31.9067C20.8336 31.9067 21.0092 31.9683 21.0625 31.9859C20.9953 32.1781 20.6855 33.0623 20.6855 33.0623L21.1455 33.2236C21.1455 33.2236 21.4558 32.3402 21.5228 32.148C21.5765 32.1667 21.7521 32.2278 21.7521 32.2278L21.8636 31.9101L20.9451 31.5879L20.9023 31.7099Z" fill="#DBA111"/>
<path d="M22.8127 32.1371L22.1911 32.0059L22.1645 32.1323L21.8867 33.4515L22.5193 33.5857C22.7215 33.6274 22.8546 33.5778 22.9305 33.5287C23.0269 33.4658 23.0944 33.3627 23.1204 33.2394C23.1275 33.2059 23.1309 33.1733 23.1309 33.1415C23.1309 33.0524 23.1027 32.9721 23.0517 32.903C23.1229 32.8465 23.1737 32.7666 23.1949 32.6669C23.2003 32.6412 23.2035 32.6121 23.2035 32.5818C23.2035 32.4129 23.107 32.1985 22.8127 32.1371H22.8127ZM22.6416 33.1443C22.635 33.1744 22.6229 33.2143 22.6 33.2292C22.5789 33.2429 22.5384 33.2446 22.4859 33.2332C22.4859 33.2332 22.462 33.228 22.4337 33.2224C22.4539 33.1272 22.4674 33.0639 22.4871 32.9686C22.5141 32.9749 22.5487 32.9817 22.5487 32.9817C22.6303 32.9989 22.6459 33.0593 22.6459 33.1031C22.646 33.1207 22.6437 33.1356 22.6416 33.1443L22.6416 33.1443ZM22.5991 32.4382C22.6537 32.4506 22.6938 32.4706 22.7092 32.494C22.7163 32.5047 22.7198 32.5197 22.7198 32.5375C22.7198 32.5482 22.7183 32.5606 22.7155 32.5755C22.7072 32.6141 22.6958 32.6678 22.5883 32.6457C22.5883 32.6457 22.5749 32.6422 22.5564 32.6383C22.5736 32.5584 22.5817 32.5185 22.5991 32.4382L22.5991 32.4382Z" fill="#DBA111"/>
<path d="M23.9603 32.3514L23.2852 33.734L23.6707 33.7635C23.6707 33.7635 23.7751 33.5433 23.8167 33.4555C23.8983 33.4623 23.9801 33.468 24.06 33.4745C24.0899 33.5668 24.1652 33.8012 24.1652 33.8012L24.6782 33.8411L24.105 32.0645L23.9603 32.3514Z" fill="#DBA111"/>
<path d="M25.4798 33.4558C25.4713 33.2538 25.4325 32.334 25.4325 32.334L24.9453 32.3545L25.0069 33.8306L25.9832 33.7901L25.9686 33.4359C25.9686 33.4359 25.6198 33.4508 25.4798 33.4558Z" fill="#DBA111"/>
<path d="M26.8182 33.3142C26.7868 33.1144 26.6442 32.2051 26.6442 32.2051L26.5165 32.2256L26.1621 32.2808L26.3909 33.7408L27.3566 33.5892L27.3013 33.2389C27.3013 33.2389 26.9568 33.2933 26.8182 33.3142Z" fill="#DBA111"/>
<path d="M29.6135 32.3307C29.6095 32.4572 29.5349 32.5662 29.4185 32.6123C29.354 32.6379 29.2924 32.6379 29.2307 32.6118C29.136 32.5712 29.0483 32.4687 28.9956 32.3369C28.9336 32.1814 28.921 32.0494 28.9616 31.9566C28.9896 31.8916 29.0444 31.8431 29.1281 31.8096C29.2188 31.7735 29.3049 31.8067 29.423 31.8762L29.5312 31.9401L29.711 31.6565L29.6043 31.5864C29.4082 31.4575 29.1654 31.4312 28.9554 31.5151C28.7604 31.5928 28.6093 31.7383 28.5294 31.9242C28.4483 32.1127 28.4483 32.3285 28.5305 32.5331C28.6857 32.921 29.1242 33.1121 29.5076 32.9586C29.7846 32.8479 29.9414 32.6374 29.9614 32.3499L29.9705 32.2216L29.6176 32.1954L29.6134 32.3307" fill="#DBA111"/>
<path d="M30.7515 31.9289C30.6517 31.7515 30.2034 30.9473 30.2034 30.9473L30.0911 31.0106L29.7773 31.1858L30.4983 32.4757L31.3508 31.9996L31.1782 31.6899C31.1782 31.6899 30.8731 31.86 30.7515 31.9289Z" fill="#DBA111"/>
<path d="M31.6983 29.9395L31.5937 30.0159L31.4106 30.1505L32.009 30.9661C32.0364 31.003 32.0364 31.0277 32.034 31.042C32.0282 31.0841 31.9844 31.1297 31.9456 31.1576C31.9274 31.1707 31.8851 31.1884 31.8418 31.1817C31.8108 31.1772 31.7864 31.1604 31.7647 31.1311L31.1734 30.3246L30.7793 30.6131L31.3678 31.4155C31.4551 31.5343 31.5636 31.6045 31.6901 31.6238C31.8321 31.646 31.9935 31.5976 32.1435 31.4868C32.4521 31.2612 32.447 30.9616 32.3124 30.7781L31.6983 29.9395Z" fill="#DBA111"/>
<path d="M33.4929 29.644C33.4022 29.5498 33.2904 29.5075 33.1729 29.5139C33.166 29.4227 33.1306 29.3354 33.06 29.2624C32.9368 29.1352 32.6612 29.036 32.4075 29.283L31.9512 29.7243L32.9795 30.7859L33.4437 30.3359C33.5921 30.1922 33.6247 30.053 33.6261 29.963C33.6286 29.8476 33.5811 29.7346 33.4929 29.644ZM32.7161 29.6082C32.7314 29.6245 32.7501 29.6436 32.7501 29.6701C32.7501 29.6919 32.7383 29.7188 32.7027 29.7528C32.7027 29.7528 32.693 29.7626 32.68 29.7756C32.6224 29.7159 32.5951 29.6878 32.5367 29.6278C32.6396 29.5334 32.6824 29.5737 32.7161 29.6082ZM32.9596 29.9737C33.0429 29.8932 33.1231 29.9639 33.146 29.9879C33.1682 30.0101 33.1934 30.0415 33.1934 30.0686C33.1934 30.0686 33.1934 30.0686 33.1934 30.0695C33.1929 30.0946 33.1717 30.1293 33.1335 30.1664C33.1335 30.1664 33.1157 30.1836 33.0947 30.2034C33.0274 30.1339 32.9819 30.0872 32.9146 30.018C32.9345 29.9982 32.9596 29.9737 32.9596 29.9737V29.9737Z" fill="#DBA111"/>
<path d="M17.3647 29.5471C17.4049 29.5858 17.7052 29.8722 17.7052 29.8722L17.8042 29.7678L17.251 29.2402L17.2287 29.2636L16.3652 30.1693L16.578 30.3724C16.578 30.3724 16.9459 29.9868 16.9855 29.9446C17.0257 29.9829 17.2964 30.2406 17.2964 30.2406L17.3955 30.1366C17.3955 30.1366 17.1249 29.879 17.0846 29.8407C17.1206 29.8031 17.3291 29.5843 17.3647 29.5471Z" fill="white"/>
<path d="M18.6873 30.4129C18.5502 30.3153 18.3861 30.2763 18.2251 30.3032C18.0483 30.3336 17.8897 30.4368 17.7774 30.5948C17.6648 30.7533 17.6197 30.937 17.6497 31.1131C17.6767 31.2746 17.7674 31.4172 17.9046 31.5145C18.0426 31.6126 18.2074 31.651 18.3691 31.6239C18.545 31.5943 18.7038 31.4907 18.8159 31.3338C18.9055 31.2072 18.9529 31.0639 18.9529 30.9219C18.9529 30.8865 18.9498 30.8506 18.944 30.8153C18.9166 30.654 18.8256 30.5111 18.6873 30.4129H18.6873ZM18.5625 31.1532C18.4697 31.283 18.2282 31.5681 17.9878 31.3972C17.7483 31.2271 17.9385 30.9056 18.0309 30.775C18.1235 30.6444 18.3652 30.3598 18.6044 30.5298C18.8448 30.7014 18.6552 31.023 18.5625 31.1532Z" fill="white"/>
<path d="M20.0866 31.2565C19.7629 31.0928 19.3879 31.229 19.214 31.573C19.1265 31.7459 19.1092 31.934 19.1648 32.1046C19.2158 32.2596 19.3268 32.3863 19.4773 32.462C19.6281 32.5392 19.7973 32.5528 19.9531 32.5016C20.1225 32.4456 20.264 32.32 20.3516 32.1473C20.525 31.8034 20.4112 31.4201 20.0866 31.2565ZM19.5417 32.3337C19.2796 32.2018 19.4191 31.8551 19.4915 31.7127C19.5637 31.5695 19.7599 31.2517 20.0216 31.3847C20.0912 31.4195 20.1377 31.4714 20.1599 31.5392C20.2113 31.6962 20.1279 31.8991 20.0735 32.0069C20.0194 32.114 19.905 32.3017 19.7479 32.3532C19.6806 32.376 19.611 32.3691 19.5417 32.3337Z" fill="white"/>
<path d="M20.992 31.7415L20.9549 31.8465C20.9549 31.8465 21.1381 31.9109 21.184 31.9271C21.1637 31.9846 20.8066 33.0026 20.8066 33.0026L21.0841 33.1001C21.0841 33.1001 21.4414 32.0821 21.4614 32.0245C21.5073 32.0405 21.6904 32.1045 21.6904 32.1045L21.7383 31.9693L21.0023 31.7109L20.992 31.7415" fill="white"/>
<path d="M22.7914 32.2323L22.2646 32.1211L22.2575 32.1531L22 33.3782L22.5375 33.491C22.6742 33.5196 22.7879 33.5054 22.8759 33.4478C22.9519 33.3981 23.003 33.3189 23.0239 33.2203C23.0292 33.1934 23.0324 33.1677 23.0324 33.1426C23.0324 33.0354 22.9793 32.9447 22.8844 32.8797C22.9942 32.8481 23.0729 32.7673 23.0982 32.6473C23.1025 32.6286 23.1051 32.6064 23.1051 32.5813C23.105 32.4588 23.0406 32.2848 22.7914 32.2323H22.7914ZM22.6072 32.3407C22.6958 32.3595 22.7571 32.3933 22.7883 32.4415C22.8063 32.4689 22.8151 32.5009 22.8151 32.5382C22.8151 32.5564 22.8128 32.5752 22.8085 32.5957C22.7743 32.7588 22.6425 32.7571 22.5667 32.7405C22.5667 32.7405 22.4865 32.724 22.44 32.7142C22.4508 32.664 22.512 32.3731 22.5225 32.323C22.5562 32.3299 22.6072 32.3407 22.6072 32.3407ZM22.5667 32.8876C22.7164 32.919 22.74 33.0371 22.74 33.1089C22.74 33.1397 22.7352 33.1617 22.7346 33.1653C22.7195 33.2361 22.6925 33.284 22.651 33.3107C22.6072 33.34 22.5441 33.3456 22.4643 33.329C22.4643 33.329 22.3685 33.3085 22.3171 33.2983C22.3282 33.2456 22.3998 32.9063 22.4106 32.8546C22.4545 32.8637 22.5667 32.8876 22.5667 32.8876H22.5667Z" fill="white"/>
<path d="M24.0464 32.3959L23.4336 33.6502L23.6101 33.6633C23.6101 33.6633 23.7398 33.3907 23.7569 33.3559C23.7943 33.3587 24.0942 33.3821 24.131 33.385C24.1427 33.421 24.2363 33.7118 24.2363 33.7118L24.5403 33.7352L24.0851 32.3242L24.0464 32.3959ZM23.9791 32.9002C24.0087 32.9949 24.0657 33.1776 24.0846 33.2372C24.024 33.2327 23.8846 33.2219 23.8247 33.2174C23.8522 33.161 23.9357 32.9893 23.9791 32.9002Z" fill="white"/>
<path d="M25.388 33.5555C25.3855 33.4943 25.3405 32.4336 25.3405 32.4336L25.3092 32.4347L25.0469 32.4455L25.1008 33.7287L25.8836 33.6955L25.8767 33.5353C25.8769 33.5354 25.4446 33.5536 25.388 33.5555" fill="white"/>
<path d="M26.7382 33.4269C26.7284 33.3664 26.5637 32.3164 26.5637 32.3164L26.5323 32.3215L26.2734 32.3624L26.4724 33.631L27.2464 33.5088L27.2215 33.3503C27.2214 33.3504 26.7935 33.4176 26.7382 33.4269" fill="white"/>
<path d="M29.7105 32.3336C29.7059 32.5008 29.6079 32.6423 29.455 32.7039C29.366 32.7393 29.2782 32.7381 29.1933 32.7016C29.0736 32.651 28.9691 32.5311 28.9057 32.3737C28.8344 32.1941 28.8229 32.0367 28.8728 31.9191C28.9115 31.8301 28.9852 31.7635 29.0929 31.7208C29.2338 31.6643 29.3632 31.7287 29.4727 31.7936L29.5001 31.8096L29.5788 31.6859L29.5525 31.6681C29.3825 31.5568 29.1727 31.5336 28.992 31.6059C28.8209 31.6745 28.688 31.8011 28.619 31.9631C28.5482 32.1272 28.5488 32.3178 28.6213 32.4973C28.7564 32.8362 29.1378 33.0027 29.4727 32.8692C29.7157 32.7717 29.8475 32.5955 29.8651 32.344L29.8674 32.3115L29.7123 32.3008L29.7106 32.3336" fill="white"/>
<path d="M30.711 32.061C30.6808 32.008 30.1628 31.0801 30.1628 31.0801L30.1343 31.096L29.9062 31.2237L30.5319 32.344L31.2158 31.9622L31.138 31.8219C31.1381 31.822 30.7594 32.033 30.711 32.061Z" fill="white"/>
<path d="M31.6781 30.0742L31.6516 30.0936L31.5468 30.1707L32.088 30.9081C32.1243 30.9577 32.1385 31.0073 32.1308 31.0558C32.1179 31.1436 32.0379 31.2111 32.0043 31.235C31.966 31.264 31.8957 31.2879 31.8285 31.277C31.7714 31.2686 31.7246 31.2384 31.687 31.1881L31.1527 30.4593L30.916 30.6338L31.4469 31.3575C31.5183 31.4551 31.6055 31.5126 31.7058 31.5275C31.8639 31.5514 32.0122 31.4634 32.0869 31.409C32.343 31.2207 32.3464 30.985 32.2357 30.8351L31.6781 30.0742Z" fill="white"/>
<path d="M33.4232 29.7093C33.3238 29.6065 33.1967 29.5831 33.0649 29.6338C33.0753 29.603 33.0815 29.5717 33.0815 29.5403C33.0815 29.4641 33.0512 29.3897 32.9901 29.3269C32.9075 29.2419 32.6935 29.1369 32.4747 29.3497L32.0879 29.7244L32.9809 30.6463L33.3763 30.2629C33.476 30.1672 33.5281 30.0639 33.5293 29.9595C33.5309 29.8684 33.4938 29.7822 33.4232 29.7093ZM32.8465 29.6692C32.8465 29.7338 32.8044 29.7868 32.7706 29.8199C32.7706 29.8199 32.7113 29.8775 32.6778 29.9105C32.6417 29.8735 32.4348 29.6603 32.3994 29.6224C32.4234 29.5992 32.4612 29.5632 32.4612 29.5632C32.582 29.4455 32.6881 29.4377 32.7855 29.5386C32.8301 29.585 32.8465 29.6287 32.8465 29.6692ZM33.0925 30.3382C33.0559 30.3005 32.8146 30.0508 32.7776 30.0131C32.8094 29.9824 32.8921 29.902 32.8921 29.902C33.0497 29.7502 33.2094 29.9111 33.2162 29.9186C33.2658 29.9699 33.2902 30.0184 33.2902 30.0666C33.2902 30.0675 33.2902 30.068 33.2902 30.0685C33.2896 30.1215 33.2588 30.177 33.2006 30.2346C33.2007 30.2346 33.1237 30.3086 33.0925 30.3382V30.3382Z" fill="white"/>
<path d="M19.0764 13.2172L18.5374 13.3626L18.5993 13.5556C18.6738 13.7897 18.6064 14.0347 18.424 14.1947C18.3225 14.2837 18.2053 14.3245 18.076 14.3157C17.8796 14.3025 17.6579 14.1753 17.4832 13.9754C17.2773 13.7396 17.1746 13.5125 17.1877 13.3201C17.1968 13.1798 17.265 13.0566 17.3959 12.9419C17.5404 12.8153 17.7238 12.8202 17.9725 12.8695L18.1569 12.906L18.2762 12.3898L18.0905 12.3446C17.6912 12.2458 17.2749 12.3428 16.9778 12.6028C16.3961 13.1119 16.3486 13.9432 16.8675 14.5366C17.3497 15.0878 18.1863 15.1479 18.7315 14.6709C19.1243 14.3279 19.2611 13.889 19.1277 13.403L19.0764 13.2172Z" fill="#DBA111"/>
<path d="M20.543 10.5142L19.9925 10.7735C19.9925 10.7735 20.2998 11.4247 20.4054 11.6492C20.2484 11.723 20.0963 11.7948 19.9391 11.8691C19.8331 11.6448 19.5256 10.9932 19.5256 10.9932L18.8008 11.3354L19.9047 13.677L20.6302 13.335C20.6302 13.335 20.2881 12.6107 20.1781 12.3759C20.3353 12.3024 20.4872 12.2306 20.6447 12.1564C20.755 12.3906 21.0966 13.1149 21.0966 13.1149L21.8219 12.7726L20.7184 10.4316L20.543 10.5142Z" fill="#DBA111"/>
<path d="M22.9945 11.9651C22.9591 11.7907 22.9232 11.6133 22.8883 11.4392C23.1123 11.3941 23.7074 11.274 23.7074 11.274L23.6027 10.7539C23.6027 10.7539 23.0073 10.8742 22.7832 10.9195C22.7509 10.7601 22.7242 10.6262 22.6917 10.4669C22.9243 10.42 23.5612 10.2914 23.5612 10.2914L23.4562 9.77148L23.2657 9.80974L21.8008 10.106L22.3129 12.6437L23.9817 12.3064L23.8769 11.7868C23.8769 11.7868 23.2286 11.9174 22.9945 11.9651Z" fill="#DBA111"/>
<path d="M25.3606 9.71197L24.558 9.69531L24.5541 9.88885L24.5039 12.2835L26.1886 12.3188L26.2006 11.7581C26.2006 11.7581 25.5538 11.7442 25.3175 11.7394C25.3242 11.4224 25.3606 9.71197 25.3606 9.71197" fill="#DBA111"/>
<path d="M27.9636 11.0154C27.7554 10.8625 27.6945 10.8012 27.7156 10.7177C27.7259 10.6743 27.7731 10.5361 27.9226 10.5731C28.0126 10.5962 28.1021 10.6436 28.142 10.8373L28.1858 11.0522L28.7157 10.8732L28.6828 10.7063C28.6176 10.3787 28.3404 10.0997 27.9926 10.0128C27.7434 9.95095 27.4937 9.98405 27.2887 10.1072C27.1005 10.2199 26.9682 10.3978 26.9159 10.6083C26.7829 11.139 27.1406 11.3945 27.3771 11.5639C27.6196 11.7373 27.6813 11.8051 27.6443 11.95C27.6326 11.9953 27.606 12.031 27.5643 12.0563C27.5157 12.0848 27.4548 12.0952 27.4053 12.0823C27.2779 12.0509 27.2227 11.9907 27.169 11.8259L27.104 11.6284L26.5723 11.8459L26.6238 12.0147C26.7235 12.3427 26.9614 12.5494 27.3509 12.647C27.7885 12.7565 28.3195 12.5552 28.4518 12.0296C28.5898 11.4759 28.2129 11.1984 27.9636 11.0154Z" fill="#DBA111"/>
<path d="M29.8788 12.3976C30.083 12.5008 30.6244 12.7746 30.6244 12.7746L30.8638 12.3012C30.8638 12.3012 30.322 12.0275 30.1184 11.9246C30.1913 11.7794 30.2531 11.6573 30.3258 11.5124C30.5371 11.6191 31.1178 11.9126 31.1178 11.9126L31.3566 11.4392L29.8497 10.6777L29.7626 10.8502L28.6816 12.9881L30.2011 13.7555L30.4407 13.2825C30.4407 13.2825 29.8503 12.9842 29.637 12.8768C29.7168 12.7179 29.7989 12.5565 29.8788 12.3976Z" fill="#DBA111"/>
<path d="M32.8794 12.638L30.4648 13.8873L30.9268 14.2891C30.9268 14.2891 31.3253 14.0772 31.4701 14.0011C31.5778 14.0949 31.7366 14.233 31.8426 14.3251C31.7906 14.4791 31.643 14.9123 31.643 14.9123L32.2794 15.466L33.3117 12.4219L32.8794 12.638Z" fill="#DBA111"/>
<path d="M18.9861 13.3745L18.7015 13.4519L18.7223 13.5163C18.8128 13.8003 18.7312 14.0975 18.5088 14.292C18.381 14.4041 18.2321 14.4554 18.0676 14.4448C17.8343 14.4292 17.5862 14.2891 17.386 14.0601C17.1571 13.798 17.0436 13.5389 17.0586 13.3107C17.0704 13.1374 17.1553 12.9805 17.3111 12.8443C17.5155 12.6655 17.773 12.6982 17.9978 12.7427L18.0595 12.7546L18.1218 12.4848L18.0599 12.4694C17.7011 12.3813 17.3288 12.4674 17.063 12.7001C16.5371 13.1607 16.4949 13.9129 16.9651 14.451C17.4003 14.9486 18.1546 15.0032 18.6471 14.5731C19.0041 14.26 19.1241 13.8782 19.0032 13.4371L18.9861 13.3745" fill="white"/>
<path d="M20.5942 10.6307L20.1611 10.8354C20.1611 10.8354 20.5257 11.6091 20.5737 11.7108C20.481 11.7547 19.9666 11.9975 19.8732 12.041C19.8254 11.9392 19.461 11.1656 19.461 11.1656L18.9688 11.3975L19.9625 13.5048L20.4545 13.2733C20.4545 13.2733 20.051 12.418 20.0024 12.3145C20.0957 12.2706 20.6095 12.0285 20.7028 11.9844C20.7513 12.0876 21.1549 12.9433 21.1549 12.9433L21.6462 12.7112L20.6524 10.6035L20.5942 10.6307Z" fill="white"/>
<path d="M22.895 12.117C22.8748 12.0158 22.7584 11.4392 22.7382 11.3379C22.8459 11.3163 23.5571 11.1725 23.5571 11.1725L23.5033 10.9063C23.5033 10.9063 22.7924 11.0494 22.684 11.0713C22.6643 10.972 22.5617 10.4647 22.542 10.3655C22.6506 10.3433 23.4109 10.1902 23.4109 10.1902L23.357 9.92383L21.9551 10.2067L22.4162 12.4909L23.8315 12.2051L23.7777 11.9388C23.7776 11.9388 23.0045 12.0949 22.895 12.117Z" fill="white"/>
<path d="M25.2314 9.83795L24.688 9.82617L24.6868 9.89035L24.6387 12.156L26.0654 12.1863L26.0718 11.8838C26.0718 11.8838 25.2994 11.8675 25.1888 11.8651C25.1916 11.7442 25.2315 9.83795 25.2315 9.83795" fill="white"/>
<path d="M27.9539 10.4502C28.1267 10.4935 28.2265 10.6089 28.2688 10.8134L28.2835 10.8849L28.5669 10.789L28.5562 10.7331C28.5002 10.4539 28.2614 10.2154 27.9613 10.1399C27.7456 10.0861 27.5308 10.1143 27.3556 10.2195C27.1971 10.3148 27.0854 10.4649 27.0413 10.6418C26.9297 11.087 27.2198 11.2943 27.4525 11.4607C27.6881 11.6291 27.8301 11.7441 27.7696 11.9831C27.7456 12.0825 27.6806 12.1393 27.6305 12.1692C27.5529 12.2158 27.4576 12.2303 27.3739 12.2098C27.2021 12.1667 27.1136 12.0743 27.0465 11.8682L27.0247 11.8023L26.7305 11.9223L26.7476 11.9788C26.8331 12.2599 27.0409 12.4381 27.383 12.5237C27.7587 12.6176 28.2141 12.4476 28.3263 11.9999C28.4432 11.5308 28.1352 11.3038 27.8859 11.1215C27.6744 10.9654 27.5466 10.861 27.5901 10.6884C27.6282 10.5341 27.7559 10.4006 27.9539 10.4502" fill="white"/>
<path d="M30.2667 11.3395C30.3659 11.3894 31.0578 11.739 31.0578 11.739L31.1809 11.4963L29.9047 10.8516L29.8755 10.9091L28.8535 12.9315L30.1417 13.5826L30.2645 13.3399C30.2645 13.3399 29.5611 12.9843 29.4615 12.9338C29.508 12.8414 29.7734 12.3171 29.8195 12.2247C29.9177 12.2743 30.5649 12.6013 30.5649 12.6013L30.6882 12.3586C30.6882 12.3586 30.0403 12.0318 29.9422 11.982C29.9878 11.8919 30.2212 11.4296 30.2667 11.3395Z" fill="white"/>
<path d="M32.9387 12.7549L30.6934 13.9169L30.9443 14.1351C30.9443 14.1351 31.4205 13.8826 31.4878 13.847C31.5437 13.8958 31.9384 14.2391 31.9931 14.2867C31.9693 14.3577 31.7929 14.8733 31.7929 14.8733L32.219 15.2438L33.0866 12.6855L32.9387 12.7549ZM31.7478 13.7133C31.854 13.6584 32.1253 13.5174 32.2908 13.4313C32.2292 13.6072 32.1277 13.8969 32.0888 14.0096C32.0027 13.9343 31.834 13.7877 31.7478 13.7133Z" fill="white"/>
<path d="M31.3717 21.6512C31.1875 21.1635 30.5534 20.9516 29.954 21.1778C29.7041 21.2719 29.4994 21.429 29.3598 21.6146C29.7556 20.485 31.3677 20.2453 31.3677 19.1944C31.3677 17.433 28.8663 17.9263 29.2303 19.1947C29.2303 18.6192 30.1461 18.5137 30.1461 19.1947C30.1461 19.8757 28.5492 20.3223 28.5492 21.4728C28.5492 22.7412 29.8177 22.8585 29.6893 24.0185C29.6675 24.2185 29.4524 24.4814 29.1411 24.4814C27.1981 24.4814 27.8917 22.0895 27.2128 21.3617L27.2483 20.8703C27.6408 21.1109 28.682 20.5471 27.9965 19.6877C27.9965 20.1104 27.1165 20.087 27.1165 19.2885C27.1165 18.208 28.1266 18.7718 28.1757 19.0104C28.1272 18.6169 28.109 18.3672 28.1739 18.1404C27.6294 18.316 27.5784 18.0013 27.6473 17.8795C27.7262 17.7386 27.8317 17.5741 28.0439 17.5741C28.1585 17.5741 28.2274 17.5901 28.2679 17.618C28.3358 17.6644 28.3854 17.5584 28.3756 17.657C28.4339 17.5683 28.4106 17.679 28.4668 17.5901C28.5241 17.5017 28.6012 17.4018 28.7368 17.2687L28.7309 17.0694L28.8896 17.1275L29.0419 16.8812C28.8775 16.5404 28.6545 16.7045 28.4902 16.282C28.3528 16.2463 26.2131 16.479 26.2752 15.6255C26.1007 15.6255 25.6874 15.7211 25.9432 16.0686C25.7443 16.0926 25.601 15.8667 25.3012 16.4776C25.6767 16.4072 25.4823 16.8269 25.4823 16.9464C25.4823 17.7203 24.452 17.7073 24.452 17.3447C24.2037 17.586 24.3446 18.1136 24.7201 18.2436C24.7201 18.2436 24.5773 18.808 24.2248 19.1658C23.7015 19.1449 22.862 19.054 22.379 18.5974C22.1707 18.4007 22.0053 18.2935 21.8645 18.2384V17.9826C22.0707 17.8817 22.2968 17.703 22.5318 17.4045C22.7152 17.1806 22.8144 16.8935 22.7877 16.5886C22.7842 16.5522 22.7788 16.5163 22.7724 16.4812C22.7705 16.47 22.7677 16.4592 22.7651 16.4481C22.76 16.4235 22.754 16.4 22.7469 16.3757C22.7435 16.364 22.7403 16.352 22.7366 16.3403C22.7286 16.316 22.7199 16.2927 22.7104 16.2696C22.7064 16.2599 22.7036 16.2496 22.6989 16.2405C22.6859 16.2094 22.6713 16.1801 22.6555 16.1506C22.6488 16.1386 22.6417 16.1275 22.6351 16.1165C22.6243 16.0987 22.614 16.0808 22.6026 16.0637C22.5934 16.0501 22.5838 16.0363 22.5741 16.0227C22.5641 16.0096 22.5535 15.9962 22.5433 15.9831C22.5319 15.969 22.5207 15.9542 22.5085 15.9402C22.5004 15.931 22.4917 15.9222 22.4831 15.9137C22.4526 15.88 22.4195 15.8486 22.385 15.8187C22.3821 15.8162 22.3787 15.813 22.3753 15.8104C22.356 15.7939 22.3354 15.7782 22.3152 15.7631C22.31 15.7592 22.3046 15.7554 22.2988 15.7514C22.2772 15.7361 22.255 15.7212 22.2319 15.7069C22.2305 15.706 22.2292 15.7055 22.2282 15.7045C22.0083 15.5698 21.7426 15.4994 21.4619 15.5216C20.7861 15.5754 20.2838 16.1401 20.3403 16.7829C20.3842 17.2836 20.7535 17.6836 21.2337 17.8112C21.0653 17.9052 20.923 17.9595 20.8908 17.9595C20.8962 17.9629 20.9031 17.9669 20.9107 17.9718C20.9126 17.9726 20.9149 17.9741 20.9173 17.9752C20.9238 17.9794 20.9315 17.9838 20.9395 17.988C20.9414 17.9892 20.9438 17.9903 20.9457 17.9914C20.9566 17.9969 20.9677 18.0026 20.9803 18.0086C20.9823 18.0094 20.9846 18.0102 20.9866 18.0111C20.9977 18.0163 21.009 18.0217 21.021 18.0263C21.0245 18.0279 21.0282 18.0293 21.0319 18.0305C21.0613 18.0428 21.0943 18.0538 21.1305 18.0642C21.1357 18.0656 21.1411 18.0667 21.1456 18.0681C21.1602 18.0718 21.1751 18.0753 21.1904 18.079C21.1955 18.0799 21.2007 18.0809 21.2061 18.082C21.2255 18.0855 21.2458 18.0889 21.2662 18.0914C21.2679 18.0914 21.2697 18.0923 21.2713 18.0923V18.2378C21.2637 18.2395 21.2568 18.2402 21.2497 18.2414C21.0299 18.2775 20.8871 18.3452 20.8225 18.5409C20.7583 18.7373 20.8242 18.8082 20.9272 18.946C20.8402 19.1015 20.6123 19.1596 20.9097 19.503C20.8881 19.6327 20.9155 19.8393 21.1043 19.9019C21.1659 19.9228 21.2172 19.9339 21.2713 19.9433L21.2711 22.518C21.0828 22.6177 20.9899 22.7422 20.9385 22.8581C20.9385 22.8581 20.7874 22.5226 20.7974 23.1873C20.9691 23.054 20.9015 23.3415 20.9015 23.3415C20.6677 23.6445 20.9647 23.628 20.9647 23.628C21.1661 23.4269 21.125 23.7192 21.125 23.7192C21.125 24.0757 21.2698 24.2152 21.271 24.2158V26.1773L21.1 26.1778L21.1016 26.719L21.4007 26.7185C21.2329 26.7882 21.1221 26.954 21.1383 27.1372C21.1586 27.3681 21.372 27.5398 21.6149 27.521C21.8577 27.5015 22.0381 27.299 22.0174 27.0675C22.0036 26.9077 21.8978 26.7774 21.7538 26.7175L22.0298 26.7167L22.0287 26.1754L21.8641 26.1762L21.8643 24.4359C21.8983 24.4545 21.935 24.4674 21.9748 24.4761C21.9907 24.4791 22.0064 24.4813 22.0226 24.4824C22.0298 24.4835 22.0372 24.4835 22.0443 24.4837C22 24.2549 22.1367 24.1033 22.1367 24.1033C22.2069 23.9977 22.3084 23.9153 22.4239 23.8572C22.7693 23.6839 23.2406 23.7277 23.3815 24.0098C24.2741 23.7746 25.0411 22.8774 25.0411 22.8774L25.4805 23.6252C24.5489 23.9366 22.52 25.7005 23.9284 26.3114C23.9279 26.4892 23.904 27.809 23.0577 27.7042C21.8389 27.5541 21.535 28.0583 21.769 28.6252C21.659 29.1032 22.0271 29.2692 22.0271 29.2692C21.9719 28.993 22.1047 28.7643 22.6084 28.7672C22.6058 29.2709 22.9311 29.3617 22.9311 29.3617C22.9334 28.9304 23.2331 28.7706 23.4995 28.7718C23.4975 29.1272 23.9104 29.2623 23.9104 29.2623C23.9104 29.2623 23.8058 28.8527 24.2725 28.7718C25.4542 28.5659 24.3444 27.3506 26.1414 27.0157C26.1414 27.0157 25.2466 26.8808 25.2466 26.3916C25.2466 25.9463 26.0566 25.6419 26.3355 25.6419C26.9074 26.7346 27.5288 26.7433 27.6916 26.7511C27.9449 27.034 27.86 27.9875 27.4944 27.9688C26.1558 27.8969 26.2048 28.7112 26.3548 28.8777C26.3377 29.1938 26.5835 29.3763 26.5835 29.3763C26.5835 29.0375 26.9059 28.9423 27.3193 28.9647C27.2976 29.3785 27.5612 29.4403 27.5612 29.4403C27.5685 29.0238 27.8766 28.9532 28.0955 28.9647C28.0795 29.2565 28.3692 29.3425 28.3692 29.3425C28.3692 29.3425 28.3407 28.972 28.7307 28.972C29.4705 28.9715 28.396 27.386 29.84 25.8179C28.5716 26.405 27.8968 24.9374 27.8968 24.6557C28.5487 25.4186 30.6624 25.5709 30.6624 24.2677C30.6624 23.0228 29.2941 22.5589 29.9343 22.0827C30.3066 21.8059 31.0388 22.3652 30.6199 22.943C31.2206 22.7204 31.5554 22.1386 31.3716 21.6512L31.3717 21.6512ZM23.2641 21.6904C22.7859 21.9716 22.4653 22.3273 22.0294 22.4829C21.9632 22.5062 21.9104 22.5128 21.8645 22.5098V20.0798C21.98 20.0907 22.2797 20.1317 22.6302 20.2766C22.9773 20.466 22.9773 20.8574 22.5393 20.9502C22.8161 21.4803 23.7751 21.2208 23.9841 20.789C24.0865 20.7799 24.177 20.9627 24.2621 21.1355C24.1275 21.2054 23.8521 21.3443 23.2641 21.6904ZM28.6165 17.6621C28.5638 17.7335 28.512 17.8045 28.4666 17.8653C28.5878 18.0668 28.816 18.1928 29.066 18.1697C29.4114 18.137 29.6657 17.8304 29.634 17.4846C29.6321 17.472 29.6304 17.4607 29.6287 17.4484C29.5917 17.6275 29.3806 17.7791 29.1122 17.8039C28.909 17.823 28.725 17.7646 28.6165 17.6621H28.6165Z" fill="#D1D3D4"/>
<path d="M28.0781 17.4798C28.1985 17.6813 28.4272 17.8073 28.6772 17.784C29.0232 17.7517 29.2768 17.4449 29.2452 17.0987C29.2439 17.0865 29.2416 17.0747 29.24 17.0625C29.2033 17.2413 28.9913 17.3934 28.7234 17.4182C28.5196 17.4373 28.3358 17.3788 28.2274 17.2765C28.1751 17.348 28.1226 17.419 28.0781 17.4798" fill="#ED1C24"/>
<path d="M26.2291 14.8379C26.2192 14.8379 26.2091 14.8418 26.1973 14.8458C25.9801 14.8917 25.3134 15.3505 25.5568 15.6813C25.357 15.7049 24.8933 15.568 24.5941 16.1785C24.9699 16.1078 25.0953 16.4408 25.0953 16.5604C25.0953 17.0135 24.7434 17.1952 24.4509 17.1969C24.2551 17.1974 24.0872 17.1177 24.069 16.9821C24.0698 16.9781 24.068 16.9742 24.069 16.9702C24.0687 16.9698 24.065 16.9707 24.065 16.9702H24.057C23.8238 17.2163 23.9655 17.7292 24.3355 17.8573C24.3355 17.8573 24.1908 18.4224 23.8382 18.7803C23.4873 18.7666 22.9973 18.7189 22.5652 18.5535C22.4443 18.5075 22.3298 18.4498 22.2231 18.3824C22.1407 18.3314 22.0618 18.2767 21.9924 18.2114C21.7842 18.0146 21.6198 17.9078 21.4792 17.8533V17.5948C21.6854 17.4936 21.9125 17.3164 22.1475 17.0179C22.3311 16.7943 22.4289 16.5075 22.4021 16.2024C22.3992 16.1659 22.3934 16.1307 22.3862 16.095C22.3846 16.0839 22.3806 16.0743 22.3782 16.0632C22.3729 16.0386 22.3694 16.0112 22.3623 15.9876C22.3591 15.9755 22.3546 15.9637 22.3504 15.9518C22.3427 15.9274 22.3316 15.9073 22.3225 15.8841C22.3185 15.8743 22.3186 15.862 22.3146 15.8523C22.3012 15.8218 22.2863 15.7936 22.2708 15.7648C22.2647 15.7525 22.2574 15.7407 22.2509 15.729C22.2401 15.7114 22.2264 15.6944 22.2151 15.6773C22.2058 15.6636 22.1973 15.6511 22.1873 15.6375C22.1774 15.6244 22.1661 15.6103 22.1555 15.5977C22.1441 15.5829 22.1359 15.5679 22.1236 15.554C22.1157 15.5448 22.1044 15.5349 22.0958 15.5261C22.0649 15.4927 22.0348 15.46 22.0003 15.4306C21.9968 15.4278 21.9918 15.4252 21.9884 15.4227C21.969 15.4064 21.9495 15.3898 21.9287 15.3749C21.9232 15.3714 21.9182 15.3667 21.9128 15.363C21.8908 15.3474 21.8684 15.3337 21.8452 15.3192C21.8438 15.3186 21.8425 15.3197 21.8412 15.3192C21.6214 15.1839 21.3579 15.1143 21.0774 15.1363C21.017 15.1411 20.9559 15.1518 20.8984 15.1641C20.3143 15.2935 19.904 15.8122 19.9555 16.3973C19.9992 16.893 20.3582 17.2879 20.8307 17.4197C20.8356 17.4211 20.8416 17.4225 20.8466 17.4237C20.6778 17.5177 20.5368 17.5709 20.5045 17.5709C20.51 17.5744 20.5167 17.5816 20.5244 17.5868C20.5264 17.5877 20.5301 17.5856 20.5324 17.5868C20.5392 17.5907 20.5437 17.5982 20.5523 17.6027C20.5543 17.6039 20.5579 17.6019 20.5602 17.6027C20.5703 17.6081 20.5798 17.6166 20.592 17.6226C20.5943 17.6232 20.5983 17.6253 20.6 17.6266C20.6107 17.6316 20.6233 17.6334 20.6358 17.6385C20.6392 17.64 20.6401 17.6411 20.6438 17.6425C20.6738 17.6543 20.7066 17.6681 20.7432 17.6783C20.7483 17.6794 20.754 17.6808 20.7591 17.6823C20.7733 17.686 20.7875 17.687 20.8029 17.6902C20.808 17.6916 20.8134 17.693 20.8188 17.6942C20.8382 17.6979 20.8575 17.7036 20.8785 17.7061C20.8799 17.7061 20.885 17.7051 20.8864 17.7061V17.8494C20.8796 17.8504 20.87 17.8519 20.8626 17.8533C20.6433 17.8892 20.5013 17.9597 20.4369 18.1557C20.3727 18.3521 20.4374 18.4237 20.5403 18.5615C20.4528 18.7163 20.2276 18.7747 20.5244 19.1184C20.5033 19.2478 20.5308 19.4534 20.7193 19.5162C20.7811 19.5371 20.8325 19.5463 20.8864 19.556V22.1299C20.6979 22.2298 20.6033 22.3559 20.5523 22.472C20.5523 22.472 20.1919 22.4236 20.2022 23.0886C20.3738 22.9547 20.5165 22.9533 20.5165 22.9533C20.2829 23.256 20.4488 23.5342 20.4488 23.5342C20.6502 23.3325 20.7392 23.3313 20.7392 23.3313C20.7392 23.6892 20.8864 23.8285 20.8864 23.8285C20.8864 23.7746 20.8893 23.7256 20.8984 23.6774C20.8893 23.7256 20.8864 23.7746 20.8864 23.8285V25.7898H20.7154V26.0404V26.3308H21.0137C20.9772 26.3461 20.9443 26.3666 20.9143 26.3905C20.8109 26.4691 20.7474 26.5906 20.7512 26.7246V26.7485C20.7717 26.98 20.9853 27.1544 21.2286 27.1344C21.4711 27.1154 21.6504 26.9118 21.6303 26.6809C21.6162 26.5218 21.5117 26.3907 21.3678 26.3308H21.6423V25.7898H21.4792V24.0473C21.5134 24.0651 21.5476 24.0794 21.5866 24.0871C21.6033 24.0909 21.6221 24.0932 21.6383 24.0951C21.6454 24.0952 21.6511 24.0948 21.6582 24.0951C21.6139 23.8664 21.7497 23.7172 21.7497 23.7172C21.8204 23.6113 21.9211 23.5287 22.0361 23.4705C22.382 23.2971 22.854 23.3397 22.9949 23.6217C23.8875 23.3867 24.6538 22.4919 24.6538 22.4919L25.0953 23.2358C24.1636 23.5477 22.1355 25.3136 23.5438 25.925C23.5432 26.1023 23.5185 27.4211 22.6726 27.3174C21.4541 27.1666 21.1498 27.6695 21.3837 28.2364C21.2733 28.7149 21.6423 28.8808 21.6423 28.8808C21.5873 28.605 21.7195 28.3772 22.2231 28.3796C22.2204 28.8832 22.5453 28.9763 22.5453 28.9763C22.5471 28.5444 22.8476 28.382 23.1142 28.3835C23.1125 28.739 23.524 28.8768 23.524 28.8768C23.524 28.8768 23.4187 28.4644 23.886 28.3835C25.0672 28.1777 23.9586 26.9646 25.7557 26.6292C25.7557 26.6292 24.8606 26.4943 24.8606 26.0046C24.8606 25.5601 25.6682 25.2567 25.9467 25.2567C25.9469 25.2573 25.9503 25.2561 25.9506 25.2567C26.5225 26.3446 27.1448 26.3543 27.3072 26.3626C27.5603 26.645 27.4739 27.5991 27.1083 27.58C25.7697 27.5087 25.8166 28.3244 25.9665 28.491C25.9499 28.8075 26.1973 28.9882 26.1973 28.9882C26.1973 28.6492 26.5198 28.5567 26.9332 28.5785C26.911 28.9919 27.1759 29.0519 27.1759 29.0519C27.1821 28.6353 27.4897 28.5669 27.709 28.5785C27.6937 28.871 27.9835 28.9564 27.9835 28.9564C27.9835 28.9564 27.9557 28.5869 28.3455 28.5864C29.0856 28.5864 28.0106 26.9998 29.4554 25.4317C28.1871 26.0192 27.5101 24.5518 27.5101 24.2701C28.1621 25.0333 30.2789 25.1831 30.2789 23.8803C30.2789 22.8291 29.303 22.334 29.3838 21.919C29.3986 21.8428 29.4477 21.7704 29.5469 21.6962C29.9197 21.4191 30.6519 21.9787 30.2351 22.5555C30.8353 22.3329 31.1701 21.75 30.987 21.2626C30.8023 20.7749 30.1658 20.5631 29.5668 20.7892C29.3159 20.8839 29.1134 21.0409 28.974 21.2268C29.3691 20.0973 30.983 19.8594 30.983 18.8081C30.983 17.0467 28.4788 17.5398 28.8428 18.8081C28.8428 18.789 28.8444 18.7707 28.8467 18.7524C28.8503 18.7195 28.8572 18.6902 28.8666 18.6609C29.0073 18.2213 29.7617 18.1902 29.7617 18.8081C29.7617 19.4891 28.1625 19.9366 28.1625 21.0876C28.1625 22.3559 29.4325 22.4701 29.3042 23.6296C29.2825 23.8304 29.0666 24.0951 28.7552 24.0951C28.0876 24.0951 27.7295 23.8113 27.522 23.4108C27.1261 22.646 27.2716 21.4535 26.8258 20.9762L26.8616 20.4829C27.2543 20.7239 28.2977 20.1608 27.6135 19.3014C27.6135 19.7245 26.7303 19.6978 26.7303 18.8996C26.7303 17.8191 27.7395 18.3867 27.7885 18.6251C27.7401 18.2319 27.7222 17.9798 27.7885 17.7539C27.2434 17.929 27.1916 17.6135 27.2594 17.4913C27.3392 17.3502 27.4455 17.185 27.6573 17.185C27.9634 17.185 27.9439 17.2972 27.9278 17.4555C28.0447 17.2787 28.0774 17.1487 28.3495 16.8827L28.3455 16.6838L28.5046 16.7395L28.6558 16.4928C28.4916 16.152 28.2678 16.319 28.1028 15.8961C27.9661 15.8602 26.1668 15.6917 26.2291 14.8379ZM25.8353 15.4943C25.8423 15.5394 25.8572 15.5853 25.883 15.6256C25.8572 15.5853 25.8423 15.5394 25.8353 15.4943ZM21.153 16.0075C21.3206 15.9941 21.4689 16.1138 21.4832 16.274C21.4971 16.4334 21.3726 16.575 21.2047 16.5883C21.0364 16.6018 20.8879 16.4818 20.8745 16.3217C20.8708 16.2793 20.8761 16.2402 20.8904 16.2024C20.8904 16.2015 20.89 16.1988 20.8904 16.1984C20.892 16.1927 20.8965 16.1881 20.8984 16.1825C20.9423 16.0884 21.0375 16.0168 21.153 16.0075ZM25.2306 16.1746C25.2507 16.2081 25.2653 16.2465 25.2783 16.2859C25.2653 16.2465 25.2507 16.2081 25.2306 16.1746ZM24.057 17.1771C24.0675 17.2389 24.0901 17.2938 24.1207 17.3441C24.0902 17.2937 24.0674 17.2389 24.057 17.1771ZM24.7174 18.0045C24.674 18.122 24.6129 18.2631 24.5463 18.4063C24.6129 18.2631 24.674 18.122 24.7174 18.0045ZM29.1889 18.2631C29.1163 18.302 29.048 18.3535 28.9939 18.4143C29.0484 18.3525 29.1153 18.3024 29.1889 18.2631ZM30.0362 18.3586C30.0638 18.3889 30.0866 18.4239 30.1078 18.462C30.0866 18.4239 30.0638 18.3889 30.0362 18.3586ZM21.4792 19.6913C21.5947 19.7024 21.8931 19.7458 22.243 19.8902C22.247 19.8921 22.2514 19.8918 22.2549 19.8941C22.5914 20.086 22.5847 20.4715 22.1515 20.5625C22.4278 21.093 23.3906 20.8351 23.5995 20.4033C23.7014 20.3943 23.7888 20.5769 23.874 20.7494C23.7397 20.8195 23.4672 20.9562 22.8795 21.3024C22.4012 21.5839 22.0783 21.9387 21.6423 22.0941C21.5759 22.1181 21.5247 22.1244 21.4792 22.1219V19.6913ZM24.1883 19.7191C24.1687 19.7746 24.143 19.827 24.1087 19.8742C24.143 19.827 24.1687 19.7746 24.1883 19.7191ZM21.7537 22.3606C21.6977 22.3719 21.65 22.3805 21.6065 22.3805C21.65 22.3805 21.6977 22.3719 21.7537 22.3606ZM20.7074 22.4998C20.6952 22.5086 20.6843 22.5216 20.6756 22.5317C20.6853 22.5198 20.6931 22.5099 20.7074 22.4998ZM20.3573 22.7823C20.3133 22.8319 20.2733 22.8837 20.2459 22.9374C20.2729 22.8845 20.3141 22.8313 20.3573 22.7823ZM29.7617 23.5739C29.7638 23.6073 29.7657 23.6424 29.7657 23.6774C29.7657 23.6947 29.7613 23.7195 29.7577 23.749C29.7613 23.7195 29.7617 23.6947 29.7617 23.6774C29.7617 23.6411 29.764 23.6085 29.7617 23.5739H29.7617ZM29.6265 24.0951C29.6111 24.1166 29.5937 24.1381 29.5747 24.1587C29.5929 24.1388 29.6116 24.1158 29.6265 24.0951ZM21.0098 26.3706C21.0285 26.3706 21.0478 26.3749 21.0654 26.3785C21.0478 26.3749 21.0285 26.3746 21.0098 26.3746C20.993 26.3746 20.9778 26.3755 20.962 26.3785C20.9778 26.3754 20.993 26.3706 21.0098 26.3706Z" fill="#034694"/>
<path d="M27.2401 16.3105L27.4574 16.322L27.3487 16.4711C27.3486 16.4711 27.2036 16.517 27.2401 16.3105ZM26.7218 16.3105H27.0349C27.0349 16.3105 27.0236 16.5632 27.2521 16.5858L27.2036 16.6662C27.2036 16.6662 26.5893 16.5057 26.7218 16.3105Z" fill="white"/>
<path d="M21.3433 18.4703C21.3541 18.4296 20.9744 18.2074 20.7679 18.1533C20.6808 18.1308 20.6138 18.2354 20.603 18.2762C20.5924 18.3172 20.5996 18.4413 20.6863 18.4641C20.893 18.5182 21.3328 18.5111 21.3433 18.4703V18.4703ZM21.3122 18.8493C21.3154 18.8108 20.9367 18.6746 20.7413 18.66C20.6595 18.6539 20.6164 18.7598 20.6138 18.7979C20.6111 18.8368 20.638 18.9474 20.7199 18.9532C20.915 18.9677 21.3097 18.8884 21.3122 18.8493ZM20.8822 17.7064V17.8516C20.9377 17.9072 21.1402 17.9725 21.1634 17.9725V17.685C21.1634 17.685 21.0111 17.7169 20.8822 17.7064ZM20.8029 19.1228C20.7436 19.1251 20.7213 19.2038 20.7228 19.232C20.7233 19.26 20.7516 19.3372 20.8109 19.3349C20.952 19.3299 21.2287 19.2411 21.2275 19.2134C21.2264 19.1857 20.9441 19.1179 20.8029 19.1228ZM20.5123 22.9554C20.2788 23.258 20.447 23.5341 20.447 23.5341C20.447 23.3233 20.6874 23.052 20.741 22.9991C20.741 22.9991 20.6587 22.9554 20.5123 22.9554ZM21.2574 23.5975C21.2215 23.7842 21.3144 23.966 21.4753 24.0496C21.5095 24.0673 21.5466 24.0814 21.5856 24.089C21.6023 24.0929 21.618 24.0949 21.6342 24.0967C21.6413 24.0968 21.6485 24.097 21.6556 24.0972C21.6556 24.0972 21.4191 23.8758 21.5142 23.6665C21.4525 23.6242 21.3604 23.5974 21.2574 23.5974V23.5975ZM20.83 17.4204C20.4759 17.2476 20.224 16.8144 20.224 16.3065C20.224 15.7676 20.5072 15.3121 20.8962 15.163C20.3121 15.2924 19.9001 15.8115 19.9516 16.3966C19.9953 16.8923 20.3574 17.2886 20.83 17.4204ZM24.59 16.1773C24.9658 16.1066 25.0934 16.4407 25.0934 16.5603C25.0934 17.0134 24.7405 17.1959 24.448 17.1977V17.1979C25.8048 17.1979 25.3267 15.4408 24.59 16.1773V16.1773ZM23.6831 20.0764C24.3315 20.0764 24.2879 19.2295 24.1477 19.0891C24.3558 18.8812 24.7839 17.9274 24.7839 17.7512C24.7839 17.7512 23.9281 17.5666 24.0647 16.9727C24.0645 16.9723 24.0645 16.972 24.0645 16.9715L24.053 16.9694C23.8198 17.2156 23.9616 17.7289 24.3316 17.8569C24.3316 17.8569 24.1888 18.4213 23.8363 18.7791C23.4853 18.7655 22.9934 18.7193 22.5613 18.554C23.2292 18.9084 23.917 19.4442 23.6831 20.0764L23.6831 20.0764ZM21.1499 16.01C21.3176 15.9965 21.4653 16.1154 21.4796 16.2756C21.4935 16.4351 21.3686 16.576 21.2007 16.5893C21.0324 16.6028 20.8844 16.4839 20.871 16.3239C20.871 16.572 21.0724 16.7736 21.321 16.7736C21.3247 16.7736 21.3284 16.7733 21.3322 16.7733C21.3544 16.8833 21.3621 17.0002 21.3262 17.0858C21.5689 16.8747 21.7708 16.6107 21.7708 16.3239C21.7708 16.0752 21.5689 15.8736 21.321 15.8736C21.114 15.8736 20.9406 16.013 20.8876 16.2024C20.927 16.0983 21.0265 16.0199 21.15 16.0099L21.1499 16.01ZM25.9286 15.6826C25.6354 15.3888 26.0688 14.8398 26.228 14.8398C26.0538 14.8398 25.2988 15.3342 25.5551 15.6826C25.6965 15.6826 25.9286 15.6826 25.9286 15.6826ZM22.1506 20.5634C22.3832 20.6349 22.6171 20.5478 22.6716 20.3691C22.726 20.19 22.5809 19.9878 22.3479 19.9161C22.3157 19.9065 22.2833 19.8996 22.2513 19.8957C22.5878 20.0876 22.5838 20.4725 22.1506 20.5634ZM21.4759 18.092C21.4759 18.092 21.8092 18.1974 22.2193 18.3848C22.1369 18.3337 22.0597 18.2762 21.9903 18.2108C21.7821 18.0141 21.6165 17.9069 21.4759 17.8524V18.092ZM21.6023 22.3794C22.2992 22.3794 24.7089 20.841 24.7089 20.841C24.1137 20.841 23.8733 20.7489 23.8733 20.7489C23.739 20.8189 23.4632 20.9573 22.8755 21.3034C22.3972 21.5849 22.0767 21.9409 21.6406 22.0962C21.5742 22.1203 21.5214 22.1259 21.4759 22.1234C21.3755 22.1147 21.2651 22.1011 21.1634 22.0951V19.8825C21.1634 19.6504 20.9939 19.5571 20.8822 19.5571V22.132C20.6937 22.2319 20.601 22.3561 20.55 22.4722C20.55 22.4722 20.1907 22.4242 20.2009 23.0892C20.2009 22.9129 20.4626 22.6044 20.6441 22.6044C20.6441 22.3794 21.3046 22.3794 21.6023 22.3794ZM27.6129 25.9414C27.4364 25.9414 26.6264 25.9757 26.5537 25.2702C26.3747 25.2318 26.1657 25.224 25.9462 25.2552C26.5188 26.348 27.1404 26.3568 27.303 26.3651C27.5562 26.6475 27.4713 27.6009 27.1057 27.5818C25.7671 27.5105 25.8162 28.3248 25.9661 28.4914C25.9661 27.8773 26.3836 27.7318 27.4381 27.7318C27.4381 27.7318 28.3 26.6286 27.6129 25.9414ZM27.8881 28.5782H27.7069C27.6916 28.8708 27.9812 28.9569 27.9812 28.9569C27.8881 28.8639 27.8203 28.6467 27.8881 28.5782ZM26.1943 28.9901C26.1173 28.913 26.0538 28.6039 26.1657 28.4914H25.9661C25.9494 28.808 26.1943 28.9901 26.1943 28.9901ZM30.1901 18.8231C30.1901 17.8883 28.908 18.0352 28.8447 18.753C28.9012 18.2269 29.7578 18.1492 29.7578 18.8083C29.7578 19.4893 28.1603 19.9355 28.1603 21.0865C28.1603 22.3549 29.4285 22.4722 29.3002 23.6318C29.2785 23.8325 29.0634 24.0948 28.7521 24.0948C28.0844 24.0948 27.7271 23.8115 27.5196 23.411C27.7318 23.9779 28.1053 24.4124 28.8826 24.4124C29.688 24.4124 29.7611 23.8171 29.7611 23.6788C29.7611 22.5179 28.5486 22.2419 28.5486 21.1385C28.5487 20.0642 30.1901 19.6216 30.1901 18.8231ZM20.7362 23.3333C20.7362 23.6913 20.8822 23.8301 20.8822 23.8301C20.8822 23.6143 20.9709 23.4319 21.0216 23.3816C20.9466 23.3061 20.7362 23.3333 20.7362 23.3333ZM30 21.3548C29.6746 21.3548 29.4081 21.6038 29.3801 21.9215C29.3949 21.8452 29.4457 21.7711 29.545 21.697C29.9178 21.4199 30.6485 21.978 30.2317 22.5549C30.4608 22.4629 30.6218 22.2393 30.6218 21.9774C30.6219 21.6338 30.3435 21.3548 30 21.3548ZM27.148 28.5782H26.9306C26.9084 28.9917 27.1729 29.0539 27.1729 29.0539C27.0607 28.942 27.042 28.6842 27.148 28.5782ZM21.0071 26.3732C20.9735 26.3732 20.9421 26.3801 20.9122 26.3914C20.8089 26.4701 20.7459 26.5923 20.7496 26.7263C20.7841 26.8365 20.8856 26.9162 21.0071 26.9162C21.1571 26.9162 21.2785 26.7947 21.2785 26.6448C21.2785 26.4947 21.1571 26.3732 21.0071 26.3732ZM22.5341 28.3809H22.2199C22.2172 28.8845 22.5429 28.9758 22.5429 28.9758C22.4511 28.8834 22.3345 28.5804 22.5341 28.3809H22.5341ZM23.5085 25.1962C23.5085 24.0443 26.2672 23.9091 26.2672 22.9602C26.2672 22.5737 25.9336 22.3992 25.6964 22.3992C25.7636 22.4664 26.1224 23.238 25.092 23.238C24.1603 23.5499 22.1313 25.3136 23.5396 25.925C23.539 26.1023 23.5151 27.4222 22.6693 27.3184C21.4507 27.1676 21.1467 27.6713 21.3806 28.2382C21.3806 27.3781 21.9846 27.5379 22.7734 27.5379C23.2667 27.5379 23.9879 26.9141 23.9879 25.8638C23.9879 25.8638 23.5085 25.6798 23.5085 25.1962ZM21.1634 25.9022V23.5892C21.0071 23.5892 20.8822 23.8303 20.8822 23.8303V25.8036V25.791L20.7114 25.7915L20.7128 26.0406C20.8443 26.0405 21.1634 25.9727 21.1634 25.9021L21.1634 25.9022ZM21.6382 28.8826C21.6382 28.8826 21.3944 28.4994 21.6557 28.2382H21.3807C21.2703 28.7168 21.6382 28.8826 21.6382 28.8826ZM23.3389 28.3859C23.3389 28.3859 23.2075 28.3859 23.1108 28.3859C23.1091 28.7413 23.522 28.8759 23.522 28.8759C23.3765 28.7311 23.2768 28.447 23.3389 28.3859Z" fill="#6A7AB5"/>
<path d="M15.6673 24.5469L15.6521 24.5002L15.6456 24.4516C15.6233 24.2853 15.5831 23.9755 15.3439 23.92C15.2799 23.9052 15.2138 23.9128 15.1433 23.9418C15.1625 23.8682 15.1603 23.8016 15.1371 23.7405C15.0489 23.5111 14.7368 23.5141 14.569 23.5162H14.5197L14.4711 23.5073C14.3064 23.4769 13.999 23.4195 13.8729 23.63C13.839 23.6862 13.8255 23.7513 13.8313 23.8271C13.7675 23.7859 13.7031 23.7675 13.6382 23.7706C13.3927 23.7837 13.2989 24.0816 13.2487 24.2419L13.2334 24.2884L13.2106 24.3317C13.1301 24.4794 12.981 24.7532 13.1421 24.9387C13.1851 24.9882 13.243 25.0214 13.317 25.0389C13.2585 25.0873 13.2207 25.1427 13.2042 25.2061C13.1401 25.4429 13.3947 25.624 13.531 25.7211L13.571 25.7506L13.6055 25.7854C13.721 25.9077 13.9356 26.1339 14.1616 26.0381C14.2214 26.0124 14.271 25.9678 14.3107 25.903C14.339 25.9737 14.3797 26.026 14.4345 26.0622C14.6404 26.1955 14.8911 26.0097 15.0259 25.9105L15.0658 25.8813L15.1101 25.8596C15.2616 25.7871 15.5437 25.6532 15.5224 25.4085C15.5168 25.3429 15.4893 25.2826 15.4402 25.2249C15.5158 25.2204 15.5783 25.1975 15.629 25.1564C15.8202 25.002 15.7207 24.706 15.6673 24.5469" fill="white"/>
<path d="M14.5938 24.743C15.9672 25.5548 15.5442 24.6621 15.514 24.5301C15.4836 24.3986 15.472 23.4112 14.5938 24.743Z" fill="#ED1C24"/>
<path d="M14.5063 24.9473C14.1587 26.5037 14.8769 25.8261 14.9927 25.7571C15.1085 25.6875 16.044 25.3711 14.5063 24.9473Z" fill="#ED1C24"/>
<path d="M14.2867 24.9277C12.6984 25.0776 13.5653 25.5516 13.6671 25.6401C13.7692 25.7284 14.3586 26.5208 14.2867 24.9277Z" fill="#ED1C24"/>
<path d="M14.2353 24.7113C13.6014 23.2474 13.4186 24.2181 13.3658 24.3428C13.313 24.4665 12.7415 25.2724 14.2353 24.7113Z" fill="#ED1C24"/>
<path d="M36.9228 24.3318L36.9002 24.2886L36.8846 24.242C36.8344 24.0816 36.7406 23.7838 36.4958 23.7707C36.4301 23.7676 36.3661 23.7859 36.3023 23.8267C36.3081 23.7514 36.2939 23.6863 36.2609 23.6301C36.1342 23.4195 35.8273 23.4769 35.6625 23.5073L35.6134 23.5163H35.5643C35.3972 23.5141 35.0848 23.5112 34.9969 23.7405C34.973 23.8016 34.9713 23.8683 34.99 23.9418C34.9206 23.9129 34.8544 23.9054 34.79 23.9201C34.551 23.9754 34.5099 24.2853 34.4888 24.4517L34.4814 24.5003L34.4666 24.547C34.4129 24.7061 34.3137 25.002 34.5049 25.1566C34.5556 25.1977 34.6176 25.2206 34.6936 25.2251C34.6445 25.2828 34.6172 25.3431 34.6115 25.4087C34.5903 25.6533 34.872 25.7873 35.0238 25.8598L35.0676 25.8815L35.1075 25.9107C35.2428 26.01 35.4937 26.1957 35.6989 26.0624C35.7545 26.0262 35.7948 25.9738 35.8227 25.9032C35.8627 25.9679 35.9118 26.0125 35.9722 26.0384C36.1981 26.1341 36.413 25.9079 36.5283 25.7856L36.5631 25.7508L36.6025 25.7213C36.7393 25.6243 36.9937 25.4431 36.9298 25.2063C36.9127 25.1428 36.8757 25.0875 36.8168 25.0391C36.8905 25.0216 36.9485 24.9884 36.9913 24.9389C37.1527 24.7533 37.0038 24.4796 36.9228 24.3318" fill="white"/>
<path d="M35.7082 24.5983C34.5122 23.5432 35.4915 23.6691 35.6262 23.6573C35.7602 23.646 36.7034 23.3515 35.7082 24.5983Z" fill="#ED1C24"/>
<path d="M35.5405 24.743C34.1671 25.5548 34.5893 24.6621 34.6201 24.5301C34.6502 24.3986 34.6616 23.4112 35.5405 24.743Z" fill="#ED1C24"/>
<path d="M35.6296 24.9473C35.9774 26.5037 35.2591 25.8261 35.143 25.7571C35.0274 25.6875 34.0922 25.3711 35.6296 24.9473Z" fill="#ED1C24"/>
<path d="M35.8498 24.9277C37.4381 25.0776 36.5719 25.5516 36.4696 25.6401C36.3682 25.7284 35.7779 26.5208 35.8498 24.9277Z" fill="#ED1C24"/>
<path d="M35.8965 24.7113C36.5308 23.2474 36.7132 24.2181 36.7662 24.3428C36.8187 24.4665 37.3902 25.2724 35.8965 24.7113Z" fill="#ED1C24"/>
<path d="M36.2064 24.7589C36.2049 24.7462 36.2008 24.7348 36.1991 24.7225C36.3266 24.6288 36.4644 24.5284 36.4644 24.5284L36.4511 24.4988C36.4511 24.4988 36.2904 24.5268 36.1363 24.5537C36.0589 24.4269 35.927 24.3409 35.776 24.3262C35.728 24.182 35.6801 24.0352 35.6801 24.0352L35.6478 24.0379C35.6478 24.0379 35.6261 24.1909 35.6042 24.3408C35.5114 24.3659 35.4281 24.4184 35.3648 24.4936C35.331 24.5341 35.3066 24.5799 35.2872 24.6278C35.1319 24.6278 34.9678 24.6283 34.9678 24.6283L34.9609 24.6603C34.9609 24.6603 35.1139 24.7348 35.2552 24.804C35.2557 24.8169 35.2541 24.8296 35.2552 24.8427C35.2661 24.9671 35.3243 25.0789 35.4184 25.1604C35.3687 25.3156 35.3128 25.489 35.3128 25.489L35.3402 25.5055C35.3402 25.5055 35.4691 25.3721 35.5838 25.2543C35.6437 25.2739 35.7075 25.2817 35.772 25.276C35.8369 25.271 35.8985 25.2516 35.9544 25.2226C36.0874 25.3183 36.2374 25.4268 36.2374 25.4268L36.262 25.4057C36.262 25.4057 36.1769 25.2449 36.1011 25.101C36.1797 25.004 36.2168 24.8831 36.2064 24.7589" fill="white"/>
<path d="M35.7049 24.5187C35.6296 24.5246 35.5618 24.5601 35.5134 24.6183C35.465 24.676 35.4416 24.7489 35.4485 24.8237C35.4616 24.9788 35.5989 25.0941 35.7535 25.0804C35.8294 25.0735 35.8966 25.0381 35.9457 24.9807C35.9937 24.9225 36.017 24.8501 36.0107 24.7747C35.9972 24.6195 35.8597 24.5047 35.7049 24.5187Z" fill="#ED1C24"/>
<path d="M14.4276 24.5983C15.624 23.5432 14.6442 23.6691 14.5099 23.6573C14.3752 23.646 13.4322 23.3515 14.4276 24.5983Z" fill="#ED1C24"/>
<path d="M14.8785 24.804C15.0208 24.7349 15.173 24.6602 15.173 24.6602L15.1659 24.6282C15.1659 24.6282 15.0022 24.6277 14.8465 24.6277C14.8276 24.5799 14.8031 24.534 14.7692 24.4936C14.7059 24.4184 14.6226 24.366 14.5296 24.3408C14.5083 24.1908 14.4866 24.0379 14.4866 24.0379L14.4537 24.0352C14.4537 24.0352 14.4061 24.1819 14.3589 24.3262C14.2069 24.3409 14.0748 24.4269 13.9976 24.5537C13.844 24.5268 13.6824 24.4988 13.6824 24.4988L13.6699 24.5284C13.6699 24.5284 13.8074 24.6288 13.9348 24.7225C13.9327 24.7349 13.929 24.7463 13.9277 24.7589C13.9172 24.8838 13.955 25.004 14.0335 25.101C13.9571 25.2448 13.872 25.4057 13.872 25.4057L13.8972 25.4268C13.8972 25.4268 14.047 25.3183 14.1799 25.2225C14.2357 25.2517 14.2973 25.2705 14.3621 25.276C14.427 25.2818 14.4906 25.2739 14.5506 25.2542C14.6649 25.3721 14.7936 25.5055 14.7936 25.5055L14.8219 25.489C14.8219 25.489 14.7659 25.3154 14.7159 25.1608C14.8098 25.0788 14.868 24.967 14.8791 24.8425C14.8804 24.8296 14.8784 24.8169 14.8784 24.804" fill="white"/>
<path d="M14.6213 24.6183C14.5727 24.5601 14.5052 24.5245 14.4296 24.5187C14.275 24.5047 14.1376 24.6195 14.1241 24.7747C14.1177 24.8501 14.141 24.9225 14.1889 24.9807C14.2374 25.0382 14.3056 25.0736 14.3808 25.0805C14.5353 25.0941 14.6728 24.9788 14.6862 24.8238C14.6925 24.7489 14.6694 24.676 14.6213 24.6183Z" fill="#ED1C24"/>
<path d="M14.6021 17.9603C13.9335 17.8422 13.2932 18.291 13.1751 18.9597C13.0571 19.6288 13.5055 20.269 14.1742 20.387C14.8434 20.5051 15.484 20.0565 15.6017 19.3875C15.7201 18.7187 15.2715 18.0785 14.6021 17.9603Z" fill="white"/>
<path d="M14.8805 18.8923C14.8697 18.8857 14.8508 18.8735 14.828 18.8584C14.7269 18.7914 14.5288 18.6604 14.5234 18.6565C14.496 18.6376 14.4693 18.6197 14.443 18.6019C14.3549 18.5429 14.2761 18.4916 14.2021 18.4488C14.1735 18.4326 14.1459 18.4175 14.1181 18.4039C14.0004 18.3445 13.8875 18.3086 13.7543 18.2969C13.6516 18.371 13.5624 18.4629 13.4902 18.569C13.7966 18.6796 14.0957 18.8568 14.7185 19.2437C14.7541 19.1613 14.8734 18.9077 14.8805 18.8923Z" fill="#ED1C24"/>
<path d="M14.5926 19.5538C14.6051 19.5227 14.6598 19.3842 14.6822 19.3308C14.044 18.9344 13.7476 18.7589 13.4406 18.6504C13.3929 18.7359 13.3573 18.8292 13.334 18.9285C13.5092 19.1691 13.9789 19.4055 14.5926 19.5538Z" fill="#ED1C24"/>
<path d="M14.5233 18.5464C14.7623 18.4051 15.0338 18.4435 15.2434 18.5151C15.1653 18.4141 15.0706 18.326 14.9605 18.2573C14.7626 18.2179 14.4891 18.2117 14.2715 18.3847C14.3506 18.4313 14.4324 18.4855 14.5233 18.5464Z" fill="#ED1C24"/>
<path d="M13.5697 19.6874C13.6017 19.7093 13.6345 19.7302 13.6693 19.7497C13.7396 19.7886 13.8158 19.8222 13.8945 19.851C13.9279 19.8636 13.9618 19.8753 13.9961 19.8864C14.1158 19.9258 14.3905 19.9971 14.411 20.0019C14.4152 19.9914 14.5181 19.7368 14.5572 19.6401C14.0813 19.522 13.5603 19.3155 13.3127 19.0469C13.2979 19.1709 13.3036 19.2936 13.3298 19.4099C13.3821 19.5237 13.4659 19.6144 13.5697 19.6874Z" fill="#ED1C24"/>
<path d="M14.4278 20.1024L14.3285 20.0768C14.2364 20.0534 14.1366 20.0272 14.0352 19.9961C14.0846 20.1016 14.1625 20.1837 14.2455 20.2474C14.3568 20.2621 14.4666 20.2593 14.5721 20.2411C14.4958 20.1818 14.4278 20.1024 14.4278 20.1024" fill="#ED1C24"/>
<path d="M15.4238 18.8605C15.4011 18.7866 15.3715 18.715 15.3342 18.6483C15.1466 18.5647 14.8609 18.4829 14.6113 18.605L14.9555 18.8323C15.0272 18.8259 15.0933 18.8239 15.1537 18.8254C15.1867 18.8259 15.2173 18.8277 15.2466 18.8305C15.314 18.8365 15.3715 18.8473 15.4238 18.8605" fill="#ED1C24"/>
<path d="M15.2467 18.9238C15.2367 19.4894 14.97 19.9256 14.7402 20.1986C15.0999 20.0736 15.3835 19.7636 15.4543 19.3633C15.4785 19.2264 15.4742 19.0918 15.4489 18.9638C15.393 18.9464 15.3262 18.9319 15.2467 18.9238" fill="#ED1C24"/>
<path d="M14.1862 18.3367C14.3473 18.1947 14.5375 18.1468 14.713 18.1429C14.6684 18.1286 14.623 18.1163 14.5757 18.1083C14.3256 18.0641 14.0809 18.1107 13.873 18.2232C13.9837 18.2449 14.0838 18.2837 14.1862 18.3367Z" fill="#ED1C24"/>
<path d="M14.9672 18.9247C14.8854 19.0952 14.8372 19.1996 14.7973 19.2946C14.785 19.3234 14.7731 19.3513 14.761 19.3804C14.7419 19.428 14.6831 19.576 14.6831 19.576L14.6481 19.6629L14.4961 20.0394C14.538 20.095 14.5888 20.1403 14.6387 20.1757C14.8645 19.9182 15.1455 19.4853 15.1541 18.9187C15.0973 18.9167 15.0348 18.9188 14.9672 18.9247" fill="#ED1C24"/>
<path d="M13.9222 19.9578C13.8464 19.9318 13.7707 19.902 13.6992 19.8672C13.7259 19.9497 13.7644 20.0229 13.8032 20.0857C13.8842 20.1377 13.9732 20.1787 14.0682 20.208C14.0066 20.1387 13.9535 20.0566 13.9222 19.9578Z" fill="#ED1C24"/>
<path d="M13.5868 19.8058C13.5354 19.775 13.4876 19.7408 13.4434 19.7031C13.4935 19.7927 13.5566 19.8748 13.6298 19.9469C13.6124 19.9019 13.5971 19.8554 13.5868 19.8058Z" fill="#ED1C24"/>
<path d="M34.3997 19.3875C34.5179 20.0565 35.1579 20.5051 35.8268 20.387C36.4958 20.269 36.9441 19.6288 36.8266 18.9597C36.7085 18.291 36.0681 17.8422 35.399 17.9603C34.7301 18.0785 34.2818 18.7187 34.3997 19.3875Z" fill="white"/>
<path d="M35.1211 18.8923C35.1317 18.8857 35.1507 18.8735 35.174 18.8584C35.2751 18.7914 35.4729 18.6604 35.4779 18.6565C35.506 18.6376 35.5327 18.6197 35.559 18.6019C35.6461 18.5429 35.7256 18.4916 35.7997 18.4488C35.8282 18.4326 35.8562 18.4175 35.8834 18.4039C36.0009 18.3445 36.1144 18.3086 36.2474 18.2969C36.3501 18.371 36.4396 18.4629 36.5108 18.569C36.2046 18.6796 35.9064 18.8568 35.2828 19.2437C35.2471 19.1613 35.1284 18.9077 35.1211 18.8923Z" fill="#ED1C24"/>
<path d="M35.4073 19.5538C35.3947 19.5227 35.3395 19.3842 35.3184 19.3308C35.9554 18.9344 36.2526 18.7589 36.5594 18.6504C36.6068 18.7359 36.6427 18.8292 36.666 18.9285C36.4905 19.1691 36.0209 19.4055 35.4073 19.5538Z" fill="#ED1C24"/>
<path d="M35.4782 18.5464C35.239 18.4051 34.9677 18.4435 34.7578 18.5151C34.8361 18.4141 34.9313 18.326 35.0413 18.2573C35.239 18.2179 35.5123 18.2117 35.7297 18.3847C35.6511 18.4313 35.5688 18.4855 35.4782 18.5464Z" fill="#ED1C24"/>
<path d="M36.4301 19.6874C36.3989 19.7093 36.3662 19.7302 36.3308 19.7497C36.2608 19.7886 36.1847 19.8222 36.1062 19.851C36.0725 19.8636 36.0383 19.8753 36.0042 19.8864C35.8851 19.9258 35.6101 19.9971 35.5894 20.0019C35.5848 19.9914 35.4816 19.7368 35.4434 19.6401C35.919 19.522 36.4397 19.3155 36.688 19.0469C36.7028 19.1709 36.6964 19.2936 36.6706 19.4099C36.6182 19.5237 36.5345 19.6144 36.4301 19.6874Z" fill="#ED1C24"/>
<path d="M35.5755 20.1024L35.6741 20.0768C35.7664 20.0534 35.8669 20.0272 35.9684 19.9961C35.9182 20.1016 35.8407 20.1837 35.7578 20.2474C35.6467 20.2621 35.5366 20.2593 35.4316 20.2411C35.507 20.1818 35.5755 20.1024 35.5755 20.1024" fill="#ED1C24"/>
<path d="M34.5801 18.8605C34.6029 18.7866 34.632 18.715 34.6702 18.6483C34.8573 18.5647 35.1424 18.4829 35.3921 18.605L35.0482 18.8323C34.9764 18.8259 34.9104 18.8239 34.8498 18.8254C34.8173 18.8259 34.7865 18.8277 34.7568 18.8305C34.6895 18.8365 34.6326 18.8473 34.5801 18.8605" fill="#ED1C24"/>
<path d="M34.7549 18.9238C34.7647 19.4894 35.032 19.9256 35.262 20.1986C34.9014 20.0736 34.6174 19.7636 34.5474 19.3633C34.5234 19.2264 34.5268 19.0918 34.553 18.9638C34.6085 18.9464 34.6757 18.9319 34.7549 18.9238" fill="#ED1C24"/>
<path d="M35.816 18.3367C35.6548 18.1947 35.4642 18.1468 35.2891 18.1429C35.3334 18.1286 35.3786 18.1163 35.4263 18.1083C35.6763 18.0641 35.9209 18.1107 36.1287 18.2232C36.0185 18.2449 35.9182 18.2837 35.816 18.3367Z" fill="#ED1C24"/>
<path d="M35.0342 18.9247C35.1163 19.0952 35.1635 19.1996 35.2048 19.2946C35.2167 19.3234 35.2281 19.3513 35.2401 19.3804C35.2595 19.428 35.3183 19.576 35.3183 19.576L35.3531 19.6629L35.5054 20.0394C35.4632 20.095 35.4129 20.1403 35.3628 20.1757C35.1371 19.9182 34.8556 19.4853 34.8477 18.9187C34.9042 18.9167 34.967 18.9188 35.0342 18.9247" fill="#ED1C24"/>
<path d="M36.0815 19.9578C36.1573 19.9318 36.2324 19.902 36.3046 19.8672C36.2771 19.9497 36.2394 20.0229 36.2001 20.0857C36.1191 20.1377 36.0301 20.1787 35.9355 20.208C35.997 20.1387 36.05 20.0566 36.0815 19.9578Z" fill="#ED1C24"/>
<path d="M36.4143 19.8058C36.4651 19.775 36.513 19.7408 36.5575 19.7031C36.5072 19.7927 36.4446 19.8748 36.3711 19.9469C36.3881 19.9019 36.4035 19.8554 36.4143 19.8058Z" fill="#ED1C24"/>
</g>
<rect x="5.41667" y="2.41667" width="39.1667" height="39.1667" rx="19.5833" stroke="#F3F4F6" stroke-width="0.833333"/>
</g>
<defs>
<filter id="filter0_dd_2273_287821" x="1.19209e-07" y="0.333333" width="50" height="50" filterUnits="userSpaceOnUse" color-interpolation-filters="sRGB">
<feFlood flood-opacity="0" result="BackgroundImageFix"/>
<feColorMatrix in="SourceAlpha" type="matrix" values="0 0 0 0 0 0 0 0 0 0 0 0 0 0 0 0 0 0 127 0" result="hardAlpha"/>
<feMorphology radius="1.66667" operator="erode" in="SourceAlpha" result="effect1_dropShadow_2273_287821"/>
<feOffset dy="1.66667"/>
<feGaussianBlur stdDeviation="1.66667"/>
<feColorMatrix type="matrix" values="0 0 0 0 0.0627451 0 0 0 0 0.0941176 0 0 0 0 0.156863 0 0 0 0.06 0"/>
<feBlend mode="normal" in2="BackgroundImageFix" result="effect1_dropShadow_2273_287821"/>
<feColorMatrix in="SourceAlpha" type="matrix" values="0 0 0 0 0 0 0 0 0 0 0 0 0 0 0 0 0 0 127 0" result="hardAlpha"/>
<feMorphology radius="1.66667" operator="erode" in="SourceAlpha" result="effect2_dropShadow_2273_287821"/>
<feOffset dy="3.33333"/>
<feGaussianBlur stdDeviation="3.33333"/>
<feColorMatrix type="matrix" values="0 0 0 0 0.0627451 0 0 0 0 0.0941176 0 0 0 0 0.156863 0 0 0 0.1 0"/>
<feBlend mode="normal" in2="effect1_dropShadow_2273_287821" result="effect2_dropShadow_2273_287821"/>
<feBlend mode="normal" in="SourceGraphic" in2="effect2_dropShadow_2273_287821" result="shape"/>
</filter>
<clipPath id="clip0_2273_287821">
<rect width="26.6667" height="26.6667" fill="white" transform="translate(11.666 8.66602)"/>
</clipPath>
</defs>
</svg>
