<svg width="48" height="48" viewBox="0 0 48 48" fill="none" xmlns="http://www.w3.org/2000/svg">
<g clip-path="url(#clip0_2208_89262)">
<path d="M48.0007 23.9986C48.0007 37.2536 37.2556 47.9973 24.002 47.9973C10.7477 47.9973 0.00341797 37.2536 0.00341797 23.9986C0.00341797 10.7449 10.7477 0 24.002 0C37.2556 0 48.0007 10.7449 48.0007 23.9986Z" fill="#DBA111"/>
<path d="M47.2007 23.9982C47.2007 36.8105 36.815 47.1963 24.0026 47.1963C11.1901 47.1963 0.804199 36.8106 0.804199 23.9982C0.804199 11.1857 11.1901 0.799805 24.0026 0.799805C36.8148 0.799805 47.2007 11.1857 47.2007 23.9982Z" fill="#034694"/>
<path d="M40.5345 23.9983C40.5345 33.1286 33.1329 40.529 24.0027 40.529C14.872 40.529 7.47021 33.1286 7.47021 23.9983C7.47021 14.8672 14.872 7.46582 24.0027 7.46582C33.1331 7.46572 40.5345 14.8672 40.5345 23.9983Z" fill="#DBA111"/>
<path d="M40.0334 23.9985C40.0334 32.8525 32.8546 40.03 24.0018 40.03C15.1477 40.03 7.97021 32.8524 7.97021 23.9985C7.97021 15.1445 15.1477 7.9668 24.0018 7.9668C32.8548 7.9668 40.0334 15.1444 40.0334 23.9985Z" fill="white"/>
<path d="M10.266 37.8293C10.4434 37.9987 10.8798 38.4143 10.8798 38.4143L11.2982 37.9738L10.0503 36.7842L9.88979 36.9526L8.21436 38.709L8.85048 39.3145C8.85048 39.3145 9.38776 38.751 9.58435 38.5457C9.74863 38.7017 10.1428 39.0776 10.1428 39.0776L10.5615 38.638C10.5615 38.638 10.1679 38.2625 10.0038 38.1054C10.1079 37.9956 10.1608 37.9401 10.266 37.8293Z" fill="#DBA111"/>
<path d="M13.2734 39.8357C13.217 39.4989 13.0278 39.2013 12.7417 38.9979C12.4568 38.7956 12.1149 38.7157 11.7781 38.771C11.4153 38.8326 11.0894 39.0441 10.8598 39.3654C10.631 39.6888 10.5386 40.0657 10.6002 40.4299C10.6568 40.7658 10.8446 41.0614 11.1299 41.2648C11.4153 41.4677 11.7597 41.5489 12.0961 41.4924C12.4587 41.4313 12.7848 41.2194 13.0136 40.8971C13.1968 40.6416 13.2923 40.3488 13.2923 40.0562C13.2924 39.9833 13.2862 39.9084 13.2734 39.8357H13.2734ZM11.4816 40.7687C11.1899 40.5624 11.4307 40.1312 11.6005 39.8941C11.7699 39.6551 12.0984 39.2855 12.39 39.4916C12.6943 39.7093 12.41 40.1796 12.2735 40.3706C12.1366 40.5636 11.7865 40.9863 11.4816 40.7687Z" fill="#DBA111"/>
<path d="M15.2371 40.5017C14.5656 40.1619 13.789 40.4404 13.4322 41.1474C13.2535 41.5008 13.2186 41.8887 13.3337 42.2378C13.44 42.5622 13.6705 42.8269 13.983 42.9841C14.2955 43.1432 14.6472 43.1709 14.9723 43.0641C15.3211 42.9504 15.6121 42.6926 15.7897 42.3394C16.148 41.631 15.9099 40.8414 15.2371 40.5017ZM14.4945 42.4665C14.4157 42.4923 14.341 42.4843 14.2562 42.4421C14.123 42.3742 14.0761 42.2529 14.0761 42.1174C14.0761 41.9299 14.1663 41.709 14.2427 41.5584C14.3752 41.2964 14.6442 40.8827 14.9634 41.0438C15.0476 41.0868 15.098 41.1426 15.1235 41.2205C15.1769 41.3816 15.1233 41.6463 14.9793 41.9296C14.8361 42.2131 14.655 42.4134 14.4945 42.4665Z" fill="#DBA111"/>
<path d="M16.624 41.4735L16.5005 41.8277C16.5005 41.8277 16.8165 41.9386 16.9124 41.9703C16.7915 42.3162 16.2339 43.9078 16.2339 43.9078L17.0618 44.1981C17.0618 44.1981 17.6202 42.6079 17.7409 42.262C17.8374 42.2957 18.1536 42.4056 18.1536 42.4056L18.3542 41.8339L16.701 41.2539L16.624 41.4735Z" fill="#DBA111"/>
<path d="M20.0587 42.2421L18.94 42.0059L18.8921 42.2335L18.3921 44.6079L19.5307 44.8493C19.8946 44.9245 20.1342 44.8351 20.2708 44.7468C20.4443 44.6336 20.5658 44.448 20.6126 44.2261C20.6254 44.1658 20.6316 44.1072 20.6316 44.0498C20.6316 43.8895 20.5808 43.7449 20.4889 43.6207C20.6171 43.5189 20.7086 43.3751 20.7467 43.1957C20.7564 43.1494 20.7621 43.0971 20.7621 43.0424C20.7621 42.7385 20.5886 42.3526 20.0587 42.2421H20.0587ZM19.7508 44.0549C19.7389 44.1091 19.7171 44.1809 19.676 44.2078C19.638 44.2324 19.565 44.2355 19.4705 44.215C19.4705 44.215 19.4275 44.2055 19.3766 44.1955C19.4129 44.0242 19.4373 43.9102 19.4727 43.7386C19.5214 43.75 19.5836 43.7623 19.5836 43.7623C19.7304 43.7933 19.7586 43.9019 19.7586 43.9808C19.7587 44.0125 19.7546 44.0393 19.7508 44.0549L19.7508 44.0549ZM19.6743 42.7841C19.7726 42.8064 19.8448 42.8424 19.8726 42.8844C19.8853 42.9037 19.8915 42.9308 19.8915 42.9627C19.8915 42.982 19.8889 43.0043 19.8839 43.0311C19.8688 43.1007 19.8484 43.1972 19.6548 43.1576C19.6548 43.1576 19.6307 43.1512 19.5975 43.1441C19.6284 43.0004 19.643 42.9286 19.6743 42.7841L19.6743 42.7841Z" fill="#DBA111"/>
<path d="M22.1268 42.6278L20.9116 45.1163L21.6056 45.1695C21.6056 45.1695 21.7934 44.7731 21.8684 44.6151C22.0152 44.6273 22.1624 44.6377 22.3062 44.6493C22.3601 44.8155 22.4957 45.2373 22.4957 45.2373L23.419 45.3091L22.3873 42.1113L22.1268 42.6278Z" fill="#DBA111"/>
<path d="M24.8659 44.6149C24.8505 44.2512 24.7806 42.5957 24.7806 42.5957L23.9038 42.6326L24.0147 45.2895L25.7719 45.2165L25.7455 44.579C25.7455 44.5791 25.1179 44.6059 24.8659 44.6149Z" fill="#DBA111"/>
<path d="M27.2722 44.3606C27.2156 44.001 26.9591 42.3643 26.9591 42.3643L26.7292 42.4011L26.0913 42.5005L26.5031 45.1285L28.2413 44.8555L28.1417 44.2251C28.1417 44.2251 27.5217 44.3229 27.2722 44.3606Z" fill="#DBA111"/>
<path d="M32.3021 42.592C32.295 42.8198 32.1607 43.016 31.9512 43.0989C31.8351 43.145 31.7242 43.145 31.6131 43.0979C31.4427 43.0249 31.2848 42.8404 31.19 42.6032C31.0784 42.3234 31.0557 42.0857 31.1289 41.9187C31.1792 41.8018 31.2778 41.7144 31.4285 41.654C31.5917 41.5891 31.7467 41.6489 31.9592 41.774L32.154 41.889L32.4777 41.3786L32.2856 41.2524C31.9326 41.0204 31.4956 40.9731 31.1176 41.1241C30.7667 41.264 30.4947 41.5257 30.3509 41.8603C30.205 42.1997 30.205 42.588 30.3529 42.9564C30.6322 43.6545 31.4214 43.9984 32.1115 43.7221C32.6102 43.5229 32.8924 43.1441 32.9283 42.6266L32.9447 42.3957L32.3095 42.3485L32.302 42.5921" fill="#DBA111"/>
<path d="M34.3486 41.8664C34.169 41.5471 33.362 40.0996 33.362 40.0996L33.1599 40.2136L32.5952 40.5289L33.8929 42.8507L35.4272 41.9937L35.1166 41.4363C35.1167 41.4363 34.5675 41.7424 34.3486 41.8664Z" fill="#DBA111"/>
<path d="M36.0578 38.2861L35.8697 38.4238L35.5402 38.666L36.6171 40.1339C36.6664 40.2004 36.6664 40.2448 36.6621 40.2706C36.6518 40.3464 36.5729 40.4285 36.5031 40.4787C36.4702 40.5022 36.3941 40.5342 36.3161 40.522C36.2605 40.5139 36.2166 40.4837 36.1775 40.4309L35.1131 38.9794L34.4038 39.4987L35.463 40.9429C35.6202 41.1567 35.8154 41.2831 36.0432 41.3178C36.2988 41.3577 36.5893 41.2707 36.8593 41.0712C37.4146 40.6651 37.4055 40.126 37.1632 39.7956L36.0578 38.2861Z" fill="#DBA111"/>
<path d="M39.2882 37.7526C39.1249 37.5832 38.9236 37.5071 38.7122 37.5186C38.6997 37.3543 38.636 37.1973 38.509 37.0658C38.2872 36.8368 37.7912 36.6584 37.3346 37.1029L36.5132 37.8972L38.364 39.808L39.1996 38.998C39.4666 38.7393 39.5254 38.4888 39.5279 38.3269C39.5324 38.1191 39.4469 37.9157 39.2882 37.7526ZM37.8899 37.6882C37.9175 37.7176 37.9512 37.7519 37.9512 37.7997C37.9512 37.8389 37.9299 37.8872 37.8658 37.9485C37.8658 37.9485 37.8484 37.9661 37.825 37.9896C37.7213 37.8821 37.6721 37.8316 37.567 37.7236C37.7523 37.5536 37.8293 37.6262 37.8899 37.6882ZM38.3282 38.3461C38.4782 38.2013 38.6226 38.3285 38.6638 38.3717C38.7037 38.4117 38.749 38.4681 38.749 38.517C38.749 38.517 38.749 38.517 38.749 38.5186C38.7481 38.5638 38.7099 38.6263 38.6412 38.693C38.6412 38.693 38.6093 38.724 38.5714 38.7596C38.4503 38.6344 38.3685 38.5504 38.2472 38.4259C38.283 38.3903 38.3282 38.3461 38.3282 38.3461V38.3461Z" fill="#DBA111"/>
<path d="M10.2594 37.5836C10.3318 37.6532 10.8722 38.1687 10.8722 38.1687L11.0504 37.9808L10.0547 37.0312L10.0146 37.0733L8.46045 38.7036L8.84334 39.069C8.84334 39.069 9.50551 38.375 9.5768 38.2991C9.6492 38.3679 10.1364 38.8319 10.1364 38.8319L10.3149 38.6446C10.3149 38.6446 9.82772 38.1809 9.75532 38.1121C9.81994 38.0444 10.1954 37.6505 10.2594 37.5836Z" fill="white"/>
<path d="M12.6413 39.1391C12.3945 38.9634 12.0992 38.8933 11.8093 38.9417C11.491 38.9963 11.2056 39.1821 11.0035 39.4665C10.8009 39.7517 10.7196 40.0824 10.7736 40.3995C10.8222 40.6902 10.9856 40.9467 11.2325 41.1218C11.4808 41.2985 11.7774 41.3676 12.0686 41.3188C12.3851 41.2656 12.671 41.079 12.8727 40.7966C13.034 40.5688 13.1192 40.3108 13.1192 40.0552C13.1192 39.9915 13.1137 39.927 13.1033 39.8634C13.0539 39.5731 12.8902 39.3158 12.6413 39.1391H12.6413ZM12.4166 40.4716C12.2496 40.7052 11.8149 41.2184 11.3823 40.9107C10.9511 40.6046 11.2934 40.026 11.4597 39.7909C11.6265 39.5558 12.0614 39.0435 12.492 39.3495C12.9247 39.6583 12.5834 40.2373 12.4166 40.4716Z" fill="white"/>
<path d="M15.1577 40.6574C14.5751 40.3628 13.9001 40.6079 13.5871 41.227C13.4295 41.5382 13.3984 41.8769 13.4984 42.1839C13.5903 42.4628 13.79 42.6909 14.0609 42.8272C14.3325 42.9661 14.6369 42.9907 14.9173 42.8984C15.2223 42.7976 15.477 42.5717 15.6346 42.2607C15.9467 41.6417 15.7419 40.9519 15.1577 40.6574ZM14.1769 42.5962C13.7051 42.3589 13.9561 41.7348 14.0865 41.4784C14.2164 41.2209 14.5695 40.6487 15.0406 40.8881C15.166 40.9508 15.2497 41.0441 15.2896 41.1662C15.3821 41.4488 15.232 41.8141 15.1341 42.0081C15.0366 42.2008 14.8309 42.5386 14.5479 42.6313C14.4269 42.6723 14.3017 42.6599 14.1769 42.5962Z" fill="white"/>
<path d="M16.7883 41.5305L16.7215 41.7196C16.7215 41.7196 17.0511 41.8356 17.1337 41.8646C17.0972 41.9681 16.4546 43.8005 16.4546 43.8005L16.954 43.976C16.954 43.976 17.5971 42.1437 17.633 42.0399C17.7156 42.0687 18.0453 42.1839 18.0453 42.1839L18.1314 41.9406L16.8067 41.4756L16.7883 41.5305" fill="white"/>
<path d="M20.0255 42.412L19.0773 42.2119L19.0645 42.2695L18.6011 44.4745L19.5686 44.6777C19.8146 44.7291 20.0192 44.7035 20.1776 44.5998C20.3145 44.5104 20.4064 44.3679 20.4439 44.1904C20.4535 44.1419 20.4593 44.0957 20.4593 44.0505C20.4593 43.8577 20.3636 43.6944 20.1929 43.5774C20.3906 43.5205 20.5322 43.375 20.5777 43.159C20.5855 43.1253 20.5901 43.0854 20.5901 43.0403C20.59 42.8197 20.474 42.5067 20.0255 42.412H20.0255ZM19.694 42.6072C19.8534 42.6409 19.9638 42.7019 20.0199 42.7887C20.0522 42.8379 20.0682 42.8956 20.0682 42.9626C20.0682 42.9954 20.064 43.0293 20.0563 43.0661C19.9947 43.3598 19.7575 43.3566 19.6211 43.3268C19.6211 43.3268 19.4767 43.2971 19.393 43.2795C19.4125 43.189 19.5225 42.6656 19.5415 42.5754C19.6021 42.5877 19.694 42.6072 19.694 42.6072ZM19.6211 43.5915C19.8905 43.6481 19.933 43.8607 19.933 43.9898C19.933 44.0453 19.9243 44.0848 19.9232 44.0914C19.8961 44.2188 19.8475 44.305 19.7729 44.3531C19.694 44.4057 19.5804 44.4158 19.4367 44.386C19.4367 44.386 19.2643 44.3492 19.1719 44.3308C19.1918 44.236 19.3207 43.6252 19.3402 43.5321C19.4192 43.5486 19.6211 43.5915 19.6211 43.5915H19.6211Z" fill="white"/>
<path d="M22.2821 42.7051L21.1792 44.9628L21.4969 44.9864C21.4969 44.9864 21.7303 44.4958 21.7612 44.433C21.8284 44.4382 22.3683 44.4802 22.4345 44.4856C22.4556 44.5503 22.624 45.0736 22.624 45.0736L23.1711 45.1158L22.3519 42.5762L22.2821 42.7051ZM22.1611 43.6129C22.2144 43.7834 22.317 44.1122 22.3509 44.2195C22.2419 44.2114 21.991 44.1919 21.8832 44.1837C21.9327 44.0823 22.083 43.7732 22.1611 43.6129Z" fill="white"/>
<path d="M24.6974 44.7966C24.6931 44.6865 24.612 42.7773 24.612 42.7773L24.5556 42.7794L24.0835 42.7987L24.1805 45.1084L25.5896 45.0487L25.5772 44.7604C25.5774 44.7605 24.7993 44.7933 24.6974 44.7966" fill="white"/>
<path d="M27.125 44.5612C27.1075 44.4524 26.811 42.5625 26.811 42.5625L26.7545 42.5716L26.2886 42.6453L26.6467 44.9286L28.0398 44.7087L27.9949 44.4233C27.9948 44.4235 27.2247 44.5445 27.125 44.5613" fill="white"/>
<path d="M32.4768 42.5964C32.4685 42.8972 32.292 43.1519 32.0169 43.2628C31.8567 43.3265 31.6986 43.3243 31.5457 43.2586C31.3304 43.1676 31.1423 42.9518 31.0283 42.6686C30.8999 42.3451 30.8792 42.0619 30.9689 41.8502C31.0387 41.69 31.1712 41.5702 31.3651 41.4932C31.6187 41.3917 31.8516 41.5075 32.0487 41.6244L32.098 41.6532L32.2397 41.4305L32.1923 41.3985C31.8864 41.1982 31.5087 41.1564 31.1836 41.2865C30.8755 41.41 30.6363 41.6378 30.5121 41.9294C30.3847 42.2249 30.3859 42.5678 30.5162 42.891C30.7594 43.501 31.4459 43.8005 32.0488 43.5603C32.486 43.3848 32.7233 43.0677 32.755 42.6149L32.7591 42.5566L32.4801 42.5373L32.4768 42.5963" fill="white"/>
<path d="M34.2819 42.1035C34.2275 42.0081 33.2953 40.3379 33.2953 40.3379L33.244 40.3665L32.8335 40.5964L33.9595 42.6129L35.1905 41.9256L35.0504 41.6732C35.0506 41.6734 34.3691 42.053 34.2819 42.1035Z" fill="white"/>
<path d="M36.0176 38.5293L35.97 38.5642L35.7813 38.7029L36.7555 40.0301C36.8207 40.1195 36.8464 40.2087 36.8324 40.296C36.8092 40.4541 36.6652 40.5755 36.6049 40.6186C36.5358 40.6707 36.4094 40.7138 36.2883 40.6941C36.1855 40.679 36.1013 40.6247 36.0338 40.5342L35.072 39.2224L34.646 39.5365L35.6015 40.839C35.73 41.0147 35.887 41.1183 36.0675 41.1451C36.352 41.1881 36.6191 41.0297 36.7534 40.9317C37.2144 40.5928 37.2206 40.1687 37.0214 39.8989L36.0176 38.5293Z" fill="white"/>
<path d="M39.1626 37.8733C38.9838 37.6884 38.755 37.6462 38.5177 37.7374C38.5365 37.6821 38.5477 37.6257 38.5477 37.5692C38.5477 37.432 38.4931 37.2981 38.3832 37.1851C38.2345 37.0321 37.8494 36.8431 37.4555 37.2261L36.7593 37.9006L38.3666 39.5599L39.0783 38.8698C39.2577 38.6975 39.3514 38.5117 39.3537 38.3238C39.3565 38.1597 39.2899 38.0045 39.1626 37.8733ZM38.1247 37.8013C38.1247 37.9175 38.049 38.0129 37.988 38.0725C37.988 38.0725 37.8813 38.1762 37.821 38.2355C37.7561 38.1689 37.3836 37.7851 37.3199 37.717C37.3631 37.6752 37.4311 37.6104 37.4311 37.6104C37.6486 37.3986 37.8396 37.3845 38.0149 37.5662C38.0951 37.6496 38.1247 37.7284 38.1247 37.8013ZM38.5674 39.0053C38.5016 38.9375 38.0673 38.4881 38.0006 38.4202C38.058 38.365 38.2067 38.2203 38.2067 38.2203C38.4904 37.947 38.7778 38.2366 38.79 38.2501C38.8794 38.3424 38.9233 38.4297 38.9233 38.5165C38.9233 38.5181 38.9233 38.5191 38.9233 38.5199C38.9222 38.6153 38.8669 38.7151 38.762 38.8188C38.7622 38.8188 38.6236 38.952 38.5674 39.0053V39.0053Z" fill="white"/>
<path d="M13.3395 8.18879L12.3694 8.4504L12.4808 8.79785C12.6148 9.21911 12.4935 9.66016 12.1652 9.94813C11.9825 10.1083 11.7716 10.1818 11.5389 10.1658C11.1854 10.1421 10.7864 9.91329 10.472 9.55343C10.1014 9.12894 9.91651 8.7203 9.94003 8.37397C9.95639 8.12144 10.0792 7.8996 10.3147 7.69321C10.5749 7.46532 10.9049 7.4742 11.3525 7.56296L11.6845 7.62859L11.8992 6.69954L11.565 6.61806C10.8464 6.44025 10.0969 6.61492 9.5623 7.08293C8.51521 7.99916 8.42979 9.49547 9.36368 10.5635C10.2315 11.5556 11.7373 11.6637 12.7188 10.8053C13.4257 10.1878 13.672 9.39783 13.4319 8.5231L13.3395 8.18879Z" fill="#DBA111"/>
<path d="M15.9751 3.32344L14.9843 3.79003C14.9843 3.79003 15.5374 4.96222 15.7276 5.36621C15.4449 5.49909 15.1712 5.62843 14.8883 5.76202C14.6974 5.35833 14.144 4.18564 14.144 4.18564L12.8394 4.80157L14.8263 9.01615L16.1321 8.40053C16.1321 8.40053 15.5164 7.09697 15.3184 6.6743C15.6013 6.54193 15.8748 6.41268 16.1582 6.2792C16.3568 6.70066 16.9716 8.00441 16.9716 8.00441L18.2771 7.38838L16.2908 3.1748L15.9751 3.32344Z" fill="#DBA111"/>
<path d="M20.3921 5.93455C20.3285 5.62072 20.2639 5.30145 20.2011 4.98803C20.6042 4.90695 21.6753 4.69067 21.6753 4.69067L21.4869 3.75455C21.4869 3.75455 20.4153 3.97114 20.0119 4.05262C19.9538 3.76566 19.9058 3.52464 19.8473 3.23808C20.2659 3.15367 21.4122 2.92204 21.4122 2.92204L21.2232 1.98633L20.8803 2.05519L18.2437 2.58843L19.1654 7.15611L22.1692 6.54886L21.9804 5.61366C21.9804 5.61366 20.8136 5.84882 20.3921 5.93455Z" fill="#DBA111"/>
<path d="M24.6528 1.87764L23.2083 1.84766L23.2011 2.19601L23.1108 6.50611L26.143 6.56973L26.1647 5.56051C26.1647 5.56051 25.0006 5.53547 24.5752 5.52679C24.5874 4.95629 24.6528 1.87764 24.6528 1.87764" fill="#DBA111"/>
<path d="M29.3339 4.22845C28.9592 3.9532 28.8495 3.84283 28.8874 3.69249C28.906 3.61454 28.9909 3.36564 29.2601 3.43228C29.4221 3.47388 29.5832 3.5592 29.655 3.90776L29.7339 4.29469L30.6876 3.97238L30.6283 3.67209C30.5109 3.08231 30.0121 2.58028 29.386 2.42387C28.9376 2.3125 28.4881 2.37207 28.1191 2.59371C27.7804 2.79656 27.5423 3.11674 27.448 3.49569C27.2086 4.45089 27.8525 4.91082 28.2782 5.21555C28.7147 5.52766 28.8257 5.64984 28.7591 5.91055C28.7382 5.99203 28.6902 6.05635 28.6151 6.10189C28.5277 6.15328 28.4181 6.17186 28.3289 6.14864C28.0996 6.0922 28.0004 5.98385 27.9037 5.6873L27.7866 5.33177L26.8296 5.72314L26.9223 6.02697C27.1017 6.61735 27.53 6.98944 28.231 7.16503C29.0188 7.36212 29.9745 6.99984 30.2126 6.05393C30.461 5.05723 29.7826 4.55782 29.3339 4.22845Z" fill="#DBA111"/>
<path d="M32.7793 6.7128C33.1469 6.89859 34.1213 7.39133 34.1213 7.39133L34.5522 6.53933C34.5522 6.53933 33.577 6.04658 33.2106 5.8614C33.3418 5.60008 33.453 5.38037 33.5839 5.11956C33.9642 5.31161 35.0093 5.83979 35.0093 5.83979L35.4391 4.98779L32.7269 3.61719L32.5701 3.92768L30.6245 7.77563L33.3595 9.15694L33.7907 8.30544C33.7907 8.30544 32.728 7.76857 32.344 7.5752C32.4878 7.28925 32.6355 6.99885 32.7793 6.7128Z" fill="#DBA111"/>
<path d="M38.1814 7.14871L33.8354 9.39746L34.6669 10.1205C34.6669 10.1205 35.3842 9.73915 35.6449 9.60224C35.8387 9.77106 36.1245 10.0197 36.3152 10.1854C36.2217 10.4626 35.9561 11.2422 35.9561 11.2422L37.1015 12.2388L38.9596 6.75977L38.1814 7.14871Z" fill="#DBA111"/>
<path d="M13.1777 8.47225L12.6655 8.61149L12.703 8.7274C12.8658 9.23873 12.719 9.77358 12.3186 10.1237C12.0887 10.3254 11.8206 10.4178 11.5245 10.3987C11.1047 10.3705 10.6582 10.1185 10.2978 9.70633C9.88571 9.23459 9.68145 8.7682 9.70851 8.35744C9.72972 8.04554 9.88258 7.76302 10.1629 7.51786C10.5309 7.19606 10.9943 7.25493 11.3989 7.335L11.5101 7.35651L11.6221 6.87094L11.5108 6.84317C10.8649 6.68465 10.1948 6.83964 9.71639 7.25847C8.76987 8.08745 8.69384 9.44139 9.54019 10.4099C10.3235 11.3055 11.6812 11.4037 12.5675 10.6296C13.2102 10.066 13.4262 9.37879 13.2085 8.58484L13.1777 8.47226" fill="white"/>
<path d="M16.0717 3.53227L15.2922 3.90082C15.2922 3.90082 15.9484 5.29333 16.0347 5.47639C15.8679 5.55545 14.942 5.99236 14.774 6.07081C14.6878 5.88745 14.032 4.49504 14.032 4.49504L13.146 4.91246L14.9347 8.70549L15.8201 8.28867C15.8201 8.28867 15.094 6.74935 15.0065 6.56305C15.1744 6.48399 16.0992 6.0482 16.2672 5.96883C16.3544 6.15462 17.0808 7.69485 17.0808 7.69485L17.9651 7.27703L16.1765 3.4834L16.0717 3.53227Z" fill="white"/>
<path d="M20.2089 6.20826C20.1725 6.026 19.9629 4.98821 19.9266 4.80595C20.1205 4.76698 21.4006 4.50829 21.4006 4.50829L21.3037 4.02907C21.3037 4.02907 20.0241 4.28665 19.829 4.32613C19.7936 4.14741 19.6089 3.23432 19.5735 3.0558C19.7689 3.01571 21.1374 2.74016 21.1374 2.74016L21.0404 2.26074L18.5171 2.76994L19.3471 6.88114L21.8945 6.36688L21.7977 5.88747C21.7975 5.88757 20.406 6.16837 20.2089 6.20826Z" fill="white"/>
<path d="M24.416 2.10616L23.4378 2.08496L23.4358 2.20047L23.3491 6.27844L25.9172 6.33287L25.9286 5.78853C25.9286 5.78853 24.5384 5.75914 24.3393 5.7549C24.3443 5.53731 24.4161 2.10617 24.4161 2.10617" fill="white"/>
<path d="M29.3148 3.20703C29.6258 3.28488 29.8054 3.49268 29.8816 3.86072L29.908 3.98936L30.4182 3.8169L30.3989 3.71623C30.2982 3.21369 29.8682 2.78436 29.3282 2.64855C28.94 2.55172 28.5533 2.60251 28.2379 2.79183C27.9527 2.96328 27.7515 3.23338 27.6723 3.55195C27.4713 4.35316 27.9936 4.72636 28.4124 5.02574C28.8364 5.32896 29.092 5.53595 28.9831 5.96599C28.9399 6.14502 28.823 6.2473 28.7328 6.30112C28.593 6.38483 28.4216 6.41098 28.2709 6.37402C27.9617 6.29648 27.8024 6.13017 27.6817 5.7592L27.6423 5.64066L27.1128 5.85664L27.1436 5.95832C27.2975 6.46429 27.6716 6.78508 28.2872 6.93916C28.9635 7.10809 29.7831 6.80204 29.9851 5.99639C30.1955 5.15195 29.6411 4.74332 29.1925 4.41536C28.8118 4.13425 28.5817 3.94635 28.66 3.63575C28.7286 3.35808 28.9585 3.11777 29.3148 3.20703" fill="white"/>
<path d="M33.4806 4.80795C33.6591 4.89771 34.9045 5.52707 34.9045 5.52707L35.1262 5.09016L32.829 3.92969L32.7764 4.03328L30.937 7.67344L33.2556 8.84522L33.4766 8.40852C33.4766 8.40852 32.2107 7.76845 32.0313 7.67748C32.115 7.51128 32.5927 6.56749 32.6757 6.40119C32.8524 6.49045 34.0173 7.07912 34.0173 7.07912L34.2393 6.64221C34.2393 6.64221 33.0732 6.05404 32.8965 5.96428C32.9787 5.80212 33.3986 4.97011 33.4806 4.80795Z" fill="white"/>
<path d="M38.289 7.35527L34.2476 9.44681L34.6992 9.83949C34.6992 9.83949 35.5563 9.38512 35.6775 9.3209C35.7781 9.40875 36.4884 10.0267 36.5869 10.1124C36.5441 10.2402 36.2266 11.1683 36.2266 11.1683L36.9936 11.8351L38.5551 7.23047L38.289 7.35527ZM36.1454 9.08028C36.3366 8.98143 36.825 8.72769 37.1229 8.57269C37.012 8.88935 36.8292 9.41077 36.7591 9.61372C36.6042 9.47801 36.3006 9.21427 36.1454 9.08028Z" fill="white"/>
<path d="M35.4662 23.369C35.1347 22.4911 33.9934 22.1098 32.9146 22.517C32.4647 22.6862 32.0963 22.9691 31.8451 23.3032C32.5574 21.27 35.4592 20.8385 35.4592 18.947C35.4592 15.7766 30.9568 16.6646 31.6119 18.9475C31.6119 17.9117 33.2604 17.7219 33.2604 18.9475C33.2604 20.1733 30.386 20.9771 30.386 23.048C30.386 25.3308 32.6693 25.5421 32.4382 27.63C32.3989 27.9899 32.0118 28.463 31.4514 28.463C27.9542 28.463 29.2026 24.1579 27.9806 22.8479L28.0446 21.9634C28.751 22.3966 30.6251 21.3818 29.3913 19.8349C29.3913 20.5956 27.8073 20.5535 27.8073 19.1163C27.8073 17.1716 29.6254 18.1863 29.7137 18.6158C29.6266 17.9076 29.5937 17.4581 29.7106 17.05C28.7305 17.366 28.6388 16.7995 28.7628 16.5803C28.9047 16.3267 29.0947 16.0306 29.4765 16.0306C29.6829 16.0306 29.8068 16.0594 29.8798 16.1096C30.0019 16.1931 30.0912 16.0024 30.0737 16.1798C30.1786 16.0202 30.1366 16.2195 30.2378 16.0594C30.3409 15.9003 30.4797 15.7205 30.7236 15.4809L30.7132 15.1221L30.9987 15.2268L31.2728 14.7835C30.977 14.1701 30.5755 14.4655 30.2799 13.705C30.0326 13.6408 26.1814 14.0596 26.2931 12.5233C25.9791 12.5233 25.2352 12.6954 25.6955 13.3209C25.3376 13.364 25.0796 12.9575 24.54 14.057C25.2159 13.9303 24.866 14.6858 24.866 14.9008C24.866 16.2938 23.0116 16.2703 23.0116 15.6178C22.5647 16.0521 22.8182 17.0017 23.4941 17.2357C23.4941 17.2357 23.2371 18.2515 22.6025 18.8955C21.6607 18.8579 20.1496 18.6942 19.2804 17.8725C18.9054 17.5184 18.6078 17.3255 18.3542 17.2263V16.7659C18.7254 16.5842 19.1324 16.2627 19.5554 15.7254C19.8854 15.3225 20.064 14.8057 20.0159 14.2569C20.0097 14.1914 20 14.1266 19.9885 14.0635C19.9849 14.0434 19.98 14.024 19.9753 14.004C19.9661 13.9597 19.9553 13.9173 19.9425 13.8736C19.9364 13.8525 19.9306 13.8309 19.9239 13.81C19.9096 13.7662 19.8939 13.7243 19.8768 13.6827C19.8696 13.6652 19.8646 13.6466 19.8562 13.6303C19.8327 13.5742 19.8064 13.5215 19.778 13.4684C19.7659 13.4469 19.7531 13.4268 19.7413 13.407C19.7218 13.3751 19.7033 13.3428 19.6828 13.312C19.6663 13.2876 19.6489 13.2628 19.6314 13.2382C19.6135 13.2147 19.5945 13.1905 19.576 13.1669C19.5555 13.1417 19.5353 13.1149 19.5134 13.0899C19.4988 13.0733 19.4831 13.0574 19.4678 13.0421C19.4128 12.9814 19.3533 12.925 19.2911 12.8711C19.2859 12.8666 19.2797 12.8609 19.2737 12.8562C19.239 12.8265 19.2019 12.7982 19.1654 12.7711C19.1562 12.764 19.1465 12.7572 19.1361 12.7499C19.0971 12.7224 19.0572 12.6956 19.0156 12.6699C19.0131 12.6683 19.0107 12.6673 19.0089 12.6655C18.6131 12.4231 18.1348 12.2963 17.6297 12.3364C16.4133 12.4332 15.5092 13.4495 15.6108 14.6065C15.6899 15.5079 16.3547 16.2278 17.219 16.4574C16.9158 16.6266 16.6596 16.7243 16.6018 16.7243C16.6114 16.7304 16.6239 16.7376 16.6375 16.7464C16.641 16.748 16.6452 16.7505 16.6494 16.7526C16.6611 16.7602 16.6751 16.768 16.6893 16.7757C16.6928 16.7777 16.6972 16.7797 16.7006 16.7818C16.7201 16.7916 16.7402 16.8018 16.7628 16.8126C16.7663 16.8142 16.7706 16.8155 16.7741 16.8173C16.7941 16.8265 16.8145 16.8363 16.8361 16.8445C16.8423 16.8473 16.849 16.8499 16.8556 16.8521C16.9085 16.8742 16.9681 16.8941 17.0332 16.9127C17.0425 16.9152 17.0523 16.9173 17.0603 16.9199C17.0866 16.9265 17.1134 16.9327 17.1411 16.9393C17.1502 16.9409 17.1594 16.9429 17.1692 16.9449C17.2042 16.9511 17.2407 16.9573 17.2774 16.9617C17.2805 16.9617 17.2836 16.9634 17.2867 16.9634V17.2252C17.2729 17.2282 17.2605 17.2296 17.2477 17.2316C16.8521 17.2968 16.595 17.4185 16.4788 17.7707C16.3633 18.1242 16.4819 18.252 16.6672 18.5C16.5107 18.7797 16.1005 18.8844 16.6358 19.5025C16.5968 19.736 16.6462 20.1077 16.986 20.2205C17.0968 20.2581 17.1892 20.2781 17.2867 20.2949L17.2862 24.9292C16.9473 25.1087 16.7801 25.3326 16.6876 25.5414C16.6876 25.5414 16.4156 24.9374 16.4336 26.1338C16.7427 25.894 16.621 26.4114 16.621 26.4114C16.2001 26.9567 16.7347 26.9271 16.7347 26.9271C17.0972 26.565 17.0233 27.0912 17.0233 27.0912C17.0233 27.7329 17.2839 27.984 17.2861 27.985V31.5155L16.9782 31.5164L16.9812 32.4906L17.5195 32.4897C17.2174 32.6151 17.0181 32.9134 17.0472 33.2432C17.0837 33.6589 17.4677 33.9678 17.9051 33.9341C18.342 33.8989 18.6667 33.5345 18.6294 33.1178C18.6047 32.8302 18.4142 32.5956 18.1551 32.4877L18.6518 32.4864L18.6498 31.5122L18.3535 31.5136L18.354 28.3812C18.4151 28.4147 18.4811 28.4379 18.5528 28.4536C18.5814 28.459 18.6098 28.4629 18.6389 28.4648C18.6518 28.4669 18.6651 28.4669 18.6779 28.4672C18.5982 28.0555 18.8442 27.7825 18.8442 27.7825C18.9705 27.5924 19.1532 27.4442 19.3611 27.3396C19.9828 27.0277 20.8311 27.1065 21.0847 27.6143C22.6913 27.1908 24.0719 25.576 24.0719 25.576L24.8627 26.922C23.186 27.4825 19.5341 30.6573 22.0691 31.7569C22.0681 32.077 22.0252 34.4525 20.502 34.2637C18.3083 33.9935 17.7612 34.9012 18.1824 35.9215C17.9844 36.7819 18.647 37.0806 18.647 37.0806C18.5476 36.5836 18.7866 36.1718 19.6932 36.1771C19.6885 37.0837 20.2741 37.2472 20.2741 37.2472C20.2782 36.4708 20.8177 36.1832 21.297 36.1854C21.2935 36.8251 22.0368 37.0683 22.0368 37.0683C22.0368 37.0683 21.8483 36.331 22.6885 36.1854C24.8154 35.8148 22.8179 33.6273 26.0523 33.0245C26.0523 33.0245 24.4417 32.7817 24.4417 31.9012C24.4417 31.0998 25.8997 30.5518 26.4016 30.5518C27.431 32.5186 28.5494 32.5342 28.8425 32.5482C29.2984 33.0574 29.1456 34.7738 28.4875 34.74C26.0782 34.6107 26.1663 36.0762 26.4363 36.376C26.4055 36.9449 26.8481 37.2734 26.8481 37.2734C26.8481 36.6637 27.4283 36.4922 28.1723 36.5325C28.1333 37.2774 28.6078 37.3886 28.6078 37.3886C28.6208 36.639 29.1754 36.5119 29.5694 36.5325C29.5406 37.0579 30.062 37.2125 30.062 37.2125C30.062 37.2125 30.0107 36.5457 30.7127 36.5457C32.0443 36.5448 30.1104 33.691 32.7093 30.8687C30.4263 31.9254 29.2117 29.2838 29.2117 28.7768C30.3851 30.1499 34.1896 30.4241 34.1896 28.0785C34.1896 25.8377 31.7268 25.0028 32.8791 24.1457C33.5492 23.6474 34.8671 24.6541 34.113 25.694C35.1944 25.2934 35.7969 24.2463 35.4661 23.3689L35.4662 23.369ZM20.8735 23.4396C20.0128 23.9457 19.4357 24.586 18.6511 24.8661C18.5319 24.9079 18.4369 24.9198 18.3543 24.9144V20.5407C18.5622 20.5602 19.1017 20.634 19.7325 20.8948C20.3572 21.2357 20.3572 21.9403 19.5688 22.1073C20.0671 23.0614 21.7932 22.5943 22.1694 21.8172C22.3537 21.8008 22.5166 22.1298 22.6697 22.4408C22.4275 22.5666 21.9318 22.8166 20.8735 23.4396ZM30.5071 16.1891C30.4124 16.3175 30.3191 16.4453 30.2373 16.5547C30.4556 16.9175 30.8663 17.1443 31.3162 17.1027C31.938 17.0438 32.3957 16.4919 32.3386 15.8695C32.3352 15.8469 32.3321 15.8265 32.3291 15.8044C32.2624 16.1267 31.8826 16.3996 31.3994 16.4443C31.0336 16.4786 30.7024 16.3736 30.5071 16.1891H30.5071Z" fill="#D1D3D4"/>
<path d="M29.5425 15.8585C29.7592 16.2213 30.1708 16.448 30.6207 16.4061C31.2435 16.348 31.7 15.7958 31.643 15.1727C31.6407 15.1506 31.6366 15.1294 31.6337 15.1074C31.5677 15.4293 31.186 15.703 30.7039 15.7477C30.337 15.782 30.0064 15.6768 29.8111 15.4925C29.717 15.6214 29.6226 15.749 29.5425 15.8585" fill="#ED1C24"/>
<path d="M26.2113 11.1055C26.1934 11.1055 26.1753 11.1124 26.154 11.1198C25.7631 11.2023 24.5631 12.0281 25.0012 12.6235C24.6416 12.666 23.8069 12.4196 23.2684 13.5185C23.9449 13.3912 24.1706 13.9906 24.1706 14.2059C24.1706 15.0213 23.5371 15.3484 23.0106 15.3515C22.6582 15.3524 22.356 15.2089 22.3232 14.9649C22.3247 14.9577 22.3216 14.9507 22.3232 14.9434C22.3228 14.9427 22.3161 14.9443 22.3161 14.9434H22.3018C21.8819 15.3864 22.137 16.3096 22.803 16.5401C22.803 16.5401 22.5424 17.5572 21.9079 18.2013C21.2762 18.1768 20.3943 18.0909 19.6166 17.7932C19.3989 17.7104 19.1929 17.6065 19.0009 17.4853C18.8526 17.3934 18.7105 17.295 18.5856 17.1774C18.2108 16.8233 17.915 16.631 17.6619 16.533V16.0676C18.0331 15.8855 18.4418 15.5666 18.8648 15.0293C19.1953 14.6267 19.3713 14.1106 19.3231 13.5615C19.3179 13.4958 19.3074 13.4323 19.2944 13.3681C19.2915 13.3481 19.2843 13.3308 19.2801 13.3108C19.2704 13.2666 19.2642 13.2173 19.2515 13.1748C19.2457 13.1531 19.2375 13.1319 19.23 13.1104C19.2161 13.0665 19.1962 13.0302 19.1799 12.9886C19.1726 12.971 19.1728 12.9488 19.1655 12.9313C19.1414 12.8764 19.1146 12.8256 19.0868 12.7738C19.0757 12.7517 19.0626 12.7305 19.051 12.7094C19.0315 12.6777 19.0068 12.6471 18.9865 12.6163C18.9697 12.5917 18.9545 12.5692 18.9364 12.5447C18.9185 12.5212 18.8982 12.4957 18.8791 12.4731C18.8587 12.4463 18.844 12.4194 18.8218 12.3943C18.8075 12.3778 18.7872 12.36 18.7717 12.3442C18.7162 12.2841 18.6619 12.2253 18.5999 12.1724C18.5936 12.1673 18.5846 12.1625 18.5784 12.158C18.5436 12.1288 18.5085 12.0988 18.471 12.0721C18.4611 12.0656 18.452 12.0573 18.4423 12.0506C18.4028 12.0225 18.3624 11.9978 18.3206 11.9719C18.3182 11.9707 18.3158 11.9728 18.3135 11.9719C17.9179 11.7283 17.4436 11.603 16.9387 11.6425C16.8299 11.6512 16.72 11.6705 16.6165 11.6926C15.5652 11.9256 14.8267 12.8592 14.9195 13.9123C14.9981 14.8044 15.6442 15.5153 16.4947 15.7525C16.5034 15.7549 16.5143 15.7574 16.5234 15.7597C16.2196 15.9289 15.9658 16.0246 15.9076 16.0246C15.9175 16.0308 15.9296 16.044 15.9434 16.0532C15.9469 16.0548 15.9537 16.051 15.9577 16.0532C15.9699 16.0603 15.9782 16.0737 15.9935 16.0819C15.9973 16.0839 16.0036 16.0805 16.0078 16.0819C16.026 16.0916 16.0431 16.1069 16.0651 16.1177C16.0692 16.1188 16.0763 16.1226 16.0795 16.1248C16.0987 16.1339 16.1214 16.137 16.1439 16.1463C16.1501 16.149 16.1515 16.151 16.1582 16.1535C16.2122 16.1748 16.2714 16.1995 16.3372 16.2179C16.3463 16.22 16.3566 16.2225 16.3659 16.2251C16.3914 16.2317 16.417 16.2336 16.4446 16.2394C16.4539 16.2419 16.4635 16.2444 16.4733 16.2466C16.5081 16.2532 16.543 16.2635 16.5807 16.268C16.5833 16.268 16.5924 16.2662 16.595 16.268V16.5258C16.5827 16.5276 16.5654 16.5305 16.552 16.533C16.1573 16.5976 15.9018 16.7244 15.7859 17.0772C15.6704 17.4307 15.7869 17.5595 15.972 17.8075C15.8144 18.0863 15.4092 18.1914 15.9434 18.8099C15.9054 19.0429 15.9549 19.413 16.2943 19.526C16.4054 19.5635 16.498 19.5802 16.595 19.5976V24.2303C16.2557 24.4101 16.0853 24.6372 15.9935 24.8461C15.9935 24.8461 15.3449 24.759 15.3634 25.9559C15.6723 25.7149 15.9291 25.7125 15.9291 25.7125C15.5087 26.2572 15.8074 26.7579 15.8074 26.7579C16.1697 26.3949 16.3301 26.3927 16.3301 26.3927C16.3301 27.037 16.595 27.2877 16.595 27.2877C16.595 27.1906 16.6001 27.1025 16.6165 27.0156C16.6001 27.1025 16.595 27.1906 16.595 27.2877V30.8178H16.2871V31.2689V31.7916H16.8241C16.7584 31.819 16.6991 31.856 16.6451 31.899C16.4591 32.0405 16.3448 32.2592 16.3515 32.5004V32.5434C16.3885 32.9601 16.773 33.2739 17.2108 33.2379C17.6473 33.2038 17.97 32.8374 17.934 32.4217C17.9084 32.1353 17.7205 31.8994 17.4614 31.7916H17.9554V30.8178H17.6619V27.6816C17.7235 27.7135 17.785 27.7393 17.8552 27.7532C17.8853 27.76 17.9191 27.7641 17.9483 27.7675C17.9611 27.7677 17.9713 27.767 17.9841 27.7675C17.9044 27.3559 18.1488 27.0872 18.1488 27.0872C18.2761 26.8967 18.4573 26.7481 18.6643 26.6433C19.2868 26.3312 20.1364 26.4078 20.39 26.9154C21.9966 26.4925 23.3758 24.8819 23.3758 24.8819L24.1706 26.2209C22.4935 26.7822 18.8432 29.9607 21.3781 31.0612C21.3769 31.3803 21.3324 33.754 19.81 33.5673C17.6167 33.2959 17.0691 34.201 17.49 35.2213C17.2913 36.0827 17.9554 36.3813 17.9554 36.3813C17.8564 35.8849 18.0944 35.4748 19.0009 35.4791C18.996 36.3855 19.5808 36.5532 19.5808 36.5532C19.584 35.7758 20.1248 35.4834 20.6048 35.4863C20.6016 36.126 21.3423 36.3742 21.3423 36.3742C21.3423 36.3742 21.1528 35.6319 21.9939 35.4863C24.12 35.1157 22.1246 32.9323 25.3592 32.3286C25.3592 32.3286 23.7481 32.0858 23.7481 31.2044C23.7481 30.4043 25.2018 29.8583 25.7029 29.8583C25.7034 29.8594 25.7095 29.8571 25.71 29.8583C26.7394 31.8164 27.8594 31.8338 28.1517 31.8488C28.6073 32.357 28.4518 34.0744 27.7937 34.0399C25.3844 33.9116 25.4688 35.3798 25.7387 35.6796C25.7087 36.2494 26.154 36.5746 26.154 36.5746C26.154 35.9645 26.7346 35.7979 27.4786 35.8371C27.4387 36.5813 27.9154 36.6892 27.9154 36.6892C27.9265 35.9395 28.4803 35.8163 28.8749 35.8371C28.8473 36.3637 29.369 36.5174 29.369 36.5174C29.369 36.5174 29.319 35.8523 30.0205 35.8514C31.3527 35.8514 29.4178 32.9956 32.0183 30.1733C29.7354 31.2306 28.5169 28.5896 28.5169 28.0825C29.6905 29.4562 33.5004 29.7258 33.5004 27.3808C33.5004 25.4888 31.744 24.5978 31.8894 23.8508C31.916 23.7136 32.0043 23.5833 32.183 23.4498C32.854 22.951 34.1719 23.9581 33.4217 24.9964C34.502 24.5957 35.1046 23.5465 34.775 22.6693C34.4425 21.7915 33.2968 21.4102 32.2188 21.8173C31.7671 21.9877 31.4028 22.2703 31.1519 22.6049C31.863 20.5718 34.7678 20.1438 34.7678 18.2514C34.7678 15.081 30.2605 15.9686 30.9156 18.2514C30.9156 18.2171 30.9185 18.1842 30.9227 18.1512C30.9291 18.092 30.9417 18.0393 30.9585 17.9865C31.2118 17.1952 32.5696 17.1394 32.5696 18.2514C32.5696 19.4772 29.6912 20.2825 29.6912 22.3543C29.6912 24.6372 31.9771 24.8426 31.7462 26.9297C31.7071 27.291 31.3184 27.7675 30.758 27.7675C29.5564 27.7675 28.9118 27.2566 28.5383 26.5359C27.8258 25.1594 28.0876 23.013 27.2853 22.1538L27.3497 21.2659C28.0565 21.6996 29.9345 20.6862 28.703 19.1393C28.703 19.9009 27.1135 19.8528 27.1135 18.4161C27.1135 16.4714 28.9297 17.493 29.0181 17.9221C28.9309 17.2143 28.8987 16.7606 29.0181 16.354C28.0369 16.6691 27.9437 16.1012 28.0658 15.8814C28.2094 15.6273 28.4006 15.33 28.7818 15.33C29.3328 15.33 29.2977 15.532 29.2687 15.8169C29.4791 15.4987 29.538 15.2648 30.0277 14.7859L30.0206 14.4278L30.307 14.5281L30.5791 14.0842C30.2836 13.4707 29.8806 13.7712 29.5838 13.0101C29.3376 12.9455 26.0992 12.6423 26.2113 11.1055ZM25.5024 12.2869C25.515 12.3682 25.5419 12.4506 25.5883 12.5232C25.5419 12.4506 25.515 12.3682 25.5024 12.2869ZM17.0747 13.2106C17.3765 13.1865 17.6433 13.402 17.669 13.6903C17.6941 13.9773 17.4701 14.2321 17.1678 14.256C16.8649 14.2803 16.5976 14.0643 16.5735 13.7763C16.5668 13.6998 16.5764 13.6295 16.6022 13.5615C16.6022 13.5598 16.6015 13.5549 16.6022 13.5543C16.6051 13.544 16.6131 13.5358 16.6165 13.5256C16.6956 13.3563 16.8669 13.2274 17.0747 13.2106ZM24.414 13.5113C24.4502 13.5716 24.4765 13.6407 24.5 13.7118C24.4765 13.6407 24.4502 13.5716 24.414 13.5113ZM22.3018 15.3157C22.3205 15.427 22.3613 15.5258 22.4163 15.6165C22.3614 15.5257 22.3203 15.4271 22.3018 15.3157ZM23.4904 16.8051C23.4123 17.0165 23.3022 17.2704 23.1825 17.5283C23.3022 17.2704 23.4123 17.0165 23.4904 16.8051ZM31.5385 17.2705C31.4079 17.3405 31.285 17.4333 31.1877 17.5426C31.2857 17.4315 31.4061 17.3413 31.5385 17.2705ZM33.0637 17.4423C33.1133 17.497 33.1544 17.56 33.1926 17.6285C33.1544 17.56 33.1133 17.497 33.0637 17.4423ZM17.6619 19.841C17.8698 19.861 18.4069 19.9392 19.0367 20.199C19.0439 20.2026 19.0519 20.2021 19.0581 20.2062C19.6638 20.5515 19.6517 21.2454 18.872 21.4091C19.3694 22.364 21.1022 21.8998 21.4783 21.1227C21.6617 21.1064 21.8189 21.4352 21.9724 21.7457C21.7305 21.8717 21.2402 22.1178 20.1823 22.7409C19.3215 23.2476 18.7403 23.8863 17.9554 24.1658C17.8359 24.2092 17.7439 24.2205 17.6619 24.216V19.841ZM22.538 19.8912C22.5027 19.991 22.4565 20.0854 22.3948 20.1704C22.4565 20.0854 22.5027 19.991 22.538 19.8912ZM18.1559 24.6456C18.0553 24.6659 17.9694 24.6814 17.891 24.6814C17.9694 24.6814 18.0553 24.6659 18.1559 24.6456ZM16.2728 24.8962C16.2508 24.912 16.2312 24.9353 16.2155 24.9535C16.233 24.9322 16.2469 24.9143 16.2728 24.8962ZM15.6427 25.4046C15.5634 25.4938 15.4914 25.5872 15.4422 25.6838C15.4907 25.5886 15.5649 25.4927 15.6427 25.4046ZM32.5696 26.8295C32.5734 26.8896 32.5768 26.9528 32.5768 27.0156C32.5768 27.0468 32.5689 27.0914 32.5625 27.1445C32.5689 27.0914 32.5696 27.0468 32.5696 27.0156C32.5696 26.9503 32.5737 26.8918 32.5696 26.8295H32.5696ZM32.3262 27.7675C32.2985 27.8062 32.2672 27.8449 32.2331 27.882C32.2658 27.8461 32.2994 27.8048 32.3262 27.7675ZM16.817 31.8632C16.8507 31.8632 16.8854 31.871 16.9172 31.8775C16.8854 31.871 16.8507 31.8703 16.817 31.8703C16.7867 31.8703 16.7594 31.8719 16.731 31.8775C16.7594 31.8718 16.7869 31.8632 16.817 31.8632Z" fill="#034694"/>
<path d="M28.0305 13.7578L28.4216 13.7784L28.2259 14.0468C28.2258 14.0468 27.9647 14.1294 28.0305 13.7578ZM27.0977 13.7578H27.6611C27.6611 13.7578 27.6408 14.2125 28.0522 14.2532L27.9648 14.398C27.9647 14.398 26.8592 14.109 27.0977 13.7578Z" fill="white"/>
<path d="M17.4185 17.6428C17.438 17.5695 16.7545 17.1697 16.3827 17.0723C16.2261 17.0317 16.1055 17.22 16.086 17.2936C16.067 17.3674 16.0798 17.5907 16.2359 17.6317C16.608 17.7291 17.3995 17.7163 17.4185 17.6428V17.6428ZM17.3625 18.325C17.3682 18.2557 16.6866 18.0106 16.3349 17.9842C16.1877 17.9734 16.1101 18.1638 16.1055 18.2325C16.1005 18.3025 16.1491 18.5016 16.2965 18.512C16.6476 18.538 17.358 18.3954 17.3625 18.325ZM16.5885 16.268V16.5293C16.6885 16.6294 17.053 16.7468 17.0946 16.7468V16.2293C17.0947 16.2294 16.8206 16.2869 16.5885 16.268ZM16.4458 18.8172C16.3391 18.8215 16.299 18.963 16.3017 19.0139C16.3026 19.0642 16.3535 19.2032 16.4603 19.1991C16.7142 19.19 17.2121 19.0302 17.2101 18.9804C17.208 18.9304 16.6999 18.8084 16.4458 18.8172ZM15.9228 25.7156C15.5025 26.2603 15.8052 26.7572 15.8052 26.7572C15.8052 26.3778 16.2379 25.8895 16.3345 25.7942C16.3345 25.7943 16.1862 25.7156 15.9228 25.7156ZM17.2639 26.8713C17.1993 27.2073 17.3665 27.5346 17.656 27.685C17.7176 27.7169 17.7844 27.7422 17.8546 27.756C17.8847 27.7629 17.9129 27.7665 17.9421 27.7698C17.9549 27.7701 17.9678 27.7703 17.9806 27.7708C17.9806 27.7708 17.5549 27.3722 17.7261 26.9955C17.615 26.9193 17.4493 26.8712 17.2639 26.8712V26.8713ZM16.4946 15.7531C15.8572 15.442 15.4039 14.6624 15.4039 13.7483C15.4039 12.7783 15.9135 11.9585 16.6138 11.6901C15.5624 11.923 14.8208 12.8573 14.9136 13.9105C14.9923 14.8026 15.644 15.5159 16.4946 15.7531ZM23.2622 13.5157C23.9387 13.3884 24.1682 13.9898 24.1682 14.2051C24.1682 15.0206 23.5331 15.3491 23.0066 15.3523V15.3527C25.4487 15.3527 24.5882 12.1901 23.2622 13.5157V13.5157ZM21.6299 20.5337C22.797 20.5337 22.7185 19.0093 22.4661 18.7566C22.8406 18.3824 23.6112 16.6656 23.6112 16.3485C23.6112 16.3485 22.0708 16.0163 22.3168 14.9473C22.3163 14.9466 22.3163 14.9461 22.3163 14.9452L22.2957 14.9415C21.8759 15.3844 22.1311 16.3083 22.7972 16.5389C22.7972 16.5389 22.5401 17.5546 21.9056 18.1987C21.2739 18.1742 20.3885 18.0911 19.6108 17.7934C20.8129 18.4315 22.0509 19.3958 21.6299 20.5337L21.6299 20.5337ZM17.0705 13.2145C17.3723 13.1903 17.638 13.4043 17.6638 13.6927C17.6888 13.9796 17.4641 14.2333 17.1617 14.2572C16.8588 14.2816 16.5926 14.0676 16.5684 13.7795C16.5684 14.226 16.9309 14.5889 17.3783 14.5889C17.385 14.5889 17.3917 14.5885 17.3984 14.5885C17.4385 14.7865 17.4522 14.9969 17.3876 15.151C17.8245 14.771 18.1879 14.2957 18.1879 13.7795C18.1879 13.3319 17.8245 12.9691 17.3783 12.9691C17.0058 12.9691 16.6937 13.22 16.5983 13.5609C16.6691 13.3735 16.8482 13.2324 17.0705 13.2144L17.0705 13.2145ZM25.6716 12.6252C25.1438 12.0965 25.9238 11.1084 26.2104 11.1084C25.897 11.1084 24.538 11.9982 24.9993 12.6252C25.2539 12.6252 25.6716 12.6252 25.6716 12.6252ZM18.8716 21.4103C19.2902 21.5388 19.7112 21.3821 19.8092 21.0604C19.9073 20.7381 19.6461 20.3741 19.2266 20.2452C19.1688 20.2279 19.1103 20.2155 19.0527 20.2084C19.6584 20.5538 19.6513 21.2465 18.8716 21.4103ZM17.6571 16.9619C17.6571 16.9619 18.2571 17.1517 18.9952 17.4889C18.847 17.3971 18.7079 17.2935 18.583 17.1758C18.2083 16.8217 17.9102 16.6288 17.6571 16.5307V16.9619ZM17.8847 24.6789C19.1391 24.6789 23.4761 21.9098 23.4761 21.9098C22.4049 21.9098 21.9723 21.7441 21.9723 21.7441C21.7304 21.8701 21.2342 22.1191 20.1763 22.7422C19.3155 23.2489 18.7385 23.8896 17.9537 24.1692C17.8341 24.2125 17.7391 24.2226 17.6571 24.218C17.4765 24.2025 17.2778 24.178 17.0946 24.167V20.1846C17.0946 19.767 16.7897 19.5991 16.5885 19.5991V24.2336C16.2493 24.4134 16.0823 24.6369 15.9906 24.8458C15.9906 24.8458 15.3438 24.7596 15.3623 25.9565C15.3623 25.639 15.8333 25.0839 16.16 25.0839C16.16 24.6789 17.3487 24.6789 17.8847 24.6789ZM28.7031 31.0901C28.3854 31.0901 26.9276 31.1518 26.7966 29.882C26.4744 29.8128 26.0983 29.7989 25.7033 29.855C26.7339 31.822 27.8527 31.8377 28.1454 31.8528C28.601 32.361 28.4483 34.0771 27.7902 34.0425C25.3809 33.9142 25.4692 35.38 25.7391 35.6798C25.7391 34.5746 26.4905 34.3125 28.3884 34.3125C28.3885 34.3125 29.9399 32.327 28.7031 31.0901ZM29.1985 35.8361H28.8724C28.8448 36.3627 29.3661 36.5177 29.3661 36.5177C29.1985 36.3503 29.0765 35.9593 29.1985 35.8361ZM26.1498 36.5775C26.0112 36.4386 25.897 35.8823 26.0983 35.6798H25.739C25.709 36.2496 26.1498 36.5775 26.1498 36.5775ZM33.3417 18.2779C33.3417 16.5953 31.0341 16.8597 30.9202 18.1517C31.022 17.2047 32.5637 17.065 32.5637 18.2512C32.5637 19.477 29.6884 20.28 29.6884 22.3518C29.6884 24.6347 31.971 24.8459 31.7401 26.933C31.701 27.2943 31.3139 27.7664 30.7535 27.7664C29.5519 27.7664 28.9087 27.2564 28.5352 26.5357C28.9171 27.556 29.5894 28.3381 30.9885 28.3381C32.4381 28.3381 32.5697 27.2666 32.5697 27.0177C32.5697 24.9281 30.3873 24.4313 30.3873 22.4454C30.3875 20.5117 33.3417 19.7151 33.3417 18.2779ZM16.3257 26.3958C16.3257 27.0401 16.5885 27.29 16.5885 27.29C16.5885 26.9016 16.7482 26.5732 16.8394 26.4826C16.7045 26.3468 16.3257 26.3958 16.3257 26.3958ZM32.9998 22.8346C32.414 22.8346 31.9344 23.2828 31.8839 23.8546C31.9106 23.7174 32.002 23.584 32.1807 23.4506C32.8517 22.9517 34.167 23.9564 33.4168 24.9947C33.8291 24.8291 34.1188 24.4267 34.1188 23.9552C34.1191 23.3369 33.618 22.8346 32.9998 22.8346ZM27.8663 35.8361H27.475C27.4351 36.5803 27.9112 36.6923 27.9112 36.6923C27.7092 36.4908 27.6755 36.0268 27.8663 35.8361ZM16.8133 31.8672C16.7528 31.8672 16.6964 31.8796 16.6425 31.9001C16.4566 32.0417 16.3432 32.2616 16.3499 32.5028C16.4119 32.7012 16.5947 32.8446 16.8133 32.8446C17.0833 32.8446 17.3019 32.6259 17.3019 32.3561C17.3019 32.0859 17.0833 31.8672 16.8133 31.8672ZM19.5619 35.4809H18.9963C18.9914 36.3873 19.5777 36.5517 19.5777 36.5517C19.4124 36.3853 19.2026 35.84 19.5619 35.4809H19.5619ZM21.3156 29.7488C21.3156 27.6755 26.2811 27.4322 26.2811 25.7241C26.2811 25.0285 25.6806 24.7144 25.2537 24.7144C25.3745 24.8355 26.0203 26.2243 24.1658 26.2243C22.4887 26.7856 18.8368 29.96 21.3717 31.0605C21.3705 31.3796 21.3276 33.7553 19.8051 33.5686C17.6119 33.2972 17.0647 34.2038 17.4857 35.2241C17.4857 33.676 18.5728 33.9636 19.9926 33.9636C20.8804 33.9636 22.1784 32.8408 22.1784 30.9504C22.1784 30.9504 21.3156 30.6193 21.3156 29.7488ZM17.0947 31.0194V26.8563C16.8133 26.8563 16.5886 27.2902 16.5886 27.2902V30.842V30.8193L16.2811 30.8202L16.2837 31.2686C16.5203 31.2685 17.0947 31.1465 17.0947 31.0193L17.0947 31.0194ZM17.9493 36.3839C17.9493 36.3839 17.5104 35.6943 17.9807 35.2241H17.4858C17.287 36.0855 17.9493 36.3839 17.9493 36.3839ZM21.0103 35.4899C21.0103 35.4899 20.7739 35.4899 20.5998 35.4899C20.5967 36.1296 21.34 36.3719 21.34 36.3719C21.0781 36.1112 20.8986 35.5999 21.0103 35.4899Z" fill="#6A7AB5"/>
<path d="M7.20307 28.5779L7.17571 28.4938L7.164 28.4064C7.12391 28.107 7.05152 27.5494 6.62097 27.4496C6.50586 27.4228 6.38692 27.4366 6.25999 27.4888C6.29453 27.3563 6.29049 27.2363 6.24888 27.1264C6.09015 26.7136 5.52824 26.7189 5.22634 26.7228H5.13758L5.05014 26.7066C4.75358 26.652 4.20036 26.5487 3.97337 26.9276C3.91238 27.0287 3.88815 27.1459 3.89855 27.2823C3.78364 27.2082 3.66783 27.1749 3.551 27.1806C3.10915 27.2041 2.94022 27.7403 2.84985 28.0289L2.82229 28.1127L2.78129 28.1905C2.6365 28.4564 2.36801 28.9492 2.658 29.283C2.73545 29.3722 2.83965 29.432 2.97274 29.4635C2.86752 29.5506 2.79957 29.6503 2.76988 29.7643C2.65447 30.1906 3.11268 30.5166 3.35804 30.6913L3.43004 30.7444L3.49203 30.8071C3.69994 31.0271 4.08626 31.4343 4.49307 31.2619C4.60071 31.2156 4.68997 31.1353 4.76146 31.0187C4.81235 31.1459 4.88555 31.2402 4.9842 31.3052C5.35477 31.5452 5.80602 31.2108 6.04876 31.0323L6.12055 30.9797L6.20021 30.9406C6.47284 30.81 6.98073 30.569 6.94236 30.1287C6.93216 30.0105 6.88279 29.9021 6.79444 29.7982C6.93045 29.7901 7.04293 29.7489 7.13421 29.6749C7.47832 29.3969 7.2992 28.8643 7.20307 28.5779" fill="white"/>
<path d="M5.26709 28.9353C7.73909 30.3963 6.97776 28.7897 6.92344 28.5521C6.86871 28.3153 6.84791 26.5381 5.26709 28.9353Z" fill="#ED1C24"/>
<path d="M5.11428 29.3008C4.48866 32.1022 5.7814 30.8826 5.98991 30.7584C6.19832 30.6331 7.88213 30.0636 5.11428 29.3008Z" fill="#ED1C24"/>
<path d="M4.71735 29.2676C1.85862 29.5374 3.41895 30.3905 3.60221 30.5498C3.78598 30.7087 4.8469 32.1349 4.71735 29.2676Z" fill="#ED1C24"/>
<path d="M4.62529 28.8779C3.4843 26.243 3.15523 27.9902 3.06022 28.2147C2.9652 28.4372 1.9366 29.8879 4.62529 28.8779Z" fill="#ED1C24"/>
<path d="M45.46 28.1908L45.4192 28.1129L45.3912 28.0291C45.3008 27.7404 45.1319 27.2044 44.6913 27.1807C44.5731 27.1752 44.4579 27.2081 44.343 27.2815C44.3535 27.146 44.3279 27.0289 44.2685 26.9277C44.0405 26.5486 43.4881 26.652 43.1915 26.7067L43.1032 26.7228H43.0148C42.714 26.7189 42.1516 26.7137 41.9935 27.1265C41.9505 27.2364 41.9473 27.3564 41.9811 27.4888C41.8561 27.4367 41.7369 27.4232 41.621 27.4497C41.1909 27.5493 41.1169 28.107 41.0789 28.4064L41.0657 28.494L41.039 28.578C40.9424 28.8643 40.7639 29.397 41.1079 29.6752C41.1991 29.7492 41.3108 29.7905 41.4476 29.7985C41.3593 29.9024 41.31 30.011 41.2997 30.129C41.2616 30.5694 41.7687 30.8104 42.0419 30.9409L42.1207 30.98L42.1925 31.0326C42.4361 31.2113 42.8877 31.5456 43.2571 31.3055C43.357 31.2405 43.4296 31.1462 43.4799 31.019C43.5519 31.1356 43.6402 31.2159 43.7489 31.2623C44.1555 31.4346 44.5422 31.0275 44.7499 30.8074L44.8124 30.7448L44.8834 30.6916C45.1296 30.5171 45.5875 30.1909 45.4725 29.7647C45.4417 29.6504 45.3751 29.5509 45.2691 29.4638C45.4017 29.4322 45.5062 29.3725 45.5833 29.2834C45.8738 28.9495 45.6057 28.4567 45.46 28.1908" fill="white"/>
<path d="M43.2751 28.6736C41.1223 26.7744 42.885 27.0011 43.1273 26.9798C43.3686 26.9595 45.0662 26.4294 43.2751 28.6736Z" fill="#ED1C24"/>
<path d="M42.9751 28.9353C40.5031 30.3963 41.2629 28.7897 41.3183 28.5521C41.3726 28.3153 41.3931 26.5381 42.9751 28.9353Z" fill="#ED1C24"/>
<path d="M43.1308 29.3008C43.7567 32.1022 42.4639 30.8826 42.255 30.7584C42.0468 30.6331 40.3636 30.0636 43.1308 29.3008Z" fill="#ED1C24"/>
<path d="M43.526 29.2676C46.3849 29.5374 44.8257 30.3905 44.6417 30.5498C44.459 30.7087 43.3966 32.1349 43.526 29.2676Z" fill="#ED1C24"/>
<path d="M43.6147 28.8779C44.7564 26.243 45.0848 27.9902 45.1802 28.2147C45.2747 28.4372 46.3033 29.8879 43.6147 28.8779Z" fill="#ED1C24"/>
<path d="M44.171 28.96C44.1682 28.9371 44.1609 28.9166 44.1578 28.8943C44.3873 28.7257 44.6353 28.5451 44.6353 28.5451L44.6114 28.4917C44.6114 28.4917 44.3221 28.5421 44.0447 28.5905C43.9054 28.3623 43.668 28.2075 43.3962 28.1811C43.3099 27.9216 43.2237 27.6572 43.2237 27.6572L43.1655 27.6622C43.1655 27.6622 43.1264 27.9376 43.087 28.2074C42.92 28.2526 42.7701 28.3471 42.6561 28.4824C42.5953 28.5553 42.5514 28.6378 42.5165 28.7239C42.237 28.7239 41.9416 28.7248 41.9416 28.7248L41.9292 28.7824C41.9292 28.7824 42.2045 28.9166 42.4589 29.0411C42.4598 29.0643 42.4568 29.0872 42.4589 29.1106C42.4784 29.3347 42.5833 29.5358 42.7525 29.6825C42.6632 29.9618 42.5626 30.2739 42.5626 30.2739L42.6119 30.3037C42.6119 30.3037 42.8438 30.0635 43.0503 29.8515C43.1581 29.8869 43.2729 29.9008 43.389 29.8905C43.5059 29.8817 43.6167 29.8466 43.7173 29.7944C43.9567 29.9668 44.2267 30.1621 44.2267 30.1621L44.2709 30.124C44.2709 30.124 44.1179 29.8347 43.9815 29.5757C44.1229 29.401 44.1896 29.1834 44.171 28.9599" fill="white"/>
<path d="M43.2699 28.5294C43.1344 28.5399 43.0123 28.604 42.9252 28.7087C42.8381 28.8125 42.7959 28.9436 42.8083 29.0784C42.8319 29.3575 43.0791 29.565 43.3574 29.5404C43.4939 29.5279 43.615 29.4642 43.7033 29.3608C43.7896 29.2561 43.8316 29.1258 43.8202 28.9901C43.7959 28.7109 43.5484 28.5042 43.2699 28.5294Z" fill="#ED1C24"/>
<path d="M4.96957 28.6736C7.12301 26.7744 5.35932 27.0011 5.11769 26.9798C4.87526 26.9595 3.17792 26.4294 4.96957 28.6736Z" fill="#ED1C24"/>
<path d="M5.78413 29.0411C6.0403 28.9167 6.31434 28.7823 6.31434 28.7823L6.30151 28.7247C6.30151 28.7247 6.00677 28.7238 5.72657 28.7238C5.69265 28.6378 5.64852 28.5552 5.58743 28.4824C5.47353 28.3471 5.32369 28.2527 5.15628 28.2073C5.11791 27.9373 5.07883 27.6622 5.07883 27.6622L5.01967 27.6572C5.01967 27.6572 4.93394 27.9214 4.84892 28.1811C4.57539 28.2075 4.3377 28.3623 4.19866 28.5905C3.9223 28.5421 3.6313 28.4917 3.6313 28.4917L3.60889 28.5451C3.60889 28.5451 3.85627 28.7257 4.08568 28.8943C4.08195 28.9167 4.07528 28.9372 4.07285 28.9599C4.05388 29.1846 4.12202 29.401 4.26328 29.5757C4.12576 29.8345 3.97269 30.124 3.97269 30.124L4.01802 30.162C4.01802 30.162 4.28752 29.9668 4.52672 29.7944C4.62729 29.8469 4.73806 29.8806 4.85468 29.8905C4.9716 29.901 5.08611 29.8869 5.19395 29.8515C5.39983 30.0636 5.63146 30.3037 5.63146 30.3037L5.68225 30.2739C5.68225 30.2739 5.58148 29.9616 5.49161 29.6833C5.66054 29.5356 5.76535 29.3345 5.78524 29.1104C5.78767 29.0872 5.78409 29.0644 5.78409 29.0412" fill="white"/>
<path d="M5.31817 28.7087C5.23073 28.6039 5.10926 28.5397 4.97315 28.5294C4.69497 28.5042 4.44749 28.7109 4.42326 28.9902C4.41175 29.1259 4.45365 29.2562 4.53998 29.3609C4.62722 29.4643 4.7499 29.528 4.88531 29.5405C5.16348 29.5651 5.41087 29.3575 5.435 29.0785C5.44641 28.9436 5.40481 28.8125 5.31817 28.7087Z" fill="#ED1C24"/>
<path d="M5.2836 16.7273C4.08012 16.5148 2.92772 17.3226 2.71507 18.5261C2.50272 19.7304 3.3097 20.8827 4.51329 21.0953C5.71789 21.3077 6.87079 20.5002 7.08273 19.2961C7.29578 18.0924 6.48831 16.9402 5.2836 16.7273Z" fill="white"/>
<path d="M5.78696 18.4038C5.76749 18.3918 5.73355 18.3698 5.69246 18.3427C5.5106 18.2221 5.15407 17.9863 5.14428 17.9793C5.0949 17.9453 5.04684 17.913 4.99948 17.8811C4.84096 17.7749 4.69919 17.6825 4.56591 17.6056C4.51451 17.5764 4.46483 17.5491 4.41485 17.5247C4.20291 17.4178 3.99975 17.3531 3.75994 17.332C3.57506 17.4655 3.41462 17.6308 3.28467 17.8218C3.83608 18.021 4.37446 18.3398 5.49546 19.0361C5.55957 18.8879 5.77414 18.4315 5.78696 18.4038Z" fill="#ED1C24"/>
<path d="M5.26883 19.5928C5.29124 19.5369 5.3898 19.2875 5.43009 19.1915C4.28132 18.4779 3.74789 18.1622 3.19527 17.9668C3.10954 18.1207 3.04532 18.2886 3.00342 18.4673C3.31886 18.9004 4.1642 19.3259 5.26883 19.5928Z" fill="#ED1C24"/>
<path d="M5.14418 17.7804C5.57432 17.526 6.06303 17.5952 6.44026 17.724C6.29961 17.5423 6.12927 17.3836 5.93116 17.26C5.57483 17.1891 5.08269 17.178 4.69092 17.4894C4.83339 17.5731 4.98051 17.6707 5.14418 17.7804Z" fill="#ED1C24"/>
<path d="M3.42771 19.8344C3.48526 19.8739 3.54423 19.9115 3.60693 19.9467C3.73355 20.0167 3.87067 20.0772 4.01234 20.129C4.07242 20.1517 4.13351 20.1728 4.1951 20.1927C4.41057 20.2636 4.90504 20.392 4.94189 20.4006C4.94948 20.3816 5.13475 19.9234 5.20502 19.7493C4.34858 19.5369 3.41075 19.1651 2.96515 18.6816C2.9384 18.9049 2.94879 19.1257 2.99595 19.3351C3.08996 19.5399 3.24091 19.7031 3.42771 19.8344Z" fill="#ED1C24"/>
<path d="M4.97184 20.58L4.79312 20.534C4.62742 20.4919 4.44779 20.4447 4.26514 20.3887C4.35419 20.5785 4.49434 20.7264 4.64378 20.8409C4.84401 20.8675 5.04161 20.8624 5.23154 20.8296C5.09432 20.7229 4.97184 20.58 4.97184 20.58" fill="#ED1C24"/>
<path d="M6.76258 18.3459C6.72188 18.2129 6.66847 18.0841 6.60132 17.964C6.26367 17.8135 5.74942 17.6663 5.30029 17.8861L5.91976 18.2951C6.0489 18.2836 6.16775 18.28 6.27649 18.2827C6.33587 18.2836 6.391 18.2868 6.4437 18.292C6.56497 18.3027 6.66847 18.3221 6.76258 18.3459" fill="#ED1C24"/>
<path d="M6.44625 18.459C6.42817 19.477 5.94825 20.2621 5.53467 20.7534C6.182 20.5284 6.69252 19.9705 6.81985 19.2499C6.86346 19.0036 6.85579 18.7614 6.81015 18.5309C6.70959 18.4996 6.58933 18.4734 6.44625 18.459" fill="#ED1C24"/>
<path d="M4.53785 17.4018C4.82774 17.1462 5.17014 17.0599 5.48588 17.0528C5.40571 17.0272 5.32402 17.0051 5.2389 16.9906C4.78867 16.9112 4.34822 16.9949 3.97412 17.1975C4.17334 17.2365 4.35337 17.3064 4.53785 17.4018Z" fill="#ED1C24"/>
<path d="M5.94318 18.4594C5.79586 18.7663 5.70923 18.9542 5.63734 19.1251C5.61522 19.1769 5.59372 19.2272 5.57201 19.2795C5.53768 19.3652 5.43186 19.6317 5.43186 19.6317L5.36875 19.7881L5.09521 20.4657C5.17064 20.5658 5.26202 20.6474 5.35189 20.7111C5.7583 20.2475 6.26407 19.4684 6.27952 18.4486C6.17724 18.445 6.06475 18.4487 5.94318 18.4594" fill="#ED1C24"/>
<path d="M4.06093 20.3214C3.92452 20.2744 3.78831 20.2209 3.65967 20.1582C3.70773 20.3066 3.777 20.4384 3.84677 20.5515C3.99267 20.6451 4.15282 20.7189 4.32376 20.7716C4.213 20.6468 4.11737 20.4992 4.06093 20.3214Z" fill="#ED1C24"/>
<path d="M3.45887 20.0482C3.36638 19.9927 3.28035 19.931 3.20068 19.8633C3.29085 20.0245 3.40445 20.1724 3.53622 20.302C3.50492 20.2211 3.47745 20.1374 3.45887 20.0482Z" fill="#ED1C24"/>
<path d="M40.9201 19.2961C41.1329 20.5002 42.2849 21.3077 43.4888 21.0953C44.693 20.8828 45.4997 19.7304 45.2883 18.5261C45.0757 17.3226 43.9231 16.5148 42.7188 16.7273C41.5148 16.9401 40.7079 18.0924 40.9201 19.2961Z" fill="white"/>
<path d="M42.2183 18.4038C42.2373 18.3918 42.2715 18.3698 42.3135 18.3427C42.4955 18.2221 42.8515 17.9863 42.8605 17.9793C42.911 17.9453 42.9592 17.913 43.0065 17.8811C43.1633 17.7749 43.3062 17.6825 43.4397 17.6056C43.491 17.5764 43.5413 17.5491 43.5904 17.5247C43.8018 17.4178 44.0061 17.3531 44.2455 17.332C44.4303 17.4655 44.5914 17.6308 44.7196 17.8218C44.1685 18.021 43.6318 18.3398 42.5094 19.0361C42.445 18.8879 42.2315 18.4315 42.2183 18.4038Z" fill="#ED1C24"/>
<path d="M42.7339 19.5928C42.7111 19.5369 42.6118 19.2875 42.5737 19.1915C43.7203 18.4779 44.2553 18.1622 44.8075 17.9668C44.8928 18.1207 44.9574 18.2886 44.9994 18.4673C44.6834 18.9004 43.8382 19.3259 42.7339 19.5928Z" fill="#ED1C24"/>
<path d="M42.8587 17.7804C42.4282 17.526 41.9399 17.5952 41.562 17.724C41.7029 17.5423 41.8742 17.3836 42.0722 17.26C42.4282 17.1891 42.92 17.178 43.3113 17.4894C43.1699 17.5731 43.0218 17.6707 42.8587 17.7804Z" fill="#ED1C24"/>
<path d="M44.5744 19.8344C44.5182 19.8739 44.4594 19.9115 44.3956 19.9467C44.2696 20.0167 44.1327 20.0772 43.9913 20.129C43.9307 20.1517 43.8692 20.1728 43.8078 20.1927C43.5934 20.2636 43.0984 20.392 43.0613 20.4006C43.053 20.3816 42.8672 19.9234 42.7983 19.7493C43.6545 19.5369 44.5916 19.1651 45.0385 18.6816C45.0652 18.9049 45.0537 19.1257 45.0073 19.3351C44.913 19.5399 44.7623 19.7031 44.5744 19.8344Z" fill="#ED1C24"/>
<path d="M43.0338 20.58L43.2113 20.534C43.3775 20.4919 43.5582 20.4447 43.741 20.3887C43.6506 20.5785 43.5111 20.7264 43.362 20.8409C43.162 20.8675 42.9638 20.8624 42.7749 20.8296C42.9105 20.7229 43.0338 20.58 43.0338 20.58" fill="#ED1C24"/>
<path d="M41.2417 18.3449C41.2827 18.2119 41.3352 18.0831 41.404 17.963C41.7406 17.8125 42.2537 17.6654 42.7032 17.8851L42.0843 18.2941C41.955 18.2826 41.8362 18.2791 41.7272 18.2817C41.6686 18.2826 41.6132 18.2858 41.5598 18.291C41.4387 18.3017 41.3363 18.3212 41.2417 18.3449" fill="#ED1C24"/>
<path d="M41.5584 18.459C41.5759 19.477 42.0571 20.2621 42.4711 20.7534C41.822 20.5284 41.3109 19.9705 41.1849 19.2499C41.1417 19.0036 41.1478 18.7614 41.195 18.5309C41.2947 18.4996 41.4158 18.4734 41.5584 18.459" fill="#ED1C24"/>
<path d="M43.4655 17.4028C43.1754 17.1472 42.8323 17.0609 42.5171 17.0538C42.597 17.0282 42.6782 17.0061 42.7642 16.9916C43.214 16.9121 43.6543 16.9959 44.0283 17.1985C43.8299 17.2375 43.6495 17.3074 43.4655 17.4028Z" fill="#ED1C24"/>
<path d="M42.06 18.4594C42.2077 18.7663 42.2927 18.9542 42.367 19.1251C42.3883 19.1769 42.4088 19.2272 42.4305 19.2795C42.4655 19.3652 42.5712 19.6317 42.5712 19.6317L42.6339 19.7881L42.908 20.4657C42.8321 20.5658 42.7414 20.6474 42.6512 20.7111C42.245 20.2475 41.7384 19.4684 41.7241 18.4486C41.8259 18.445 41.9389 18.4487 42.06 18.4594" fill="#ED1C24"/>
<path d="M43.9438 20.3214C44.0803 20.2744 44.2155 20.2209 44.3454 20.1582C44.2959 20.3066 44.228 20.4384 44.1572 20.5515C44.0115 20.6451 43.8514 20.7189 43.6812 20.7716C43.7917 20.6468 43.8872 20.4992 43.9438 20.3214Z" fill="#ED1C24"/>
<path d="M44.5442 20.0491C44.6354 19.9937 44.7217 19.932 44.8017 19.8643C44.7114 20.0255 44.5986 20.1733 44.4663 20.303C44.497 20.2221 44.5247 20.1384 44.5442 20.0491Z" fill="#ED1C24"/>
</g>
<defs>
<clipPath id="clip0_2208_89262">
<rect width="47.9973" height="47.9973" fill="white" transform="translate(0.00146484)"/>
</clipPath>
</defs>
</svg>
