<svg width="50" height="51" viewBox="0 0 50 51" fill="none" xmlns="http://www.w3.org/2000/svg">
<g filter="url(#filter0_dd_2273_287961)">
<rect x="5" y="2" width="39.9987" height="39.999" rx="19.9993" fill="white"/>
<g clip-path="url(#clip0_2273_287961)">
<path d="M37.9651 22.0001C37.9651 29.1609 32.1606 34.9654 25.0003 34.9654C17.8399 34.9654 12.0352 29.1609 12.0352 22.0001C12.0352 14.8397 17.8399 9.03516 25.0003 9.03516C32.1606 9.03506 37.9651 14.8397 37.9651 22.0001Z" fill="white" stroke="#0053A0" stroke-width="0.669164"/>
<path fill-rule="evenodd" clip-rule="evenodd" d="M13.0118 22.152C12.928 15.5322 18.2284 10.0958 24.8484 10.0118C31.4681 9.92801 36.9045 15.2288 36.9884 21.8486C37.0721 28.4683 31.7716 33.9048 25.1518 33.9884C18.5321 34.0724 13.0958 28.7718 13.0118 22.152H13.0118H13.0118ZM24.8465 9.86232C18.1441 9.94717 12.7774 15.4514 12.8623 22.1539C12.9472 28.8564 18.4514 34.2228 25.1537 34.1382C31.8561 34.0534 37.2225 28.5491 37.1379 21.8467C37.0531 15.1442 31.5489 9.77744 24.8465 9.86232Z" fill="#0053A0"/>
<path fill-rule="evenodd" clip-rule="evenodd" d="M24.561 14.0313C23.0891 14.0278 21.3791 14.6112 20.2297 15.5627C20.2259 15.5652 20.2259 15.5754 20.2338 15.5795C20.891 15.8401 21.3417 16.186 22.0442 16.5794C22.0696 16.5933 22.0785 16.5873 22.0838 16.5645C22.4237 14.8383 24.5309 15.3172 24.7276 14.0585C24.7191 14.05 24.7203 14.0344 24.7023 14.0335C24.6557 14.0322 24.6082 14.0316 24.561 14.0313ZM25.4374 14.0335C25.4228 14.0335 25.4181 14.0395 25.4187 14.0626C25.3303 14.2843 25.5901 14.5152 25.7415 14.6647C25.756 14.6784 25.7801 14.6942 25.7982 14.7021C26.7389 15.085 27.78 15.3679 28.008 16.4499C28.0127 16.4666 28.0159 16.4774 28.0333 16.4625C28.5347 16.13 29.032 15.7926 29.5394 15.4727C29.5654 15.462 29.5559 15.4499 29.5394 15.4395C28.3928 14.6242 26.9602 14.0937 25.4374 14.0335ZM19.5712 16.1106C18.6539 16.924 17.8668 17.9879 17.4569 19.1833C17.4523 19.195 17.4593 19.2004 17.4757 19.202C18.3733 19.2831 18.6666 18.1124 19.3546 17.6772C19.3637 17.6718 19.372 17.6671 19.3713 17.656C19.3226 17.1226 19.2991 16.6732 19.5712 16.1106ZM30.6438 16.3666C30.6945 16.7805 30.6559 17.1733 30.546 17.5559C30.5412 17.574 30.5419 17.5879 30.5624 17.6018C31.2257 17.9566 31.5852 18.9926 32.3517 19.0332C32.3612 19.0373 32.3757 19.0379 32.3704 19.0252C32.1043 18.1007 31.3391 17.0067 30.6438 16.3666ZM32.6165 19.6312C31.6758 20.5744 33.2024 22.1549 31.1313 23.037C30.9485 23.0909 30.7731 23.1548 30.6077 23.1555C30.1472 23.1577 29.4919 22.8064 29.496 23.5055C29.496 23.5181 29.5074 23.527 29.5226 23.533C30.1624 23.807 31.0271 24.4009 31.041 25.3163C31.0724 26.4074 29.9239 27.1422 30.106 28.1786C32.5604 26.0562 33.5698 22.9224 32.6165 19.6312ZM17.2733 19.787C17.2654 19.7892 17.2596 19.7978 17.2524 19.8145C16.323 22.3545 17.2363 26.3029 20.0874 28.3886C20.0881 28.3348 20.1194 28.2226 20.1521 28.1472C20.1641 28.1181 20.1622 28.0807 20.1521 28.0453C20.0475 27.586 19.7736 27.1229 19.5129 26.6722C18.6136 25.1794 19.1129 24.1557 20.5648 23.4915C20.5834 23.4855 20.5876 23.4751 20.5774 23.4557C20.5549 23.4063 20.5328 23.3576 20.5109 23.3075C20.5043 23.2942 20.5109 23.2676 20.4777 23.2724C20.1521 23.3129 19.7856 23.3417 19.4543 23.3268C18.9558 23.2157 18.4796 23.0171 18.1211 22.4891C17.4793 21.593 18.3583 20.3878 17.2983 19.7936C17.2895 19.7886 17.2813 19.7851 17.2733 19.787ZM30.7145 23.4583C30.7385 23.4583 30.7633 23.4618 30.7873 23.4684C31.1091 23.527 31.5959 23.7164 31.8851 24.0743C31.9038 24.0975 31.8953 24.1168 31.8664 24.1142C31.4018 24.1003 30.8798 24.049 30.5184 23.7642C30.4671 23.7237 30.4199 23.6835 30.456 23.5869C30.4826 23.5257 30.5678 23.4789 30.6391 23.4662C30.6651 23.4618 30.6898 23.4576 30.7145 23.4583ZM19.2212 23.6477C19.2472 23.6471 19.2725 23.6477 19.2985 23.6496C19.32 23.6521 19.3419 23.6521 19.3565 23.6664C19.4458 23.7728 19.428 23.9217 19.2611 24.037C18.9086 24.2628 18.4999 24.2755 18.1235 24.2916C18.1088 24.2922 18.083 24.2761 18.109 24.2517C18.4519 23.9375 18.8313 23.6515 19.2212 23.6477ZM25.5942 27.9287C25.5894 27.9281 25.584 27.9293 25.5796 27.9328C25.2908 28.07 24.8369 28.1368 24.5816 27.9933C24.5509 27.9781 24.5328 27.9895 24.5208 28.0072C24.0621 28.7839 22.9723 28.7655 22.1985 28.5682C21.6236 28.4386 21.0611 28.2746 20.5965 28.7348C23.0157 30.4794 26.7449 30.5338 29.5438 28.6141C29.0158 28.3648 28.5366 28.5441 27.9561 28.6787C27.2988 28.8314 26.3762 28.9695 25.6316 27.9455C25.6189 27.942 25.6075 27.9293 25.5942 27.9287ZM25.1108 28.1035C25.1175 28.1042 25.1248 28.1048 25.1337 28.1054C25.2176 28.1153 25.2654 28.158 25.3167 28.216C25.3414 28.2486 25.3503 28.2866 25.3462 28.3268C25.3322 28.6854 25.2708 29.048 25.1501 29.3619C25.1476 29.3768 25.1368 29.38 25.1314 29.3619C24.9914 28.9201 24.7523 28.4728 25.0542 28.1248C25.0735 28.108 25.0896 28.1026 25.1108 28.1035Z" fill="#0053A0"/>
<path fill-rule="evenodd" clip-rule="evenodd" d="M25.8857 10.6895C25.9576 10.7844 26.0295 10.89 26.0042 11.004C25.9117 11.5252 25.8122 12.0453 25.7064 12.5644C25.6877 12.6803 25.6035 12.7301 25.5189 12.808C26.089 12.9115 27.1555 13.113 27.7275 13.2207C27.7123 12.9948 27.8849 12.8628 27.9543 12.6582C27.7642 12.7912 27.5216 12.84 27.2961 12.7915C27.0614 12.7472 26.4802 12.6316 26.2461 12.5831C26.2841 12.4016 26.3082 12.2166 26.3503 12.0351C26.5784 12.0754 26.9455 12.1618 27.1729 12.1894C27.3667 12.2353 27.5134 11.9661 27.6189 11.8394C27.5447 11.8562 27.4054 11.8647 27.3297 11.8476C27.0909 11.8013 26.6617 11.7109 26.4229 11.6623C26.4441 11.4893 26.4808 11.3186 26.5169 11.1498C26.9262 11.2574 27.7817 11.2976 28.0854 11.6415C28.0955 11.4516 27.9882 11.2157 28.0962 11.0895C27.5308 10.9797 26.4511 10.7949 25.8857 10.6895ZM25.613 10.6978C25.0682 10.7003 24.0243 10.7576 23.4798 10.7645C23.5964 10.9562 23.4231 11.1245 23.419 11.3165C23.6036 11.149 24.0645 11.0988 24.3043 11.1061C24.3036 11.6316 24.3578 12.1593 24.3651 12.6832C24.3682 12.7823 24.2909 12.8453 24.2276 12.8853C24.4645 12.8827 24.8389 12.8536 25.0609 12.8498C24.9517 12.7494 24.8962 12.7411 24.8943 12.5999C24.8557 12.1162 24.8364 11.5524 24.8231 11.0706C25.0682 11.0528 25.5189 11.0968 25.7191 11.2186C25.7181 11.007 25.5135 10.7965 25.613 10.6978ZM23.2299 10.8395C22.8818 10.9154 22.1064 10.9699 21.8065 11.1978C21.448 11.4467 21.3653 11.999 21.8299 12.2413C22.1226 12.3611 22.6778 12.2309 22.967 12.254C23.1659 12.2622 23.2499 12.5378 23.119 12.6727C22.8365 12.9239 22.0691 12.9239 21.734 12.8225C21.816 13.0148 21.9079 13.1808 21.9946 13.3705C22.1087 13.2989 22.3111 13.2812 22.44 13.2581C22.7146 13.2181 23.3651 13.042 23.5485 12.8206C23.7677 12.5631 23.7785 12.19 23.565 11.9541C23.3731 11.7437 22.7786 11.7809 22.5258 11.7977C22.3817 11.7977 22.2626 11.8486 22.1258 11.7811C22.0092 11.7009 22.0159 11.5007 22.1464 11.4331C22.3972 11.3002 22.9657 11.2797 23.2277 11.3873C23.2125 11.2038 23.2359 11.023 23.2299 10.8395ZM28.8373 11.3082C28.8842 11.4242 28.9114 11.5338 28.856 11.6436C28.6495 12.0887 28.4148 12.5305 28.1963 12.979C28.1348 13.1098 28.0563 13.1928 27.9109 13.2476C28.1047 13.3467 28.4376 13.513 28.6333 13.6122C28.5513 13.3125 28.7547 13.0436 28.8709 12.802C28.9827 12.8631 29.2827 13.0031 29.3561 13.1247C29.4546 13.2913 29.4787 13.4624 29.4999 13.635C29.5094 13.7911 29.5221 13.9089 29.3609 13.9644C29.5873 14.0565 29.9434 14.2463 30.154 14.3476C29.9867 14.003 30.09 13.5343 29.8667 13.1957C30.0121 13.202 30.256 13.2264 30.4105 13.131C30.6899 12.9673 30.758 12.7082 30.6627 12.3664C30.6101 12.1865 30.4333 12.0839 30.2832 12.0123C29.9247 11.835 29.1962 11.4833 28.8373 11.3082ZM20.6691 11.5373C20.1693 11.818 19.2087 12.298 18.7154 12.5872C18.8441 12.6211 18.9334 12.6692 18.9946 12.7811C19.2413 13.2242 19.4874 13.667 19.7319 14.1101C19.7953 14.22 19.7759 14.3524 19.7259 14.4746C20.2387 14.1899 21.1987 13.6907 21.7131 13.4082C21.5525 13.317 21.6545 13.0126 21.5899 12.8124C21.5392 12.9872 21.3586 13.1462 21.2114 13.2539C20.9725 13.4142 20.4119 13.6999 20.1633 13.8415C20.0727 13.6809 19.9805 13.5165 19.8947 13.3518C20.0885 13.2315 20.538 13.0325 20.728 12.9062C20.8392 12.7668 20.774 12.5657 20.7987 12.4019C20.7499 12.4608 20.6865 12.514 20.6172 12.5498C20.4088 12.6658 19.9514 12.9191 19.7401 13.0332C19.66 12.8811 19.564 12.737 19.4947 12.579C19.8808 12.4038 20.5731 11.935 21.0131 11.9601C20.9032 11.7999 20.7264 11.7272 20.6691 11.5373ZM29.2893 11.9414C29.48 12.0367 29.76 12.1612 29.9332 12.2559C30.3928 12.4947 30.0659 12.9942 29.7334 12.8061C29.5433 12.7427 29.2108 12.5549 29.0255 12.4789C29.1053 12.2933 29.2073 12.127 29.2893 11.9414ZM18.2635 12.9226C18.2107 12.9986 18.1416 13.068 18.0593 13.1124C17.7845 13.2403 17.2921 13.6844 17.174 13.9644C17.0094 14.2849 17.0111 14.5798 17.2052 14.9539C17.4264 15.3951 17.74 15.5997 18.2197 15.5997C18.6963 15.5702 19.1255 15.1528 19.3215 14.8956C19.4296 14.7711 19.5344 14.634 19.6928 14.5643C19.5597 14.4167 19.4197 14.2767 19.2842 14.131C19.2357 14.308 19.1502 14.4604 19.0343 14.608C18.8629 14.8025 18.597 15.1081 18.2947 15.0935C17.9924 15.0787 17.8962 14.9345 17.7614 14.7873C17.6266 14.64 17.5339 14.468 17.5573 14.2038C17.5807 13.9397 18.1043 13.4519 18.4823 13.4373C18.3956 13.2726 18.3503 13.0892 18.2635 12.9226ZM16.424 14.6995C16.2861 14.8775 16.041 15.187 15.8949 15.3583C16.0305 15.3384 16.1541 15.3498 16.2574 15.4309C16.6541 15.7397 17.0503 16.0517 17.4448 16.3624C17.5461 16.439 17.5919 16.5537 17.6052 16.6848C17.7512 16.5109 17.9862 16.2062 18.1281 16.0368C18.0052 16.0529 17.8855 16.0596 17.7906 15.9829C17.3876 15.6722 16.9915 15.3564 16.5907 15.0435C16.4811 14.9602 16.42 14.8474 16.424 14.6995ZM15.4824 15.8955C15.231 16.4121 14.7109 17.3721 14.4638 17.8887C14.6009 17.8343 14.7039 17.8441 14.8283 17.9074C15.2755 18.1314 15.7248 18.349 16.1719 18.57C16.2816 18.6255 16.3777 18.7354 16.4219 18.8494C16.6712 18.3243 17.1311 17.3949 17.4177 16.8742C17.3587 16.8742 17.2995 16.8248 17.2573 16.783C17.1392 16.6709 17.0796 16.5429 16.9594 16.433C16.9929 16.6414 16.9627 16.891 16.8719 17.0934C16.7663 17.3189 16.4859 17.8656 16.3803 18.0915C16.2052 18.0322 16.0699 17.9315 15.9012 17.8555C15.9857 17.6534 16.2353 17.1954 16.3219 16.9955C16.3229 16.8784 16.1835 16.6804 16.0845 16.5388C16.0802 16.6148 16.0475 16.6921 16.0115 16.7621C15.9038 16.9816 15.661 17.4675 15.5512 17.6848C15.3972 17.6068 15.1968 17.5315 15.0429 17.4554C15.1506 17.2363 15.4226 16.6877 15.5345 16.4704C15.6211 16.2997 15.7614 16.1568 15.9345 16.0704C15.7552 15.9981 15.6364 16.0203 15.4824 15.8955ZM15.8053 18.768C15.8771 18.8842 15.8927 19.0809 15.897 19.22C15.9159 19.4822 15.7621 19.9795 15.722 20.2348C15.2388 20.1401 14.7532 20.0235 14.272 19.9181C14.1392 19.8927 14.0856 19.786 14.0075 19.672C13.9569 19.8896 13.8706 20.3007 13.8242 20.5202C13.9213 20.4486 13.9936 20.3929 14.1075 20.4182C14.6223 20.5262 15.1343 20.6393 15.647 20.7555C15.7652 20.7809 15.8837 20.8708 15.9449 20.9826C16.0546 20.4847 16.2602 19.5747 16.3678 19.0743C16.3151 19.0787 16.26 19.0876 16.2136 19.0581C16.0638 18.9755 15.9572 18.8462 15.8053 18.768H15.8053Z" fill="#0053A0"/>
<path fill-rule="evenodd" clip-rule="evenodd" d="M15.8099 23.0352C15.7375 23.139 15.6337 23.2242 15.5099 23.2477C15.039 23.381 14.5368 23.483 13.9996 23.6122C13.8918 23.6509 13.8265 23.6056 13.7246 23.527C13.7722 23.745 13.8457 24.1003 13.8975 24.3183C14.0888 24.0503 14.4449 24.0604 14.7266 23.9664C14.7935 24.1922 14.8723 24.6657 14.9474 24.8868C15.0657 25.0097 15.2619 25.0268 15.4161 25.081C15.3761 25.0208 15.3008 24.8928 15.2891 24.8203C15.2344 24.5815 15.1312 24.1257 15.0766 23.8891C15.2568 23.8489 15.4333 23.7956 15.6161 23.7703C15.7129 24.1482 15.9395 24.8516 15.7641 25.2121C15.948 25.1535 16.0997 24.9508 16.264 24.9935C16.1557 24.4861 15.9099 23.547 15.8099 23.0352H15.8099H15.8099ZM15.8349 25.3454C15.7748 25.3435 15.7142 25.3489 15.6536 25.3556C15.2458 25.443 14.8669 25.6441 14.6933 26.0701C14.4645 26.6643 14.9164 27.5781 15.5224 27.8014C15.9121 27.9408 16.2976 27.8362 16.5869 27.6202C16.8556 27.4362 17.0379 27.1287 17.0307 26.7163C17.0138 26.251 16.7537 25.7895 16.3744 25.5269C16.1941 25.4002 16.0154 25.3502 15.8349 25.3454H15.8349H15.8349ZM15.8182 25.8642C16.0431 25.863 16.2716 25.9203 16.4265 26.1515C16.6191 26.391 16.6775 26.7273 16.5411 26.9288C16.3473 27.1834 16.0348 27.3355 15.7057 27.3222C15.348 27.3095 14.9855 26.8515 15.0912 26.4122C15.1917 26.0543 15.5978 25.8823 15.8182 25.8642ZM17.2286 27.5955C17.1407 27.5981 17.0551 27.6155 16.9702 27.6475C16.5632 27.7976 16.2646 28.0602 16.1453 28.5099C15.9781 29.1254 16.6512 29.9334 17.2868 30.0474C17.6949 30.1161 18.0563 29.9688 18.3033 29.7053C18.536 29.4773 18.6806 29.1361 18.6013 28.7307C18.5033 28.2756 18.1354 27.8853 17.716 27.6934C17.531 27.6247 17.3751 27.5901 17.2286 27.5955ZM17.4306 28.0934C17.6086 28.0941 17.7704 28.1653 17.891 28.2914C18.1139 28.4973 18.2189 28.75 18.116 29.018C17.9743 29.3328 17.7111 29.5362 17.3848 29.5808C17.0303 29.6299 16.572 29.1608 16.6202 28.7741C16.678 28.4194 16.9093 28.2746 17.0994 28.1742C17.212 28.1194 17.3238 28.0928 17.4306 28.0934ZM19.014 29.012C19.0106 29.2147 18.8028 29.1548 18.6386 29.4101C18.8851 29.3854 19.2985 29.6052 19.4914 29.7493C19.2047 30.1845 18.9067 30.6099 18.616 31.0407C18.562 31.1312 18.4673 31.1414 18.368 31.1493C18.5493 31.2747 18.8785 31.4945 19.06 31.62C19.0239 31.4752 19.0372 31.3552 19.116 31.2367C19.3726 30.8573 19.6326 30.4788 19.8885 30.0974C19.9031 30.0819 19.9151 30.0461 19.9433 30.0553C20.1533 30.1693 20.4811 30.4547 20.5553 30.6846C20.6433 30.5152 20.6265 30.2447 20.7884 30.1785C20.3424 29.8713 19.4619 29.3125 19.014 29.012ZM20.8992 30.2719C20.9645 30.3907 20.9477 30.5266 20.9097 30.6514C20.764 31.1392 20.5784 31.5778 20.4324 32.064C20.3997 32.1819 20.3259 32.2519 20.1765 32.2867C20.6392 32.4333 21.1764 32.6291 21.6657 32.7786C22.1725 32.9427 22.6276 32.8204 22.6824 32.2886C22.7144 31.9833 22.3891 31.842 22.2618 31.7739C22.5969 31.8154 22.8224 31.6364 22.8405 31.3219C22.869 31.098 22.665 30.8532 22.2032 30.7033C21.8719 30.5953 21.2331 30.3654 20.8992 30.2719ZM27.9114 30.6552C27.6966 30.7106 27.3375 30.8608 27.1262 30.9327C27.244 30.9833 27.3254 31.0179 27.3653 31.1366C27.5161 31.5946 27.6982 32.0219 27.8547 32.4786C27.8974 32.6224 27.95 32.7852 27.8715 32.9265C28.358 32.7767 29.2021 32.472 29.6841 32.312C29.6566 32.2718 29.6148 32.2392 29.6173 32.1885C29.6053 32.0165 29.6486 31.8772 29.6341 31.7033C29.5226 31.9351 29.2774 32.0539 29.0279 32.1511C28.8872 32.1964 28.4919 32.3725 28.3526 32.3865C28.1986 31.9231 28.0153 31.4353 27.8594 30.9719C27.8167 30.8519 27.848 30.768 27.9114 30.6552ZM21.3579 30.8072C21.5359 30.8699 22.043 30.9859 22.2159 31.0581C22.4569 31.1579 22.3005 31.5899 22.049 31.5345C21.8726 31.5059 21.3772 31.3672 21.2118 31.3051C21.2584 31.1392 21.3066 30.9719 21.3579 30.8072ZM23.7175 31.0581C23.733 31.0901 23.7235 31.168 23.6969 31.2031L22.7911 32.7365C22.7103 32.8679 22.6343 32.9278 22.5219 33.0139C22.7284 33.0459 23.0856 33.1485 23.2931 33.1884C23.2263 33.0431 23.2323 32.8632 23.3403 32.7244C23.6602 32.7526 24.2582 32.796 24.5762 32.8347C24.6408 32.9857 24.7235 33.1672 24.5762 33.3053C24.7868 33.3037 25.1542 33.2958 25.3595 33.3098C25.267 33.1999 25.177 33.0893 25.1384 32.9471C25.0421 32.6633 24.6842 31.6092 24.5717 31.2826C24.5524 31.2234 24.5784 31.1499 24.5803 31.1433L23.7175 31.0581ZM26.1114 31.0698C25.8802 31.1078 25.4868 31.1534 25.2657 31.1807C25.3709 31.2545 25.4488 31.3001 25.4637 31.4245C25.5181 31.9031 25.6147 32.3618 25.6762 32.8407C25.6889 32.9905 25.6914 33.1831 25.5862 33.3053C26.093 33.2572 27.0255 33.1058 27.53 33.0472C27.5107 33.0025 27.4781 32.9604 27.4907 32.9119C27.5136 32.7406 27.5775 32.5933 27.5988 32.42C27.4315 32.6114 27.1895 32.714 26.926 32.7599C26.7749 32.7852 26.334 32.8565 26.1969 32.8533C26.1396 32.3678 26.0556 31.8553 25.9967 31.3701C25.9803 31.2434 26.0268 31.1674 26.1114 31.0698ZM24.0884 31.4264L24.4577 32.4324C24.2268 32.4191 23.7856 32.3919 23.555 32.3659L24.0884 31.4264ZM21.1304 31.6247C21.3423 31.7074 21.6939 31.8265 21.8824 31.8993C22.2951 32.0431 22.1864 32.5965 21.6863 32.4245C21.4618 32.3532 21.1624 32.2598 20.9493 32.1787C21.0006 31.9972 21.0791 31.8078 21.1304 31.6247Z" fill="#0053A0"/>
<path fill-rule="evenodd" clip-rule="evenodd" d="M32.2018 13.6205C31.8753 13.6066 31.6592 13.6966 31.4312 13.8895C31.1759 14.1216 31.002 14.3912 31.0039 14.7956C31.0125 15.1143 31.3606 15.615 31.7793 15.8792C31.8971 15.9663 32.084 16.0749 32.1017 16.2203C32.2404 16.0784 32.3852 15.9384 32.5271 15.8057C32.1872 15.7037 31.6117 15.3737 31.5291 14.9936C31.4765 14.6911 31.5506 14.5923 31.6792 14.427C31.9193 14.1371 32.1625 14.0323 32.5271 14.133C32.853 14.2629 33.145 14.6712 33.1704 14.9686C33.3398 14.8799 33.5004 14.8093 33.6724 14.7228C33.5359 14.6382 33.4757 14.5369 33.3832 14.4143C33.183 14.1226 32.8064 13.7061 32.3497 13.6332C32.2984 13.6272 32.2484 13.6228 32.2018 13.6205ZM33.9996 15.177C33.9929 15.3905 33.8805 15.4563 33.7272 15.5704C33.355 15.825 33.0025 16.0844 32.6313 16.3312C32.5258 16.3983 32.3893 16.4845 32.2392 16.4123C32.3599 16.5998 32.5984 16.9165 32.7206 17.1018C32.7333 16.9105 32.8359 16.8237 32.9518 16.7477C33.3531 16.4797 33.7304 16.1905 34.1329 15.9251C34.2492 15.8466 34.3157 15.8124 34.4702 15.8643C34.3505 15.6812 34.1202 15.3604 33.9996 15.177ZM34.7122 16.181C34.601 16.3489 34.3543 16.2469 34.1792 16.3144C34.3923 16.4344 34.6277 16.8196 34.7163 17.0457C34.2397 17.269 33.8456 17.4695 33.3683 17.6957C33.2777 17.7416 33.1346 17.7125 33.0418 17.677C33.1403 17.8768 33.305 18.2284 33.4038 18.427C33.4564 18.2731 33.6103 18.1423 33.7538 18.0789C34.1804 17.8851 34.5317 17.6976 34.9624 17.5145C35.0717 17.7296 35.2551 18.1343 35.1937 18.377C35.3584 18.2775 35.4391 18.0609 35.6269 18.0811C35.3989 17.587 34.9425 16.6745 34.7122 16.181ZM35.7476 18.3184C35.7023 18.5255 35.5142 18.6449 35.3976 18.7995C35.1642 19.0722 34.8836 19.3794 34.6102 19.6556C34.545 19.7168 34.3831 19.7361 34.285 19.7583C34.0816 19.7877 33.9869 19.8115 33.8311 19.681C33.8798 19.9002 33.9597 20.291 34.0037 20.5102C34.0905 20.3787 34.183 20.3015 34.3537 20.2581C34.5057 20.2308 34.6403 20.1722 34.7496 20.2201C35.2484 20.4915 36.1844 20.8782 36.3016 20.9995L36.1309 20.1808C36.0754 20.2609 36.0102 20.2996 35.9437 20.2742C35.6444 20.1583 35.289 19.993 35.035 19.8957C35.2209 19.6797 35.4382 19.471 35.6349 19.2664C35.7204 19.1622 35.8376 19.121 35.9415 19.2223L35.7476 18.3184Z" fill="#0053A0"/>
<path fill-rule="evenodd" clip-rule="evenodd" d="M34.5655 23.1505C34.4708 23.1531 34.3634 23.187 34.2488 23.263C34.0857 23.4065 34.0255 23.631 33.9716 23.8318C33.8982 24.1711 33.7157 24.8682 33.6489 25.2084C33.7617 25.1178 33.8589 25.1077 33.9862 25.1355C34.4841 25.2429 34.9801 25.3557 35.4761 25.463C35.5962 25.4862 35.6849 25.5802 35.7529 25.6857C35.8261 25.2138 36.1194 24.2544 36.1115 23.7729C36.102 23.3783 35.7362 23.1265 35.3862 23.2085C35.1876 23.2643 35.0761 23.4936 35.0321 23.6545C35.0314 23.415 34.8496 23.1429 34.5655 23.1505ZM34.5674 23.7229C34.7134 23.7238 34.8484 23.8585 34.8094 24.0276C34.7708 24.2037 34.7008 24.5743 34.6577 24.7485C34.4882 24.7143 34.3121 24.6763 34.1449 24.6376C34.193 24.4558 34.2383 24.1977 34.2862 24.013C34.3343 23.8037 34.4543 23.7229 34.5674 23.7229ZM35.4802 23.7542C35.6323 23.7596 35.7716 23.9123 35.7381 24.0982C35.6909 24.3218 35.6047 24.7342 35.5635 24.9544C35.3789 24.917 35.1876 24.8723 35.001 24.8356C35.0482 24.6116 35.1207 24.2889 35.1803 24.065C35.2354 23.8356 35.3615 23.7504 35.4802 23.7542ZM33.6137 25.3063C33.4737 25.5577 33.3458 25.7975 33.1991 26.0522C33.3103 25.999 33.4202 25.9929 33.5117 26.0417C33.837 26.2137 34.1142 26.3749 34.4363 26.5542C34.5608 26.6261 34.6957 26.7601 34.7096 26.9374C34.7042 27.175 34.5402 27.4623 34.3216 27.5589C34.1636 27.633 33.9837 27.557 33.8636 27.4876C33.5684 27.3102 33.3356 27.1842 33.0405 27.0043C32.9385 26.9457 32.8476 26.9023 32.8384 26.7129C32.6971 26.9523 32.5698 27.2143 32.4216 27.461C32.6182 27.373 32.7538 27.4316 32.8951 27.519C33.1576 27.6701 33.3762 27.7967 33.6362 27.9481C33.8348 28.0609 34.0337 28.1353 34.3048 28.0748C34.5389 28.0207 34.7375 27.7942 34.8804 27.5608C35.0314 27.3163 35.1641 27.0315 35.1489 26.761C35.1356 26.4817 34.9656 26.291 34.7761 26.1649C34.467 25.9777 34.2215 25.8488 33.9096 25.667C33.7895 25.5948 33.6175 25.4862 33.6137 25.3063ZM33.7841 28.1854C33.7775 28.4207 33.6457 28.6975 33.4782 28.8895C33.3936 29.0029 33.1215 29.3114 33.0116 29.4295C32.6392 29.1134 32.3002 28.8268 31.9265 28.5129C31.8277 28.4315 31.7498 28.3181 31.745 28.1895C31.5905 28.3488 31.3817 28.5854 31.2386 28.7561C31.3665 28.7381 31.4866 28.8002 31.5825 28.8816C31.949 29.1942 32.3044 29.5147 32.6762 29.8226C32.7877 29.9239 32.845 30.0221 32.851 30.1834C33.1884 29.8026 33.8142 29.0833 34.143 28.6963C34.0983 28.677 34.0388 28.67 34.0135 28.6168C33.9162 28.4394 33.8871 28.326 33.7841 28.1854ZM31.2031 28.8002C31.0986 28.9373 30.8892 29.0168 30.7384 29.0833C30.4125 29.2388 29.9552 29.6107 29.8598 30.0462C29.7838 30.4215 29.8665 30.7247 30.0739 30.998C30.2792 31.2755 30.538 31.4367 30.8952 31.4459C31.2949 31.4421 31.7209 31.1852 32.0364 30.8647C32.1403 30.7608 32.2676 30.6179 32.4197 30.6062C32.293 30.4554 32.1872 30.2853 32.0491 30.1415C31.9598 30.4168 31.5296 30.8688 31.2386 30.948C30.9817 31.0059 30.8097 30.9366 30.6219 30.7747C30.4132 30.5587 30.2833 30.2926 30.3698 29.9813C30.4984 29.58 31.0311 29.286 31.3659 29.344C31.3051 29.1647 31.2592 28.9728 31.2031 28.8002Z" fill="#0053A0"/>
<path fill-rule="evenodd" clip-rule="evenodd" d="M25.0593 14.1035C25.0169 14.2258 24.9881 14.387 24.9596 14.5286C24.9535 14.5596 24.938 14.5808 24.9193 14.6033C23.9713 15.5573 22.8001 15.2796 22.3636 16.6786C22.3142 16.7967 22.3769 16.9218 22.5882 17.0387C22.6094 17.0514 22.6281 17.046 22.6281 17.0238C22.5749 15.5048 24.6273 15.6074 25.0761 14.5533C25.0809 14.5425 25.0961 14.5454 25.1008 14.5533C25.478 15.2571 26.1014 15.3492 26.6712 15.6786C27.0978 15.9247 27.4054 16.148 27.4925 16.8471C27.4953 16.88 27.5045 16.874 27.5213 16.8572C27.5859 16.786 27.7427 16.7492 27.7379 16.6425C27.5998 15.6112 26.464 15.3885 25.5528 14.9638C25.5148 14.9346 25.4761 14.9055 25.4381 14.8764C25.2475 14.6508 25.1021 14.3965 25.0593 14.1035ZM25.0429 15.3933C25.0327 15.3939 25.0242 15.3961 25.0153 15.4012C25.0055 15.4059 24.996 15.4161 24.9906 15.4265C24.9855 15.436 24.9874 15.4661 24.9906 15.4867C24.9941 15.5 25.0061 15.5073 25.0134 15.5158C25.0286 15.5345 25.0419 15.5453 25.0615 15.5599C25.0859 15.576 25.116 15.5561 25.1214 15.5367C25.1287 15.5032 25.1287 15.4661 25.1214 15.4367C25.1195 15.4259 25.1113 15.4192 25.1046 15.4094C25.0954 15.3993 25.0853 15.3939 25.0695 15.3933C25.0628 15.3926 25.052 15.392 25.0429 15.3933ZM25.3526 15.6805C25.3495 15.6812 25.3482 15.6818 25.3447 15.6847C25.3387 15.6894 25.3339 15.6973 25.3339 15.7053C25.3333 15.7467 25.3146 15.8072 25.3526 15.8288C25.3713 15.8373 25.3947 15.8405 25.4093 15.824C25.4166 15.812 25.4309 15.8079 25.4299 15.7867C25.4299 15.7765 25.416 15.7733 25.4115 15.7619C25.4055 15.7452 25.4087 15.7154 25.4027 15.7033C25.3973 15.6945 25.3919 15.6859 25.3821 15.6847C25.3719 15.6828 25.3628 15.678 25.3526 15.6805ZM24.7822 15.6866C24.7546 15.6961 24.7255 15.716 24.7154 15.7512C24.7033 15.7721 24.704 15.7886 24.7154 15.8012C24.7299 15.8228 24.748 15.8481 24.7733 15.8598C24.7949 15.87 24.8227 15.87 24.8322 15.824C24.8427 15.786 24.8433 15.7325 24.8262 15.7179C24.804 15.7021 24.8094 15.6799 24.7822 15.6866ZM25.084 16.1886C24.9627 16.5538 24.9314 16.7378 24.8449 17.0286C25.0033 17.0298 25.0907 17.0305 25.2047 17.0327C25.1119 16.7014 25.1075 16.5699 25.084 16.1886Z" fill="#0053A0"/>
<path fill-rule="evenodd" clip-rule="evenodd" d="M19.4857 17.9923C19.4803 17.9923 19.4737 17.9951 19.467 18.0005C18.6223 18.5963 18.393 19.6523 17.3066 19.4778C18.0777 19.8382 18.0591 20.7244 18.1378 21.5464C18.2042 22.2387 18.7336 23.1715 20.161 22.9774C20.1768 22.9761 20.1876 22.9634 20.1774 22.9482C20.0862 22.8181 19.7803 22.8608 19.7042 22.8481C18.5743 22.6362 18.383 21.597 18.1483 20.421C18.0937 20.0811 17.8731 19.8664 17.7378 19.6111C17.728 19.5851 17.7192 19.5769 17.7524 19.5709C18.4723 19.4331 19.015 18.8085 19.5921 18.1443C19.6042 18.137 19.6064 18.1205 19.5921 18.1085C19.5595 18.0759 19.5297 18.0398 19.5003 18.0005C19.4949 17.9951 19.4917 17.9916 19.4857 17.9923ZM19.3777 19.359C19.3676 19.3596 19.3568 19.3618 19.3482 19.3669C19.3381 19.3716 19.3289 19.3818 19.3229 19.3922C19.3181 19.4017 19.3204 19.4318 19.3229 19.4524C19.327 19.4657 19.3409 19.473 19.3482 19.4816C19.3634 19.5002 19.3771 19.511 19.3964 19.5256C19.4208 19.5417 19.449 19.5218 19.4543 19.5025C19.4616 19.4689 19.4616 19.4318 19.4543 19.4024C19.4521 19.3916 19.4442 19.385 19.4376 19.3751C19.4284 19.365 19.4182 19.3596 19.4024 19.359C19.3954 19.3583 19.3869 19.3577 19.3777 19.359ZM19.7023 19.6542C19.6989 19.6551 19.6957 19.6564 19.6922 19.6589C19.6862 19.663 19.6814 19.671 19.6814 19.6795C19.6795 19.7204 19.6583 19.7802 19.6963 19.8024C19.7144 19.8122 19.7375 19.8144 19.7521 19.7983C19.7603 19.7863 19.7749 19.7837 19.7749 19.7631C19.7755 19.7524 19.7628 19.7495 19.759 19.7378C19.7537 19.721 19.7562 19.6909 19.7502 19.6795C19.7454 19.6703 19.7397 19.6602 19.7296 19.6589C19.7194 19.6564 19.7122 19.6523 19.7023 19.6542ZM19.1275 19.6982C19.1002 19.7077 19.0708 19.7296 19.061 19.765C19.0489 19.7856 19.0496 19.8002 19.061 19.8129C19.0749 19.8344 19.0955 19.8597 19.1208 19.8711C19.1424 19.8816 19.1702 19.8838 19.1797 19.8376C19.1902 19.7996 19.1889 19.7444 19.1709 19.7296C19.149 19.7137 19.155 19.6916 19.1275 19.6982ZM19.461 20.1942C19.4163 20.5629 19.2817 20.9842 19.1503 21.261C19.3036 21.2404 19.4261 21.3335 19.4357 21.4523C19.4743 21.3177 19.5775 21.2141 19.7001 21.2502C19.6197 20.9157 19.5202 20.5562 19.461 20.1942Z" fill="#0053A0"/>
<path fill-rule="evenodd" clip-rule="evenodd" d="M20.6664 23.7857C20.6603 23.7873 20.6537 23.7892 20.6458 23.7923C19.3377 24.2978 19.0764 25.4723 19.8077 26.5064C20.3572 27.4297 20.6005 27.8101 20.3392 28.5522C21.3616 27.335 23.173 29.3042 24.2122 27.7857C24.2261 27.767 24.2043 27.7544 24.1827 27.7335C24.132 27.6983 24.0788 27.6749 24.0269 27.6543C23.9882 27.6397 23.967 27.6483 23.9436 27.6815C23.5182 28.1297 22.1388 28.0303 21.0958 28.0334C21.0639 28.0334 20.9685 28.0502 20.9372 28.067C20.8371 28.1183 20.7357 28.1636 20.629 28.1541C20.6005 28.1541 20.5571 28.1389 20.5644 28.0797C20.6163 27.3211 20.165 26.839 19.879 26.2131C19.7896 25.9997 19.127 24.8024 20.7205 24.0752C20.7278 24.0612 20.743 24.053 20.7411 24.0318C20.7364 23.9577 20.7212 23.8845 20.6996 23.8085C20.6958 23.7898 20.685 23.7831 20.6664 23.7857ZM21.8497 25.2316C21.8395 25.2332 21.8291 25.2351 21.8202 25.2398C21.8104 25.2452 21.8009 25.255 21.7958 25.2651C21.7911 25.275 21.7923 25.3051 21.7958 25.3256C21.799 25.3389 21.8129 25.3456 21.8202 25.3545C21.8364 25.3732 21.849 25.3836 21.8684 25.3985C21.8931 25.4143 21.9238 25.3944 21.9289 25.3751C21.9355 25.3418 21.9365 25.3044 21.9289 25.275C21.9263 25.2645 21.9162 25.2585 21.9105 25.2484C21.9003 25.2376 21.8924 25.2332 21.8769 25.2316C21.8696 25.2309 21.8598 25.2303 21.8497 25.2316ZM22.1791 25.5109C22.1756 25.5116 22.1718 25.5122 22.1683 25.5151C22.1629 25.5198 22.1575 25.5277 22.1582 25.5356C22.1563 25.5771 22.135 25.6364 22.1724 25.6592C22.1911 25.6684 22.2117 25.6703 22.2269 25.6544C22.2342 25.6424 22.2516 25.6405 22.2516 25.6189C22.2522 25.6091 22.2377 25.6063 22.2329 25.5942C22.2275 25.5778 22.2323 25.5477 22.2269 25.5356C22.2215 25.5265 22.2164 25.5163 22.2057 25.5151C22.1962 25.5122 22.1889 25.509 22.1791 25.5109ZM21.5915 25.5464C21.5643 25.5556 21.5352 25.5778 21.525 25.6129C21.5123 25.6329 21.5136 25.6484 21.525 25.6611C21.539 25.6823 21.5576 25.707 21.583 25.719C21.6042 25.7298 21.6324 25.7317 21.6409 25.6858C21.6517 25.6478 21.653 25.5923 21.6349 25.5778C21.6131 25.5616 21.6191 25.5398 21.5915 25.5464ZM21.8918 26.0209C21.8471 26.3896 21.7122 26.8108 21.5811 27.0876C21.7344 27.0671 21.857 27.1583 21.8665 27.2777C21.9051 27.1431 22.0084 27.0411 22.1309 27.0775C22.0502 26.743 21.9504 26.3835 21.8918 26.0209Z" fill="#0053A0"/>
<path fill-rule="evenodd" clip-rule="evenodd" d="M29.323 23.7818C29.3164 23.7824 29.3088 23.7891 29.3062 23.7964C29.2774 23.8578 29.2483 23.9164 29.2188 23.9779C29.1928 24.0472 29.1916 24.1065 29.2961 24.1397C31.1702 24.9059 30.2475 26.3556 29.7588 27.2064C29.7082 27.2938 29.5868 27.5516 29.5777 27.665C29.559 27.7857 29.5777 27.8908 29.5748 28.0169C29.5748 28.0463 29.5336 28.0543 29.5108 28.0501C28.311 27.8196 27.2731 28.8797 26.2897 27.7356C26.1991 27.6378 26.0904 27.6283 26.0505 27.659C26.0071 27.6916 25.9751 27.7277 25.9444 27.7755C25.9238 27.8044 25.9245 27.8208 25.9485 27.8503C26.971 29.2842 28.4824 27.5909 29.7794 28.3042C29.4757 27.575 30.0743 26.8678 30.4129 26.2318C31.1654 24.9531 30.2849 24.1673 29.3297 23.7818C29.3268 23.7805 29.3255 23.7818 29.323 23.7818ZM28.3297 25.2024C28.3196 25.2036 28.311 25.2059 28.3022 25.2109C28.2924 25.2157 28.2829 25.2258 28.2775 25.2356C28.273 25.2458 28.2743 25.2778 28.2775 25.2983C28.281 25.3116 28.293 25.317 28.3003 25.3256C28.3155 25.3436 28.3288 25.355 28.3481 25.369C28.3728 25.3858 28.4029 25.3658 28.4083 25.3465C28.4156 25.3132 28.4156 25.2752 28.4083 25.2464C28.4064 25.235 28.3981 25.229 28.3921 25.2192C28.3823 25.209 28.3722 25.2036 28.3563 25.2024C28.3497 25.2017 28.3389 25.2011 28.3297 25.2024ZM28.6442 25.4903C28.6408 25.4903 28.637 25.4919 28.6335 25.4944C28.6275 25.4985 28.623 25.5071 28.623 25.515C28.6214 25.5559 28.6002 25.6157 28.6376 25.6376C28.6563 25.6477 28.6788 25.6496 28.6943 25.6338C28.7016 25.6217 28.7168 25.6198 28.7168 25.5983C28.7168 25.5885 28.7051 25.585 28.7003 25.573C28.6949 25.5565 28.6975 25.527 28.6924 25.515C28.687 25.5058 28.6835 25.4957 28.6728 25.4944C28.6636 25.4919 28.6534 25.4884 28.6442 25.4903ZM28.063 25.5337C28.0355 25.5432 28.0083 25.5657 27.9984 25.6005C27.9864 25.6211 27.987 25.6357 27.9984 25.6483C28.013 25.6699 28.0311 25.6949 28.0564 25.7063C28.0776 25.7171 28.1055 25.719 28.115 25.673C28.1258 25.635 28.1242 25.5796 28.1061 25.565C28.0849 25.5492 28.0903 25.527 28.063 25.5337ZM28.3817 26.0091C28.3377 26.3778 28.2024 26.799 28.071 27.0756C28.2249 27.055 28.3475 27.1484 28.3563 27.2669C28.395 27.1322 28.4982 27.029 28.6208 27.0651C28.5404 26.7303 28.4409 26.3711 28.3817 26.0091Z" fill="#0053A0"/>
<path fill-rule="evenodd" clip-rule="evenodd" d="M30.4602 17.9729C30.4564 17.9745 30.4529 17.9776 30.4497 17.9818C30.4355 17.9982 30.4237 18.0898 30.4203 18.1503C30.4196 18.1629 30.4196 18.1731 30.4329 18.1816C30.7015 18.3451 31.5063 19.2576 32.2076 19.4169C32.2383 19.4235 32.2421 19.4495 32.2269 19.465C31.3929 20.445 32.3875 21.9755 30.7436 22.5589C30.4383 22.6428 30.1311 22.6029 30.0744 22.8063C30.0728 22.8136 30.0829 22.8228 30.089 22.8228C31.0775 22.8855 31.6942 22.5523 31.8788 21.8463C32.1167 21.0595 31.6688 19.9417 32.5123 19.3317C32.5335 19.3155 32.5221 19.2877 32.5034 19.2896C31.6508 19.3763 31.1057 18.4717 30.4722 17.9751C30.469 17.9729 30.4636 17.9723 30.4602 17.9729ZM30.731 19.2896C30.7208 19.2918 30.7104 19.2949 30.7015 19.3003C30.6917 19.3051 30.6822 19.3149 30.6768 19.3257C30.6724 19.3349 30.6736 19.3649 30.6768 19.3855C30.6803 19.3988 30.6923 19.4064 30.6996 19.415C30.7148 19.4337 30.7281 19.4422 30.7474 19.4562C30.7721 19.473 30.8022 19.4549 30.8076 19.4356C30.8149 19.4023 30.8149 19.3649 30.8076 19.3355C30.8057 19.325 30.7975 19.3162 30.7915 19.3063C30.7816 19.2962 30.7715 19.2908 30.7557 19.2896C30.749 19.2896 30.7402 19.2883 30.731 19.2896ZM31.0201 19.611C31.017 19.6117 31.0135 19.6123 31.0103 19.6148C31.0043 19.6196 31.0015 19.6275 31.0015 19.6358C30.9996 19.6769 30.979 19.7362 31.0163 19.759C31.0341 19.7681 31.0556 19.7704 31.0702 19.7542C31.0781 19.7422 31.0936 19.7403 31.0936 19.7191C31.0936 19.7089 31.081 19.7064 31.0768 19.6943C31.0715 19.6776 31.0743 19.6475 31.0683 19.6358C31.0635 19.6263 31.0594 19.6164 31.0496 19.6148C31.0395 19.6123 31.0303 19.6088 31.0201 19.611ZM30.425 19.6148C30.3975 19.6244 30.3702 19.6462 30.3604 19.6817C30.3484 19.7023 30.349 19.7168 30.3604 19.7295C30.3743 19.751 30.393 19.7764 30.4184 19.7875C30.4396 19.7982 30.4674 19.8001 30.477 19.7542C30.4868 19.7162 30.4861 19.663 30.4684 19.6484C30.4462 19.6323 30.4522 19.6082 30.425 19.6148ZM30.7455 20.0855C30.7015 20.4542 30.5663 20.8755 30.4348 21.1523C30.5881 21.1317 30.7116 21.2248 30.7202 21.3442C30.7588 21.2096 30.8621 21.1054 30.985 21.1415C30.9042 20.8077 30.8048 20.4475 30.7455 20.0855Z" fill="#0053A0"/>
<path fill-rule="evenodd" clip-rule="evenodd" d="M29.8947 15.6897C29.8915 15.6904 29.888 15.6904 29.8842 15.6923C29.1269 15.9064 28.1042 16.7803 27.2617 17.5461C27.237 17.5743 27.2031 17.5803 27.1755 17.5708C26.6155 17.3868 25.9643 17.3631 25.4218 17.3482C24.6477 17.2769 23.7171 17.3716 22.8844 17.6415C22.8486 17.6541 22.8217 17.6215 22.7951 17.5895C22.136 16.8563 21.2073 16.2557 20.2052 15.8377C20.1773 15.8243 20.1539 15.8123 20.1219 15.8418C19.6075 16.3162 19.7206 17.7216 20.1621 18.4837C20.2141 18.5942 20.2255 18.788 20.2267 18.8542C20.2581 19.2641 20.3379 19.6182 20.4453 20.0002C20.4719 20.2374 20.5628 20.4788 20.6993 20.6834C20.7259 20.716 20.7145 20.7455 20.6952 20.7667C20.5207 20.9415 20.3613 21.1069 20.1868 21.2814C20.1741 21.2934 20.1501 21.302 20.1266 21.3061C19.9819 21.3229 19.9366 21.3701 19.8682 21.5373C19.858 21.5614 19.8593 21.5782 19.872 21.5981C19.8967 21.6441 20.0646 21.9348 20.2033 22.0894C20.3373 22.2221 20.2872 22.3482 20.1741 22.4688C20.3879 22.6288 20.7706 22.9348 20.7934 22.9813C20.8174 23.1045 21.0347 23.146 20.9052 23.3228C20.9394 23.3307 20.96 23.3433 20.9866 23.3646C21.0059 23.3855 21.01 23.4054 21.0119 23.4273C21.0293 23.6192 21.0654 23.7934 21.1719 23.9771C21.6051 24.712 22.0907 24.5986 22.6678 25.2251C23.013 25.6004 23.3538 25.6153 23.5885 26.2773C23.567 26.5284 23.5537 26.6824 23.6572 26.8997C23.7798 27.1651 24.0817 27.1752 24.4697 27.3516C24.5216 27.3719 24.5504 27.3877 24.5884 27.427C24.6898 27.5258 24.8064 27.5892 24.9384 27.6519C25.0452 27.6972 25.1715 27.6972 25.2697 27.6478C25.4563 27.541 25.4956 27.6183 25.8405 27.3703C26.1658 27.2744 26.6969 26.8737 26.6402 26.1918C26.6421 26.1718 26.6469 26.1585 26.6529 26.1411C26.663 26.1097 26.6922 26.0784 26.7197 26.048C26.8509 25.8912 27.001 25.7524 27.0928 25.5624C27.1115 25.5165 27.1277 25.4718 27.1695 25.4373C28.4681 24.3772 28.0088 24.8431 28.4782 24.4833C29.4408 23.7513 28.8089 22.8967 29.9362 22.4188C29.7835 22.0954 29.8354 22.0659 30.3321 21.3774C30.0695 21.2386 29.8867 21.0793 29.7046 20.952C29.1335 20.5041 29.652 20.124 29.6989 19.9042C29.7315 19.7794 29.7806 19.622 29.7927 19.4627C29.8535 19.0956 29.8193 18.6629 30.0068 18.471C30.1449 18.3376 30.1848 17.6076 30.2066 17.5483C30.358 17.0717 30.3026 17.0077 30.3302 16.7084C30.3346 16.6684 30.3489 16.6365 30.3302 16.5924C30.2247 16.3017 30.0955 16.0204 29.9466 15.7417C29.9333 15.7176 29.9235 15.6945 29.9048 15.6897C29.9019 15.6891 29.8981 15.6897 29.8947 15.6897ZM29.4449 16.811C29.3841 17.409 29.1662 17.8049 29.2343 18.3063C28.9803 18.6183 29.0655 19.2001 28.832 19.5482C28.8168 19.5682 28.7962 19.5796 28.7715 19.5774C28.4614 19.526 28.2442 19.1355 27.9803 18.9147C27.9534 18.8935 27.9401 18.8736 27.949 18.8523C28.0563 18.6135 28.3028 18.3741 28.1115 18.1315C28.121 17.4362 28.9514 17.3244 29.4449 16.811ZM20.514 16.9256C21.0011 17.1983 21.3118 17.6563 21.5513 17.663C21.5887 17.721 21.6419 17.7808 21.6865 17.8277C22.0451 18.2357 21.7607 18.3877 22.0758 18.9109C22.11 18.9841 22.1252 19.0554 22.0758 19.1C21.8652 19.2834 21.678 19.4693 21.5032 19.6708C21.2719 19.9514 21.1592 19.8482 21.0908 19.6708C21.048 19.5393 21.0027 19.3908 21.0619 19.2394C21.0987 19.1561 21.0765 19.0877 21.0138 19.0082C20.9299 18.8904 20.8615 18.7656 20.7953 18.6414C20.7718 18.5948 20.7566 18.5549 20.7474 18.4963C20.6641 17.9804 20.6793 17.2088 20.514 16.9256ZM26.5655 22.0333C26.601 22.0295 26.6323 22.0539 26.6364 22.0894C26.6402 22.1255 26.6136 22.1588 26.5782 22.1626C26.5424 22.166 26.511 22.1401 26.5069 22.104C26.5037 22.0688 26.5303 22.0374 26.5655 22.0333ZM23.2385 22.0393C23.2746 22.0362 23.3057 22.0599 23.3092 22.096C23.3133 22.1315 23.2864 22.1626 23.2512 22.1667C23.2157 22.1708 23.1837 22.1461 23.1806 22.1106C23.1765 22.0748 23.2031 22.0435 23.2385 22.0393ZM28.5989 23.4875C28.6515 23.4881 28.6676 23.5372 28.6616 23.5872C28.6056 24.2939 28.2762 24.0994 27.5236 24.7687C27.3269 24.9258 27.3915 25.0784 27.1261 25.302C26.9038 25.5098 26.6963 25.7271 26.5069 25.996C26.4762 26.0419 26.4537 25.9932 26.4508 25.9726C26.4416 25.9165 26.4084 25.8532 26.3615 25.8019C26.237 25.6619 26.4356 25.6793 26.2117 25.3439C26.1189 25.208 26.0115 25.3831 25.9469 25.1627C25.907 25.0205 25.945 25.0905 25.895 24.7604L26.0264 24.6518C26.0882 24.8279 26.175 24.9752 26.2697 25.0977C26.2836 25.1145 26.2576 25.2631 26.3156 25.3939C26.3276 25.1874 26.5123 25.0686 26.2491 24.698C26.2149 24.6499 26.1971 24.6027 26.1845 24.546C26.1829 24.54 26.1816 24.5352 26.1803 24.5292C26.6789 24.2052 27.237 23.9407 27.7637 23.7225C27.7368 23.7526 27.7108 23.7827 27.6842 23.8146C27.6721 23.8292 27.6956 23.8346 27.7029 23.8314C27.7349 23.8226 27.7501 23.8267 27.7754 23.8314C27.7922 23.8413 27.7903 23.8587 27.7903 23.8745C27.7941 23.936 27.745 23.9394 27.7596 24.0079C27.8464 23.8967 27.929 23.7887 28.0174 23.6873C28.0383 23.6613 28.0655 23.6306 28.1067 23.6354L28.203 23.648C28.2356 23.6493 28.267 23.6433 28.3028 23.6332C28.3876 23.5999 28.451 23.5587 28.5321 23.5039C28.5587 23.4913 28.5809 23.4875 28.5989 23.4875ZM21.5199 23.5999C21.5231 23.5999 21.5285 23.6021 21.5326 23.604C21.7825 23.7294 22.1233 23.808 22.2972 23.8812C22.3884 23.9239 22.4866 23.9873 22.5572 23.998C22.5864 23.9999 22.5864 23.9841 22.5718 23.9667C22.5531 23.9372 22.5344 23.9094 22.5157 23.8834C22.9452 24.0826 23.3431 24.3138 23.7637 24.5919C23.7624 24.5954 23.7605 24.5986 23.7599 24.6021C23.7478 24.6378 23.7358 24.6705 23.7238 24.6999C23.7171 24.7167 23.7098 24.7354 23.7032 24.75C23.6978 24.7626 23.6918 24.7759 23.6864 24.7873C23.6766 24.8086 23.6664 24.832 23.6572 24.8501C23.6452 24.8732 23.6319 24.9004 23.6218 24.9207C23.6186 24.9286 23.6151 24.9359 23.6116 24.9438C23.605 24.9587 23.5977 24.9733 23.5933 24.9872C23.5898 24.9973 23.5873 25.0065 23.5844 25.0167C23.5831 25.0211 23.5812 25.0258 23.5806 25.0312C23.5778 25.0445 23.5771 25.0578 23.5759 25.0724C23.5752 25.086 23.5752 25.1 23.5759 25.1145C23.5771 25.1301 23.5778 25.1453 23.5806 25.1627C23.5857 25.2045 23.5977 25.2206 23.6116 25.2273C23.6158 25.2292 23.6218 25.2298 23.6265 25.2311C23.6363 25.2333 23.6557 25.2365 23.6617 25.2206C23.6664 25.2058 23.6737 25.1912 23.6804 25.1772C23.687 25.1627 23.693 25.1494 23.7013 25.1351C23.7165 25.1072 23.7345 25.0794 23.7532 25.0518C23.757 25.0458 23.7611 25.0392 23.7659 25.0331C23.7998 24.9853 23.8372 24.9394 23.8717 24.8919C23.8752 24.8871 23.8771 24.8833 23.8805 24.8792C23.8945 24.8586 23.9072 24.8374 23.9198 24.8165C23.9246 24.8092 23.9296 24.8013 23.9344 24.794C23.9464 24.7731 23.9585 24.7525 23.9676 24.7313L24.2366 24.9311C24.1919 25.0404 24.1346 25.1886 24.1178 25.2938C24.0864 25.5304 23.941 25.4772 23.8324 25.3872C23.8391 25.6311 23.8577 25.736 23.7219 25.9498C23.7038 25.9805 23.687 25.9697 23.6759 25.9498C23.3472 25.316 23.0298 25.4671 22.6139 24.7918C22.5766 24.6939 22.5059 24.6005 22.3697 24.5498C21.8573 24.348 21.4911 24.2093 21.5032 23.6205C21.5038 23.61 21.5092 23.5999 21.5199 23.5999ZM26.0403 25.7166C26.0616 25.7179 26.0803 25.736 26.0882 25.7585C26.1917 25.9919 26.3203 26.4024 26.2782 26.5351C26.1262 27.1179 25.7157 27.2145 25.3343 27.1645C25.0483 27.1271 25.0471 27.0599 25.0423 26.8686C25.043 26.8477 25.0718 26.8398 25.0949 26.8331C25.4405 26.7245 25.6482 26.5364 25.6571 26.1772C25.659 26.1284 25.665 26.0771 25.6403 26.0331C25.7369 25.9713 25.8262 25.9073 25.9137 25.8272C25.9162 25.8247 25.9197 25.8218 25.9216 25.8186C25.9482 25.7765 25.9783 25.7426 26.0198 25.7205C26.027 25.7179 26.0337 25.716 26.0403 25.7166ZM24.1197 25.7607C24.1311 25.7572 24.1412 25.7632 24.1533 25.7771C24.1618 25.7866 24.1738 25.8164 24.2011 25.8164C24.2476 25.8753 24.3126 25.926 24.3737 25.9707C24.355 25.989 24.3436 26.0106 24.3363 26.0331C24.317 26.0885 24.3205 26.1826 24.3363 26.2684C24.343 26.3191 24.3604 26.3637 24.3864 26.4078C24.5112 26.6019 24.5998 26.689 24.7405 26.785C24.7991 26.8205 24.8637 26.8512 24.9384 26.8439C24.959 26.8411 24.9711 26.855 24.9676 26.8724C24.9451 27.1584 24.8149 27.1778 24.4865 27.1372C23.7586 26.9918 23.6943 26.5177 24.0883 25.8019C24.0972 25.7765 24.1092 25.7638 24.1197 25.7607ZM25.0639 27.3079C25.1643 27.3057 25.271 27.3092 25.3758 27.3225C25.3917 27.3257 25.3929 27.339 25.3885 27.3497C25.3736 27.389 25.3296 27.4391 25.3071 27.4584C25.2932 27.4691 25.2716 27.4733 25.2529 27.479C25.1744 27.4999 25.0518 27.5091 25.0303 27.5059C25.011 27.5018 24.9916 27.4945 24.9736 27.4831C24.9052 27.4444 24.8412 27.3998 24.7737 27.3586C24.7592 27.3472 24.7585 27.3298 24.7756 27.3273C24.8665 27.3184 24.9625 27.3105 25.0639 27.3079Z" fill="#0053A0"/>
<path fill-rule="evenodd" clip-rule="evenodd" d="M29.8117 16.2188C29.8076 16.2188 29.8035 16.2194 29.7991 16.2207C28.9718 16.5215 27.9456 17.1202 27.4119 17.9146C27.1965 18.0881 26.9757 18.2573 26.747 18.4058C27.2225 17.7739 26.2738 17.7321 25.1304 17.608C24.3446 17.5408 23.4068 17.7866 23.1014 17.9541C23.0739 17.97 23.0568 18.0013 23.0786 18.0292C23.1638 18.1505 23.1901 18.2934 23.2405 18.4274C23.2475 18.4419 23.2332 18.4432 23.2221 18.4334C22.2273 17.5427 20.7408 16.3413 20.2455 16.2229C20.222 16.2187 20.2008 16.2267 20.1888 16.2482C20.1536 16.322 20.1454 16.3435 20.1181 16.4167C20.0988 16.4813 20.0634 16.5215 20.0456 16.5393C19.7621 16.8174 20.2588 17.3387 20.3329 18.2921C20.3823 18.6947 20.4795 18.8752 20.572 19.152C20.5863 19.1894 20.5955 19.2214 20.6015 19.2585C20.7301 19.7025 20.814 20.1551 20.9847 20.5666C21.1881 21.2273 20.3909 21.1187 20.3582 21.6666C20.3395 22.0385 20.776 22.2424 20.7016 22.5145C20.6968 22.5316 20.6648 22.5503 20.6829 22.5725C21.0189 22.9212 21.1488 22.8398 21.2847 23.129C21.6001 23.6817 21.9428 23.077 22.5139 23.8831C22.9434 24.0824 23.3412 24.3136 23.7618 24.5917C23.7919 24.4976 23.8198 24.381 23.8451 24.229C23.8952 23.9284 23.8854 23.625 23.6953 23.2056C23.6605 23.1445 23.6814 23.0409 23.7431 22.9918C23.7745 22.9684 23.7878 22.9592 23.7913 23.0077C23.8445 23.5651 24.3012 23.9411 24.02 24.4685C24.0098 24.4878 23.9978 24.5036 24.0013 24.535C24.0073 24.6062 23.9927 24.6702 23.9658 24.731L24.2347 24.9309C24.2525 24.8875 24.2686 24.8511 24.2787 24.8251C24.3985 24.2056 24.4925 23.2056 24.5825 23.0812C24.5907 23.0691 24.6005 23.0504 24.5825 23.0371C24.478 22.9291 24.3605 22.7498 24.414 22.6957C24.4713 22.6523 24.8052 22.7872 24.8033 23.0292C24.7893 23.2459 24.5781 25.2517 24.3139 25.5349C24.3012 25.5495 24.306 25.5596 24.3139 25.5704C24.4292 25.7329 24.4045 25.7731 24.3639 25.7937C24.3272 25.8076 24.2506 25.8016 24.216 25.8143C24.21 25.8162 24.204 25.8162 24.1992 25.8162C24.2458 25.8751 24.3107 25.9258 24.3719 25.9704C24.4086 25.9343 24.4707 25.9077 24.566 25.8935C24.9385 25.8288 25.2939 25.8396 25.5659 25.9682C25.6024 25.9869 25.6252 26.0091 25.6385 26.0328C25.7351 25.9711 25.8244 25.9071 25.9118 25.8269C25.8865 25.8456 25.8326 25.8276 25.8244 25.7848C25.6752 24.9718 25.5159 24.8463 25.4218 24.2331C25.3838 24.025 25.3658 23.8071 25.405 23.6076C25.4177 23.543 25.4218 23.4844 25.405 23.4144C25.3512 23.2139 25.3544 23.0045 25.3993 22.8059C25.4297 22.7391 25.508 22.6498 25.5637 22.5744C25.61 22.5139 25.6426 22.4432 25.6679 22.3666C25.6939 22.2871 25.9517 21.9019 26.1719 21.8411C26.1905 21.8364 26.1931 21.8253 26.1953 21.8079C26.1972 21.7886 26.1611 21.7879 26.1639 21.7585C26.1719 21.6052 27.1357 21.6878 27.6431 21.735C27.8363 21.7179 28.0292 21.6878 28.2116 21.6539C28.2436 21.6479 28.2458 21.659 28.2265 21.6793C28.0751 21.8459 27.8572 21.9371 27.6599 21.9624C27.6225 21.9678 27.6123 21.9884 27.6051 22.0166C27.4923 22.5823 26.6739 22.8556 26.3179 22.7891C26.2951 22.785 26.2944 22.8012 26.2951 22.8126C26.321 23.1024 26.1966 23.1318 26.0885 23.9791C26.0819 24.0263 26.0838 24.0684 26.0911 24.1162C26.1079 24.2537 26.1478 24.3842 26.1785 24.529C26.677 24.2049 27.2351 23.9405 27.7618 23.7222C27.8683 23.6019 27.9737 23.4929 28.0843 23.3703C28.115 23.3298 28.1742 23.3051 28.2303 23.2851C28.6496 23.109 29.0744 22.8351 29.393 22.4892C29.4022 22.4778 29.4215 22.4591 29.4155 22.4372C29.3183 21.9824 29.6182 21.8478 29.807 21.5105C29.8355 21.4664 29.8048 21.455 29.7737 21.4392C29.5663 21.3084 29.3775 21.1278 29.2324 20.9584C29.1982 20.9077 29.1837 20.8437 29.1716 20.787C29.0215 20.0807 29.3322 20.0291 29.3883 19.6205C29.3841 19.4172 29.4389 19.178 29.5029 18.9668C29.5783 18.7206 29.6122 18.5208 29.699 18.3833C29.7417 17.1528 30.1237 17.4306 30.0195 16.7746C29.9923 16.6435 29.9229 16.4053 29.8402 16.2416C29.8336 16.226 29.8235 16.2194 29.8117 16.2188ZM29.5764 16.4588C29.5831 16.4573 29.5903 16.4582 29.597 16.4588C29.641 16.462 29.6755 16.4946 29.6803 16.5355C29.6882 16.6153 29.7056 16.6888 29.7215 16.7626C29.437 17.4426 29.6024 18.376 29.2302 18.9481C29.2115 19.4491 29.1488 19.7687 28.8511 19.9686C28.8391 19.9778 28.8258 19.9765 28.8115 19.9686C28.3364 19.7364 27.9117 19.2524 27.4971 18.8727C28.1422 18.4527 27.5579 18.0115 28.0178 17.5294C28.553 16.964 29.0243 16.908 29.5137 16.4873C29.5343 16.4699 29.5555 16.4607 29.5764 16.4588ZM20.3269 16.494C20.3855 16.4946 20.4529 16.526 20.5014 16.5729C20.9781 16.7813 20.9353 16.9719 21.3075 17.1588C21.3867 17.2 21.5222 17.2741 21.6267 17.2979C21.6749 17.4648 21.7534 17.46 21.9286 17.7587C21.9707 17.8319 22.1246 17.9519 22.1386 18.052C22.1494 18.1147 22.1481 18.1692 22.1433 18.2294C22.1386 18.3992 22.0686 18.5613 22.162 18.6373C22.2387 18.6766 22.188 18.7153 22.3267 18.7853C22.3967 18.8192 22.4328 18.854 22.3955 18.9272C22.2846 19.1213 22.1487 19.2813 22.0249 19.4586C21.9926 19.4998 21.9454 19.5324 21.8975 19.5606C21.6286 19.7219 21.4053 19.9486 21.164 20.1624C21.1488 20.1738 21.1415 20.1624 21.1307 20.1586C20.8995 20.0272 20.8381 19.7979 20.8074 19.4852C20.7275 18.6506 20.56 19.3725 20.2787 16.8874C20.2407 16.7753 20.1995 16.5754 20.2347 16.5295C20.2588 16.5048 20.2908 16.4934 20.3269 16.494ZM25.7699 18.1125C25.5558 18.5094 25.4472 18.472 25.3179 18.6272C25.3084 18.638 25.2986 18.6513 25.2885 18.6646C25.2793 18.6779 25.2692 18.6918 25.26 18.708C25.2498 18.7238 25.2426 18.7381 25.2384 18.752C25.2384 18.7526 25.2391 18.7533 25.2384 18.7539C25.2353 18.7672 25.2331 18.7821 25.2324 18.7938C25.2384 18.9234 25.2172 18.9759 25.2511 19.0187C25.2533 19.0219 25.2546 19.0253 25.2552 19.0291C25.2571 19.0333 25.2571 19.0374 25.2578 19.0412C25.2584 19.0501 25.2565 19.0586 25.2533 19.0646C25.2293 19.0494 25.1919 19.0206 25.1599 18.9921C25.1352 18.9699 25.1146 18.9493 25.1051 18.9313C25.1051 18.9306 25.1057 18.93 25.1051 18.9294C25.1026 18.9234 25.1013 18.9173 25.1013 18.9126C25.1013 18.8993 25.1 18.8907 25.0991 18.8831C25.0959 18.8534 25.0874 18.8578 25.0804 18.8252C25.0772 18.8087 25.0731 18.7827 25.0718 18.7374C25.0712 18.7153 25.0718 18.6874 25.0718 18.6538C25.0693 18.6326 25.0712 18.6218 25.0766 18.6126C25.0785 18.6085 25.0813 18.6041 25.0845 18.6C25.088 18.5959 25.0912 18.5921 25.0953 18.5873C25.2885 18.3887 25.545 18.2573 25.7699 18.1125ZM24.2287 18.1607C24.4311 18.2981 24.6585 18.4818 24.8805 18.6665C24.8853 18.6719 24.8885 18.6773 24.8932 18.6833C24.9059 18.7026 24.9154 18.7254 24.91 18.7539C24.8967 18.8378 24.8565 18.9186 24.8245 19.0038C24.8232 19.0079 24.8207 19.0098 24.8178 19.0127C24.8153 19.0146 24.8131 19.0174 24.8099 19.0187C24.8033 19.0212 24.7953 19.0206 24.7912 19.0165C24.7513 18.9658 24.7079 18.9145 24.6718 18.8625C24.6598 18.8467 24.6471 18.8293 24.6471 18.8081C24.6487 18.7913 24.6493 18.7745 24.6493 18.7606C24.6493 18.746 24.6487 18.7333 24.6471 18.7206C24.6439 18.6972 24.6366 18.6766 24.6265 18.6605C24.6259 18.6598 24.6265 18.6586 24.6265 18.6586C24.6053 18.6247 24.5686 18.6047 24.51 18.5892C24.4618 18.5753 24.42 18.554 24.3845 18.5293C24.3839 18.5287 24.3833 18.5293 24.3826 18.5293C24.3307 18.492 24.2933 18.4419 24.268 18.3814C24.268 18.3808 24.2661 18.3798 24.2661 18.3792C24.2407 18.3174 24.2293 18.2452 24.2287 18.1607ZM26.9098 20.1105C26.9643 20.108 27.0216 20.1146 27.0783 20.1273C27.1344 20.1399 27.1905 20.1593 27.2383 20.1852C27.2532 20.1944 27.257 20.2125 27.2405 20.2185C27.1604 20.24 27.079 20.2673 26.9969 20.2999C26.9558 20.3157 26.9159 20.3338 26.8737 20.3518C26.6672 20.4431 26.4566 20.5571 26.2472 20.6626C26.2251 20.6717 26.2105 20.6686 26.201 20.6559C26.1978 20.6512 26.1953 20.6464 26.1931 20.6391C26.1883 20.6166 26.1893 20.5945 26.1912 20.5726C26.1924 20.5511 26.1966 20.5292 26.1972 20.5058C26.1991 20.4738 26.219 20.4719 26.2304 20.4557C26.2697 20.4405 26.303 20.4272 26.3305 20.4146C26.4126 20.3765 26.4458 20.3499 26.4737 20.3252C26.493 20.3084 26.5104 20.2932 26.5345 20.2746C26.5592 20.2565 26.5918 20.2359 26.645 20.2106C26.677 20.196 26.709 20.1827 26.7404 20.1684C26.7724 20.1551 26.8037 20.1418 26.8345 20.1311C26.8585 20.1184 26.8864 20.1111 26.9098 20.1105ZM22.8452 20.1539C22.8493 20.1539 22.8547 20.1551 22.8579 20.1539C22.8712 20.1586 22.882 20.164 22.8915 20.1684C22.9006 20.1738 22.9073 20.1792 22.9139 20.1852C22.9386 20.2065 22.9488 20.2305 23.0121 20.2606C23.0273 20.2679 23.0473 20.2771 23.0701 20.2853C23.0932 20.2932 23.1208 20.3012 23.1534 20.3107C23.2319 20.336 23.288 20.3506 23.3406 20.3705C23.3418 20.3712 23.3418 20.3724 23.3434 20.3724C23.3954 20.3933 23.4454 20.4187 23.5072 20.4624C23.5287 20.4773 23.5512 20.4947 23.5765 20.5146C23.6013 20.5346 23.6294 20.5571 23.6598 20.5831C23.6725 20.5932 23.6839 20.5998 23.6868 20.6185C23.6874 20.6245 23.6868 20.6306 23.6846 20.6372V20.6391C23.6827 20.6458 23.6798 20.6518 23.6766 20.6584C23.6687 20.6724 23.6579 20.6844 23.6472 20.6939C23.6434 20.6964 23.6399 20.6987 23.6367 20.6999C23.6339 20.7006 23.6285 20.7006 23.6218 20.6999C23.6019 20.6958 23.586 20.6933 23.5699 20.6873C23.5553 20.6819 23.5427 20.6752 23.5306 20.6686C23.518 20.6619 23.5072 20.6559 23.4974 20.648C23.4872 20.6398 23.4793 20.6312 23.4701 20.6226C23.4514 20.6052 23.4321 20.5872 23.4074 20.5685C23.396 20.5593 23.3833 20.5504 23.3678 20.5412C23.3526 20.5324 23.3352 20.5232 23.3159 20.5146C23.2959 20.5058 23.2801 20.5039 23.2639 20.508C23.2585 20.5099 23.2525 20.5112 23.2475 20.5146C23.2259 20.5232 23.206 20.5131 23.1847 20.508C23.1686 20.5045 23.1505 20.4985 23.1328 20.4918C23.1319 20.4912 23.1312 20.4918 23.1306 20.4918C23.0007 20.4405 22.8392 20.3138 22.8386 20.1624C22.8386 20.1599 22.8401 20.1574 22.8408 20.1558C22.842 20.1551 22.8433 20.1539 22.8452 20.1539ZM23.122 21.6039C23.1566 21.6039 23.1927 21.6058 23.2288 21.6077C23.2652 21.6112 23.3026 21.6143 23.3406 21.6204C23.3694 21.6251 23.3973 21.6311 23.4267 21.6372C23.4359 21.6397 23.4454 21.6413 23.4552 21.6438C23.4727 21.6479 23.4901 21.653 23.5072 21.6584C23.53 21.6644 23.5518 21.671 23.574 21.6793C23.6066 21.6904 23.638 21.7024 23.67 21.7163C23.6979 21.7284 23.726 21.7417 23.7533 21.7559C23.7805 21.7705 23.8081 21.7873 23.8347 21.8038C23.8572 21.8177 23.8793 21.8326 23.9012 21.8478C23.9113 21.8544 23.9212 21.8592 23.9307 21.8665C23.9465 21.8785 23.9626 21.8912 23.9785 21.9038C23.982 21.9064 23.9851 21.9092 23.9886 21.9124C23.9911 21.9146 23.9946 21.9165 23.9972 21.9184C24.0019 21.9225 24.0073 21.9273 24.0121 21.9311C24.0326 21.9491 24.0532 21.9697 24.0738 21.989C24.1007 22.0144 24.1261 22.0404 24.1514 22.0685C24.1533 22.0704 24.1552 22.0723 24.1581 22.0746C24.1806 22.1005 24.2018 22.1278 24.2246 22.1557C24.2372 22.1731 24.2506 22.1905 24.2639 22.2079C24.2746 22.2231 24.2844 22.2364 24.2952 22.2519C24.3186 22.2865 24.3399 22.3226 24.362 22.3606C24.3706 22.3751 24.3772 22.3945 24.3766 22.4103C24.376 22.4157 24.3747 22.4198 24.3719 22.4252C24.3513 22.4692 24.3386 22.5139 24.3285 22.5646C24.3272 22.5718 24.3206 22.5779 24.3139 22.5791C24.3114 22.5791 24.3072 22.5785 24.3053 22.5772C24.2692 22.5551 24.236 22.5338 24.2034 22.5104C24.172 22.4879 24.1425 22.4632 24.114 22.4391C24.1134 22.4391 24.1118 22.4398 24.1118 22.4391C24.0827 22.4151 24.0561 22.3897 24.0285 22.3644C23.784 22.1385 23.612 21.8931 23.2826 21.8272C23.282 21.8266 23.2814 21.8272 23.2807 21.8272C23.1334 21.7977 22.9567 21.805 22.7268 21.8646C22.6501 21.8725 22.5652 21.8725 22.4788 21.8665C22.392 21.8605 22.3039 21.8484 22.22 21.8332C22.1794 21.8259 22.1373 21.8171 22.0993 21.8079C22.0987 21.8079 22.098 21.8085 22.0974 21.8079C22.0594 21.799 22.0239 21.7886 21.9913 21.7791C21.99 21.7784 21.9894 21.7791 21.9888 21.7791C21.9213 21.7591 21.8668 21.7379 21.8288 21.7186C22.0008 21.7217 22.1899 21.7198 22.3533 21.7125C22.5168 21.7053 22.6526 21.6945 22.7179 21.6812C22.7401 21.6704 22.7667 21.6612 22.7955 21.6517C22.8221 21.6432 22.8528 21.6337 22.8848 21.627C22.8873 21.6264 22.8908 21.627 22.8934 21.627C22.9219 21.621 22.952 21.6159 22.9846 21.6124C22.99 21.6118 22.9941 21.6105 22.9995 21.6105C23.0387 21.6064 23.0793 21.6045 23.122 21.6039ZM26.7531 21.8833C26.6077 21.8918 26.4484 21.9472 26.2678 22.1037C25.9945 22.3723 25.7645 22.7065 25.5884 23.0226C25.5678 23.0612 25.5612 23.0964 25.5697 23.1372C25.7699 24.0583 25.8558 24.5169 25.8931 24.7602L26.0246 24.6515C25.9457 24.4298 25.9052 24.1615 25.9324 23.8391C26.0271 23.5924 26.0765 23.301 26.1199 23.0226C26.2637 22.7172 26.2786 22.5877 26.4176 22.5959C26.5424 22.6026 26.6717 22.6086 26.7885 22.5832C26.8338 22.5744 26.8712 22.5563 26.9117 22.531C27.1084 22.4125 27.2763 22.2519 27.4198 22.0704C27.4372 22.0518 27.4476 22.0119 27.4385 21.9938C27.4331 21.9799 27.4245 21.9726 27.4071 21.9726C27.2003 21.9852 26.9963 21.869 26.7531 21.8833ZM26.6865 21.9057C26.7252 21.9051 26.7651 21.9137 26.8031 21.9292C26.8797 21.9593 26.9358 22.0179 26.9659 22.0872C26.9811 22.1224 26.9897 22.1591 26.9912 22.1978C26.9919 22.2364 26.9852 22.2763 26.9697 22.3143C26.9545 22.3523 26.9323 22.385 26.9051 22.4125C26.8237 22.4946 26.6964 22.5243 26.5823 22.479C26.563 22.4711 26.545 22.4632 26.5285 22.4518C26.5117 22.441 26.4984 22.4277 26.4845 22.4144C26.4024 22.333 26.3723 22.2079 26.4176 22.0939C26.4237 22.0784 26.4303 22.0651 26.4385 22.0518C26.4398 22.0505 26.4417 22.0492 26.443 22.0476C26.4465 22.0419 26.449 22.0366 26.4531 22.0312C26.461 22.0204 26.4699 22.0112 26.4784 22.0017L26.4864 21.9938C26.499 21.9811 26.5117 21.9685 26.5266 21.9583C26.5377 21.9498 26.551 21.9438 26.5636 21.9371C26.5659 21.9365 26.5678 21.9365 26.5697 21.9352C26.5738 21.9339 26.5763 21.9305 26.5804 21.9292C26.5966 21.9225 26.6131 21.9178 26.6305 21.9146C26.6485 21.9105 26.6679 21.9064 26.6865 21.9057ZM23.3621 21.9105C23.4008 21.9092 23.4378 21.9159 23.4768 21.9311C23.4951 21.9384 23.5138 21.9472 23.5306 21.9583C23.5474 21.9691 23.5607 21.9818 23.574 21.9957C23.5886 22.01 23.6006 22.0233 23.612 22.0391C23.6332 22.0711 23.6494 22.1066 23.6579 22.1439C23.67 22.199 23.6659 22.2592 23.6434 22.3166C23.6351 22.3359 23.6266 22.3517 23.6158 22.3685C23.6158 22.3691 23.6168 22.3698 23.6158 22.3704C23.5727 22.4356 23.5046 22.4797 23.4305 22.4958C23.3932 22.5037 23.3545 22.5044 23.3159 22.4977C23.2966 22.4946 23.2766 22.4885 23.2579 22.4813C23.2386 22.473 23.2199 22.4645 23.2034 22.4537C23.1708 22.4325 23.1439 22.4043 23.122 22.3723C23.0685 22.2937 23.0533 22.1911 23.0913 22.0958C23.0986 22.0771 23.1094 22.0597 23.1201 22.0438C23.13 22.0283 23.1395 22.0144 23.1512 22.0017C23.154 21.9992 23.1572 21.9979 23.16 21.9957C23.1727 21.983 23.1847 21.9697 23.1993 21.9605C23.2114 21.9517 23.224 21.9457 23.2367 21.939C23.2373 21.939 23.238 21.9377 23.2386 21.9371C23.2506 21.9317 23.2639 21.9292 23.2766 21.9251C23.2886 21.9213 23.3013 21.9165 23.314 21.9146H23.3181C23.332 21.9118 23.3472 21.9105 23.3621 21.9105ZM22.416 22.0559C22.4233 22.0559 22.4312 22.0571 22.4388 22.0584C22.4401 22.0584 22.442 22.0578 22.4433 22.0584C22.4566 22.0597 22.4699 22.0644 22.4848 22.0704C22.5006 22.0771 22.5174 22.085 22.5348 22.0958C22.5526 22.1066 22.5712 22.1186 22.5915 22.1332L22.5972 22.1373C22.6146 22.1506 22.6321 22.1639 22.6514 22.1791C22.672 22.1952 22.6913 22.2092 22.7141 22.2272C22.7559 22.2599 22.8021 22.2956 22.8512 22.3311C22.8759 22.3492 22.9013 22.3656 22.9285 22.3831C22.9494 22.3964 22.9706 22.4119 22.9934 22.4252C23.0026 22.4306 23.0128 22.4356 23.0219 22.441C23.0479 22.4559 23.0755 22.4699 23.1033 22.4832C23.1306 22.4965 23.1594 22.5085 23.1885 22.5205C23.1981 22.5243 23.2066 22.5297 23.2161 22.5332C23.2452 22.5443 23.276 22.5532 23.3073 22.5623C23.3447 22.5731 23.3827 22.5839 23.422 22.5918C23.4619 22.5991 23.5027 22.6045 23.5452 22.6076C23.5879 22.6118 23.6326 22.6143 23.6785 22.6143C23.6874 22.6143 23.6941 22.6165 23.6994 22.6203C23.7045 22.6238 23.7086 22.6285 23.7099 22.6371C23.7112 22.709 23.6453 22.7343 23.574 22.7391C23.5319 22.7397 23.4901 22.7384 23.4473 22.7372C23.3219 22.7337 23.1974 22.7239 23.072 22.7036C23.0587 22.7023 23.0473 22.6992 23.0346 22.6938C23.0226 22.6884 23.0121 22.6811 22.9995 22.6726C22.9608 22.6463 22.92 22.6165 22.8788 22.5832C22.8373 22.5497 22.798 22.5151 22.76 22.4813C22.7207 22.4464 22.6846 22.4144 22.6533 22.385C22.6225 22.3565 22.5982 22.3318 22.5807 22.3143C22.5627 22.2985 22.5488 22.2852 22.5367 22.2725C22.5253 22.2605 22.5155 22.2485 22.5073 22.2393C22.4921 22.2206 22.4854 22.2079 22.4769 22.1959C22.4721 22.1899 22.4674 22.1845 22.462 22.1791C22.4455 22.1617 22.4186 22.143 22.3581 22.1104C22.3508 22.1072 22.346 22.1043 22.3454 22.0999C22.3448 22.0971 22.3448 22.0952 22.3473 22.0917C22.3495 22.0885 22.3514 22.0844 22.3552 22.0812C22.3619 22.0758 22.3701 22.0717 22.3768 22.0685C22.3828 22.0651 22.3888 22.0619 22.3955 22.0603C22.4021 22.0584 22.4088 22.0565 22.416 22.0559Z" fill="#FDBE11"/>
</g>
<rect x="5.41667" y="2.41667" width="39.1654" height="39.1657" rx="19.5827" stroke="#F3F4F6" stroke-width="0.833333"/>
</g>
<defs>
<filter id="filter0_dd_2273_287961" x="1.19209e-07" y="0.333333" width="49.998" height="50" filterUnits="userSpaceOnUse" color-interpolation-filters="sRGB">
<feFlood flood-opacity="0" result="BackgroundImageFix"/>
<feColorMatrix in="SourceAlpha" type="matrix" values="0 0 0 0 0 0 0 0 0 0 0 0 0 0 0 0 0 0 127 0" result="hardAlpha"/>
<feMorphology radius="1.66667" operator="erode" in="SourceAlpha" result="effect1_dropShadow_2273_287961"/>
<feOffset dy="1.66667"/>
<feGaussianBlur stdDeviation="1.66667"/>
<feColorMatrix type="matrix" values="0 0 0 0 0.0627451 0 0 0 0 0.0941176 0 0 0 0 0.156863 0 0 0 0.06 0"/>
<feBlend mode="normal" in2="BackgroundImageFix" result="effect1_dropShadow_2273_287961"/>
<feColorMatrix in="SourceAlpha" type="matrix" values="0 0 0 0 0 0 0 0 0 0 0 0 0 0 0 0 0 0 127 0" result="hardAlpha"/>
<feMorphology radius="1.66667" operator="erode" in="SourceAlpha" result="effect2_dropShadow_2273_287961"/>
<feOffset dy="3.33333"/>
<feGaussianBlur stdDeviation="3.33333"/>
<feColorMatrix type="matrix" values="0 0 0 0 0.0627451 0 0 0 0 0.0941176 0 0 0 0 0.156863 0 0 0 0.1 0"/>
<feBlend mode="normal" in2="effect1_dropShadow_2273_287961" result="effect2_dropShadow_2273_287961"/>
<feBlend mode="normal" in="SourceGraphic" in2="effect2_dropShadow_2273_287961" result="shape"/>
</filter>
<clipPath id="clip0_2273_287961">
<rect width="26.6654" height="26.6657" fill="white" transform="translate(11.666 8.66602)"/>
</clipPath>
</defs>
</svg>
