<svg width="48" height="48" viewBox="0 0 48 48" fill="none" xmlns="http://www.w3.org/2000/svg">
<g clip-path="url(#clip0_2208_89357)">
<path d="M47.3403 23.999C47.3403 36.8883 36.8922 47.3364 24.0034 47.3364C11.1147 47.3364 0.666016 36.8883 0.666016 23.999C0.666016 11.1102 11.1147 0.662109 24.0034 0.662109C36.8922 0.661938 47.3403 11.1102 47.3403 23.999Z" fill="white" stroke="#0053A0" stroke-width="1.2045"/>
<path fill-rule="evenodd" clip-rule="evenodd" d="M2.42323 24.2745C2.27243 12.3589 11.8132 2.57334 23.7293 2.42225C35.6449 2.2714 45.4305 11.8128 45.5816 23.7283C45.7321 35.6439 36.1911 45.4295 24.2755 45.58C12.3599 45.7311 2.57431 36.1901 2.42323 24.2745H2.42317H2.42323ZM23.7259 2.15316C11.6615 2.30589 2.00134 12.2135 2.15413 24.2779C2.30698 36.3423 12.2145 46.0019 24.2789 45.8497C36.3433 45.6969 46.0029 35.7893 45.8507 23.7249C45.6979 11.6605 35.7903 2.00036 23.7259 2.15316Z" fill="#0053A0"/>
<path fill-rule="evenodd" clip-rule="evenodd" d="M23.2134 9.65725C20.5641 9.65098 17.486 10.7012 15.417 12.4138C15.4102 12.4184 15.4102 12.4366 15.4244 12.444C16.6074 12.9132 17.4187 13.5358 18.6832 14.2439C18.7289 14.269 18.7448 14.2581 18.7545 14.2171C19.3662 11.1099 23.1593 11.972 23.5133 9.70629C23.4979 9.69089 23.5002 9.66296 23.4677 9.66125C23.3839 9.65897 23.2984 9.65782 23.2134 9.65725ZM24.791 9.66125C24.7647 9.66125 24.7562 9.67208 24.7573 9.7137C24.5983 10.1128 25.0658 10.5284 25.3383 10.7975C25.3645 10.822 25.4078 10.8505 25.4403 10.8648C27.1336 11.5541 29.0076 12.0632 29.4181 14.0107C29.4266 14.0409 29.4323 14.0603 29.4637 14.0335C30.3662 13.4349 31.2613 12.8277 32.1746 12.2519C32.2214 12.2325 32.2043 12.2108 32.1746 12.192C30.1108 10.7245 27.5321 9.76957 24.791 9.66125ZM14.2317 13.4001C12.5806 14.8642 11.1638 16.7792 10.426 18.9309C10.4177 18.952 10.4303 18.9617 10.4597 18.9645C12.0755 19.1105 12.6034 17.0033 13.8418 16.2199C13.8583 16.2102 13.8731 16.2017 13.872 16.1817C13.7842 15.2217 13.742 14.4127 14.2317 13.4001ZM34.1627 13.8608C34.2539 14.6059 34.1843 15.3129 33.9865 16.0016C33.9779 16.0341 33.9791 16.0592 34.0161 16.0843C35.21 16.7228 35.8571 18.5877 37.2368 18.6606C37.2539 18.6681 37.2801 18.6692 37.2704 18.6464C36.7915 16.9822 35.4141 15.013 34.1627 13.8608ZM37.7134 19.737C36.0201 21.4349 38.7681 24.2798 35.0401 25.8676C34.7111 25.9645 34.3953 26.0797 34.0977 26.0808C33.2687 26.0848 32.0891 25.4525 32.0965 26.7108C32.0965 26.7336 32.1171 26.7495 32.1444 26.7604C33.2961 27.2535 34.8525 28.3225 34.8776 29.9702C34.934 31.9342 32.8668 33.2569 33.1946 35.1224C37.6125 31.302 39.4295 25.6612 37.7134 19.737ZM10.0955 20.0175C10.0812 20.0215 10.0708 20.0369 10.0579 20.0671C8.38488 24.6389 10.0288 31.7461 15.161 35.5004C15.1621 35.4034 15.2185 35.2016 15.2773 35.0659C15.2989 35.0135 15.2955 34.9462 15.2773 34.8823C15.0891 34.0557 14.596 33.2222 14.1268 32.4109C12.5081 29.7239 13.4067 27.8812 16.0201 26.6857C16.0538 26.6749 16.0612 26.656 16.0429 26.6213C16.0025 26.5323 15.9626 26.4445 15.9232 26.3544C15.9112 26.3305 15.9232 26.2826 15.8634 26.2912C15.2773 26.3641 14.6176 26.416 14.0213 26.3892C13.1239 26.1891 12.2669 25.8316 11.6216 24.8813C10.4663 23.2684 12.0485 21.0991 10.1405 20.0295C10.1247 20.0204 10.1098 20.0141 10.0955 20.0175ZM34.2898 26.6258C34.3331 26.6258 34.3776 26.6321 34.4209 26.6441C35.0002 26.7495 35.8764 27.0905 36.397 27.7347C36.4306 27.7763 36.4152 27.8111 36.3633 27.8066C35.527 27.7815 34.5874 27.6891 33.9369 27.1766C33.8445 27.1036 33.7596 27.0312 33.8246 26.8573C33.8725 26.7473 34.0258 26.6629 34.1541 26.6401C34.2009 26.6321 34.2453 26.6247 34.2898 26.6258ZM13.6017 26.9668C13.6485 26.9656 13.6941 26.9668 13.7408 26.9702C13.7796 26.9747 13.819 26.9747 13.8452 27.0004C14.006 27.192 13.974 27.4599 13.6736 27.6674C13.039 28.0739 12.3035 28.0967 11.6259 28.1258C11.5994 28.127 11.553 28.0979 11.5997 28.054C12.217 27.4884 12.8999 26.9736 13.6017 26.9668ZM25.0732 34.6725C25.0646 34.6714 25.0549 34.6737 25.047 34.68C24.527 34.9268 23.71 35.0471 23.2505 34.7889C23.1952 34.7615 23.1627 34.782 23.141 34.8139C22.3155 36.2119 20.3537 36.1788 18.9609 35.8236C17.9261 35.5904 16.9136 35.2951 16.0772 36.1235C20.4318 39.2637 27.1444 39.3618 32.1826 35.9063C31.2322 35.4576 30.3696 35.7803 29.3246 36.0226C28.1416 36.2974 26.4808 36.546 25.1405 34.7028C25.1177 34.6965 25.0971 34.6737 25.0732 34.6725ZM24.2032 34.9873C24.2151 34.9884 24.2283 34.9895 24.2442 34.9907C24.3953 35.0083 24.4814 35.0853 24.5738 35.1896C24.6182 35.2484 24.6342 35.3168 24.6268 35.3892C24.6017 36.0346 24.4911 36.6874 24.2739 37.2524C24.2693 37.2791 24.2499 37.2848 24.2402 37.2524C23.9882 36.457 23.5578 35.652 24.1011 35.0254C24.1359 34.9952 24.165 34.9855 24.2032 34.9873Z" fill="#0053A0"/>
<path fill-rule="evenodd" clip-rule="evenodd" d="M25.5976 3.64258C25.727 3.81344 25.8564 4.00364 25.8108 4.20871C25.6443 5.14685 25.4653 6.08305 25.2749 7.01748C25.2412 7.22614 25.0896 7.31565 24.9374 7.4559C25.9636 7.64233 27.8832 8.00493 28.9128 8.19877C28.8855 7.79228 29.1962 7.55453 29.321 7.18624C28.979 7.42569 28.5423 7.51349 28.1363 7.42626C27.7139 7.34644 26.6677 7.13835 26.2464 7.05112C26.3148 6.72444 26.3581 6.39148 26.4339 6.0648C26.8444 6.13721 27.5052 6.29285 27.9146 6.34245C28.2635 6.42512 28.5274 5.94052 28.7173 5.71247C28.5839 5.74268 28.333 5.75808 28.1968 5.72729C27.7669 5.64388 26.9944 5.48117 26.5645 5.39377C26.6027 5.08231 26.6688 4.77513 26.7338 4.47125C27.4704 4.66492 29.0103 4.73716 29.5571 5.35625C29.5753 5.01447 29.382 4.58984 29.5765 4.36259C28.5588 4.16504 26.6152 3.83243 25.5976 3.64258ZM25.1067 3.65757C24.1261 3.66213 22.247 3.76533 21.2669 3.77758C21.4767 4.12268 21.1649 4.4257 21.1575 4.77125C21.4898 4.46971 22.3194 4.37946 22.7509 4.39258C22.7498 5.33847 22.8473 6.28829 22.8604 7.23128C22.8661 7.40972 22.727 7.52318 22.613 7.59501C23.0394 7.59045 23.7133 7.538 24.113 7.53116C23.9163 7.35043 23.8165 7.33561 23.8131 7.08133C23.7435 6.21075 23.7088 5.19582 23.6848 4.32872C24.1261 4.29657 24.9374 4.37576 25.2977 4.59497C25.296 4.21413 24.9277 3.83534 25.1067 3.65757ZM20.8171 3.91259C20.1905 4.04925 18.7949 4.14742 18.255 4.55757C17.6096 5.00563 17.4608 5.99981 18.2971 6.43595C18.8239 6.65146 19.8234 6.41714 20.3439 6.45876C20.7019 6.47358 20.853 6.96959 20.6175 7.21246C20.109 7.66457 18.7276 7.66457 18.1244 7.48213C18.2721 7.82819 18.4374 8.12694 18.5936 8.46844C18.7989 8.33959 19.1632 8.30767 19.3952 8.26605C19.8895 8.19421 21.0605 7.87722 21.3906 7.47871C21.7852 7.0152 21.8045 6.34359 21.4203 5.91885C21.0748 5.54029 20.0047 5.60717 19.5497 5.6375C19.2903 5.6375 19.0759 5.729 18.8296 5.60751C18.6198 5.46315 18.6318 5.10278 18.8667 4.98123C19.3182 4.742 20.3416 4.705 20.8131 4.89867C20.7857 4.56834 20.8279 4.24292 20.8171 3.91259ZM30.9105 4.75626C30.9949 4.96515 31.044 5.16241 30.9442 5.35996C30.5725 6.16115 30.15 6.95648 29.7566 7.76377C29.646 7.99923 29.5046 8.1486 29.2429 8.24723C29.5919 8.42568 30.1911 8.725 30.5434 8.90345C30.3957 8.36411 30.7617 7.88008 30.971 7.44507C31.1722 7.55511 31.7121 7.8071 31.8444 8.02603C32.0217 8.32591 32.0651 8.63378 32.1032 8.94449C32.1204 9.22557 32.1432 9.43765 31.853 9.53742C32.2606 9.70333 32.9014 10.0448 33.2806 10.2273C32.9795 9.60698 33.1654 8.7632 32.7634 8.15373C33.0251 8.16514 33.4641 8.20904 33.7424 8.03743C34.2452 7.74268 34.3678 7.27631 34.1962 6.66115C34.1015 6.33732 33.7834 6.1526 33.5132 6.02375C32.8678 5.70449 31.5565 5.07148 30.9105 4.75626ZM16.2076 5.16868C15.308 5.67387 13.5788 6.53801 12.6909 7.05853C12.9226 7.11953 13.0834 7.20619 13.1934 7.40744C13.6375 8.20505 14.0805 9.00208 14.5206 9.79968C14.6347 9.99751 14.5999 10.2358 14.5098 10.4559C15.4328 9.94335 17.1609 9.04484 18.0868 8.53629C17.7977 8.37209 17.9813 7.8242 17.865 7.46389C17.7738 7.77859 17.4488 8.0648 17.1837 8.25864C16.7538 8.54712 15.7447 9.06137 15.2972 9.31622C15.1341 9.02716 14.9682 8.73127 14.8137 8.43481C15.1626 8.21816 15.9716 7.86012 16.3137 7.63264C16.5138 7.38179 16.3964 7.01976 16.4408 6.72501C16.353 6.83105 16.239 6.92683 16.1141 6.99125C15.739 7.19992 14.9157 7.65602 14.5355 7.86126C14.3912 7.5876 14.2185 7.3282 14.0936 7.0437C14.7886 6.72843 16.0349 5.88464 16.8268 5.92968C16.629 5.64132 16.3108 5.51053 16.2076 5.16868ZM31.7241 5.89605C32.0673 6.06765 32.5713 6.29171 32.8832 6.46218C33.7104 6.89205 33.1221 7.79114 32.5234 7.45248C32.1814 7.33846 31.5827 7.00038 31.2492 6.86355C31.3929 6.52945 31.5765 6.23014 31.7241 5.89605ZM11.8776 7.66229C11.7825 7.79912 11.6581 7.92397 11.51 8.00379C11.0153 8.23412 10.129 9.03343 9.91639 9.53742C9.6201 10.1144 9.62323 10.6452 9.97255 11.3185C10.3707 12.1127 10.9351 12.481 11.7987 12.481C12.6566 12.4279 13.4291 11.6765 13.782 11.2136C13.9764 10.9895 14.1651 10.7427 14.4502 10.6172C14.2107 10.3516 13.9587 10.0996 13.7147 9.83731C13.6275 10.156 13.4736 10.4302 13.2649 10.6959C12.9565 11.046 12.4778 11.5961 11.9337 11.5699C11.3895 11.5431 11.2164 11.2837 10.9737 11.0186C10.7312 10.7535 10.5642 10.4439 10.6064 9.96844C10.6484 9.49295 11.591 8.61496 12.2714 8.58874C12.1154 8.29227 12.0338 7.96217 11.8776 7.66229ZM8.56645 10.8607C8.31817 11.1811 7.87695 11.7381 7.61395 12.0465C7.85813 12.0106 8.08048 12.0311 8.26646 12.1771C8.98054 12.733 9.69365 13.2945 10.4038 13.8538C10.5862 13.9918 10.6686 14.1982 10.6925 14.4342C10.9553 14.1212 11.3784 13.5728 11.6337 13.2677C11.4126 13.2968 11.1972 13.3088 11.0263 13.1708C10.3009 12.6115 9.58783 12.0431 8.86645 11.4798C8.66913 11.3299 8.5591 11.1269 8.56645 10.8607ZM6.87154 13.0135C6.41903 13.9433 5.48272 15.6714 5.03791 16.6012C5.28471 16.5032 5.47012 16.5209 5.69406 16.6349C6.49896 17.038 7.30785 17.4296 8.11264 17.8276C8.31013 17.9274 8.48305 18.1252 8.56258 18.3304C9.01126 17.3852 9.83908 15.7124 10.3551 14.7751C10.2488 14.7751 10.1422 14.6862 10.0664 14.6109C9.85374 14.4091 9.74644 14.1788 9.53013 13.981C9.59034 14.3561 9.53612 14.8054 9.37255 15.1697C9.18247 15.5756 8.6778 16.5596 8.48772 16.9661C8.1725 16.8595 7.92894 16.6782 7.62524 16.5414C7.77735 16.1776 8.22672 15.3532 8.38259 14.9935C8.3843 14.7826 8.1335 14.4262 7.95523 14.1714C7.94753 14.3082 7.88858 14.4473 7.82393 14.5733C7.63003 14.9684 7.19297 15.843 6.99525 16.2341C6.71806 16.0938 6.35746 15.9581 6.08032 15.8213C6.27422 15.4268 6.76378 14.4393 6.96526 14.0482C7.12112 13.7409 7.37371 13.4838 7.68522 13.3282C7.36243 13.1982 7.1486 13.2381 6.87154 13.0135ZM7.45266 18.1839C7.5819 18.3931 7.61007 18.7472 7.61777 18.9975C7.65186 19.4695 7.37491 20.3646 7.30267 20.8242C6.43306 20.6537 5.55883 20.4439 4.69282 20.254C4.45365 20.2084 4.35718 20.0163 4.21665 19.811C4.12549 20.2027 3.97018 20.9427 3.88672 21.3378C4.0614 21.209 4.19162 21.1086 4.39669 21.1543C5.32326 21.3487 6.24492 21.5522 7.16783 21.7614C7.38043 21.807 7.59378 21.969 7.70392 22.1702C7.90147 21.274 8.27148 19.636 8.46515 18.7352C8.37028 18.7432 8.27125 18.7592 8.18773 18.7061C7.918 18.5573 7.72616 18.3247 7.45267 18.1839H7.45266Z" fill="#0053A0"/>
<path fill-rule="evenodd" clip-rule="evenodd" d="M7.46251 25.8643C7.3322 26.0513 7.14537 26.2046 6.92254 26.2468C6.07488 26.4868 5.17089 26.6704 4.20397 26.903C4.0099 26.9726 3.89245 26.891 3.70898 26.7497C3.79473 27.1419 3.92689 27.7816 4.02021 28.1738C4.36451 27.6915 5.0055 27.7097 5.51257 27.5404C5.63304 27.9469 5.77477 28.7993 5.91012 29.1972C6.12289 29.4184 6.47613 29.4492 6.75378 29.5467C6.68169 29.4384 6.54609 29.208 6.52509 29.0775C6.42659 28.6476 6.24084 27.8272 6.14255 27.4013C6.4669 27.3289 6.78474 27.2331 7.11376 27.1875C7.28789 27.8677 7.69574 29.1339 7.38005 29.7827C7.71113 29.6772 7.98421 29.3124 8.27999 29.3893C8.085 28.476 7.64247 26.7856 7.46249 25.8643H7.46247H7.46251ZM7.50751 30.0227C7.39928 30.0193 7.2902 30.029 7.18124 30.041C6.44715 30.1983 5.76512 30.5604 5.45263 31.3272C5.04083 32.3967 5.85423 34.0415 6.9451 34.4435C7.64658 34.6943 8.34042 34.5062 8.86117 34.1174C9.34486 33.7861 9.67291 33.2325 9.65997 32.4902C9.62964 31.6527 9.1614 30.822 8.47873 30.3494C8.15405 30.1214 7.83244 30.0313 7.50753 30.0227H7.50752H7.50751ZM7.47751 30.9566C7.88237 30.9543 8.29358 31.0575 8.57243 31.4737C8.91912 31.9047 9.02431 32.5102 8.7787 32.8728C8.42979 33.3312 7.86736 33.6048 7.27506 33.5809C6.63105 33.5581 5.97854 32.7337 6.16885 31.9429C6.34981 31.2987 7.0807 30.9891 7.47751 30.9566ZM10.0162 34.0729C9.85794 34.0775 9.70384 34.1088 9.5511 34.1664C8.81855 34.4366 8.28098 34.9093 8.06633 35.7188C7.76536 36.8266 8.97682 38.281 10.1211 38.4862C10.8557 38.6099 11.5061 38.3448 11.9508 37.8705C12.3695 37.46 12.6299 36.846 12.4871 36.1162C12.3107 35.2969 11.6485 34.5946 10.8936 34.2491C10.5606 34.1253 10.2798 34.0632 10.0162 34.0729ZM10.3799 34.9691C10.7002 34.9703 10.9914 35.0985 11.2086 35.3254C11.6097 35.696 11.7988 36.151 11.6136 36.6333C11.3586 37.2 10.8847 37.566 10.2973 37.6464C9.6592 37.7348 8.8344 36.8904 8.92112 36.1943C9.02505 35.5558 9.44153 35.2952 9.78366 35.1145C9.98634 35.0159 10.1876 34.968 10.3799 34.9691ZM13.2301 36.6225C13.2238 36.9874 12.8498 36.8796 12.5543 37.3391C12.998 37.2947 13.742 37.6903 14.0892 37.9497C13.5733 38.7331 13.0368 39.4988 12.5135 40.2741C12.4163 40.4372 12.2459 40.4554 12.0671 40.4697C12.3935 40.6954 12.986 41.0911 13.3127 41.3169C13.2477 41.0563 13.2717 40.8403 13.4136 40.627C13.8754 39.944 14.3435 39.2627 14.8042 38.5763C14.8304 38.5484 14.8521 38.4839 14.9028 38.5005C15.2808 38.7057 15.8709 39.2194 16.0043 39.6333C16.1628 39.3283 16.1325 38.8414 16.4239 38.7222C15.6211 38.1692 14.0362 37.1635 13.2301 36.6225ZM16.6234 38.8904C16.7409 39.1042 16.7107 39.3488 16.6422 39.5734C16.38 40.4514 16.0459 41.241 15.7831 42.1162C15.7243 42.3283 15.5915 42.4543 15.3224 42.517C16.1554 42.781 17.1223 43.1333 18.0031 43.4024C18.9153 43.6977 19.7346 43.4776 19.8332 42.5204C19.8908 41.9708 19.3053 41.7165 19.0761 41.594C19.6793 41.6686 20.0852 41.3465 20.1177 40.7804C20.169 40.3773 19.8019 39.9366 18.9706 39.6669C18.3743 39.4725 17.2243 39.0586 16.6234 38.8904ZM29.2454 39.5803C28.8588 39.6801 28.2123 39.9503 27.832 40.0797C28.0441 40.1709 28.1907 40.2331 28.2625 40.4469C28.5339 41.2713 28.8617 42.0404 29.1433 42.8625C29.2203 43.1213 29.3149 43.4144 29.1735 43.6686C30.0493 43.399 31.5686 42.8505 32.4364 42.5626C32.3868 42.4902 32.3115 42.4315 32.3161 42.3402C32.2944 42.0307 32.3725 41.7798 32.3463 41.4668C32.1456 41.8841 31.7043 42.0979 31.2551 42.273C31.0019 42.3545 30.2904 42.6715 30.0396 42.6966C29.7625 41.8625 29.4324 40.9845 29.1519 40.1504C29.0749 39.9343 29.1314 39.7832 29.2454 39.5803ZM17.449 39.8539C17.7694 39.9668 18.6821 40.1755 18.9934 40.3055C19.4273 40.4851 19.1456 41.2627 18.693 41.1629C18.3754 41.1116 17.4837 40.8619 17.1861 40.7502C17.2699 40.4514 17.3566 40.1504 17.449 39.8539ZM21.6964 40.3055C21.7243 40.3631 21.7072 40.5033 21.6593 40.5666L20.0288 43.3266C19.8834 43.5632 19.7466 43.6709 19.5442 43.826C19.9159 43.8836 20.559 44.0683 20.9324 44.1401C20.8121 43.8784 20.823 43.5546 21.0174 43.3049C21.5932 43.3556 22.6696 43.4337 23.242 43.5033C23.3583 43.7752 23.5071 44.1019 23.242 44.3505C23.6211 44.3476 24.2825 44.3334 24.6519 44.3585C24.4854 44.1606 24.3235 43.9617 24.254 43.7057C24.0806 43.1949 23.4364 41.2975 23.234 40.7097C23.1992 40.6031 23.246 40.4708 23.2494 40.4588L21.6964 40.3055ZM26.0054 40.3266C25.5892 40.395 24.8811 40.4771 24.4831 40.5261C24.6724 40.659 24.8127 40.741 24.8395 40.9651C24.9375 41.8266 25.1114 42.6521 25.222 43.5141C25.2448 43.7838 25.2494 44.1304 25.0601 44.3505C25.9723 44.2638 27.6507 43.9913 28.559 43.8859C28.5242 43.8055 28.4655 43.7296 28.4883 43.6424C28.5293 43.334 28.6445 43.0689 28.6827 42.757C28.3816 43.1014 27.9461 43.2861 27.4717 43.3687C27.1998 43.4144 26.4062 43.5426 26.1593 43.5369C26.0561 42.6629 25.905 41.7405 25.799 40.867C25.7693 40.639 25.8531 40.5022 26.0054 40.3266ZM22.364 40.9685L23.0288 42.7792C22.6131 42.7553 21.819 42.7063 21.4039 42.6595L22.364 40.9685ZM17.0396 41.3254C17.421 41.4742 18.0539 41.6886 18.3931 41.8197C19.136 42.0786 18.9404 43.0746 18.0402 42.765C17.636 42.6367 17.0972 42.4685 16.7135 42.3226C16.8059 41.9959 16.9473 41.655 17.0396 41.3254Z" fill="#0053A0"/>
<path fill-rule="evenodd" clip-rule="evenodd" d="M36.9707 8.91854C36.3829 8.89345 35.9941 9.05537 35.5836 9.40257C35.1241 9.82047 34.8111 10.3056 34.8145 11.0337C34.8299 11.6072 35.4564 12.5086 36.2101 12.9841C36.4222 13.1409 36.7586 13.3364 36.7905 13.5981C37.0402 13.3427 37.3008 13.0907 37.5562 12.8518C36.9445 12.6682 35.9085 12.0742 35.7597 11.39C35.6651 10.8456 35.7985 10.6677 36.03 10.3701C36.4621 9.84841 36.9 9.6597 37.5562 9.841C38.1429 10.0747 38.6685 10.8096 38.7141 11.345C39.0191 11.1853 39.3082 11.0582 39.6178 10.9026C39.372 10.7503 39.2637 10.5679 39.0972 10.3473C38.7369 9.82218 38.0591 9.07247 37.2369 8.94134C37.1446 8.93051 37.0545 8.92253 36.9707 8.91854ZM40.2067 11.7201C40.1947 12.1044 39.9923 12.223 39.7164 12.4282C39.0465 12.8866 38.412 13.3535 37.7438 13.7977C37.5539 13.9185 37.3082 14.0736 37.038 13.9436C37.2552 14.2811 37.6845 14.8512 37.9045 15.1848C37.9274 14.8404 38.1121 14.6842 38.3207 14.5474C39.0431 14.065 39.7221 13.5445 40.4467 13.0668C40.656 12.9254 40.7757 12.8638 41.0539 12.9573C40.8384 12.6278 40.4239 12.0502 40.2067 11.7201ZM41.4895 13.5274C41.2894 13.8296 40.8452 13.646 40.53 13.7674C40.9137 13.9835 41.3373 14.6768 41.4969 15.0838C40.6389 15.4858 39.9296 15.8467 39.0704 16.2537C38.9074 16.3364 38.6497 16.284 38.4827 16.2201C38.66 16.5799 38.9564 17.2127 39.1343 17.5702C39.2289 17.2931 39.506 17.0576 39.7643 16.9436C40.5322 16.5947 41.1645 16.2572 41.9399 15.9276C42.1366 16.3147 42.4667 17.0434 42.3561 17.4801C42.6525 17.3011 42.7979 16.9111 43.136 16.9476C42.7255 16.0582 41.904 14.4157 41.4895 13.5274ZM43.3532 17.3746C43.2717 17.7475 42.933 17.9624 42.7232 18.2406C42.303 18.7315 41.7979 19.2845 41.3059 19.7817C41.1885 19.8917 40.8971 19.9265 40.7204 19.9664C40.3544 20.0194 40.1839 20.0622 39.9034 19.8273C39.9912 20.2218 40.1349 20.9253 40.2141 21.3199C40.3703 21.0833 40.5368 20.9441 40.8441 20.866C41.1178 20.817 41.3601 20.7115 41.5568 20.7976C42.4547 21.2862 44.1394 21.9823 44.3504 22.2007L44.0431 20.7269C43.9433 20.8712 43.8258 20.9407 43.7061 20.8951C43.1674 20.6865 42.5277 20.3888 42.0704 20.2138C42.4051 19.825 42.7962 19.4493 43.1503 19.081C43.3042 18.8934 43.5151 18.8193 43.7021 19.0017L43.3532 17.3746Z" fill="#0053A0"/>
<path fill-rule="evenodd" clip-rule="evenodd" d="M41.2215 26.0706C41.0511 26.0752 40.8578 26.1362 40.6514 26.273C40.3578 26.5313 40.2495 26.9355 40.1525 27.2969C40.0203 27.9075 39.6919 29.1624 39.5716 29.7747C39.7746 29.6116 39.9496 29.5934 40.1788 29.6436C41.075 29.8368 41.9678 30.0398 42.8606 30.2331C43.0767 30.2747 43.2363 30.444 43.3589 30.6339C43.4906 29.7844 44.0185 28.0575 44.0043 27.1909C43.9872 26.4805 43.3287 26.0273 42.6987 26.1749C42.3412 26.2753 42.1406 26.688 42.0613 26.9777C42.0602 26.5466 41.7329 26.0569 41.2215 26.0706ZM41.2249 27.1008C41.4878 27.1025 41.7306 27.3448 41.6605 27.6493C41.591 27.9663 41.465 28.6333 41.3874 28.9469C41.0824 28.8853 40.7654 28.8169 40.4644 28.7473C40.5511 28.4201 40.6326 27.9554 40.7187 27.623C40.8053 27.2462 41.0214 27.1008 41.2249 27.1008ZM42.868 27.1572C43.1417 27.1669 43.3926 27.4417 43.3321 27.7764C43.2472 28.1789 43.0921 28.9212 43.018 29.3174C42.6856 29.2502 42.3412 29.1698 42.0054 29.1036C42.0904 28.7006 42.2209 28.1196 42.3281 27.7165C42.4273 27.3038 42.6542 27.1504 42.868 27.1572ZM39.5083 29.9508C39.2563 30.4035 39.026 30.8351 38.762 31.2935C38.9621 31.1977 39.16 31.1869 39.3247 31.2747C39.9102 31.5843 40.4091 31.8744 40.9889 32.1971C41.213 32.3266 41.4558 32.5677 41.4809 32.887C41.4712 33.3146 41.1759 33.8317 40.7825 34.0056C40.498 34.139 40.1742 34.0021 39.9581 33.8773C39.4268 33.558 39.0077 33.3311 38.4764 33.0073C38.2928 32.9018 38.1292 32.8237 38.1126 32.4828C37.8584 32.9138 37.6292 33.3853 37.3624 33.8294C37.7164 33.6709 37.9604 33.7764 38.2147 33.9337C38.6873 34.2057 39.0807 34.4337 39.5488 34.7062C39.9062 34.9092 40.2643 35.0432 40.7523 34.9343C41.1736 34.8368 41.5311 34.4292 41.7882 34.009C42.0602 33.5689 42.2991 33.0563 42.2717 32.5694C42.2477 32.0666 41.9416 31.7234 41.6007 31.4965C41.0442 31.1595 40.6024 30.9275 40.0408 30.6002C39.8247 30.4702 39.5151 30.2747 39.5083 29.9508ZM39.815 35.1333C39.8031 35.5569 39.5659 36.0552 39.2643 36.4007C39.1121 36.6048 38.6223 37.1601 38.4245 37.3727C37.754 36.8037 37.144 36.2878 36.4713 35.7228C36.2934 35.5763 36.1531 35.3722 36.1446 35.1407C35.8664 35.4275 35.4906 35.8533 35.233 36.1606C35.4633 36.1281 35.6794 36.2399 35.8521 36.3864C36.5117 36.9491 37.1514 37.5261 37.8207 38.0802C38.0214 38.2627 38.1246 38.4394 38.1354 38.7296C38.7426 38.0443 39.8692 36.7496 40.461 36.0529C40.3806 36.0181 40.2734 36.0056 40.2278 35.9098C40.0528 35.5905 40.0003 35.3864 39.815 35.1333ZM35.1691 36.2399C34.981 36.4867 34.6041 36.6298 34.3327 36.7496C33.7461 37.0295 32.9228 37.6988 32.7512 38.4827C32.6144 39.1583 32.7632 39.7039 33.1366 40.196C33.506 40.6954 33.9718 40.9856 34.6149 41.0021C35.3344 40.9953 36.1012 40.5329 36.6691 39.9559C36.8561 39.7689 37.0853 39.5118 37.3589 39.4907C37.1309 39.2193 36.9405 38.9132 36.6919 38.6544C36.5311 39.1498 35.7569 39.9634 35.233 40.1059C34.7706 40.2102 34.461 40.0854 34.1229 39.794C33.7472 39.4052 33.5135 38.9263 33.6691 38.3659C33.9006 37.6435 34.8595 37.1144 35.4621 37.2188C35.3527 36.8961 35.27 36.5506 35.1691 36.2399Z" fill="#0053A0"/>
<path fill-rule="evenodd" clip-rule="evenodd" d="M24.1135 9.78516C24.0371 10.0052 23.9852 10.2954 23.9339 10.5503C23.923 10.6061 23.8951 10.6443 23.8615 10.6848C22.1551 12.402 20.0468 11.902 19.2612 14.4203C19.1722 14.6329 19.2851 14.8581 19.6654 15.0685C19.7036 15.0913 19.7372 15.0816 19.7372 15.0417C19.6414 12.3074 23.3358 12.4921 24.1437 10.5947C24.1522 10.5753 24.1796 10.5805 24.1882 10.5947C24.8672 11.8615 25.9892 12.0275 27.0148 12.6204C27.7828 13.0634 28.3364 13.4653 28.4932 14.7236C28.4983 14.7829 28.5148 14.772 28.545 14.7418C28.6613 14.6135 28.9436 14.5474 28.935 14.3553C28.6864 12.4989 26.642 12.0981 25.0017 11.3336C24.9333 11.2812 24.8638 11.2287 24.7953 11.1763C24.4521 10.7703 24.1904 10.3125 24.1135 9.78516ZM24.0838 12.1067C24.0656 12.1078 24.0502 12.1118 24.0342 12.121C24.0165 12.1295 23.9994 12.1477 23.9898 12.1666C23.9806 12.1837 23.9841 12.2378 23.9898 12.2749C23.996 12.2988 24.0177 12.3119 24.0308 12.3273C24.0582 12.361 24.0821 12.3804 24.1175 12.4066C24.1614 12.4357 24.2155 12.3997 24.2252 12.365C24.2383 12.3045 24.2383 12.2378 24.2252 12.1848C24.2218 12.1654 24.207 12.1534 24.195 12.1358C24.1785 12.1175 24.1602 12.1078 24.1317 12.1067C24.1197 12.1056 24.1004 12.1044 24.0838 12.1067ZM24.6414 12.6238C24.6357 12.6249 24.6334 12.6261 24.6271 12.6312C24.6163 12.6398 24.6078 12.654 24.6078 12.6683C24.6066 12.743 24.573 12.8518 24.6414 12.8906C24.675 12.906 24.7172 12.9117 24.7435 12.8821C24.7566 12.8604 24.7822 12.853 24.7805 12.8148C24.7805 12.7965 24.7554 12.7908 24.7474 12.7703C24.7366 12.7401 24.7423 12.6865 24.7315 12.6648C24.7218 12.6489 24.7121 12.6335 24.6944 12.6312C24.6762 12.6278 24.6596 12.6192 24.6414 12.6238ZM23.6146 12.6346C23.565 12.6517 23.5126 12.6877 23.4943 12.7509C23.4727 12.7886 23.4738 12.8182 23.4943 12.841C23.5205 12.8798 23.553 12.9254 23.5986 12.9465C23.6374 12.9647 23.6876 12.9647 23.7047 12.8821C23.7235 12.8137 23.7246 12.7173 23.6939 12.6911C23.6539 12.6626 23.6636 12.6227 23.6146 12.6346ZM24.1579 13.5383C23.9396 14.1956 23.8831 14.5269 23.7275 15.0502C24.0126 15.0525 24.1699 15.0537 24.3752 15.0577C24.2081 14.4613 24.2001 14.2247 24.1579 13.5383Z" fill="#0053A0"/>
<path fill-rule="evenodd" clip-rule="evenodd" d="M14.0766 16.7863C14.0669 16.7863 14.055 16.7914 14.043 16.8011C12.5225 17.8735 12.1097 19.7743 10.1543 19.4601C11.5423 20.1089 11.5088 21.7041 11.6504 23.1836C11.7699 24.4299 12.7229 26.1089 15.2921 25.7594C15.3206 25.7572 15.34 25.7343 15.3218 25.707C15.1576 25.4727 14.6068 25.5496 14.47 25.5268C12.4361 25.1454 12.0917 23.2748 11.6692 21.158C11.5709 20.5462 11.174 20.1597 10.9304 19.7002C10.9128 19.6534 10.8969 19.6386 10.9567 19.6278C12.2525 19.3798 13.2294 18.2555 14.2682 17.0599C14.2899 17.0468 14.2938 17.0172 14.2682 16.9955C14.2095 16.9368 14.1559 16.8718 14.1029 16.8011C14.0932 16.7914 14.0875 16.7851 14.0766 16.7863ZM13.8822 19.2463C13.864 19.2475 13.8446 19.2515 13.8292 19.2606C13.811 19.2692 13.7944 19.2874 13.7836 19.3062C13.775 19.3233 13.779 19.3775 13.7836 19.4145C13.791 19.4385 13.8161 19.4516 13.8292 19.467C13.8566 19.5006 13.8811 19.52 13.9159 19.5462C13.9598 19.5753 14.0105 19.5394 14.0202 19.5046C14.0333 19.4442 14.0333 19.3775 14.0202 19.3245C14.0162 19.3051 14.0019 19.2931 13.99 19.2754C13.9734 19.2572 13.9552 19.2475 13.9267 19.2463C13.9141 19.2452 13.8988 19.2441 13.8822 19.2463ZM14.4666 19.7777C14.4603 19.7794 14.4546 19.7817 14.4483 19.7863C14.4375 19.7937 14.429 19.8079 14.429 19.8233C14.4255 19.8969 14.3873 20.0046 14.4558 20.0445C14.4883 20.0622 14.5299 20.0662 14.5561 20.0371C14.5709 20.0154 14.5972 20.0109 14.5972 19.9738C14.5983 19.9544 14.5755 19.9493 14.5686 19.9282C14.559 19.898 14.5635 19.8438 14.5527 19.8233C14.5441 19.8068 14.5339 19.7885 14.5156 19.7863C14.4974 19.7817 14.4843 19.7743 14.4666 19.7777ZM13.4318 19.8569C13.3828 19.8741 13.3298 19.9134 13.3121 19.9772C13.2904 20.0143 13.2916 20.0405 13.3121 20.0633C13.3372 20.1021 13.3742 20.1477 13.4198 20.1682C13.4586 20.1871 13.5088 20.191 13.5259 20.1078C13.5447 20.0394 13.5424 19.9402 13.5099 19.9134C13.4706 19.8849 13.4814 19.845 13.4318 19.8569ZM14.0322 20.7498C13.9518 21.4134 13.7095 22.1717 13.4729 22.6699C13.7488 22.6329 13.9694 22.8005 13.9866 23.0143C14.0561 22.772 14.242 22.5856 14.4626 22.6506C14.3178 22.0485 14.1388 21.4014 14.0322 20.7498Z" fill="#0053A0"/>
<path fill-rule="evenodd" clip-rule="evenodd" d="M16.2038 27.2138C16.1929 27.2167 16.181 27.2201 16.1667 27.2258C13.8121 28.1357 13.3417 30.2497 14.6582 32.1112C15.6473 33.7731 16.0852 34.4578 15.6148 35.7936C17.4552 33.6026 20.7157 37.1471 22.5863 34.4139C22.6114 34.3803 22.572 34.3575 22.5333 34.3198C22.442 34.2566 22.3463 34.2144 22.2528 34.1773C22.1832 34.1511 22.145 34.1665 22.1028 34.2263C21.3371 35.0331 18.8543 34.854 16.9768 34.8597C16.9193 34.8597 16.7477 34.89 16.6912 34.9202C16.5111 35.0125 16.3286 35.0941 16.1365 35.077C16.0852 35.077 16.0071 35.0496 16.0202 34.943C16.1137 33.5775 15.3013 32.7098 14.7864 31.5832C14.6257 31.199 13.433 29.0439 16.3012 27.7349C16.3144 27.7098 16.3417 27.695 16.3383 27.6568C16.3298 27.5234 16.3024 27.3917 16.2636 27.2549C16.2568 27.2212 16.2374 27.2093 16.2038 27.2138ZM18.3337 29.8164C18.3155 29.8193 18.2967 29.8227 18.2807 29.8313C18.263 29.8409 18.2459 29.8586 18.2368 29.8769C18.2283 29.8945 18.2305 29.9487 18.2368 29.9858C18.2425 30.0097 18.2676 30.0217 18.2807 30.0376C18.3098 30.0713 18.3326 30.0901 18.3674 30.1169C18.4118 30.1454 18.4671 30.1095 18.4763 30.0747C18.4882 30.0148 18.49 29.9476 18.4763 29.8945C18.4717 29.8757 18.4535 29.8649 18.4432 29.8467C18.425 29.8273 18.4107 29.8193 18.3828 29.8164C18.3697 29.8153 18.352 29.8142 18.3337 29.8164ZM18.9267 30.3193C18.9204 30.3204 18.9136 30.3216 18.9073 30.3267C18.8976 30.3352 18.8879 30.3495 18.889 30.3638C18.8856 30.4384 18.8474 30.5451 18.9147 30.5861C18.9483 30.6026 18.9854 30.6061 19.0128 30.5775C19.0259 30.5559 19.0572 30.5525 19.0572 30.5137C19.0584 30.496 19.0321 30.4909 19.0236 30.4692C19.0139 30.4396 19.0224 30.3854 19.0128 30.3638C19.0031 30.3472 18.9939 30.329 18.9746 30.3267C18.9575 30.3216 18.9443 30.3159 18.9267 30.3193ZM17.8691 30.3831C17.8201 30.3997 17.7676 30.4396 17.7494 30.5029C17.7266 30.5388 17.7288 30.5667 17.7494 30.5895C17.7744 30.6277 17.8081 30.6722 17.8537 30.6939C17.8919 30.7132 17.9426 30.7167 17.958 30.634C17.9774 30.5656 17.9797 30.4658 17.9472 30.4396C17.9079 30.4105 17.9187 30.3712 17.8691 30.3831ZM18.4096 31.2372C18.3292 31.9008 18.0863 32.6591 17.8503 33.1574C18.1262 33.1203 18.3469 33.2845 18.364 33.4994C18.4335 33.2571 18.6194 33.0735 18.84 33.1391C18.6946 32.5371 18.515 31.89 18.4096 31.2372Z" fill="#0053A0"/>
<path fill-rule="evenodd" clip-rule="evenodd" d="M31.7858 27.21C31.7738 27.2111 31.7601 27.2231 31.7555 27.2362C31.7037 27.3468 31.6512 27.4523 31.5982 27.5629C31.5514 27.6878 31.5492 27.7944 31.7373 27.8542C35.1107 29.2334 33.45 31.8428 32.5703 33.3742C32.479 33.5315 32.2607 33.9956 32.2441 34.1997C32.2105 34.4169 32.2441 34.6062 32.239 34.8331C32.239 34.8861 32.1649 34.9004 32.1238 34.893C29.9642 34.4779 28.0959 36.3861 26.3257 34.3268C26.1626 34.1507 25.9671 34.1336 25.8953 34.1889C25.8171 34.2476 25.7596 34.3126 25.7043 34.3987C25.6672 34.4506 25.6683 34.4802 25.7117 34.5332C27.552 37.1142 30.2727 34.0663 32.6073 35.3502C32.0606 34.0378 33.1381 32.7647 33.7476 31.6199C35.1022 29.3183 33.5172 27.9038 31.7977 27.21C31.7926 27.2077 31.7903 27.21 31.7858 27.21ZM29.9979 29.767C29.9796 29.7693 29.9642 29.7733 29.9483 29.7824C29.9306 29.7909 29.9135 29.8092 29.9038 29.8269C29.8958 29.8451 29.8981 29.9027 29.9038 29.9397C29.9101 29.9637 29.9317 29.9734 29.9448 29.9888C29.9722 30.0213 29.9961 30.0418 30.0309 30.0669C30.0754 30.0971 30.1296 30.0612 30.1392 30.0264C30.1524 29.9665 30.1524 29.8981 30.1392 29.8462C30.1358 29.8257 30.121 29.8149 30.1102 29.7972C30.0925 29.779 30.0743 29.7693 30.0457 29.767C30.0338 29.7659 30.0144 29.7647 29.9979 29.767ZM30.564 30.2852C30.5577 30.2852 30.5509 30.2881 30.5446 30.2927C30.5338 30.3001 30.5258 30.3155 30.5258 30.3297C30.5229 30.4033 30.4847 30.511 30.552 30.5503C30.5857 30.5686 30.6261 30.572 30.6541 30.5435C30.6672 30.5218 30.6945 30.5184 30.6945 30.4797C30.6945 30.462 30.6735 30.4557 30.6649 30.434C30.6552 30.4044 30.6598 30.3514 30.6506 30.3297C30.641 30.3132 30.6347 30.2949 30.6153 30.2927C30.5988 30.2881 30.5805 30.2818 30.564 30.2852ZM29.5178 30.3634C29.4682 30.3805 29.4192 30.4209 29.4015 30.4836C29.3798 30.5207 29.381 30.5469 29.4015 30.5697C29.4277 30.6085 29.4602 30.6535 29.5058 30.6741C29.544 30.6934 29.5942 30.6969 29.6113 30.6142C29.6307 30.5458 29.6278 30.446 29.5953 30.4198C29.5572 30.3913 29.5668 30.3514 29.5178 30.3634ZM30.0914 31.2191C30.0121 31.8827 29.7687 32.641 29.5321 33.1387C29.8091 33.1017 30.0298 33.2698 30.0457 33.4831C30.1153 33.2408 30.3012 33.0549 30.5218 33.1199C30.377 32.5173 30.198 31.8708 30.0914 31.2191Z" fill="#0053A0"/>
<path fill-rule="evenodd" clip-rule="evenodd" d="M33.8314 16.7514C33.8246 16.7542 33.8183 16.7599 33.8126 16.7674C33.787 16.797 33.7659 16.9618 33.7596 17.0707C33.7585 17.0935 33.7585 17.1117 33.7824 17.1271C34.2659 17.4213 35.7145 19.0638 36.9768 19.3506C37.0321 19.3626 37.0389 19.4093 37.0116 19.4372C35.5104 21.2012 37.3006 23.956 34.3417 25.0062C33.7921 25.1573 33.2391 25.0855 33.137 25.4515C33.1342 25.4646 33.1524 25.4811 33.1632 25.4811C34.9426 25.594 36.0526 24.9942 36.385 23.7234C36.8132 22.3072 36.007 20.2953 37.5253 19.1972C37.5635 19.1681 37.5429 19.118 37.5093 19.1214C35.9745 19.2776 34.9933 17.6493 33.8531 16.7554C33.8474 16.7514 33.8377 16.7503 33.8314 16.7514ZM34.3189 19.1214C34.3006 19.1254 34.2818 19.1311 34.2659 19.1408C34.2482 19.1493 34.2311 19.167 34.2214 19.1864C34.2134 19.2029 34.2157 19.2571 34.2214 19.2941C34.2277 19.3181 34.2493 19.3318 34.2624 19.3472C34.2898 19.3808 34.3138 19.3962 34.3485 19.4213C34.393 19.4515 34.4472 19.419 34.4569 19.3842C34.47 19.3244 34.47 19.2571 34.4569 19.2041C34.4534 19.1853 34.4386 19.1693 34.4278 19.1516C34.4101 19.1334 34.3919 19.1237 34.3634 19.1214C34.3514 19.1214 34.3354 19.1191 34.3189 19.1214ZM34.8394 19.7001C34.8337 19.7012 34.8274 19.7024 34.8217 19.7069C34.8109 19.7155 34.8058 19.7297 34.8058 19.7445C34.8023 19.8187 34.7653 19.9253 34.8326 19.9663C34.8645 19.9829 34.9033 19.9868 34.9295 19.9578C34.9437 19.9361 34.9717 19.9327 34.9717 19.8945C34.9717 19.8762 34.9489 19.8717 34.9415 19.85C34.9318 19.8198 34.9369 19.7656 34.9261 19.7445C34.9175 19.7274 34.9101 19.7098 34.8924 19.7069C34.8742 19.7024 34.8576 19.6961 34.8394 19.7001ZM33.7681 19.7069C33.7185 19.724 33.6695 19.7634 33.6518 19.8272C33.6302 19.8643 33.6313 19.8905 33.6518 19.9133C33.6769 19.9521 33.7106 19.9977 33.7562 20.0176C33.7944 20.037 33.8445 20.0404 33.8616 19.9578C33.8793 19.8894 33.8782 19.7936 33.8463 19.7673C33.8063 19.7383 33.8172 19.6949 33.7681 19.7069ZM34.3451 20.5541C34.2659 21.2177 34.0224 21.976 33.7858 22.4743C34.0618 22.4372 34.2841 22.6048 34.2995 22.8198C34.3691 22.5775 34.5549 22.3899 34.7761 22.4549C34.6307 21.854 34.4517 21.2058 34.3451 20.5541Z" fill="#0053A0"/>
<path fill-rule="evenodd" clip-rule="evenodd" d="M32.8117 12.6421C32.806 12.6432 32.7997 12.6432 32.7929 12.6467C31.4297 13.0321 29.5888 14.605 28.0723 15.9836C28.0278 16.0343 27.9668 16.0452 27.9172 16.0281C26.9092 15.6968 25.7371 15.6541 24.7604 15.6273C23.3671 15.499 21.692 15.6695 20.1932 16.1552C20.1288 16.178 20.0803 16.1193 20.0324 16.0617C18.846 14.7419 17.1744 13.6609 15.3705 12.9084C15.3203 12.8844 15.2782 12.8627 15.2206 12.9158C14.2947 13.7698 14.4982 16.2994 15.293 17.6712C15.3865 17.8701 15.407 18.2191 15.4093 18.3382C15.4657 19.0759 15.6094 19.7133 15.8027 20.4009C15.8506 20.8279 16.0142 21.2624 16.2599 21.6307C16.3078 21.6894 16.2873 21.7424 16.2525 21.7806C15.9384 22.0953 15.6516 22.3929 15.3374 22.7071C15.3146 22.7287 15.2713 22.7441 15.2291 22.7515C14.9686 22.7817 14.887 22.8667 14.7639 23.1677C14.7457 23.2111 14.7479 23.2413 14.7707 23.2772C14.8152 23.3599 15.1174 23.8832 15.3671 24.1614C15.6083 24.4003 15.5182 24.6272 15.3146 24.8445C15.6995 25.1324 16.3882 25.6831 16.4292 25.7669C16.4726 25.9887 16.8637 26.0634 16.6305 26.3815C16.6921 26.3958 16.7291 26.4186 16.777 26.4568C16.8118 26.4944 16.8192 26.5303 16.8226 26.5696C16.854 26.9151 16.919 27.2287 17.1105 27.5594C17.8905 28.8821 18.7645 28.678 19.8032 29.8057C20.4247 30.4813 21.0381 30.5081 21.4606 31.6996C21.4218 32.1517 21.3979 32.4288 21.5843 32.8199C21.8049 33.2977 22.3482 33.3159 23.0466 33.6335C23.1401 33.67 23.192 33.6985 23.2604 33.7692C23.4429 33.947 23.6527 34.0611 23.8904 34.1739C24.0826 34.2555 24.31 34.2555 24.4868 34.1665C24.8226 33.9744 24.8933 34.1135 25.5141 33.6671C26.0997 33.4944 27.0558 32.7732 26.9537 31.5457C26.9571 31.5098 26.9657 31.4858 26.9765 31.4545C26.9948 31.398 27.0472 31.3416 27.0968 31.2868C27.3328 31.0046 27.6031 30.7549 27.7684 30.4128C27.802 30.3302 27.8311 30.2498 27.9064 30.1876C30.2439 28.2794 29.4172 29.1181 30.2621 28.4704C31.9947 27.1529 30.8573 25.6147 32.8864 24.7544C32.6116 24.1723 32.7051 24.1193 33.5991 22.8798C33.1264 22.6301 32.7975 22.3433 32.4696 22.1141C31.4417 21.308 32.375 20.6238 32.4594 20.2282C32.5181 20.0035 32.6065 19.7202 32.6281 19.4334C32.7376 18.7726 32.676 17.9939 33.0135 17.6484C33.2621 17.4083 33.334 16.0942 33.3733 15.9876C33.6458 15.1296 33.546 15.0144 33.5956 14.4756C33.6036 14.4038 33.6293 14.3462 33.5956 14.267C33.4058 13.7436 33.1732 13.2373 32.9052 12.7356C32.8813 12.6923 32.8636 12.6507 32.83 12.6421C32.8248 12.641 32.818 12.6421 32.8117 12.6421ZM32.0021 14.6603C31.8927 15.7367 31.5004 16.4494 31.623 17.3519C31.1658 17.9135 31.3191 18.9608 30.899 19.5873C30.8716 19.6233 30.8345 19.6438 30.7901 19.6398C30.2319 19.5474 29.8408 18.8445 29.3659 18.4471C29.3174 18.4089 29.2935 18.373 29.3095 18.3348C29.5027 17.9049 29.9463 17.4739 29.6019 17.0372C29.619 15.7858 31.1139 15.5845 32.0021 14.6603ZM15.9264 14.8667C16.8032 15.3576 17.3625 16.182 17.7935 16.194C17.8608 16.2983 17.9566 16.4061 18.037 16.4904C18.6824 17.2248 18.1704 17.4984 18.7377 18.4403C18.7992 18.572 18.8266 18.7002 18.7377 18.7806C18.3585 19.1107 18.0216 19.4454 17.7069 19.808C17.2907 20.3131 17.0877 20.1273 16.9646 19.808C16.8876 19.5714 16.8061 19.304 16.9127 19.0315C16.9788 18.8815 16.9389 18.7584 16.826 18.6153C16.675 18.4032 16.5518 18.1786 16.4327 17.9551C16.3905 17.8713 16.3631 17.7994 16.3466 17.694C16.1966 16.7652 16.224 15.3764 15.9264 14.8667ZM26.8192 24.0605C26.883 24.0537 26.9395 24.0976 26.9469 24.1614C26.9537 24.2264 26.9058 24.2863 26.842 24.2931C26.7775 24.2994 26.7211 24.2527 26.7137 24.1877C26.708 24.1244 26.7559 24.0679 26.8192 24.0605ZM20.8306 24.0714C20.8956 24.0657 20.9514 24.1084 20.9577 24.1734C20.9651 24.2373 20.9167 24.2931 20.8534 24.3006C20.7895 24.308 20.732 24.2635 20.7262 24.1996C20.7188 24.1352 20.7667 24.0788 20.8306 24.0714ZM30.4793 26.678C30.574 26.6791 30.6031 26.7675 30.5922 26.8576C30.4913 28.1295 29.8984 27.7794 28.5438 28.9841C28.1897 29.2669 28.306 29.5417 27.8283 29.9442C27.428 30.3182 27.0546 30.7093 26.7137 31.1933C26.6584 31.276 26.6179 31.1882 26.6128 31.1512C26.5962 31.0502 26.5364 30.9362 26.452 30.8439C26.2279 30.5919 26.5854 30.6232 26.1823 30.0195C26.0153 29.7749 25.822 30.0902 25.7057 29.6933C25.6339 29.4374 25.7023 29.5634 25.6122 28.9693L25.8488 28.7737C25.96 29.0907 26.1162 29.3558 26.2867 29.5765C26.3117 29.6067 26.265 29.8741 26.3693 30.1095C26.391 29.7378 26.7234 29.524 26.2496 28.857C26.188 28.7703 26.1561 28.6854 26.1333 28.5833C26.1304 28.5725 26.1282 28.5639 26.1259 28.5531C27.0233 27.9699 28.0278 27.4938 28.9759 27.101C28.9275 27.1552 28.8807 27.2093 28.8328 27.2669C28.8112 27.2931 28.8534 27.3028 28.8665 27.2971C28.924 27.2812 28.9514 27.2886 28.997 27.2971C29.0272 27.3148 29.0238 27.3462 29.0238 27.3747C29.0307 27.4853 28.9423 27.4915 28.9685 27.6147C29.1247 27.4146 29.2735 27.2202 29.4326 27.0377C29.4702 26.991 29.5193 26.9357 29.5934 26.9442L29.7667 26.967C29.8254 26.9693 29.8819 26.9585 29.9463 26.9402C30.0991 26.8804 30.2131 26.8062 30.359 26.7076C30.4069 26.6848 30.4468 26.678 30.4793 26.678ZM17.7371 26.8804C17.7428 26.8804 17.7525 26.8844 17.7599 26.8878C18.2097 27.1135 18.8232 27.2549 19.1362 27.3866C19.3004 27.4636 19.4771 27.5776 19.6042 27.597C19.6567 27.6004 19.6567 27.5719 19.6305 27.5406C19.5968 27.4875 19.5632 27.4374 19.5296 27.3906C20.3026 27.7492 21.0187 28.1654 21.7758 28.666C21.7736 28.6723 21.7701 28.678 21.769 28.6842C21.7473 28.7487 21.7257 28.8074 21.704 28.8604C21.692 28.8906 21.6789 28.9243 21.667 28.9505C21.6573 28.9733 21.6464 28.9972 21.6367 29.0178C21.6191 29.056 21.6008 29.0981 21.5843 29.1306C21.5626 29.1723 21.5387 29.2213 21.5204 29.2578C21.5147 29.272 21.5085 29.2851 21.5022 29.2994C21.4902 29.3262 21.4771 29.3524 21.4691 29.3775C21.4628 29.3957 21.4583 29.4123 21.4532 29.4305C21.4509 29.4385 21.4475 29.4471 21.4463 29.4567C21.4412 29.4807 21.44 29.5046 21.4378 29.5309C21.4366 29.5554 21.4366 29.5805 21.4378 29.6067C21.44 29.6346 21.4412 29.662 21.4463 29.6933C21.4554 29.7686 21.4771 29.7977 21.5022 29.8097C21.5096 29.8131 21.5204 29.8142 21.529 29.8165C21.5467 29.8205 21.5814 29.8262 21.5923 29.7977C21.6008 29.7709 21.6139 29.7447 21.6259 29.7196C21.6379 29.6933 21.6487 29.6694 21.6635 29.6437C21.6909 29.5936 21.7234 29.5434 21.757 29.4938C21.7639 29.483 21.7713 29.471 21.7798 29.4602C21.8408 29.3741 21.9081 29.2914 21.9703 29.2059C21.9765 29.1973 21.98 29.1905 21.9862 29.1831C22.0113 29.146 22.0341 29.1078 22.0569 29.0702C22.0655 29.0571 22.0746 29.0428 22.0831 29.0297C22.1048 28.9921 22.1265 28.955 22.143 28.9168L22.627 29.2766C22.5467 29.4733 22.4435 29.7401 22.4132 29.9294C22.3568 30.3553 22.0951 30.2595 21.8996 30.0976C21.9115 30.5366 21.9452 30.7253 21.7006 31.1101C21.6681 31.1654 21.6379 31.146 21.6179 31.1101C21.0261 29.9693 20.4549 30.2412 19.7063 29.0257C19.639 28.8496 19.5119 28.6814 19.2667 28.5902C18.3443 28.227 17.6852 27.9773 17.7069 26.9174C17.708 26.8986 17.7177 26.8804 17.7371 26.8804ZM25.8739 30.6905C25.9121 30.6928 25.9457 30.7253 25.96 30.7658C26.1464 31.1859 26.3779 31.9248 26.3021 32.1637C26.0284 33.2127 25.2895 33.3866 24.6031 33.2965C24.0883 33.2293 24.086 33.1084 24.0774 32.764C24.0786 32.7264 24.1305 32.7122 24.1721 32.7002C24.7941 32.5046 25.1681 32.166 25.184 31.5195C25.1875 31.4317 25.1983 31.3393 25.1538 31.26C25.3277 31.1489 25.4885 31.0337 25.6458 30.8895C25.6504 30.8849 25.6567 30.8798 25.6601 30.8741C25.708 30.7982 25.7621 30.7372 25.8368 30.6973C25.8499 30.6928 25.8619 30.6894 25.8739 30.6905ZM22.4167 30.7697C22.4372 30.7635 22.4554 30.7743 22.4771 30.7994C22.4925 30.8165 22.5142 30.8701 22.5632 30.8701C22.647 30.9761 22.7639 31.0673 22.8739 31.1477C22.8403 31.1808 22.8197 31.2196 22.8066 31.26C22.7719 31.3598 22.7781 31.5291 22.8066 31.6836C22.8186 31.7749 22.85 31.8553 22.8967 31.9345C23.1213 32.284 23.281 32.4408 23.5341 32.6135C23.6396 32.6774 23.7559 32.7327 23.8904 32.7196C23.9275 32.7144 23.9492 32.7395 23.9429 32.7709C23.9024 33.2857 23.6681 33.3205 23.0769 33.2475C21.7667 32.9858 21.651 32.1323 22.3602 30.8439C22.3762 30.7982 22.3979 30.7754 22.4167 30.7697ZM24.1162 33.5548C24.2969 33.5508 24.4891 33.5571 24.6778 33.581C24.7063 33.5867 24.7086 33.6107 24.7006 33.63C24.6738 33.7007 24.5945 33.7908 24.5541 33.8256C24.529 33.845 24.4902 33.8524 24.4566 33.8627C24.3152 33.9003 24.0945 33.9168 24.0558 33.9111C24.021 33.9037 23.9862 33.8906 23.9537 33.8701C23.8306 33.8005 23.7154 33.7201 23.594 33.646C23.5677 33.6255 23.5666 33.5941 23.5974 33.5896C23.761 33.5736 23.9338 33.5594 24.1162 33.5548Z" fill="#0053A0"/>
<path fill-rule="evenodd" clip-rule="evenodd" d="M32.6648 13.5947C32.6574 13.5947 32.65 13.5959 32.642 13.5981C31.1528 14.1398 29.3056 15.2173 28.345 16.6472C27.9573 16.9596 27.5599 17.264 27.1483 17.5314C28.004 16.394 26.2965 16.3188 24.2384 16.0953C22.8239 15.9744 21.1358 16.4168 20.5862 16.7184C20.5366 16.7469 20.5058 16.8034 20.5451 16.8535C20.6985 17.0719 20.7458 17.329 20.8365 17.5702C20.849 17.5964 20.8233 17.5987 20.8034 17.581C19.0126 15.9778 16.337 13.8154 15.4454 13.6021C15.4032 13.5947 15.365 13.609 15.3433 13.6477C15.28 13.7806 15.2652 13.8194 15.2162 13.9511C15.1814 14.0674 15.1176 14.1398 15.0856 14.1717C14.5754 14.6723 15.4693 15.6107 15.6027 17.3268C15.6917 18.0514 15.8667 18.3763 16.0332 18.8746C16.0588 18.9419 16.0754 18.9995 16.0862 19.0662C16.3177 19.8655 16.4687 20.6802 16.776 21.4208C17.1421 22.6101 15.7071 22.4145 15.6483 23.4008C15.6147 24.0702 16.4003 24.4373 16.2663 24.9271C16.2578 24.9579 16.2002 24.9915 16.2327 25.0314C16.8376 25.6591 17.0714 25.5126 17.3159 26.0331C17.8838 27.028 18.5007 25.9396 19.5286 27.3906C20.3017 27.7492 21.0178 28.1654 21.7749 28.6659C21.829 28.4966 21.8792 28.2868 21.9248 28.0131C22.0149 27.4721 21.9972 26.9259 21.6552 26.1711C21.5924 26.061 21.6301 25.8746 21.7412 25.7862C21.7977 25.7441 21.8216 25.7275 21.8279 25.8147C21.9237 26.8182 22.7458 27.4949 22.2395 28.4442C22.2213 28.4789 22.1996 28.5074 22.2059 28.5639C22.2167 28.6922 22.1905 28.8073 22.142 28.9168L22.6261 29.2765C22.658 29.1984 22.6871 29.1329 22.7053 29.0861C22.9208 27.971 23.0902 26.1711 23.2521 25.947C23.2669 25.9253 23.2846 25.8917 23.2521 25.8678C23.0639 25.6734 22.8524 25.3507 22.9488 25.2532C23.052 25.1751 23.6529 25.4179 23.6494 25.8535C23.6244 26.2435 23.2441 29.8541 22.7686 30.3638C22.7458 30.39 22.7544 30.4082 22.7686 30.4276C22.9761 30.7201 22.9317 30.7925 22.8587 30.8295C22.7925 30.8546 22.6546 30.8438 22.5924 30.8666C22.5816 30.87 22.5708 30.87 22.5622 30.87C22.646 30.9761 22.7629 31.0673 22.8729 31.1477C22.9391 31.0827 23.0508 31.0348 23.2224 31.0091C23.8929 30.8928 24.5326 30.9122 25.0223 31.1437C25.0879 31.1773 25.1289 31.2172 25.1529 31.26C25.3267 31.1488 25.4875 31.0337 25.6449 30.8894C25.5993 30.923 25.5023 30.8906 25.4875 30.8136C25.219 29.3501 24.9322 29.1243 24.7629 28.0206C24.6945 27.646 24.662 27.2537 24.7327 26.8946C24.7555 26.7783 24.7629 26.6728 24.7327 26.5468C24.6358 26.1859 24.6415 25.809 24.7224 25.4516C24.7771 25.3313 24.918 25.1705 25.0183 25.0348C25.1015 24.9259 25.1603 24.7988 25.2059 24.6608C25.2526 24.5177 25.7167 23.8244 26.1129 23.715C26.1466 23.7064 26.1511 23.6865 26.1551 23.6551C26.1586 23.6203 26.0936 23.6192 26.0987 23.5662C26.1129 23.2902 27.8478 23.439 28.7612 23.524C29.1089 23.4932 29.4561 23.439 29.7845 23.378C29.8421 23.3672 29.8461 23.3872 29.8113 23.4236C29.5388 23.7235 29.1466 23.8877 28.7914 23.9333C28.7241 23.943 28.7059 23.9801 28.6928 24.0308C28.4898 25.0491 27.0166 25.5411 26.3758 25.4214C26.3347 25.4139 26.3336 25.443 26.3347 25.4636C26.3815 25.9852 26.1574 26.0382 25.963 27.5633C25.951 27.6483 25.9545 27.7241 25.9676 27.8102C25.9978 28.0576 26.0696 28.2925 26.1249 28.553C27.0223 27.9698 28.0268 27.4938 28.975 27.1009C29.1665 26.8843 29.3564 26.6882 29.5554 26.4675C29.6107 26.3946 29.7173 26.3501 29.8182 26.3142C30.573 25.9972 31.3376 25.504 31.9111 24.8815C31.9276 24.8609 31.9624 24.8273 31.9516 24.788C31.7766 23.9693 32.3165 23.727 32.6562 23.1198C32.7076 23.0405 32.6523 23.02 32.5964 22.9915C32.223 22.756 31.8832 22.4311 31.622 22.126C31.5605 22.0348 31.5342 21.9197 31.5126 21.8176C31.2423 20.5462 31.8016 20.4533 31.9025 19.7178C31.8951 19.3518 31.9938 18.9214 32.1089 18.5411C32.2446 18.0981 32.3056 17.7384 32.4618 17.4909C32.5388 15.276 33.2264 15.776 33.0388 14.5953C32.9898 14.3593 32.8649 13.9305 32.7161 13.6358C32.7041 13.6078 32.6859 13.5959 32.6648 13.5947ZM32.2412 14.0269C32.2532 14.024 32.2663 14.0257 32.2783 14.0269C32.3575 14.0326 32.4196 14.0913 32.4282 14.1648C32.4425 14.3085 32.4738 14.4408 32.5023 14.5736C31.9903 15.7977 32.288 17.4778 31.6181 18.5075C31.5844 19.4094 31.4715 19.9847 30.9356 20.3444C30.914 20.3609 30.89 20.3587 30.8644 20.3444C30.0092 19.9265 29.2446 19.0554 28.4983 18.3718C29.6597 17.6158 28.6078 16.8216 29.4356 15.9539C30.3991 14.9362 31.2475 14.8353 32.1283 14.0782C32.1654 14.0468 32.2036 14.0303 32.2412 14.0269ZM15.5919 14.0902C15.6974 14.0913 15.8188 14.1477 15.906 14.2321C16.7641 14.6073 16.6871 14.9505 17.357 15.2869C17.4995 15.361 17.7435 15.4944 17.9317 15.5371C18.0183 15.8376 18.1597 15.829 18.475 16.3667C18.5508 16.4984 18.8279 16.7144 18.853 16.8946C18.8724 17.0075 18.8701 17.1055 18.8615 17.2139C18.853 17.5195 18.727 17.8114 18.8952 17.9482C19.0332 18.0189 18.9419 18.0884 19.1917 18.2144C19.3176 18.2754 19.3826 18.3382 19.3154 18.4698C19.1158 18.8193 18.8712 19.1072 18.6483 19.4265C18.5902 19.5006 18.5052 19.5594 18.4191 19.6101C17.9351 19.9003 17.5332 20.3085 17.0987 20.6933C17.0714 20.7139 17.0583 20.6933 17.0389 20.6865C16.6227 20.4499 16.5121 20.0371 16.4568 19.4744C16.3131 17.9721 16.0115 19.2714 15.5052 14.7983C15.4368 14.5964 15.3627 14.2367 15.426 14.154C15.4693 14.1095 15.5269 14.089 15.5919 14.0902ZM25.3895 17.0035C25.0041 17.7179 24.8085 17.6506 24.5759 17.9299C24.5588 17.9493 24.5411 17.9733 24.5229 17.9972C24.5063 18.0212 24.4881 18.0462 24.4716 18.0753C24.4533 18.1038 24.4402 18.1295 24.4328 18.1546C24.4328 18.1557 24.4339 18.1569 24.4328 18.158C24.4271 18.1819 24.4231 18.2087 24.422 18.2298C24.4328 18.463 24.3946 18.5576 24.4556 18.6346C24.4596 18.6403 24.4619 18.6466 24.463 18.6534C24.4664 18.6608 24.4664 18.6683 24.4676 18.6751C24.4687 18.6911 24.4653 18.7065 24.4596 18.7173C24.4163 18.6899 24.349 18.638 24.2914 18.5867C24.2469 18.5468 24.2099 18.5098 24.1928 18.4773C24.1928 18.4761 24.1939 18.475 24.1928 18.4738C24.1882 18.463 24.1859 18.4522 24.1859 18.4436C24.1859 18.4197 24.1837 18.4043 24.1819 18.3906C24.1762 18.337 24.1608 18.345 24.1483 18.2863C24.1426 18.2566 24.1352 18.2099 24.1329 18.1283C24.1318 18.0884 24.1329 18.0383 24.1329 17.9778C24.1283 17.9396 24.1318 17.9203 24.1415 17.9037C24.1449 17.8963 24.15 17.8883 24.1557 17.8809C24.162 17.8735 24.1677 17.8667 24.1751 17.8581C24.5229 17.5006 24.9847 17.264 25.3895 17.0035ZM22.6152 17.0902C22.9795 17.3376 23.3889 17.6683 23.7886 18.0006C23.7971 18.0103 23.8028 18.02 23.8114 18.0309C23.8342 18.0656 23.8513 18.1067 23.8416 18.158C23.8176 18.3091 23.7452 18.4545 23.6876 18.6078C23.6854 18.6152 23.6808 18.6187 23.6757 18.6238C23.6711 18.6272 23.6671 18.6323 23.6614 18.6346C23.6494 18.6392 23.6352 18.638 23.6278 18.6306C23.5559 18.5394 23.4778 18.447 23.4128 18.3535C23.3912 18.325 23.3684 18.2937 23.3684 18.2555C23.3712 18.2253 23.3724 18.195 23.3724 18.17C23.3724 18.1437 23.3712 18.1209 23.3684 18.0981C23.3627 18.0559 23.3496 18.0189 23.3313 17.9898C23.3302 17.9887 23.3313 17.9864 23.3313 17.9864C23.2931 17.9254 23.227 17.8895 23.1215 17.8615C23.0349 17.8364 22.9596 17.7982 22.8957 17.7538C22.8946 17.7526 22.8935 17.7538 22.8923 17.7538C22.7988 17.6865 22.7315 17.5964 22.6859 17.4875C22.6859 17.4864 22.6825 17.4847 22.6825 17.4835C22.6369 17.3724 22.6164 17.2424 22.6152 17.0902ZM27.4413 20.5998C27.5394 20.5953 27.6426 20.6072 27.7446 20.63C27.8456 20.6529 27.9465 20.6876 28.0325 20.7344C28.0593 20.7509 28.0662 20.7834 28.0365 20.7942C27.8923 20.833 27.7458 20.882 27.5981 20.9408C27.524 20.9693 27.4522 21.0018 27.3763 21.0343C27.0046 21.1985 26.6255 21.4037 26.2486 21.5936C26.2087 21.6101 26.1825 21.6044 26.1654 21.5816C26.1597 21.573 26.1551 21.5645 26.1511 21.5514C26.1426 21.5109 26.1443 21.471 26.1477 21.4316C26.15 21.3929 26.1574 21.3535 26.1586 21.3113C26.162 21.2538 26.1979 21.2503 26.2184 21.2213C26.2891 21.1939 26.349 21.17 26.3986 21.1471C26.5462 21.0787 26.6061 21.0308 26.6563 20.9864C26.6911 20.9562 26.7224 20.9288 26.7657 20.8952C26.8102 20.8627 26.8689 20.8256 26.9647 20.78C27.0223 20.7538 27.0799 20.7298 27.1363 20.7042C27.1939 20.6802 27.2503 20.6563 27.3056 20.6369C27.349 20.6141 27.3991 20.601 27.4413 20.5998ZM20.1249 20.6779C20.1324 20.6779 20.142 20.6802 20.1477 20.6779C20.1717 20.6865 20.1911 20.6962 20.2082 20.7042C20.2247 20.7139 20.2367 20.7235 20.2487 20.7344C20.2931 20.7726 20.3114 20.8159 20.4254 20.8701C20.4528 20.8832 20.4887 20.8997 20.5297 20.9145C20.5713 20.9288 20.6209 20.943 20.6797 20.9601C20.8211 21.0058 20.922 21.032 21.0166 21.0679C21.0189 21.069 21.0189 21.0713 21.0217 21.0713C21.1152 21.1089 21.2053 21.1546 21.3165 21.2332C21.3553 21.26 21.3957 21.2914 21.4414 21.3273C21.4858 21.3632 21.5366 21.4037 21.5913 21.4505C21.6141 21.4687 21.6346 21.4807 21.6398 21.5143C21.6409 21.5251 21.6398 21.536 21.6358 21.5479V21.5514C21.6323 21.5633 21.6272 21.5742 21.6215 21.5861C21.6073 21.6112 21.5879 21.6329 21.5685 21.65C21.5617 21.6546 21.5554 21.6585 21.5497 21.6608C21.5445 21.662 21.5349 21.662 21.5229 21.6608C21.487 21.6534 21.4585 21.6489 21.4294 21.638C21.4032 21.6283 21.3804 21.6164 21.3587 21.6044C21.3359 21.5924 21.3165 21.5816 21.2988 21.5673C21.2806 21.5525 21.2663 21.5371 21.2498 21.5217C21.2162 21.4904 21.1814 21.4579 21.1369 21.4242C21.1164 21.4077 21.0936 21.3917 21.0656 21.3752C21.0383 21.3592 21.0069 21.3427 20.9721 21.3273C20.9362 21.3113 20.9077 21.3079 20.8786 21.3153C20.869 21.3188 20.8581 21.321 20.849 21.3273C20.8102 21.3427 20.7743 21.3245 20.7361 21.3153C20.707 21.3091 20.6745 21.2982 20.6426 21.2863C20.6409 21.2851 20.6398 21.2863 20.6386 21.2863C20.4049 21.1939 20.1141 20.9658 20.113 20.6933C20.113 20.6888 20.1158 20.6842 20.117 20.6814C20.1192 20.6802 20.1215 20.6779 20.1249 20.6779ZM20.6232 23.288C20.6854 23.288 20.7504 23.2914 20.8154 23.2948C20.8809 23.3011 20.9482 23.3068 21.0166 23.3176C21.0685 23.3262 21.1187 23.337 21.1717 23.3478C21.1882 23.3524 21.2053 23.3552 21.223 23.3598C21.2544 23.3672 21.2857 23.3763 21.3165 23.386C21.3575 23.3969 21.3969 23.4088 21.4368 23.4236C21.4955 23.4436 21.552 23.4653 21.6095 23.4904C21.6597 23.512 21.7105 23.536 21.7595 23.5616C21.8085 23.5878 21.8581 23.6181 21.906 23.6477C21.9465 23.6728 21.9864 23.6996 22.0257 23.727C22.044 23.7389 22.0617 23.7475 22.0788 23.7606C22.1073 23.7823 22.1363 23.8051 22.1648 23.8279C22.1711 23.8324 22.1768 23.8376 22.1831 23.8433C22.1876 23.8473 22.1939 23.8507 22.1985 23.8541C22.207 23.8615 22.2167 23.8701 22.2253 23.8769C22.2623 23.9094 22.2994 23.9465 22.3365 23.9812C22.3849 24.0268 22.4305 24.0736 22.4761 24.1243C22.4796 24.1278 22.483 24.1312 22.4881 24.1352C22.5286 24.1819 22.5668 24.2309 22.6078 24.2811C22.6306 24.3125 22.6546 24.3438 22.6785 24.3752C22.6979 24.4025 22.7156 24.4265 22.735 24.4544C22.7772 24.5166 22.8154 24.5816 22.8553 24.65C22.8707 24.6762 22.8826 24.711 22.8815 24.7395C22.8803 24.7492 22.8781 24.7566 22.8729 24.7663C22.8359 24.8455 22.8131 24.9259 22.7948 25.0171C22.7925 25.0303 22.7806 25.0411 22.7686 25.0434C22.764 25.0434 22.7566 25.0422 22.7532 25.0399C22.6882 25 22.6284 24.9618 22.5696 24.9197C22.5132 24.8792 22.4602 24.8347 22.4089 24.7914C22.4077 24.7914 22.4049 24.7925 22.4049 24.7914C22.3524 24.748 22.3045 24.7024 22.2549 24.6568C21.8148 24.2503 21.5052 23.8085 20.9123 23.6899C20.9111 23.6888 20.91 23.6899 20.9089 23.6899C20.6438 23.6369 20.3256 23.65 19.9117 23.7572C19.7737 23.7714 19.621 23.7714 19.4653 23.7606C19.3091 23.7498 19.1506 23.7281 18.9995 23.7007C18.9265 23.6876 18.8507 23.6717 18.7823 23.6551C18.7812 23.6551 18.78 23.6563 18.7789 23.6551C18.7105 23.6392 18.6466 23.6203 18.5879 23.6032C18.5856 23.6021 18.5845 23.6032 18.5833 23.6032C18.4619 23.5673 18.3638 23.5291 18.2954 23.4943C18.605 23.5 18.9454 23.4966 19.2395 23.4835C19.5337 23.4704 19.7783 23.451 19.8958 23.4271C19.9357 23.4077 19.9836 23.3912 20.0354 23.374C20.0833 23.3587 20.1386 23.3416 20.1962 23.3296C20.2008 23.3284 20.207 23.3296 20.2116 23.3296C20.2629 23.3187 20.3171 23.3096 20.3758 23.3034C20.3855 23.3022 20.3929 23.2999 20.4026 23.2999C20.4733 23.2925 20.5463 23.2891 20.6232 23.288ZM27.1591 23.7908C26.8974 23.8062 26.6107 23.906 26.2857 24.1876C25.7937 24.6711 25.3798 25.2726 25.0628 25.8415C25.0257 25.9111 25.0137 25.9744 25.0291 26.0479C25.3895 27.7058 25.544 28.5314 25.6112 28.9692L25.8478 28.7737C25.7059 28.3746 25.6329 27.8917 25.6819 27.3113C25.8524 26.8672 25.9413 26.3427 26.0194 25.8415C26.2783 25.2919 26.3051 25.0588 26.5554 25.0736C26.78 25.0856 27.0126 25.0964 27.223 25.0508C27.3045 25.0348 27.3718 25.0023 27.4448 24.9567C27.7988 24.7435 28.101 24.4544 28.3592 24.1278C28.3906 24.0941 28.4094 24.0223 28.3929 23.9898C28.3832 23.9647 28.3678 23.9516 28.3364 23.9516C27.9641 23.9744 27.597 23.7652 27.1591 23.7908ZM27.0394 23.8313C27.109 23.8301 27.1808 23.8455 27.2492 23.8735C27.3872 23.9276 27.4881 24.0331 27.5422 24.158C27.5696 24.2213 27.585 24.2874 27.5879 24.3569C27.589 24.4265 27.577 24.4983 27.5491 24.5667C27.5217 24.6352 27.4818 24.6939 27.4328 24.7435C27.2863 24.8911 27.0571 24.9447 26.8518 24.8632C26.817 24.849 26.7846 24.8347 26.7549 24.8142C26.7247 24.7948 26.7007 24.7709 26.6757 24.7469C26.528 24.6004 26.4738 24.3752 26.5554 24.1699C26.5662 24.142 26.5782 24.1181 26.593 24.0941C26.5953 24.0918 26.5987 24.0896 26.601 24.0867C26.6072 24.0764 26.6118 24.0667 26.6192 24.0571C26.6335 24.0377 26.6494 24.0211 26.6648 24.004L26.6791 23.9898C26.7019 23.967 26.7247 23.9442 26.7515 23.9259C26.7714 23.9105 26.7954 23.8997 26.8182 23.8877C26.8222 23.8866 26.8256 23.8866 26.829 23.8843C26.8364 23.882 26.841 23.8758 26.8484 23.8735C26.8775 23.8615 26.9071 23.853 26.9385 23.8473C26.971 23.8398 27.0058 23.8324 27.0394 23.8313ZM21.0554 23.8398C21.1249 23.8376 21.1916 23.8495 21.2618 23.8769C21.2948 23.89 21.3285 23.906 21.3587 23.9259C21.3889 23.9453 21.4129 23.9681 21.4368 23.9932C21.463 24.0189 21.4847 24.0428 21.5052 24.0713C21.5434 24.1289 21.5725 24.1927 21.5879 24.26C21.6095 24.3592 21.6021 24.4675 21.5617 24.5707C21.5468 24.6055 21.5314 24.634 21.5121 24.6642C21.5121 24.6654 21.5138 24.6665 21.5121 24.6677C21.4345 24.7851 21.3119 24.8644 21.1785 24.8934C21.1113 24.9077 21.0417 24.9088 20.9721 24.8968C20.9374 24.8911 20.9015 24.8803 20.8678 24.8672C20.833 24.8524 20.7994 24.837 20.7698 24.8176C20.711 24.7794 20.6626 24.7287 20.6232 24.6711C20.5269 24.5297 20.4995 24.345 20.5679 24.1734C20.581 24.1397 20.6004 24.1084 20.6198 24.0799C20.6375 24.0519 20.6546 24.0268 20.6757 24.004C20.6808 23.9995 20.6865 23.9972 20.6916 23.9932C20.7144 23.9704 20.7361 23.9465 20.7623 23.9299C20.784 23.914 20.8068 23.9031 20.8296 23.8912C20.8308 23.8912 20.8319 23.8889 20.833 23.8877C20.8547 23.878 20.8786 23.8735 20.9015 23.8661C20.9231 23.8592 20.9459 23.8507 20.9687 23.8473H20.9761C21.0012 23.8421 21.0286 23.8398 21.0554 23.8398ZM19.3524 24.1015C19.3655 24.1015 19.3798 24.1038 19.3935 24.1061C19.3958 24.1061 19.3992 24.1049 19.4015 24.1061C19.4254 24.1084 19.4493 24.1169 19.4761 24.1278C19.5046 24.1397 19.5349 24.154 19.5662 24.1734C19.5981 24.1927 19.6318 24.2144 19.6683 24.2406L19.6785 24.248C19.7099 24.272 19.7412 24.2959 19.776 24.3233C19.8131 24.3524 19.8479 24.3775 19.8889 24.41C19.9642 24.4687 20.0474 24.5331 20.1358 24.597C20.1802 24.6295 20.2259 24.6591 20.2749 24.6905C20.3125 24.7144 20.3507 24.7423 20.3918 24.7663C20.4083 24.776 20.4265 24.7851 20.4431 24.7948C20.4898 24.8216 20.5394 24.8467 20.5896 24.8706C20.6386 24.8946 20.6905 24.9162 20.743 24.9379C20.7601 24.9447 20.7755 24.9544 20.7926 24.9607C20.845 24.9807 20.9003 24.9966 20.9568 25.0132C21.024 25.0325 21.0924 25.0519 21.1631 25.0662C21.235 25.0793 21.3085 25.089 21.3849 25.0947C21.4619 25.1021 21.5423 25.1067 21.6249 25.1067C21.6409 25.1067 21.6529 25.1106 21.6626 25.1175C21.6717 25.1238 21.6791 25.1323 21.6814 25.1477C21.6837 25.2771 21.5651 25.3227 21.4368 25.3313C21.361 25.3324 21.2857 25.3301 21.2087 25.3279C20.983 25.3216 20.7589 25.3039 20.5332 25.2674C20.5092 25.2651 20.4887 25.2594 20.4659 25.2498C20.4442 25.2401 20.4254 25.2269 20.4026 25.2116C20.333 25.1642 20.2595 25.1106 20.1854 25.0508C20.1107 24.9903 20.04 24.9282 19.9716 24.8672C19.9009 24.8045 19.8359 24.7469 19.7794 24.6939C19.7241 24.6426 19.6802 24.5981 19.6489 24.5667C19.6164 24.5382 19.5913 24.5143 19.5696 24.4915C19.5491 24.4698 19.5314 24.4482 19.5166 24.4316C19.4893 24.398 19.4773 24.3752 19.4619 24.3535C19.4533 24.3427 19.4448 24.333 19.4351 24.3233C19.4054 24.2919 19.357 24.2583 19.2481 24.1996C19.235 24.1939 19.2264 24.1888 19.2253 24.1808C19.2241 24.1756 19.2241 24.1722 19.2287 24.1659C19.2327 24.1602 19.2361 24.1528 19.243 24.1471C19.2549 24.1374 19.2698 24.13 19.2817 24.1243C19.2926 24.1181 19.3034 24.1124 19.3154 24.1095C19.3273 24.1061 19.3393 24.1027 19.3524 24.1015Z" fill="#FDBE11"/>
</g>
<defs>
<clipPath id="clip0_2208_89357">
<rect width="47.9981" height="47.9981" fill="white" transform="translate(0.00195312)"/>
</clipPath>
</defs>
</svg>
