<svg width="48" height="48" viewBox="0 0 48 48" fill="none" xmlns="http://www.w3.org/2000/svg">
<rect width="48" height="48" rx="9.6" fill="#EBF4EA"/>
<g clip-path="url(#clip0_2821_250342)">
<path d="M23.999 12.001C17.375 12.001 11.999 17.377 11.999 24.001C11.999 30.625 17.375 36.001 23.999 36.001C30.623 36.001 35.999 30.625 35.999 24.001C35.999 17.377 30.623 12.001 23.999 12.001ZM25.199 15.961L26.819 14.821C29.003 15.493 30.863 16.933 32.075 18.829L31.607 20.437L29.987 20.989L25.199 17.641V15.961ZM21.179 14.821L22.799 15.961V17.641L18.011 20.989L16.391 20.437L15.923 18.829C17.135 16.945 18.995 15.505 21.179 14.821ZM18.095 30.133L16.727 30.253C15.275 28.573 14.399 26.389 14.399 24.001C14.399 23.857 14.411 23.725 14.423 23.581L15.623 22.705L17.279 23.281L19.031 28.489L18.095 30.133ZM26.999 33.109C26.051 33.421 25.043 33.601 23.999 33.601C22.955 33.601 21.947 33.421 20.999 33.109L20.171 31.321L20.939 30.001H27.071L27.839 31.333L26.999 33.109ZM26.723 27.601H21.275L19.655 22.777L23.999 19.729L28.355 22.777L26.723 27.601ZM31.271 30.253L29.903 30.133L28.955 28.489L30.707 23.281L32.375 22.717L33.575 23.593C33.587 23.725 33.599 23.857 33.599 24.001C33.599 26.389 32.723 28.573 31.271 30.253Z" fill="#6BAA62"/>
</g>
<defs>
<clipPath id="clip0_2821_250342">
<rect width="28.8" height="28.8" fill="white" transform="translate(9.59961 9.59961)"/>
</clipPath>
</defs>
</svg>
