<svg width="64" height="64" viewBox="0 0 64 64" fill="none" xmlns="http://www.w3.org/2000/svg">
<rect width="64" height="64" rx="32" fill="#F3F4F6"/>
<rect x="6.39844" y="6.40039" width="51.2" height="51.2" rx="25.6" fill="#E5E7EB"/>
<path d="M42.3875 35.9077C39.6408 38.6411 35.7075 39.4811 32.2542 38.4011L25.9742 44.6677C25.5208 45.1344 24.6275 45.4144 23.9875 45.3211L21.0808 44.9211C20.1208 44.7877 19.2275 43.8811 19.0808 42.9211L18.6808 40.0144C18.5875 39.3744 18.8942 38.4811 19.3342 38.0277L25.6008 31.7611C24.5342 28.2944 25.3608 24.3611 28.1075 21.6277C32.0408 17.6944 38.4275 17.6944 42.3742 21.6277C46.3208 25.5611 46.3208 31.9744 42.3875 35.9077Z" stroke="#1F2937" stroke-width="2" stroke-miterlimit="10" stroke-linecap="round" stroke-linejoin="round"/>
<path d="M25.1875 39.3203L28.2542 42.387" stroke="#1F2937" stroke-width="2" stroke-miterlimit="10" stroke-linecap="round" stroke-linejoin="round"/>
<path d="M35.332 30.666C36.4366 30.666 37.332 29.7706 37.332 28.666C37.332 27.5614 36.4366 26.666 35.332 26.666C34.2275 26.666 33.332 27.5614 33.332 28.666C33.332 29.7706 34.2275 30.666 35.332 30.666Z" stroke="#1F2937" stroke-width="2" stroke-linecap="round" stroke-linejoin="round"/>
</svg>
