<svg width="56" height="56" viewBox="0 0 56 56" fill="none" xmlns="http://www.w3.org/2000/svg">
<rect x="4" y="52" width="48" height="48" rx="24" transform="rotate(-90 4 52)" fill="#E5E7EB"/>
<path d="M25.32 28.0002C25.32 26.8102 24.35 25.8402 23.16 25.8402C21.97 25.8402 21 26.8102 21 28.0002C21 29.1902 21.97 30.1602 23.16 30.1602C24.35 30.1602 25.32 29.1902 25.32 28.0002Z" stroke="#4B5563" stroke-width="1.5" stroke-linecap="round" stroke-linejoin="round"/>
<path d="M34.9997 33.2091C34.9997 32.0191 34.0297 31.0491 32.8397 31.0491C31.6497 31.0491 30.6797 32.0191 30.6797 33.2091C30.6797 34.3991 31.6497 35.3691 32.8397 35.3691C34.0297 35.3691 34.9997 34.4091 34.9997 33.2091Z" stroke="#4B5563" stroke-width="1.5" stroke-linecap="round" stroke-linejoin="round"/>
<path d="M34.9997 22.7892C34.9997 21.5992 34.0297 20.6292 32.8397 20.6292C31.6497 20.6292 30.6797 21.5992 30.6797 22.7892C30.6797 23.9792 31.6497 24.9492 32.8397 24.9492C34.0297 24.9492 34.9997 23.9792 34.9997 22.7892Z" stroke="#4B5563" stroke-width="1.5" stroke-linecap="round" stroke-linejoin="round"/>
<rect x="4" y="52" width="48" height="48" rx="24" transform="rotate(-90 4 52)" stroke="#F9FAFB" stroke-width="8"/>
</svg>
