<svg width="150" height="56" viewBox="0 0 150 56" fill="none" xmlns="http://www.w3.org/2000/svg">
<g clip-path="url(#clip0_2485_255093)">
<rect width="150" height="56" fill="white"/>
<path d="M38.8583 38.4691V36.1651H46.1317C46.6086 36.1651 47.016 36.0679 47.3538 35.8735C47.7115 35.6597 47.9798 35.3875 48.1587 35.0569C48.3375 34.7264 48.427 34.3765 48.427 34.007C48.427 33.6571 48.3475 33.3363 48.1885 33.0446C48.0295 32.7336 47.7811 32.4905 47.4433 32.3156C47.1253 32.1211 46.7378 32.0239 46.2807 32.0239H43.2104C42.2367 32.0239 41.3821 31.8684 40.6468 31.5573C39.9314 31.2268 39.3651 30.7505 38.9477 30.1283C38.5503 29.5061 38.3516 28.7479 38.3516 27.8535C38.3516 27.0953 38.5404 26.3954 38.9179 25.7538C39.2955 25.1122 39.8221 24.5969 40.4978 24.2081C41.1735 23.7998 41.9485 23.5957 42.8229 23.5957H49.828V25.8996H43.0912C42.4751 25.8996 41.9882 26.0843 41.6305 26.4537C41.2728 26.8231 41.094 27.2606 41.094 27.7661C41.094 28.2521 41.2728 28.6798 41.6305 29.0492C42.0081 29.3992 42.5347 29.5742 43.2104 29.5742H46.1317C47.2247 29.5742 48.1388 29.7492 48.8741 30.0991C49.6292 30.4297 50.1956 30.9157 50.5732 31.5573C50.9706 32.1989 51.1694 32.9863 51.1694 33.9196C51.1694 34.7167 50.9706 35.4652 50.5732 36.1651C50.1757 36.8456 49.6193 37.3997 48.9039 37.8275C48.2084 38.2552 47.3936 38.4691 46.4596 38.4691H38.8583Z" fill="#111827"/>
<path d="M62.507 38.4691C60.8377 38.4691 59.3572 38.1677 58.0655 37.565C56.7737 36.9428 55.7602 36.0777 55.025 34.9694C54.3095 33.8418 53.9518 32.5294 53.9518 31.0324C53.9518 29.5547 54.2599 28.2327 54.8759 27.0661C55.492 25.8801 56.3465 24.9469 57.4395 24.2664C58.5325 23.5859 59.8043 23.2457 61.255 23.2457C62.8249 23.2457 64.1266 23.5762 65.16 24.2373C66.2132 24.8983 66.9982 25.7927 67.5149 26.9203C68.0316 28.0285 68.2899 29.2728 68.2899 30.6532C68.2899 30.8671 68.28 31.0907 68.2601 31.324C68.2601 31.5573 68.2402 31.7615 68.2005 31.9364H56.8731C56.9725 32.8502 57.2805 33.6279 57.7972 34.2695C58.3139 34.8917 58.9697 35.368 59.7646 35.6985C60.5793 36.0096 61.4736 36.1651 62.4474 36.1651H66.4119V38.4691H62.507ZM56.8433 30.0408H65.5177C65.5177 29.6714 65.4779 29.2826 65.3984 28.8743C65.319 28.4465 65.1798 28.0382 64.9811 27.6494C64.7824 27.2411 64.5141 26.8814 64.1763 26.5703C63.8583 26.2398 63.4509 25.9774 62.9541 25.7829C62.4772 25.5885 61.9108 25.4913 61.255 25.4913C60.5595 25.4913 59.9434 25.6274 59.4069 25.8996C58.8902 26.1523 58.443 26.5023 58.0655 26.9495C57.6879 27.3772 57.3997 27.8633 57.201 28.4076C57.0023 28.952 56.883 29.4964 56.8433 30.0408Z" fill="#111827"/>
<path d="M71.7868 38.4691V17.1797H74.5293V38.4691H71.7868Z" fill="#111827"/>
<path d="M79.784 38.4691V25.8996H77.131V23.5957H79.784V21.4084C79.784 20.0863 80.1616 19.0559 80.9167 18.3171C81.6918 17.5588 82.755 17.1797 84.1063 17.1797H87.8622V19.4836H84.6429C83.9672 19.4836 83.4505 19.6683 83.0928 20.0377C82.7351 20.4071 82.5562 20.9223 82.5562 21.5834V23.5957H87.266V25.8996H82.5562V38.4691H79.784Z" fill="#111827"/>
<path d="M97.4094 38.819C95.9389 38.819 94.6173 38.508 93.4448 37.8858C92.2724 37.2636 91.3384 36.3693 90.6428 35.2028C89.9671 34.0168 89.6293 32.5975 89.6293 30.9449V17.1797H92.3717V26.2495H92.4314C92.7692 25.6468 93.2064 25.1219 93.7429 24.6747C94.2994 24.2275 94.9254 23.8776 95.6209 23.6248C96.3363 23.3721 97.0815 23.2457 97.8566 23.2457C99.2675 23.2457 100.529 23.5568 101.642 24.1789C102.755 24.8011 103.63 25.6857 104.265 26.8328C104.921 27.9605 105.249 29.302 105.249 30.8574C105.249 32.0823 105.05 33.1905 104.653 34.182C104.275 35.1541 103.739 35.9902 103.043 36.6901C102.348 37.39 101.523 37.9247 100.569 38.2941C99.6153 38.6441 98.562 38.819 97.4094 38.819ZM97.4094 36.5151C98.3434 36.5151 99.188 36.2915 99.9432 35.8443C100.718 35.3972 101.334 34.7653 101.791 33.9487C102.248 33.1321 102.477 32.16 102.477 31.0324C102.477 29.9436 102.248 28.9909 101.791 28.1743C101.354 27.3578 100.758 26.7162 100.003 26.2495C99.2476 25.7829 98.3931 25.5496 97.4392 25.5496C96.5052 25.5496 95.6507 25.7732 94.8757 26.2204C94.1205 26.6676 93.5144 27.3092 93.0573 28.1452C92.6201 28.9618 92.4015 29.9339 92.4015 31.0615C92.4015 32.1697 92.6201 33.1321 93.0573 33.9487C93.5144 34.7653 94.1205 35.3972 94.8757 35.8443C95.6507 36.2915 96.4953 36.5151 97.4094 36.5151Z" fill="#FF4B00"/>
<path d="M116.477 38.4691C114.808 38.4691 113.328 38.1677 112.036 37.565C110.744 36.9428 109.731 36.0777 108.995 34.9694C108.28 33.8418 107.922 32.5294 107.922 31.0324C107.922 29.5547 108.23 28.2327 108.846 27.0661C109.462 25.8801 110.317 24.9469 111.41 24.2664C112.503 23.5859 113.775 23.2457 115.225 23.2457C116.795 23.2457 118.097 23.5762 119.13 24.2373C120.184 24.8983 120.969 25.7927 121.485 26.9203C122.002 28.0285 122.26 29.2728 122.26 30.6532C122.26 30.8671 122.25 31.0907 122.23 31.324C122.23 31.5573 122.211 31.7615 122.171 31.9364H110.843C110.943 32.8502 111.251 33.6279 111.768 34.2695C112.284 34.8917 112.94 35.368 113.735 35.6985C114.55 36.0096 115.444 36.1651 116.418 36.1651H120.382V38.4691H116.477ZM110.814 30.0408H119.488C119.488 29.6714 119.448 29.2826 119.369 28.8743C119.289 28.4465 119.15 28.0382 118.951 27.6494C118.753 27.2411 118.484 26.8814 118.147 26.5703C117.829 26.2398 117.421 25.9774 116.924 25.7829C116.448 25.5885 115.881 25.4913 115.225 25.4913C114.53 25.4913 113.914 25.6274 113.377 25.8996C112.861 26.1523 112.413 26.5023 112.036 26.9495C111.658 27.3772 111.37 27.8633 111.171 28.4076C110.973 28.952 110.853 29.4964 110.814 30.0408Z" fill="#FF4B00"/>
<path d="M130.944 38.4691C129.593 38.4691 128.529 38.0899 127.754 37.3317C126.999 36.5734 126.622 35.543 126.622 34.2404V19.8627H129.364V34.0654C129.364 34.707 129.543 35.2222 129.901 35.611C130.278 35.9804 130.795 36.1651 131.451 36.1651H134.521V38.4691H130.944ZM123.998 25.8996V23.5957H134.581V25.8996H123.998Z" fill="#FF4B00"/>
<path d="M137.687 38.4691V36.1651H144.961C145.438 36.1651 145.845 36.0679 146.183 35.8735C146.541 35.6597 146.809 35.3875 146.988 35.0569C147.167 34.7264 147.256 34.3765 147.256 34.007C147.256 33.6571 147.177 33.3363 147.018 33.0446C146.859 32.7336 146.61 32.4905 146.272 32.3156C145.954 32.1211 145.567 32.0239 145.11 32.0239H142.04C141.066 32.0239 140.211 31.8684 139.476 31.5573C138.761 31.2268 138.194 30.7505 137.777 30.1283C137.379 29.5061 137.181 28.7479 137.181 27.8535C137.181 27.0953 137.37 26.3954 137.747 25.7538C138.125 25.1122 138.651 24.5969 139.327 24.2081C140.003 23.7998 140.778 23.5957 141.652 23.5957H148.657V25.8996H141.92C141.304 25.8996 140.817 26.0843 140.46 26.4537C140.102 26.8231 139.923 27.2606 139.923 27.7661C139.923 28.2521 140.102 28.6798 140.46 29.0492C140.837 29.3992 141.364 29.5742 142.04 29.5742H144.961C146.054 29.5742 146.968 29.7492 147.703 30.0991C148.458 30.4297 149.025 30.9157 149.402 31.5573C149.8 32.1989 149.999 32.9863 149.999 33.9196C149.999 34.7167 149.8 35.4652 149.402 36.1651C149.005 36.8456 148.448 37.3997 147.733 37.8275C147.038 38.2552 146.223 38.4691 145.289 38.4691H137.687Z" fill="#FF4B00"/>
<g clip-path="url(#clip1_2485_255093)">
<path d="M24.5762 16H11.5592C9.722 16.0025 7.96074 16.737 6.66162 18.0423C5.3625 19.3475 4.63154 21.1171 4.62901 22.9631C4.62315 24.0445 4.8763 25.1114 5.36708 26.0738C5.72043 26.7966 6.20106 27.4492 6.78571 28C8.07461 29.2416 9.79282 29.9322 11.5784 29.9262H20.3011C19.7289 28.77 18.8473 27.797 17.7551 27.1165C16.663 26.436 15.4036 26.0749 14.1185 26.0738H11.5592C10.7381 26.0738 9.9506 25.7461 9.36997 25.1627C8.78935 24.5793 8.46316 23.7881 8.46316 22.9631C8.46316 22.1381 8.78935 21.3468 9.36997 20.7634C9.9506 20.1801 10.7381 19.8523 11.5592 19.8523H24.5762C25.3973 19.8523 26.1848 20.1801 26.7654 20.7634C27.3461 21.3468 27.6722 22.1381 27.6722 22.9631C27.6722 23.7881 27.3461 24.5793 26.7654 25.1627C26.1848 25.7461 25.3973 26.0738 24.5762 26.0738H19.9273L22.3332 29.9262H24.5762C26.411 29.9185 28.1683 29.1822 29.4648 27.8777C30.7613 26.5733 31.4918 24.8066 31.4968 22.9631C31.4943 21.1188 30.7646 19.3507 29.4676 18.0456C28.1705 16.7406 26.4117 16.0051 24.5762 16V16Z" fill="#111827"/>
<path d="M29.3392 28.0005C28.0531 26.7546 26.333 26.0633 24.5465 26.0743H19.9263L22.3323 29.9267H24.5752C25.3964 29.9267 26.1839 30.2544 26.7645 30.8378C27.3451 31.4212 27.6713 32.2124 27.6713 33.0374C27.6713 33.8625 27.3451 34.6537 26.7645 35.2371C26.1839 35.8204 25.3964 36.1482 24.5752 36.1482H22.3323L19.9263 40.0005H24.5752C25.9625 40.0069 27.3196 39.5943 28.4706 38.8161C29.6215 38.038 30.5131 36.9303 31.0298 35.6367C31.5464 34.3432 31.6642 32.9234 31.3679 31.5618C31.0715 30.2001 30.3748 28.9594 29.3679 28.0005H29.3392ZM13.5137 36.1482L11.127 40.0005C11.2706 40.0101 11.4147 40.0101 11.5583 40.0005H14.0984C15.3835 39.9994 16.6429 39.6384 17.735 38.9579C18.8272 38.2774 19.7088 37.3044 20.281 36.1482H13.5137ZM14.0984 26.0743H11.5583C9.77273 26.0684 8.05452 26.7589 6.76562 28.0005C8.05452 29.2421 9.77273 29.9327 11.5583 29.9267H20.281C19.7088 28.7705 18.8272 27.7975 17.735 27.117C16.6429 26.4365 15.3835 26.0754 14.0984 26.0743Z" fill="#111827"/>
<path d="M20.282 29.9265C19.7099 28.7704 18.8282 27.7974 17.7361 27.1169C16.6439 26.4364 15.3846 26.0753 14.0995 26.0742H5.36719C5.72054 26.797 6.20116 27.4496 6.78582 28.0004C8.07472 29.242 9.79293 29.9325 11.5785 29.9265H14.1186C14.9398 29.9265 15.7273 30.2543 16.3079 30.8377C16.8885 31.421 17.2147 32.2123 17.2147 33.0373C17.2147 33.8623 16.8885 34.6536 16.3079 35.2369C15.7273 35.8203 14.9398 36.1481 14.1186 36.1481H13.5148L11.128 40.0004H14.1186C15.4037 39.9993 16.6631 39.6382 17.7552 38.9577C18.8474 38.2772 19.7291 37.3042 20.3012 36.1481C20.7864 35.1836 21.0392 34.118 21.0392 33.0373C21.0392 31.9566 20.7864 30.891 20.3012 29.9265H20.282Z" fill="#111827"/>
<path d="M8.05171 39.9988H0L2.40593 36.1465H10.4576L8.05171 39.9988Z" fill="#FF4B00"/>
</g>
</g>
<defs>
<clipPath id="clip0_2485_255093">
<rect width="150" height="56" fill="white"/>
</clipPath>
<clipPath id="clip1_2485_255093">
<rect width="31.4975" height="24" fill="white" transform="translate(0 16)"/>
</clipPath>
</defs>
</svg>
