<svg width="201" height="32" viewBox="0 0 201 32" fill="none" xmlns="http://www.w3.org/2000/svg">
<path d="M51.8124 29.9581V26.8862H61.5105C62.1464 26.8862 62.6896 26.7566 63.1401 26.4974C63.617 26.2122 63.9748 25.8493 64.2132 25.4086C64.4517 24.9679 64.571 24.5013 64.571 24.0087C64.571 23.5421 64.465 23.1144 64.253 22.7255C64.041 22.3108 63.7098 21.9867 63.2593 21.7534C62.8354 21.4942 62.3187 21.3646 61.7092 21.3646H57.6154C56.317 21.3646 55.1776 21.1572 54.1972 20.7424C53.2433 20.3017 52.4881 19.6666 51.9316 18.8371C51.4017 18.0075 51.1367 16.9965 51.1367 15.8041C51.1367 14.7931 51.3884 13.8598 51.8919 13.0044C52.3954 12.1489 53.0975 11.4619 53.9985 10.9435C54.8994 10.3991 55.9328 10.1269 57.0987 10.1269H66.439V13.1988H57.4564C56.635 13.1988 55.9858 13.4451 55.5088 13.9376C55.0319 14.4301 54.7934 15.0134 54.7934 15.6874C54.7934 16.3355 55.0319 16.9058 55.5088 17.3983C56.0123 17.865 56.7144 18.0983 57.6154 18.0983H61.5105C62.9679 18.0983 64.1867 18.3316 65.1672 18.7982C66.1741 19.2389 66.9292 19.887 67.4327 20.7424C67.9626 21.5979 68.2276 22.6478 68.2276 23.8921C68.2276 24.9549 67.9626 25.953 67.4327 26.8862C66.9027 27.7935 66.1608 28.5323 65.2069 29.1026C64.2795 29.673 63.1931 29.9581 61.9477 29.9581H51.8124Z" fill="white"/>
<path d="M83.3449 29.9581C81.1191 29.9581 79.145 29.5563 77.4227 28.7527C75.7003 27.9231 74.349 26.7696 73.3685 25.2919C72.4146 23.7884 71.9377 22.0386 71.9377 20.0425C71.9377 18.0723 72.3484 16.3096 73.1698 14.7542C73.9912 13.1729 75.1306 11.9286 76.588 11.0213C78.0454 10.1139 79.7412 9.66029 81.6755 9.66029C83.7688 9.66029 85.5044 10.101 86.8823 10.9824C88.2866 11.8638 89.3333 13.0562 90.0222 14.5598C90.7112 16.0374 91.0556 17.6965 91.0556 19.537C91.0556 19.8222 91.0424 20.1203 91.0159 20.4314C91.0159 20.7424 90.9894 21.0146 90.9364 21.2479H75.8328C75.9653 22.4663 76.376 23.5032 77.065 24.3587C77.7539 25.1883 78.6283 25.8234 79.6882 26.2641C80.7746 26.6788 81.967 26.8862 83.2654 26.8862H88.5516V29.9581H83.3449ZM75.7931 18.7204H87.3592C87.3592 18.2279 87.3062 17.7094 87.2002 17.165C87.0943 16.5947 86.9088 16.0503 86.6438 15.5319C86.3788 14.9875 86.0211 14.5079 85.5707 14.0931C85.1467 13.6525 84.6035 13.3025 83.9411 13.0433C83.3051 12.784 82.5499 12.6544 81.6755 12.6544C80.7481 12.6544 79.9267 12.8359 79.2112 13.1988C78.5223 13.5358 77.9261 14.0024 77.4227 14.5986C76.9192 15.169 76.535 15.817 76.27 16.5429C76.0051 17.2687 75.8461 17.9946 75.7931 18.7204Z" fill="white"/>
<path d="M95.7184 29.9581V1.57227H99.375V29.9581H95.7184Z" fill="white"/>
<path d="M106.382 29.9581V13.1988H102.844V10.1269H106.382V7.21055C106.382 5.44778 106.885 4.07385 107.892 3.08877C108.925 2.07777 110.343 1.57227 112.145 1.57227H117.153V4.64416H112.86C111.959 4.64416 111.27 4.89043 110.793 5.38297C110.316 5.87551 110.078 6.56247 110.078 7.44386V10.1269H116.358V13.1988H110.078V29.9581H106.382Z" fill="white"/>
<path d="M129.883 30.4247C127.922 30.4247 126.16 30.01 124.597 29.1804C123.033 28.3509 121.788 27.1584 120.86 25.603C119.959 24.0217 119.509 22.1293 119.509 19.9259V1.57227H123.166V13.6654H123.245C123.696 12.8618 124.279 12.1619 124.994 11.5656C125.736 10.9694 126.571 10.5028 127.498 10.1658C128.452 9.82879 129.446 9.66029 130.479 9.66029C132.36 9.66029 134.043 10.0751 135.527 10.9046C137.011 11.7341 138.176 12.9136 139.024 14.4431C139.899 15.9466 140.336 17.7353 140.336 19.8092C140.336 21.4424 140.071 22.92 139.541 24.2421C139.038 25.5382 138.322 26.6529 137.395 27.5861C136.467 28.5194 135.368 29.2323 134.096 29.7248C132.824 30.1914 131.42 30.4247 129.883 30.4247ZM129.883 27.3528C131.128 27.3528 132.254 27.0547 133.261 26.4585C134.295 25.8623 135.116 25.0198 135.725 23.931C136.335 22.8422 136.64 21.546 136.64 20.0425C136.64 18.5908 136.335 17.3206 135.725 16.2318C135.143 15.143 134.348 14.2876 133.341 13.6654C132.334 13.0433 131.194 12.7322 129.923 12.7322C128.677 12.7322 127.538 13.0303 126.504 13.6265C125.497 14.2228 124.689 15.0782 124.08 16.1929C123.497 17.2817 123.205 18.5779 123.205 20.0814C123.205 21.559 123.497 22.8422 124.08 23.931C124.689 25.0198 125.497 25.8623 126.504 26.4585C127.538 27.0547 128.664 27.3528 129.883 27.3528Z" fill="#FF4B00"/>
<path d="M155.307 29.9581C153.082 29.9581 151.107 29.5563 149.385 28.7527C147.663 27.9231 146.311 26.7696 145.331 25.2919C144.377 23.7884 143.9 22.0386 143.9 20.0425C143.9 18.0723 144.311 16.3096 145.132 14.7542C145.954 13.1729 147.093 11.9286 148.55 11.0213C150.008 10.1139 151.704 9.66029 153.638 9.66029C155.731 9.66029 157.467 10.101 158.845 10.9824C160.249 11.8638 161.296 13.0562 161.985 14.5598C162.674 16.0374 163.018 17.6965 163.018 19.537C163.018 19.8222 163.005 20.1203 162.978 20.4314C162.978 20.7424 162.952 21.0146 162.899 21.2479H147.795C147.928 22.4663 148.339 23.5032 149.027 24.3587C149.716 25.1883 150.591 25.8234 151.651 26.2641C152.737 26.6788 153.929 26.8862 155.228 26.8862H160.514V29.9581H155.307ZM147.756 18.7204H159.322C159.322 18.2279 159.269 17.7094 159.163 17.165C159.057 16.5947 158.871 16.0503 158.606 15.5319C158.341 14.9875 157.984 14.5079 157.533 14.0931C157.109 13.6525 156.566 13.3025 155.904 13.0433C155.268 12.784 154.512 12.6544 153.638 12.6544C152.711 12.6544 151.889 12.8359 151.174 13.1988C150.485 13.5358 149.889 14.0024 149.385 14.5986C148.882 15.169 148.497 15.817 148.233 16.5429C147.968 17.2687 147.809 17.9946 147.756 18.7204Z" fill="#FF4B00"/>
<path d="M174.597 29.9581C172.795 29.9581 171.377 29.4526 170.344 28.4416C169.337 27.4306 168.833 26.0567 168.833 24.3198V5.14966H172.49V24.0865C172.49 24.942 172.729 25.6289 173.206 26.1474C173.709 26.6399 174.398 26.8862 175.272 26.8862H179.366V29.9581H174.597ZM165.336 13.1988V10.1269H179.446V13.1988H165.336Z" fill="#FF4B00"/>
<path d="M183.588 29.9581V26.8862H193.286C193.922 26.8862 194.466 26.7566 194.916 26.4974C195.393 26.2122 195.751 25.8493 195.989 25.4086C196.228 24.9679 196.347 24.5013 196.347 24.0087C196.347 23.5421 196.241 23.1144 196.029 22.7255C195.817 22.3108 195.486 21.9867 195.035 21.7534C194.611 21.4942 194.095 21.3646 193.485 21.3646H189.391C188.093 21.3646 186.954 21.1572 185.973 20.7424C185.019 20.3017 184.264 19.6666 183.708 18.8371C183.178 18.0075 182.913 16.9965 182.913 15.8041C182.913 14.7931 183.164 13.8598 183.668 13.0044C184.171 12.1489 184.873 11.4619 185.774 10.9435C186.675 10.3991 187.709 10.1269 188.875 10.1269H198.215V13.1988H189.232C188.411 13.1988 187.762 13.4451 187.285 13.9376C186.808 14.4301 186.569 15.0134 186.569 15.6874C186.569 16.3355 186.808 16.9058 187.285 17.3983C187.788 17.865 188.49 18.0983 189.391 18.0983H193.286C194.744 18.0983 195.963 18.3316 196.943 18.7982C197.95 19.2389 198.705 19.887 199.209 20.7424C199.739 21.5979 200.004 22.6478 200.004 23.8921C200.004 24.9549 199.739 25.953 199.209 26.8862C198.679 27.7935 197.937 28.5323 196.983 29.1026C196.055 29.673 194.969 29.9581 193.724 29.9581H183.588Z" fill="#FF4B00"/>
<g clip-path="url(#clip0_2485_255124)">
<path d="M32.7768 0H15.4204C12.9707 0.00339718 10.6223 0.982632 8.89005 2.723C7.15784 4.46338 6.1832 6.82285 6.17982 9.28411C6.17201 10.726 6.50955 12.1485 7.16395 13.4318C7.6351 14.3955 8.27595 15.2656 9.05551 16C10.7741 17.6555 13.0651 18.5762 15.4459 18.5682H27.0765C26.3136 17.0267 25.1381 15.7293 23.6818 14.822C22.2256 13.9146 20.5464 13.4332 18.8329 13.4318H15.4204C14.3255 13.4318 13.2755 12.9948 12.5013 12.217C11.7271 11.4391 11.2922 10.3841 11.2922 9.28411C11.2922 8.18408 11.7271 7.1291 12.5013 6.35126C13.2755 5.57342 14.3255 5.13644 15.4204 5.13644H32.7768C33.8717 5.13644 34.9217 5.57342 35.6959 6.35126C36.4701 7.1291 36.905 8.18408 36.905 9.28411C36.905 10.3841 36.4701 11.4391 35.6959 12.217C34.9217 12.9948 33.8717 13.4318 32.7768 13.4318H26.5781L29.7861 18.5682H32.7768C35.2232 18.5581 37.5664 17.5762 39.2952 15.837C41.0239 14.0977 41.9978 11.7421 42.0046 9.28411C42.0012 6.82507 41.0283 4.46754 39.2989 2.72753C37.5694 0.987524 35.2243 0.00679059 32.7768 0V0Z" fill="white"/>
<path d="M39.1263 16C37.4114 14.3387 35.118 13.417 32.7358 13.4318H26.5755L29.7835 18.5683H32.7742C33.869 18.5683 34.9191 19.0052 35.6933 19.7831C36.4675 20.5609 36.9024 21.6159 36.9024 22.7159C36.9024 23.816 36.4675 24.8709 35.6933 25.6488C34.9191 26.4266 33.869 26.8636 32.7742 26.8636H29.7835L26.5755 32H32.7742C34.6239 32.0086 36.4334 31.4584 37.9681 30.4209C39.5027 29.3834 40.6916 27.9064 41.3805 26.1817C42.0693 24.4569 42.2264 22.5639 41.8313 20.7484C41.4362 18.9329 40.5071 17.2785 39.1646 16H39.1263ZM18.0251 26.8636L14.8426 32C15.0341 32.0128 15.2263 32.0128 15.4178 32H18.8047C20.5182 31.9986 22.1974 31.5172 23.6536 30.6098C25.1099 29.7025 26.2855 28.4052 27.0484 26.8636H18.0251ZM18.8047 13.4318H15.4178C13.0369 13.4238 10.7459 14.3445 9.02734 16C10.7459 17.6555 13.0369 18.5762 15.4178 18.5683H27.0484C26.2855 17.0267 25.1099 15.7294 23.6536 14.822C22.1974 13.9147 20.5182 13.4332 18.8047 13.4318Z" fill="white"/>
<path d="M27.055 18.5681C26.2921 17.0265 25.1165 15.7292 23.6603 14.8218C22.2041 13.9145 20.5249 13.4331 18.8113 13.4316H7.16797C7.63912 14.3954 8.27997 15.2654 9.05954 15.9999C10.7781 17.6553 13.0691 18.5761 15.45 18.5681H18.8369C19.9318 18.5681 20.9818 19.0051 21.756 19.7829C22.5302 20.5607 22.9651 21.6157 22.9651 22.7158C22.9651 23.8158 22.5302 24.8708 21.756 25.6486C20.9818 26.4264 19.9318 26.8634 18.8369 26.8634H18.0317L14.8493 31.9999H18.8369C20.5504 31.9984 22.2296 31.517 23.6858 30.6097C25.1421 29.7023 26.3177 28.405 27.0806 26.8634C27.7275 25.5774 28.0646 24.1567 28.0646 22.7158C28.0646 21.2748 27.7275 19.8541 27.0806 18.5681H27.055Z" fill="white"/>
<path d="M10.7437 31.9978H0.0078125L3.21581 26.8613H13.9517L10.7437 31.9978Z" fill="#FF4B00"/>
</g>
<defs>
<clipPath id="clip0_2485_255124">
<rect width="41.9979" height="32" fill="white"/>
</clipPath>
</defs>
</svg>
