<svg width="33" height="24" viewBox="0 0 33 24" fill="none" xmlns="http://www.w3.org/2000/svg">
<g clip-path="url(#clip0_2729_137839)">
<path d="M2.68183 23.9999H7.77275V11.6362L0.5 6.18164V21.8181C0.5 23.0253 1.47818 23.9999 2.68183 23.9999Z" fill="#4285F4"/>
<path d="M25.2266 23.9999H30.3175C31.5248 23.9999 32.4993 23.0217 32.4993 21.8181V6.18164L25.2266 11.6362" fill="#34A853"/>
<path d="M25.2266 2.18216V11.6367L32.4993 6.18217V3.27307C32.4993 0.574877 29.4193 -0.963309 27.2629 0.654877" fill="#FBBC04"/>
<path d="M7.77344 11.6362V2.18164L16.5007 8.72712L25.228 2.18164V11.6362L16.5007 18.1817" fill="#EA4335"/>
<path d="M0.5 3.27307V6.18217L7.77275 11.6367V2.18216L5.73638 0.654877C3.57637 -0.963309 0.5 0.574877 0.5 3.27307Z" fill="#C5221F"/>
</g>
<defs>
<clipPath id="clip0_2729_137839">
<rect width="32.0001" height="24.0001" fill="white" transform="translate(0.5)"/>
</clipPath>
</defs>
</svg>
