<svg width="27" height="20" viewBox="0 0 27 20" fill="none" xmlns="http://www.w3.org/2000/svg">
<g clip-path="url(#clip0_3213_129144)">
<path d="M20.4811 0H9.63367C8.10264 0.00212324 6.63493 0.614145 5.55233 1.70188C4.46973 2.78961 3.86059 4.26428 3.85848 5.80257C3.8536 6.70372 4.06456 7.59284 4.47354 8.39486C4.768 8.99719 5.16852 9.54099 5.65574 10C6.72982 11.0347 8.16166 11.6101 9.64964 11.6051H16.9186C16.4418 10.6417 15.707 9.83083 14.7969 9.26374C13.8868 8.69665 12.8373 8.39576 11.7664 8.39486H9.63367C8.94939 8.39486 8.29314 8.12175 7.80929 7.6356C7.32543 7.14945 7.05361 6.49009 7.05361 5.80257C7.05361 5.11505 7.32543 4.45569 7.80929 3.96954C8.29314 3.48339 8.94939 3.21027 9.63367 3.21027H20.4811C21.1654 3.21027 21.8216 3.48339 22.3055 3.96954C22.7894 4.45569 23.0612 5.11505 23.0612 5.80257C23.0612 6.49009 22.7894 7.14945 22.3055 7.6356C21.8216 8.12175 21.1654 8.39486 20.4811 8.39486H16.607L18.612 11.6051H20.4811C22.0101 11.5988 23.4746 10.9852 24.555 9.8981C25.6354 8.81106 26.2441 7.33882 26.2483 5.80257C26.2462 4.26567 25.6382 2.79221 24.5573 1.70471C23.4764 0.617202 22.0108 0.00424412 20.4811 0V0Z" fill="#111827"/>
<path d="M24.4509 9.99978C23.3792 8.96147 21.9458 8.38541 20.457 8.39464H16.6069L18.6118 11.6049H20.481C21.1653 11.6049 21.8215 11.878 22.3054 12.3642C22.7892 12.8503 23.0611 13.5097 23.0611 14.1972C23.0611 14.8847 22.7892 15.5441 22.3054 16.0302C21.8215 16.5164 21.1653 16.7895 20.481 16.7895H18.6118L16.6069 19.9998H20.481C21.637 20.0051 22.768 19.6612 23.7271 19.0128C24.6862 18.3644 25.4292 17.4413 25.8598 16.3633C26.2903 15.2853 26.3885 14.1022 26.1415 12.9675C25.8946 11.8328 25.3139 10.7988 24.4749 9.99978H24.4509ZM11.2631 16.7895L9.2741 19.9998C9.39379 20.0078 9.51387 20.0078 9.63355 19.9998H11.7503C12.8212 19.9989 13.8707 19.698 14.7808 19.1309C15.6909 18.5638 16.4257 17.753 16.9025 16.7895H11.2631ZM11.7503 8.39464H9.63355C8.14557 8.38965 6.71373 8.9651 5.63965 9.99978C6.71373 11.0345 8.14557 11.6099 9.63355 11.6049H16.9025C16.4257 10.6414 15.6909 9.83061 14.7808 9.26352C13.8707 8.69643 12.8212 8.39554 11.7503 8.39464Z" fill="#111827"/>
<path d="M16.9027 11.6048C16.4259 10.6413 15.6912 9.8305 14.781 9.26341C13.8709 8.69632 12.8215 8.39543 11.7505 8.39453H4.47363C4.76809 8.99685 5.16861 9.54066 5.65583 9.99967C6.72991 11.0343 8.16175 11.6098 9.64974 11.6048H11.7665C12.4508 11.6048 13.107 11.8779 13.5909 12.3641C14.0747 12.8502 14.3466 13.5096 14.3466 14.1971C14.3466 14.8846 14.0747 15.544 13.5909 16.0301C13.107 16.5163 12.4508 16.7894 11.7665 16.7894H11.2633L9.27431 19.9997H11.7665C12.8374 19.9988 13.8869 19.6979 14.797 19.1308C15.7071 18.5637 16.4419 17.7529 16.9186 16.7894C17.323 15.9857 17.5337 15.0977 17.5337 14.1971C17.5337 13.2965 17.323 12.4085 16.9186 11.6048H16.9027Z" fill="#111827"/>
<path d="M6.70976 19.9993H0L2.00494 16.7891H8.7147L6.70976 19.9993Z" fill="#FF4B00"/>
</g>
<defs>
<clipPath id="clip0_3213_129144">
<rect width="26.2479" height="20" fill="white"/>
</clipPath>
</defs>
</svg>
