<svg width="556" height="104" viewBox="0 0 556 104" fill="none" xmlns="http://www.w3.org/2000/svg">
<rect y="0.586426" width="0.586667" height="352" transform="rotate(-90 0 0.586426)" fill="#F3F4F6"/>
<rect y="7.04004" width="0.586667" height="352" transform="rotate(-90 0 7.04004)" fill="#F3F4F6"/>
<rect y="13.4932" width="0.586667" height="352" transform="rotate(-90 0 13.4932)" fill="#F3F4F6"/>
<rect y="19.9468" width="0.586667" height="352" transform="rotate(-90 0 19.9468)" fill="#F3F4F6"/>
<rect y="26.3999" width="0.586667" height="352" transform="rotate(-90 0 26.3999)" fill="#F3F4F6"/>
<rect y="32.8535" width="0.586667" height="352" transform="rotate(-90 0 32.8535)" fill="#F3F4F6"/>
<rect y="39.3066" width="0.586667" height="352" transform="rotate(-90 0 39.3066)" fill="#F3F4F6"/>
<rect y="45.7598" width="0.586667" height="352" transform="rotate(-90 0 45.7598)" fill="#F3F4F6"/>
<rect y="52.2134" width="0.586667" height="352" transform="rotate(-90 0 52.2134)" fill="#F3F4F6"/>
<rect y="58.6665" width="0.586667" height="352" transform="rotate(-90 0 58.6665)" fill="#F3F4F6"/>
<rect y="65.1201" width="0.586667" height="352" transform="rotate(-90 0 65.1201)" fill="#F3F4F6"/>
<rect width="0.586667" height="51.6267" fill="#F3F4F6"/>
<rect x="6.45312" width="0.586667" height="51.6267" fill="#F3F4F6"/>
<rect x="12.9062" width="0.586667" height="51.6267" fill="#F3F4F6"/>
<rect x="19.3594" width="0.586667" height="51.6267" fill="#F3F4F6"/>
<rect x="25.8125" width="0.586667" height="51.6267" fill="#F3F4F6"/>
<rect x="32.2676" width="0.586667" height="51.6267" fill="#F3F4F6"/>
<rect x="38.7207" width="0.586667" height="51.6267" fill="#F3F4F6"/>
<rect x="45.1738" width="0.586667" height="51.6267" fill="#F3F4F6"/>
<rect x="51.627" width="0.586667" height="51.6267" fill="#F3F4F6"/>
<rect x="58.0801" width="0.586667" height="51.6267" fill="#F3F4F6"/>
<rect x="64.5332" width="0.586667" height="51.6267" fill="#F3F4F6"/>
<rect x="70.9863" width="0.586667" height="51.6267" fill="#F3F4F6"/>
<rect x="77.4395" width="0.586667" height="51.6267" fill="#F3F4F6"/>
<rect x="83.8926" width="0.586667" height="51.6267" fill="#F3F4F6"/>
<rect x="90.3457" width="0.586667" height="51.6267" fill="#F3F4F6"/>
<rect x="96.8008" width="0.586667" height="51.6267" fill="#F3F4F6"/>
<rect x="103.254" width="0.586667" height="51.6267" fill="#F3F4F6"/>
<rect x="109.707" width="0.586667" height="51.6267" fill="#F3F4F6"/>
<rect x="116.16" width="0.586667" height="51.6267" fill="#F3F4F6"/>
<rect x="122.613" width="0.586667" height="51.6267" fill="#F3F4F6"/>
<rect x="129.066" width="0.586667" height="51.6267" fill="#F3F4F6"/>
<rect x="135.52" width="0.586667" height="51.6267" fill="#F3F4F6"/>
<rect x="141.973" width="0.586667" height="51.6267" fill="#F3F4F6"/>
<rect x="148.426" width="0.586667" height="51.6267" fill="#F3F4F6"/>
<rect x="154.881" width="0.586667" height="51.6267" fill="#F3F4F6"/>
<rect x="161.334" width="0.586667" height="51.6267" fill="#F3F4F6"/>
<rect x="167.787" width="0.586667" height="51.6267" fill="#F3F4F6"/>
<rect x="174.24" width="0.586667" height="51.6267" fill="#F3F4F6"/>
<rect x="180.693" width="0.586667" height="51.6267" fill="#F3F4F6"/>
<rect x="187.146" width="0.586667" height="51.6267" fill="#F3F4F6"/>
<rect x="193.6" width="0.586667" height="51.6267" fill="#F3F4F6"/>
<rect x="200.053" width="0.586667" height="51.6267" fill="#F3F4F6"/>
<rect x="206.506" width="0.586667" height="51.6267" fill="#F3F4F6"/>
<rect x="212.961" width="0.586667" height="51.6267" fill="#F3F4F6"/>
<rect x="219.414" width="0.586667" height="51.6267" fill="#F3F4F6"/>
<rect x="225.867" width="0.586667" height="51.6267" fill="#F3F4F6"/>
<rect x="232.32" width="0.586667" height="51.6267" fill="#F3F4F6"/>
<rect x="238.773" width="0.586667" height="51.6267" fill="#F3F4F6"/>
<rect x="245.227" width="0.586667" height="51.6267" fill="#F3F4F6"/>
<rect x="251.68" width="0.586667" height="51.6267" fill="#F3F4F6"/>
<rect x="258.133" width="0.586667" height="51.6267" fill="#F3F4F6"/>
<rect x="264.586" width="0.586667" height="51.6267" fill="#F3F4F6"/>
<rect x="271.041" width="0.586667" height="51.6267" fill="#F3F4F6"/>
<rect x="277.494" width="0.586667" height="51.6267" fill="#F3F4F6"/>
<rect x="283.947" width="0.586667" height="51.6267" fill="#F3F4F6"/>
<rect x="290.4" width="0.586667" height="51.6267" fill="#F3F4F6"/>
<rect x="296.854" width="0.586667" height="51.6267" fill="#F3F4F6"/>
<rect x="303.307" width="0.586667" height="51.6267" fill="#F3F4F6"/>
<rect x="309.76" width="0.586667" height="51.6267" fill="#F3F4F6"/>
<rect x="316.213" width="0.586667" height="51.6267" fill="#F3F4F6"/>
<rect x="322.666" width="0.586667" height="51.6267" fill="#F3F4F6"/>
<rect x="329.121" width="0.586667" height="51.6267" fill="#F3F4F6"/>
<rect x="335.574" width="0.586667" height="51.6267" fill="#F3F4F6"/>
<rect x="342.027" width="0.586667" height="51.6267" fill="#F3F4F6"/>
<rect x="348.48" width="0.586667" height="51.6267" fill="#F3F4F6"/>
<rect x="354.934" width="0.586667" height="51.6267" fill="#F3F4F6"/>
<rect x="361.387" width="0.586667" height="51.6267" fill="#F3F4F6"/>
<rect x="367.84" width="0.586667" height="51.6267" fill="#F3F4F6"/>
<rect x="374.293" width="0.586667" height="51.6267" fill="#F3F4F6"/>
<rect x="380.746" width="0.586667" height="51.6267" fill="#F3F4F6"/>
<rect x="387.199" width="0.586667" height="51.6267" fill="#F3F4F6"/>
<rect x="393.654" width="0.586667" height="51.6267" fill="#F3F4F6"/>
<rect x="400.107" width="0.586667" height="51.6267" fill="#F3F4F6"/>
<rect x="406.561" width="0.586667" height="51.6267" fill="#F3F4F6"/>
<rect x="413.014" width="0.586667" height="51.6267" fill="#F3F4F6"/>
<rect x="419.467" width="0.586667" height="51.6267" fill="#F3F4F6"/>
<rect x="425.92" width="0.586667" height="51.6267" fill="#F3F4F6"/>
<rect x="432.373" width="0.586667" height="51.6267" fill="#F3F4F6"/>
<rect x="438.826" width="0.586667" height="51.6267" fill="#F3F4F6"/>
<rect x="445.279" width="0.586667" height="51.6267" fill="#F3F4F6"/>
<rect x="451.734" width="0.586667" height="51.6267" fill="#F3F4F6"/>
<rect x="458.188" width="0.586667" height="51.6267" fill="#F3F4F6"/>
<rect x="464.641" width="0.586667" height="51.6267" fill="#F3F4F6"/>
<rect x="471.094" width="0.586667" height="51.6267" fill="#F3F4F6"/>
<rect x="477.547" width="0.586667" height="51.6267" fill="#F3F4F6"/>
<rect x="484" width="0.586667" height="51.6267" fill="#F3F4F6"/>
<rect x="490.453" width="0.586667" height="51.6267" fill="#F3F4F6"/>
<rect x="496.906" width="0.586667" height="51.6267" fill="#F3F4F6"/>
<rect x="503.359" width="0.586667" height="51.6267" fill="#F3F4F6"/>
<rect x="509.814" width="0.586667" height="51.6267" fill="#F3F4F6"/>
<rect x="516.268" width="0.586667" height="51.6267" fill="#F3F4F6"/>
<rect x="522.721" width="0.586667" height="51.6267" fill="#F3F4F6"/>
<rect x="529.174" width="0.586667" height="51.6267" fill="#F3F4F6"/>
<rect x="535.627" width="0.586667" height="51.6267" fill="#F3F4F6"/>
<rect x="542.08" width="0.586667" height="51.6267" fill="#F3F4F6"/>
<rect x="548.533" width="0.586667" height="51.6267" fill="#F3F4F6"/>
<rect x="554.986" width="0.586667" height="51.6267" fill="#F3F4F6"/>
<rect y="51.627" width="0.586667" height="51.6267" fill="#F3F4F6"/>
<rect x="6.45312" y="51.627" width="0.586667" height="51.6267" fill="#F3F4F6"/>
<rect x="12.9062" y="51.627" width="0.586667" height="51.6267" fill="#F3F4F6"/>
<rect x="19.3594" y="51.627" width="0.586667" height="51.6267" fill="#F3F4F6"/>
<rect x="25.8125" y="51.627" width="0.586667" height="51.6267" fill="#F3F4F6"/>
<rect x="32.2676" y="51.627" width="0.586667" height="51.6267" fill="#F3F4F6"/>
<rect x="38.7207" y="51.627" width="0.586667" height="51.6267" fill="#F3F4F6"/>
<rect x="45.1738" y="51.627" width="0.586667" height="51.6267" fill="#F3F4F6"/>
<rect x="51.627" y="51.627" width="0.586667" height="51.6267" fill="#F3F4F6"/>
<rect x="58.0801" y="51.627" width="0.586667" height="51.6267" fill="#F3F4F6"/>
<rect x="64.5332" y="51.627" width="0.586667" height="51.6267" fill="#F3F4F6"/>
<rect x="70.9863" y="51.627" width="0.586667" height="51.6267" fill="#F3F4F6"/>
<rect x="77.4395" y="51.627" width="0.586667" height="51.6267" fill="#F3F4F6"/>
<rect x="83.8926" y="51.627" width="0.586667" height="51.6267" fill="#F3F4F6"/>
<rect x="90.3457" y="51.627" width="0.586667" height="51.6267" fill="#F3F4F6"/>
<rect x="96.8008" y="51.627" width="0.586667" height="51.6267" fill="#F3F4F6"/>
<rect x="103.254" y="51.627" width="0.586667" height="51.6267" fill="#F3F4F6"/>
<rect x="109.707" y="51.627" width="0.586667" height="51.6267" fill="#F3F4F6"/>
<rect x="116.16" y="51.627" width="0.586667" height="51.6267" fill="#F3F4F6"/>
<rect x="122.613" y="51.627" width="0.586667" height="51.6267" fill="#F3F4F6"/>
<rect x="129.066" y="51.627" width="0.586667" height="51.6267" fill="#F3F4F6"/>
<rect x="135.52" y="51.627" width="0.586667" height="51.6267" fill="#F3F4F6"/>
<rect x="141.973" y="51.627" width="0.586667" height="51.6267" fill="#F3F4F6"/>
<rect x="148.426" y="51.627" width="0.586667" height="51.6267" fill="#F3F4F6"/>
<rect x="154.881" y="51.627" width="0.586667" height="51.6267" fill="#F3F4F6"/>
<rect x="161.334" y="51.627" width="0.586667" height="51.6267" fill="#F3F4F6"/>
<rect x="167.787" y="51.627" width="0.586667" height="51.6267" fill="#F3F4F6"/>
<rect x="174.24" y="51.627" width="0.586667" height="51.6267" fill="#F3F4F6"/>
<rect x="180.693" y="51.627" width="0.586667" height="51.6267" fill="#F3F4F6"/>
<rect x="187.146" y="51.627" width="0.586667" height="51.6267" fill="#F3F4F6"/>
<rect x="193.6" y="51.627" width="0.586667" height="51.6267" fill="#F3F4F6"/>
<rect x="200.053" y="51.627" width="0.586667" height="51.6267" fill="#F3F4F6"/>
<rect x="206.506" y="51.627" width="0.586667" height="51.6267" fill="#F3F4F6"/>
<rect x="212.961" y="51.627" width="0.586667" height="51.6267" fill="#F3F4F6"/>
<rect x="219.414" y="51.627" width="0.586667" height="51.6267" fill="#F3F4F6"/>
<rect x="225.867" y="51.627" width="0.586667" height="51.6267" fill="#F3F4F6"/>
<rect x="232.32" y="51.627" width="0.586667" height="51.6267" fill="#F3F4F6"/>
<rect x="238.773" y="51.627" width="0.586667" height="51.6267" fill="#F3F4F6"/>
<rect x="245.227" y="51.627" width="0.586667" height="51.6267" fill="#F3F4F6"/>
<rect x="251.68" y="51.627" width="0.586667" height="51.6267" fill="#F3F4F6"/>
<rect x="258.133" y="51.627" width="0.586667" height="51.6267" fill="#F3F4F6"/>
<rect x="264.586" y="51.627" width="0.586667" height="51.6267" fill="#F3F4F6"/>
<rect x="271.041" y="51.627" width="0.586667" height="51.6267" fill="#F3F4F6"/>
<rect x="277.494" y="51.627" width="0.586667" height="51.6267" fill="#F3F4F6"/>
<rect x="283.947" y="51.627" width="0.586667" height="51.6267" fill="#F3F4F6"/>
<rect x="290.4" y="51.627" width="0.586667" height="51.6267" fill="#F3F4F6"/>
<rect x="296.854" y="51.627" width="0.586667" height="51.6267" fill="#F3F4F6"/>
<rect x="303.307" y="51.627" width="0.586667" height="51.6267" fill="#F3F4F6"/>
<rect x="309.76" y="51.627" width="0.586667" height="51.6267" fill="#F3F4F6"/>
<rect x="316.213" y="51.627" width="0.586667" height="51.6267" fill="#F3F4F6"/>
<rect x="322.666" y="51.627" width="0.586667" height="51.6267" fill="#F3F4F6"/>
<rect x="329.121" y="51.627" width="0.586667" height="51.6267" fill="#F3F4F6"/>
<rect x="335.574" y="51.627" width="0.586667" height="51.6267" fill="#F3F4F6"/>
<rect x="342.027" y="51.627" width="0.586667" height="51.6267" fill="#F3F4F6"/>
<rect x="348.48" y="51.627" width="0.586667" height="51.6267" fill="#F3F4F6"/>
<rect x="354.934" y="51.627" width="0.586667" height="51.6267" fill="#F3F4F6"/>
<rect x="361.387" y="51.627" width="0.586667" height="51.6267" fill="#F3F4F6"/>
<rect x="367.84" y="51.627" width="0.586667" height="51.6267" fill="#F3F4F6"/>
<rect x="374.293" y="51.627" width="0.586667" height="51.6267" fill="#F3F4F6"/>
<rect x="380.746" y="51.627" width="0.586667" height="51.6267" fill="#F3F4F6"/>
<rect x="387.199" y="51.627" width="0.586667" height="51.6267" fill="#F3F4F6"/>
<rect x="393.654" y="51.627" width="0.586667" height="51.6267" fill="#F3F4F6"/>
<rect x="400.107" y="51.627" width="0.586667" height="51.6267" fill="#F3F4F6"/>
<rect x="406.561" y="51.627" width="0.586667" height="51.6267" fill="#F3F4F6"/>
<rect x="413.014" y="51.627" width="0.586667" height="51.6267" fill="#F3F4F6"/>
<rect x="419.467" y="51.627" width="0.586667" height="51.6267" fill="#F3F4F6"/>
<rect x="425.92" y="51.627" width="0.586667" height="51.6267" fill="#F3F4F6"/>
<rect x="432.373" y="51.627" width="0.586667" height="51.6267" fill="#F3F4F6"/>
<rect x="438.826" y="51.627" width="0.586667" height="51.6267" fill="#F3F4F6"/>
<rect x="445.279" y="51.627" width="0.586667" height="51.6267" fill="#F3F4F6"/>
<rect x="451.734" y="51.627" width="0.586667" height="51.6267" fill="#F3F4F6"/>
<rect x="458.188" y="51.627" width="0.586667" height="51.6267" fill="#F3F4F6"/>
<rect x="464.641" y="51.627" width="0.586667" height="51.6267" fill="#F3F4F6"/>
<rect x="471.094" y="51.627" width="0.586667" height="51.6267" fill="#F3F4F6"/>
<rect x="477.547" y="51.627" width="0.586667" height="51.6267" fill="#F3F4F6"/>
<rect x="484" y="51.627" width="0.586667" height="51.6267" fill="#F3F4F6"/>
<rect x="490.453" y="51.627" width="0.586667" height="51.6267" fill="#F3F4F6"/>
<rect x="496.906" y="51.627" width="0.586667" height="51.6267" fill="#F3F4F6"/>
<rect x="503.359" y="51.627" width="0.586667" height="51.6267" fill="#F3F4F6"/>
<rect x="509.814" y="51.627" width="0.586667" height="51.6267" fill="#F3F4F6"/>
<rect x="516.268" y="51.627" width="0.586667" height="51.6267" fill="#F3F4F6"/>
<rect x="522.721" y="51.627" width="0.586667" height="51.6267" fill="#F3F4F6"/>
<rect x="529.174" y="51.627" width="0.586667" height="51.6267" fill="#F3F4F6"/>
<rect x="535.627" y="51.627" width="0.586667" height="51.6267" fill="#F3F4F6"/>
<rect x="542.08" y="51.627" width="0.586667" height="51.6267" fill="#F3F4F6"/>
<rect x="548.533" y="51.627" width="0.586667" height="51.6267" fill="#F3F4F6"/>
<rect x="554.986" y="51.627" width="0.586667" height="51.6267" fill="#F3F4F6"/>
</svg>
