<svg width="40" height="40" viewBox="0 0 40 40" fill="none" xmlns="http://www.w3.org/2000/svg">
<rect width="39.9998" height="39.9998" rx="6.66664" fill="#F3F4F6"/>
<path d="M20.0165 12.4258C17.2581 12.4258 15.0165 14.6674 15.0165 17.4258V19.8341C15.0165 20.3424 14.7998 21.1174 14.5415 21.5507L13.5832 23.1424C12.9915 24.1257 13.3998 25.2174 14.4832 25.5841C18.0748 26.7841 21.9498 26.7841 25.5414 25.5841C26.5498 25.2507 26.9914 24.0591 26.4414 23.1424L25.4831 21.5507C25.2331 21.1174 25.0164 20.3424 25.0164 19.8341V17.4258C25.0164 14.6758 22.7665 12.4258 20.0165 12.4258Z" stroke="#111827" stroke-width="1.24999" stroke-miterlimit="10" stroke-linecap="round"/>
<path d="M21.5579 12.6652C21.2996 12.5902 21.0329 12.5319 20.7579 12.4986C19.9579 12.3986 19.1913 12.4569 18.4746 12.6652C18.7163 12.0486 19.3163 11.6152 20.0163 11.6152C20.7163 11.6152 21.3163 12.0486 21.5579 12.6652Z" stroke="#111827" stroke-width="1.24999" stroke-miterlimit="10" stroke-linecap="round" stroke-linejoin="round"/>
<path d="M22.5166 25.8828C22.5166 27.2578 21.3916 28.3828 20.0166 28.3828C19.3333 28.3828 18.6999 28.0995 18.2499 27.6495C17.7999 27.1995 17.5166 26.5661 17.5166 25.8828" stroke="#111827" stroke-width="1.24999" stroke-miterlimit="10"/>
</svg>
