<svg width="48" height="48" viewBox="0 0 48 48" fill="none" xmlns="http://www.w3.org/2000/svg">
<rect width="48" height="48" rx="24" fill="#F3F4F6"/>
<path d="M24.001 14C18.481 14 14.001 18.48 14.001 24C14.001 29.52 18.481 34 24.001 34C29.521 34 34.001 29.52 34.001 24C34.001 18.48 29.521 14 24.001 14ZM25.001 17.3L26.351 16.35C28.171 16.91 29.721 18.11 30.731 19.69L30.341 21.03L28.991 21.49L25.001 18.7V17.3ZM21.651 16.35L23.001 17.3V18.7L19.011 21.49L17.661 21.03L17.271 19.69C18.281 18.12 19.831 16.92 21.651 16.35ZM19.081 29.11L17.941 29.21C16.731 27.81 16.001 25.99 16.001 24C16.001 23.88 16.011 23.77 16.021 23.65L17.021 22.92L18.401 23.4L19.861 27.74L19.081 29.11ZM26.501 31.59C25.711 31.85 24.871 32 24.001 32C23.131 32 22.291 31.85 21.501 31.59L20.811 30.1L21.451 29H26.561L27.201 30.11L26.501 31.59ZM26.271 27H21.731L20.381 22.98L24.001 20.44L27.631 22.98L26.271 27ZM30.061 29.21L28.921 29.11L28.131 27.74L29.591 23.4L30.981 22.93L31.981 23.66C31.991 23.77 32.001 23.88 32.001 24C32.001 25.99 31.271 27.81 30.061 29.21Z" fill="#374151"/>
</svg>
